<?xml version="1.0" encoding="iso-8859-1"?>
<!-- Generator: Adobe Illustrator 17.1.0, SVG Export Plug-In . SVG Version: 6.00 Build 0)  -->
<!DOCTYPE svg PUBLIC "-//W3C//DTD SVG 1.1//EN" "http://www.w3.org/Graphics/SVG/1.1/DTD/svg11.dtd">
<svg version="1.1" id="Capa_1" xmlns="http://www.w3.org/2000/svg" xmlns:xlink="http://www.w3.org/1999/xlink" x="0px" y="0px"
	 viewBox="0 0 465 465" style="enable-background:new 0 0 465 465;" xml:space="preserve">
<path d="M417.5,145c-14.232,0-27.012,6.3-35.725,16.248C367.316,92.098,305.88,40,232.5,40S97.684,92.098,83.225,161.248
	C74.512,151.3,61.732,145,47.5,145C21.309,145,0,166.309,0,192.5v225c0,4.143,3.358,7.5,7.5,7.5h450c4.143,0,7.5-3.357,7.5-7.5v-225
	C465,166.309,443.691,145,417.5,145z M450,410H15V192.5c0-17.921,14.58-32.5,32.5-32.5S80,174.579,80,192.5
	C80,276.589,148.411,345,232.5,345c34.912,0,69.042-12.108,96.101-34.096c3.215-2.611,3.703-7.335,1.091-10.55
	s-7.334-3.705-10.55-1.091C294.748,319.084,263.979,330,232.5,330C156.682,330,95,268.317,95,192.5S156.682,55,232.5,55
	C308.317,55,370,116.683,370,192.5c0,31.479-10.916,62.248-30.736,86.642c-2.612,3.215-2.124,7.938,1.091,10.55
	s7.939,2.123,10.55-1.091C372.892,261.542,385,227.412,385,192.5c0-17.921,14.579-32.5,32.5-32.5s32.5,14.579,32.5,32.5V410z"/>
<g>
</g>
<g>
</g>
<g>
</g>
<g>
</g>
<g>
</g>
<g>
</g>
<g>
</g>
<g>
</g>
<g>
</g>
<g>
</g>
<g>
</g>
<g>
</g>
<g>
</g>
<g>
</g>
<g>
</g>
</svg>
