<?xml version="1.0" encoding="iso-8859-1"?>
<!-- Generator: Adobe Illustrator 17.1.0, SVG Export Plug-In . SVG Version: 6.00 Build 0)  -->
<!DOCTYPE svg PUBLIC "-//W3C//DTD SVG 1.1//EN" "http://www.w3.org/Graphics/SVG/1.1/DTD/svg11.dtd">
<svg version="1.1" id="Capa_1" xmlns="http://www.w3.org/2000/svg" xmlns:xlink="http://www.w3.org/1999/xlink" x="0px" y="0px"
	 viewBox="0 0 465 465" style="enable-background:new 0 0 465 465;" xml:space="preserve">
<g>
	<path d="M340,335h-57.343l1.332-61.462c22.229-13.29,42.475-35.134,57.346-61.985C356.596,183.997,365,153.616,365,126.006
		c0-27.074-8.112-53.111-23.46-75.297c-14.846-21.462-35.419-37.909-59.52-47.625C277.666,1.065,272.755,0,267.5,0h-70
		c-5.256,0-10.168,1.066-14.523,3.085c-24.099,9.716-44.671,26.163-59.516,47.622C108.113,72.894,100,98.932,100,126.006
		c0,27.609,8.404,57.989,23.663,85.544c14.871,26.852,35.118,48.697,57.348,61.988L182.343,335H125c-35.841,0-65,29.159-65,65
		s29.159,65,65,65h215c35.841,0,65-29.159,65-65S375.841,335,340,335z M350,126.006c0,48.134-28.023,102.134-65.616,129.311
		l3.627-167.336c1.216-2.703,2.146-5.524,2.726-8.428l8.233-41.166c0.605-3.025,0.822-6.005,0.676-8.895
		C330.878,51.104,350,86.712,350,126.006z M267.5,15c5.691,0,10.542,2.094,13.659,5.896s4.219,8.97,3.103,14.55l-8.233,41.166
		C273.493,89.29,260.429,100,247.5,100h-30c-12.929,0-25.993-10.71-28.529-23.388l-8.233-41.166
		c-1.116-5.58-0.014-10.747,3.103-14.55S191.809,15,197.5,15H267.5z M115,126.006c0-39.295,19.123-74.902,50.353-96.513
		c-0.146,2.89,0.071,5.87,0.676,8.895l8.233,41.166c0.581,2.904,1.511,5.725,2.726,8.428l3.627,167.335
		C143.024,228.139,115,174.139,115,126.006z M125,450c-27.57,0-50-22.43-50-50s22.43-50,50-50h57.668l0.542,25.001L147.5,375
		c-4.142,0-7.5,3.358-7.5,7.5s3.358,7.5,7.5,7.5l36.035,0.001l0.491,22.672c0.316,14.605,6.626,27.825,16.516,37.327H125z M340,450
		H237.5c-20.767,0-38.027-16.891-38.477-37.651l-6.629-305.82c7.368,5.276,16.181,8.471,25.106,8.471h30
		c8.925,0,17.738-3.195,25.106-8.471l-5.654,260.812c-0.131,6.022,2.112,11.704,6.314,15.999c4.202,4.294,9.834,6.659,15.858,6.659
		H317.5c4.142,0,7.5-3.357,7.5-7.5s-3.358-7.5-7.5-7.5h-28.375c-1.956,0-3.781-0.764-5.138-2.15s-2.081-3.228-2.039-5.184
		L282.332,350H340c27.57,0,50,22.43,50,50S367.57,450,340,450z"/>
	<path d="M207.197,72.804C208.661,74.268,210.581,75,212.5,75s3.839-0.732,5.303-2.196c2.929-2.93,2.929-7.678,0-10.607l-10-10
		c-2.929-2.928-7.678-2.928-10.606,0c-2.929,2.93-2.929,7.678,0,10.607L207.197,72.804z"/>
	<path d="M252.5,75c1.919,0,3.839-0.732,5.303-2.196l10-10c2.929-2.93,2.929-7.678,0-10.607c-2.929-2.928-7.678-2.928-10.606,0
		l-10,10c-2.929,2.93-2.929,7.678,0,10.607C248.661,74.268,250.581,75,252.5,75z"/>
</g>
<g>
</g>
<g>
</g>
<g>
</g>
<g>
</g>
<g>
</g>
<g>
</g>
<g>
</g>
<g>
</g>
<g>
</g>
<g>
</g>
<g>
</g>
<g>
</g>
<g>
</g>
<g>
</g>
<g>
</g>
</svg>
