<?xml version="1.0" encoding="iso-8859-1"?>
<!-- Generator: Adobe Illustrator 17.1.0, SVG Export Plug-In . SVG Version: 6.00 Build 0)  -->
<!DOCTYPE svg PUBLIC "-//W3C//DTD SVG 1.1//EN" "http://www.w3.org/Graphics/SVG/1.1/DTD/svg11.dtd">
<svg version="1.1" id="Capa_1" xmlns="http://www.w3.org/2000/svg" xmlns:xlink="http://www.w3.org/1999/xlink" x="0px" y="0px"
	 viewBox="0 0 475 475" style="enable-background:new 0 0 475 475;" xml:space="preserve">
<path d="M467.5,91.149c4.142,0,7.5-3.358,7.5-7.5s-3.358-7.5-7.5-7.5H7.5c-4.142,0-7.5,3.358-7.5,7.5s3.358,7.5,7.5,7.5H32v15.024
	c-3.706,0.246-6.71,3.182-6.98,6.937l-20,277.701c-0.15,2.077,0.571,4.123,1.99,5.648c1.418,1.524,3.408,2.391,5.49,2.391h181.542
	c4.142,0,7.5-3.358,7.5-7.5v-22.5h71.915v22.5c0,4.142,3.358,7.5,7.5,7.5H462.5c2.083,0,4.072-0.866,5.49-2.391
	c1.419-1.525,2.14-3.571,1.99-5.648l-20-277.701c-0.27-3.755-3.275-6.692-6.98-6.937V91.149H467.5z M288.458,248.432
	c0-4.142-3.358-7.5-7.5-7.5s-7.5,3.358-7.5,7.5v105.419h-29.93v-27.006c0-4.142-3.358-7.5-7.5-7.5s-7.5,3.358-7.5,7.5v27.006
	h-26.985V248.432c0-4.142-3.358-7.5-7.5-7.5s-7.5,3.358-7.5,7.5v135.419h-10.142V248.432c0-4.142-3.358-7.5-7.5-7.5
	s-7.5,3.358-7.5,7.5v135.419h-21.887V248.432c0-4.142-3.358-7.5-7.5-7.5s-7.5,3.358-7.5,7.5v135.419h-10.142V248.432
	c0-4.142-3.358-7.5-7.5-7.5s-7.5,3.358-7.5,7.5v135.419H80V187.934h19.373v34.906c-1.539,1.374-2.514,3.366-2.514,5.592
	c0,4.142,3.358,7.5,7.5,7.5h30.17c4.142,0,7.5-3.358,7.5-7.5c0-2.225-0.975-4.218-2.514-5.592v-34.906h21.887v34.906
	c-1.539,1.374-2.514,3.366-2.514,5.592c0,4.142,3.358,7.5,7.5,7.5h30.17c4.142,0,7.5-3.358,7.5-7.5c0-2.225-0.975-4.218-2.514-5.592
	v-34.906h71.915v34.906c-1.539,1.374-2.514,3.366-2.514,5.592c0,4.142,3.358,7.5,7.5,7.5h30.17c4.142,0,7.5-3.358,7.5-7.5
	c0-2.225-0.975-4.218-2.514-5.592v-34.906h21.887v34.906c-1.539,1.374-2.514,3.366-2.514,5.592c0,4.142,3.358,7.5,7.5,7.5h30.17
	c4.142,0,7.5-3.358,7.5-7.5c0-2.225-0.975-4.218-2.514-5.592v-34.906H395v195.917h-19.373V248.432c0-4.142-3.358-7.5-7.5-7.5
	s-7.5,3.358-7.5,7.5v135.419h-10.142V248.432c0-4.142-3.358-7.5-7.5-7.5s-7.5,3.358-7.5,7.5v135.419h-21.887V248.432
	c0-4.142-3.358-7.5-7.5-7.5s-7.5,3.358-7.5,7.5v135.419h-10.142V248.432z M124.514,187.934v32.998h-10.142v-32.998H124.514z
	 M186.542,187.934v32.998h-10.142v-32.998H186.542z M298.599,187.934v32.998h-10.142v-32.998H298.599z M360.627,187.934v32.998
	h-10.142v-32.998H360.627z M454.44,383.851H410V180.434c0-4.142-3.358-7.5-7.5-7.5h-330c-4.142,0-7.5,3.358-7.5,7.5v203.417H20.56
	l18.92-262.701h396.041L454.44,383.851z M428,106.149H47v-15h381V106.149z"/>
<g>
</g>
<g>
</g>
<g>
</g>
<g>
</g>
<g>
</g>
<g>
</g>
<g>
</g>
<g>
</g>
<g>
</g>
<g>
</g>
<g>
</g>
<g>
</g>
<g>
</g>
<g>
</g>
<g>
</g>
</svg>
