<?xml version="1.0" encoding="iso-8859-1"?>
<!-- Generator: Adobe Illustrator 17.1.0, SVG Export Plug-In . SVG Version: 6.00 Build 0)  -->
<!DOCTYPE svg PUBLIC "-//W3C//DTD SVG 1.1//EN" "http://www.w3.org/Graphics/SVG/1.1/DTD/svg11.dtd">
<svg version="1.1" id="Capa_1" xmlns="http://www.w3.org/2000/svg" xmlns:xlink="http://www.w3.org/1999/xlink" x="0px" y="0px"
	 viewBox="0 0 465.002 465.002" style="enable-background:new 0 0 465.002 465.002;" xml:space="preserve">
<g>
	<path d="M301.345,154.929h25.143c4.142,0,7.5-3.358,7.5-7.5s-3.358-7.5-7.5-7.5H169.607c-0.004,0-0.008,0-0.011,0h-31.083
		c-4.142,0-7.5,3.358-7.5,7.5s3.358,7.5,7.5,7.5h25.143c20.591,97.633,13.659,207.034-18.707,295.071h-6.436
		c-4.142,0-7.5,3.358-7.5,7.5s3.358,7.5,7.5,7.5h11.616c0.014,0,0.029,0.002,0.043,0.002c0.009,0,0.017-0.002,0.026-0.002h164.605
		c0.009,0,0.017,0.002,0.026,0.002c0.014,0,0.029-0.002,0.043-0.002h11.616c4.142,0,7.5-3.358,7.5-7.5s-3.358-7.5-7.5-7.5h-6.436
		C287.686,361.963,280.754,252.562,301.345,154.929z M189.103,231.573H243.9c4.142,0,7.5-3.358,7.5-7.5s-3.358-7.5-7.5-7.5h-55.933
		c-0.449-5.014-0.975-10.013-1.554-15h92.175c-0.579,4.987-1.104,9.986-1.554,15H273.9c-4.142,0-7.5,3.358-7.5,7.5
		s3.358,7.5,7.5,7.5h1.999c-0.318,4.994-0.587,9.994-0.778,15h-85.239C189.691,241.567,189.421,236.567,189.103,231.573z
		 M286.009,154.929c-2.134,10.433-3.958,20.994-5.486,31.644h-96.044c-1.527-10.65-3.352-21.211-5.486-31.644H286.009z M304.097,450
		H160.905c20.239-57.265,30.189-122.863,29.343-188.427h84.506C273.908,327.137,283.858,392.735,304.097,450z"/>
	<path d="M326.489,93.286h-31.084c-0.002,0-0.004,0-0.006,0H138.513c-4.142,0-7.5,3.358-7.5,7.5s3.358,7.5,7.5,7.5h25.162
		c1.418,6.725,2.721,13.559,3.881,20.396c0.621,3.66,3.794,6.247,7.386,6.247c0.417,0,0.839-0.035,1.263-0.106
		c4.084-0.693,6.833-4.565,6.14-8.649c-1.016-5.987-2.146-11.97-3.357-17.888h107.025c-1.211,5.918-2.341,11.9-3.357,17.888
		c-0.693,4.083,2.056,7.956,6.14,8.649c0.424,0.072,0.847,0.106,1.263,0.106c3.591,0,6.765-2.587,7.386-6.247
		c1.16-6.837,2.463-13.672,3.881-20.396h25.162c4.142,0,7.5-3.358,7.5-7.5S330.631,93.286,326.489,93.286z"/>
	<path d="M326.489,46.643h-31.084c-0.002,0-0.004,0-0.006,0H138.513c-4.142,0-7.5,3.358-7.5,7.5s3.358,7.5,7.5,7.5h25.162
		c1.418,6.723,2.721,13.558,3.882,20.397c0.621,3.659,3.794,6.246,7.385,6.246c0.417,0,0.839-0.035,1.264-0.107
		c4.084-0.693,6.833-4.565,6.139-8.649c-1.016-5.989-2.146-11.971-3.357-17.888h107.025c-1.211,5.918-2.341,11.9-3.357,17.887
		c-0.693,4.083,2.056,7.956,6.14,8.649c0.424,0.072,0.847,0.106,1.263,0.106c3.591,0,6.765-2.587,7.386-6.247
		c1.16-6.836,2.463-13.671,3.881-20.396h25.162c4.142,0,7.5-3.358,7.5-7.5S330.631,46.643,326.489,46.643z"/>
	<path d="M138.513,15h25.162c1.418,6.725,2.721,13.56,3.881,20.396c0.621,3.66,3.794,6.247,7.386,6.247
		c0.417,0,0.839-0.035,1.263-0.106c4.084-0.693,6.833-4.565,6.14-8.649C181.329,26.9,180.2,20.918,178.989,15h107.025
		c-1.211,5.918-2.341,11.9-3.357,17.887c-0.693,4.083,2.056,7.956,6.14,8.649c0.424,0.072,0.847,0.106,1.263,0.106
		c3.591,0,6.765-2.587,7.386-6.247c1.16-6.836,2.463-13.671,3.881-20.396h25.162c4.142,0,7.5-3.358,7.5-7.5s-3.358-7.5-7.5-7.5
		h-31.084c-0.002,0-0.004,0-0.006,0H169.613c-0.007,0-0.013,0-0.02,0h-31.08c-4.142,0-7.5,3.358-7.5,7.5S134.371,15,138.513,15z"/>
</g>
<g>
</g>
<g>
</g>
<g>
</g>
<g>
</g>
<g>
</g>
<g>
</g>
<g>
</g>
<g>
</g>
<g>
</g>
<g>
</g>
<g>
</g>
<g>
</g>
<g>
</g>
<g>
</g>
<g>
</g>
</svg>
