<?xml version="1.0" encoding="iso-8859-1"?>
<!-- Generator: Adobe Illustrator 17.1.0, SVG Export Plug-In . SVG Version: 6.00 Build 0)  -->
<!DOCTYPE svg PUBLIC "-//W3C//DTD SVG 1.1//EN" "http://www.w3.org/Graphics/SVG/1.1/DTD/svg11.dtd">
<svg version="1.1" id="Capa_1" xmlns="http://www.w3.org/2000/svg" xmlns:xlink="http://www.w3.org/1999/xlink" x="0px" y="0px"
	 viewBox="0 0 465 465" style="enable-background:new 0 0 465 465;" xml:space="preserve">
<g>
	<path d="M127.247,220.072c-4.411,0-8,3.589-8,8s3.589,8,8,8s8-3.589,8-8S131.658,220.072,127.247,220.072z"/>
	<path d="M98.523,191.348c-4.411,0-8,3.589-8,8s3.589,8,8,8s8-3.589,8-8S102.935,191.348,98.523,191.348z"/>
	<path d="M421.133,34.309h-9.984c-6.095-9.344-16.598-15.16-27.95-15.16h-18.356V7.5c0-4.142-3.357-7.5-7.5-7.5s-7.5,3.358-7.5,7.5
		v169.952c0,8.489-5.654,15.587-13.482,17.705c-16.462-28.18-44.24-48.474-75.959-55.529c-3.182-39.755-36.551-71.131-77.11-71.131
		s-73.929,31.374-77.11,71.129c-24.718,5.484-47.185,18.955-63.779,38.364c-18.136,21.212-28.123,48.283-28.123,76.228v100.605
		c0,4.142,3.357,7.5,7.5,7.5s7.5-3.358,7.5-7.5v-73.79c4.8,2.964,10.449,4.678,16.493,4.678h11.814V457.5c0,4.142,3.357,7.5,7.5,7.5
		s7.5-3.358,7.5-7.5v-95.7c26.957-3.673,47.801-26.83,47.801-54.778v-21.311h151.135V457.5c0,4.142,3.357,7.5,7.5,7.5
		s7.5-3.358,7.5-7.5v-95.7c26.957-3.673,47.801-26.83,47.801-54.778v-21.311h22.823c32.76,0,59.411-26.651,59.411-59.411V93.49
		h4.577c16.315,0,29.59-13.274,29.59-29.591C450.723,47.583,437.448,34.309,421.133,34.309z M421.133,78.49h-12.077
		c-4.143,0-7.5,3.358-7.5,7.5v140.311c0,24.488-19.923,44.411-44.411,44.411h-30.323c-4.143,0-7.5,3.358-7.5,7.5v28.811
		c0,19.66-14.15,36.077-32.801,39.601v-68.412c0-4.142-3.357-7.5-7.5-7.5H112.886c-4.143,0-7.5,3.358-7.5,7.5v28.811
		c0,19.66-14.15,36.077-32.801,39.601v-68.412c0-4.142-3.357-7.5-7.5-7.5H45.771c-9.095,0-16.493-7.399-16.493-16.494
		c0-50.245,35.911-92.707,85.389-100.966c3.616-0.604,6.266-3.732,6.266-7.397c0-34.384,27.974-62.358,62.358-62.358
		s62.358,27.974,62.358,62.358c0,3.666,2.649,6.794,6.265,7.397c31.346,5.232,58.91,25.24,73.736,53.519
		c1.334,2.543,4.009,4.112,6.873,4.014c18.123-0.558,32.319-15.2,32.319-33.333V34.149h18.356c7.176,0,13.735,4.227,16.713,10.767
		c1.218,2.676,3.887,4.393,6.826,4.393h14.396c8.045,0,14.59,6.545,14.59,14.59C435.723,71.945,429.178,78.49,421.133,78.49z"/>
</g>
<g>
</g>
<g>
</g>
<g>
</g>
<g>
</g>
<g>
</g>
<g>
</g>
<g>
</g>
<g>
</g>
<g>
</g>
<g>
</g>
<g>
</g>
<g>
</g>
<g>
</g>
<g>
</g>
<g>
</g>
</svg>
