<?xml version="1.0" encoding="iso-8859-1"?>
<!-- Generator: Adobe Illustrator 17.1.0, SVG Export Plug-In . SVG Version: 6.00 Build 0)  -->
<!DOCTYPE svg PUBLIC "-//W3C//DTD SVG 1.1//EN" "http://www.w3.org/Graphics/SVG/1.1/DTD/svg11.dtd">
<svg version="1.1" id="Capa_1" xmlns="http://www.w3.org/2000/svg" xmlns:xlink="http://www.w3.org/1999/xlink" x="0px" y="0px"
	 viewBox="0 0 465 465" style="enable-background:new 0 0 465 465;" xml:space="preserve">
<path d="M441.187,423.363l-64.544-95.375c-0.011-0.016-0.021-0.032-0.033-0.048L219.606,95.937
	c-5.526-8.166-14.264-14.469-24.494-17.837C192.127,34.537,155.757,0,111.45,0H83.245c-16.83,0-30.597,13.338-31.301,29.998
	c-16.389,0.994-29.42,14.636-29.42,31.271c0,4.143,3.358,7.5,7.5,7.5s7.5-3.357,7.5-7.5c0-8.347,6.297-15.241,14.388-16.208
	c0.009,20.722,0.063,39.472,0.359,56.435c-0.013,0.041-0.026,0.081-0.038,0.122c-0.033,0.109-0.057,0.22-0.085,0.33
	c-0.031,0.122-0.066,0.242-0.091,0.367c-0.038,0.189-0.064,0.381-0.088,0.573c-0.006,0.049-0.016,0.096-0.021,0.145
	c-0.028,0.275-0.04,0.552-0.037,0.831c0.002,5.061,0.267,10.01,0.77,14.859c0.687,21.999,1.987,40.652,4.447,56.486
	c5.242,33.73,15.915,56.188,36.839,77.512c0.01,0.01,0.02,0.02,0.03,0.029c0.001,0.001,0.002,0.002,0.002,0.002
	c3.915,3.941,7.674,7.699,11.284,11.307c46.311,46.285,66.745,66.721,73.063,133.571l0,0.005c0,0.452,0.047,0.891,0.123,1.321
	c1.326,14.584,1.999,31.348,2.131,51.046h-73.296c-4.142,0-7.5,3.357-7.5,7.5s3.358,7.5,7.5,7.5h80.82h83.881
	c4.142,0,7.5-3.357,7.5-7.5s-3.358-7.5-7.5-7.5h-15.611c-0.375-16.03-1.962-30.964-4.794-44.867h20.428c4.142,0,7.5-3.357,7.5-7.5
	v-65.403c0-4.143-3.358-7.5-7.5-7.5s-7.5,3.357-7.5,7.5v57.903h-16.582c-5.882-20.628-14.826-38.812-26.929-54.841
	c-20.816-27.566-48.12-45.006-72.209-60.392c-16.614-10.612-32.306-20.635-44.132-32.687
	c-18.189-18.537-27.615-38.228-32.503-68.065c9.757,15.003,23.065,28.745,40.034,41.37c35.395,26.334,81.705,44.997,130.734,64.757
	c10.279,4.143,20.641,8.322,30.967,12.602l93.993,138.892c1.395,2.062,3.722,3.297,6.211,3.297h24.721c4.142,0,7.5-3.357,7.5-7.5
	s-3.358-7.5-7.5-7.5h-20.741l-78.715-116.315c23.121,10.224,45.515,21.293,65.771,34.013l63.617,94.005
	c1.45,2.143,3.813,3.298,6.218,3.298c1.446,0,2.909-0.418,4.197-1.29C442.609,431.456,443.508,426.793,441.187,423.363z
	 M195.596,450c-0.114-16.867-0.622-31.678-1.586-44.867h21.651c4.142,0,7.5-3.357,7.5-7.5v-30.171
	c10.512,21.236,17.362,47.876,18.225,82.538H195.596z M208.161,343.377v46.756h-15.519c-2.699-24.194-7.354-42.507-14.477-58.573
	c-5.293-11.939-11.842-22.341-19.858-32.596C176.094,310.916,193.732,324.572,208.161,343.377z M281.718,279.878
	c-0.033-0.014-0.066-0.028-0.1-0.042c-11.029-4.589-22.098-9.051-33.072-13.473c-48.107-19.388-93.545-37.7-127.388-62.879
	c-32.727-24.349-49.983-51.941-53.542-85.989c-0.08-2.674-0.15-5.408-0.213-8.199c39.593-10.517,76.519-0.485,115.699,31.341
	c1.39,1.13,3.063,1.679,4.724,1.679c2.181,0,4.344-0.946,5.826-2.771c2.612-3.215,2.123-7.938-1.093-10.55
	c-21.312-17.312-41.764-28.519-62.526-34.264c-20.702-5.726-41.371-6.012-62.893-0.851c-0.184-14.711-0.222-30.943-0.229-48.946
	h42.018c4.142,0,7.5-3.357,7.5-7.5s-3.358-7.5-7.5-7.5H66.981C67.695,21.582,74.71,15,83.245,15h28.206
	c37.969,0,68.861,30.879,68.882,68.844c0,0.008,0.001,0.015,0.001,0.022c0,0.006,0,0.011,0,0.016c0,0.016,0.002,0.032,0.002,0.048
	c0.001,0.236,0.012,0.471,0.035,0.703c0.006,0.065,0.02,0.129,0.028,0.193c0.023,0.179,0.046,0.357,0.081,0.532
	c0.023,0.114,0.055,0.223,0.082,0.335c0.031,0.122,0.057,0.246,0.094,0.366c0.042,0.14,0.094,0.275,0.145,0.411
	c0.033,0.089,0.062,0.179,0.098,0.267c0.06,0.145,0.129,0.284,0.197,0.424c0.037,0.076,0.071,0.155,0.11,0.229
	c0.071,0.134,0.15,0.262,0.229,0.391c0.047,0.078,0.092,0.157,0.142,0.234c0.075,0.114,0.158,0.222,0.239,0.331
	c0.064,0.086,0.125,0.174,0.193,0.258c0.074,0.092,0.154,0.177,0.233,0.265c0.084,0.094,0.165,0.189,0.254,0.279
	c0.072,0.073,0.149,0.14,0.224,0.211c0.102,0.095,0.202,0.192,0.31,0.281c0.074,0.062,0.154,0.118,0.231,0.178
	c0.114,0.088,0.227,0.177,0.346,0.259c0.088,0.06,0.18,0.113,0.271,0.169c0.113,0.071,0.225,0.144,0.343,0.208
	c0.121,0.067,0.247,0.124,0.372,0.184c0.093,0.044,0.182,0.093,0.277,0.134c0.179,0.077,0.363,0.143,0.549,0.206
	c0.047,0.016,0.091,0.036,0.138,0.051c0.253,0.081,0.511,0.15,0.775,0.203c8.756,1.855,16.548,6.753,20.851,13.111l138.842,205.165
	C325.451,298.657,303.668,289.012,281.718,279.878z"/>
<g>
</g>
<g>
</g>
<g>
</g>
<g>
</g>
<g>
</g>
<g>
</g>
<g>
</g>
<g>
</g>
<g>
</g>
<g>
</g>
<g>
</g>
<g>
</g>
<g>
</g>
<g>
</g>
<g>
</g>
</svg>
