<?xml version="1.0" encoding="iso-8859-1"?>
<!-- Generator: Adobe Illustrator 17.1.0, SVG Export Plug-In . SVG Version: 6.00 Build 0)  -->
<!DOCTYPE svg PUBLIC "-//W3C//DTD SVG 1.1//EN" "http://www.w3.org/Graphics/SVG/1.1/DTD/svg11.dtd">
<svg version="1.1" id="Capa_1" xmlns="http://www.w3.org/2000/svg" xmlns:xlink="http://www.w3.org/1999/xlink" x="0px" y="0px"
	 viewBox="0 0 465.004 465.004" style="enable-background:new 0 0 465.004 465.004;" xml:space="preserve">
<g>
	<path d="M103.567,259.541h257.865c4.143,0,7.5-3.358,7.5-7.5V115.722c0-4.142-3.357-7.5-7.5-7.5H240V55.307
		c0-4.142-3.357-7.5-7.5-7.5s-7.5,3.358-7.5,7.5v52.915H103.567c-4.143,0-7.5,3.358-7.5,7.5v136.319
		C96.067,256.183,99.425,259.541,103.567,259.541z M111.067,123.222h242.865v121.319H111.067V123.222z"/>
	<path d="M457.5,402.197c-12.509,0-23.982-5.818-31.479-15.963c-1.415-1.914-3.653-3.042-6.032-3.042c-0.002,0-0.005,0-0.007,0
		c-2.382,0.002-4.621,1.136-6.033,3.054c-7.353,9.989-19.104,15.952-31.438,15.952c-12.325,0-24.093-5.967-31.479-15.962
		c-1.414-1.914-3.652-3.043-6.032-3.043c-2.379,0-4.618,1.129-6.032,3.042c-7.386,9.996-19.154,15.963-31.479,15.963
		c-12.485,0-23.946-5.818-31.446-15.964c-1.415-1.913-3.652-3.042-6.032-3.042c-2.379,0-4.617,1.129-6.03,3.042
		c-7.387,9.996-19.155,15.963-31.479,15.963c-12.333,0-24.086-5.963-31.438-15.952c-1.41-1.916-3.646-3.049-6.025-3.054
		c-0.005,0-0.01,0-0.015,0c-2.374,0-4.607,1.124-6.022,3.031c-7.534,10.152-19.011,15.975-31.488,15.975
		c-12.333,0-24.085-5.963-31.438-15.952c-1.412-1.918-3.651-3.052-6.033-3.054c-0.002,0-0.005,0-0.007,0
		c-2.379,0-4.618,1.129-6.032,3.043c-7.385,9.995-19.167,15.962-31.515,15.962c-12.301,0-24.058-5.968-31.447-15.964
		c-1.415-1.913-3.653-3.042-6.032-3.041s-4.617,1.129-6.031,3.043c-7.495,10.145-18.969,15.962-31.478,15.962
		c-4.143,0-7.5,3.358-7.5,7.5s3.357,7.5,7.5,7.5c14.009,0,27.488-5.557,37.511-15.185c10.021,9.629,23.489,15.185,37.478,15.185
		c14.024,0,27.513-5.553,37.538-15.177c10,9.624,23.47,15.177,37.486,15.177c14.213,0,27.474-5.438,37.516-15.165
		c9.998,9.616,23.463,15.165,37.474,15.165c13.999,0,27.47-5.548,37.49-15.165c10.02,9.728,23.273,15.165,37.498,15.165
		c14.008,0,27.488-5.556,37.511-15.185c10.021,9.628,23.502,15.185,37.511,15.185c14.017,0,27.485-5.553,37.485-15.177
		c10.022,9.625,23.498,15.177,37.503,15.177c4.143,0,7.5-3.358,7.5-7.5S461.643,402.197,457.5,402.197z"/>
	<path d="M440.773,209.213h-16.183v-0.229c0-4.142-3.357-7.5-7.5-7.5s-7.5,3.358-7.5,7.5v48.918c0,4.142,3.357,7.5,7.5,7.5
		s7.5-3.358,7.5-7.5v-0.229h16.183c3.267,0,6.384-0.654,9.23-1.831v49.443H240v-23.245c0-4.142-3.357-7.5-7.5-7.5
		s-7.5,3.358-7.5,7.5v23.245H15.002v-49.442c2.846,1.177,5.962,1.831,9.229,1.831h16.183v0.229c0,4.142,3.357,7.5,7.5,7.5
		s7.5-3.358,7.5-7.5v-48.918c0-4.142-3.357-7.5-7.5-7.5s-7.5,3.358-7.5,7.5v0.229H24.23c-13.36,0-24.23,10.87-24.23,24.23
		c0,0.026,0.002,0.051,0.002,0.077v79.227c0,0.013-0.002,0.026-0.002,0.039c0,22.496,3.221,44.765,9.572,66.188
		c1.178,3.972,5.354,6.236,9.322,5.059c3.972-1.177,6.236-5.351,5.059-9.322c-5.234-17.655-8.195-35.928-8.825-54.424h434.744
		c-0.63,18.493-3.592,36.768-8.826,54.424c-1.178,3.971,1.087,8.145,5.059,9.322c0.711,0.211,1.429,0.312,2.135,0.312
		c3.235,0,6.222-2.11,7.188-5.37c6.344-21.395,9.563-43.631,9.572-66.093c0-0.032,0.005-0.062,0.005-0.094v-79.342
		C465.004,220.083,454.134,209.213,440.773,209.213z M24.23,224.213h16.183v18.461H24.23c-5.077,0-9.207-4.12-9.229-9.192v-0.039
		c0-0.007-0.001-0.013-0.001-0.019C15.012,228.344,19.147,224.213,24.23,224.213z M440.773,242.674h-16.183v-18.461h16.183
		c5.09,0,9.23,4.141,9.23,9.23S445.863,242.674,440.773,242.674z"/>
</g>
<g>
</g>
<g>
</g>
<g>
</g>
<g>
</g>
<g>
</g>
<g>
</g>
<g>
</g>
<g>
</g>
<g>
</g>
<g>
</g>
<g>
</g>
<g>
</g>
<g>
</g>
<g>
</g>
<g>
</g>
</svg>
