<?xml version="1.0" encoding="iso-8859-1"?>
<!-- Generator: Adobe Illustrator 17.1.0, SVG Export Plug-In . SVG Version: 6.00 Build 0)  -->
<!DOCTYPE svg PUBLIC "-//W3C//DTD SVG 1.1//EN" "http://www.w3.org/Graphics/SVG/1.1/DTD/svg11.dtd">
<svg version="1.1" id="Capa_1" xmlns="http://www.w3.org/2000/svg" xmlns:xlink="http://www.w3.org/1999/xlink" x="0px" y="0px"
	 viewBox="0 0 465 465" style="enable-background:new 0 0 465 465;" xml:space="preserve">
<g>
	<path d="M463.247,290.995l-225-268.318c-0.073-0.088-0.154-0.165-0.231-0.249c-0.054-0.058-0.106-0.117-0.161-0.173
		c-0.239-0.245-0.489-0.473-0.752-0.678c-0.024-0.018-0.049-0.034-0.073-0.052c-0.262-0.199-0.535-0.375-0.816-0.536
		c-0.049-0.028-0.096-0.057-0.146-0.084c-0.308-0.167-0.625-0.311-0.95-0.432c-0.019-0.007-0.035-0.018-0.054-0.025
		c-0.034-0.012-0.068-0.017-0.102-0.028c-0.31-0.107-0.625-0.197-0.944-0.263c-0.036-0.007-0.071-0.018-0.107-0.025
		c-0.328-0.063-0.66-0.098-0.993-0.116c-0.079-0.004-0.158-0.008-0.238-0.01c-0.333-0.008-0.667,0-0.999,0.036
		c-0.021,0.002-0.041,0.007-0.062,0.01c-0.322,0.038-0.641,0.101-0.958,0.181c-0.058,0.015-0.116,0.028-0.174,0.044
		c-0.327,0.091-0.649,0.201-0.964,0.338c-0.036,0.016-0.07,0.034-0.105,0.05c-0.276,0.125-0.545,0.269-0.808,0.429
		c-0.063,0.038-0.126,0.074-0.187,0.114c-0.254,0.165-0.503,0.342-0.741,0.541c-0.022,0.018-0.041,0.039-0.062,0.058
		c-0.05,0.043-0.097,0.091-0.146,0.136c-0.226,0.205-0.437,0.42-0.633,0.645c-0.027,0.032-0.06,0.057-0.087,0.089l-225,268.318
		c-1.392,1.66-1.998,3.841-1.663,5.981c0.335,2.14,1.58,4.03,3.413,5.185l225,141.682c0.056,0.035,0.116,0.059,0.173,0.092
		c0.186,0.11,0.375,0.211,0.569,0.304c0.116,0.056,0.232,0.112,0.35,0.162c0.191,0.08,0.386,0.148,0.583,0.212
		c0.123,0.04,0.244,0.084,0.368,0.117c0.213,0.057,0.429,0.098,0.646,0.137c0.108,0.019,0.214,0.046,0.323,0.061
		c0.328,0.044,0.66,0.069,0.992,0.069c0.076,0,0.151-0.013,0.227-0.016c0.246-0.008,0.492-0.019,0.736-0.051
		c0.143-0.019,0.283-0.054,0.425-0.081c0.182-0.035,0.365-0.066,0.545-0.115c0.144-0.038,0.284-0.091,0.426-0.138
		c0.178-0.059,0.356-0.119,0.53-0.192c0.133-0.056,0.263-0.121,0.394-0.186c0.111-0.054,0.225-0.097,0.334-0.157
		c0.067-0.037,0.126-0.084,0.192-0.123c0.059-0.035,0.122-0.06,0.181-0.096l225-141.682c1.833-1.154,3.078-3.045,3.413-5.185
		C465.245,294.836,464.639,292.655,463.247,290.995z M240,423.91v-56.414c0-4.143-3.358-7.5-7.5-7.5s-7.5,3.357-7.5,7.5v56.414
		L18.77,294.048L225,48.112v289.384c0,4.143,3.358,7.5,7.5,7.5s7.5-3.357,7.5-7.5V48.113l206.23,245.935L240,423.91z"/>
	<path d="M383,301.057c4.411,0,8-3.589,8-8s-3.589-8-8-8s-8,3.589-8,8S378.589,301.057,383,301.057z"/>
	<path d="M353,271.057c4.411,0,8-3.589,8-8s-3.589-8-8-8s-8,3.589-8,8S348.589,271.057,353,271.057z"/>
</g>
<g>
</g>
<g>
</g>
<g>
</g>
<g>
</g>
<g>
</g>
<g>
</g>
<g>
</g>
<g>
</g>
<g>
</g>
<g>
</g>
<g>
</g>
<g>
</g>
<g>
</g>
<g>
</g>
<g>
</g>
</svg>
