<?xml version="1.0" encoding="iso-8859-1"?>
<!-- Generator: Adobe Illustrator 17.1.0, SVG Export Plug-In . SVG Version: 6.00 Build 0)  -->
<!DOCTYPE svg PUBLIC "-//W3C//DTD SVG 1.1//EN" "http://www.w3.org/Graphics/SVG/1.1/DTD/svg11.dtd">
<svg version="1.1" id="Capa_1" xmlns="http://www.w3.org/2000/svg" xmlns:xlink="http://www.w3.org/1999/xlink" x="0px" y="0px"
	 viewBox="0 0 465 465" style="enable-background:new 0 0 465 465;" xml:space="preserve">
<g>
	<path d="M190.25,343.5c-4.411,0-8,3.589-8,8s3.589,8,8,8s8-3.589,8-8S194.661,343.5,190.25,343.5z"/>
	<path d="M102.637,161.193c-1.645-0.199-3.268-0.3-4.823-0.3c-21.987,0-39.876,17.888-39.876,39.875s17.889,39.875,39.876,39.875
		c1.266,0,2.569-0.064,3.874-0.191c2.094-0.203,4.007-1.276,5.271-2.958c1.265-1.681,1.765-3.816,1.378-5.884
		c-2.033-10.891-3.022-20.98-3.022-30.843c0-10.233,1.245-20.435,3.701-30.322c0.518-2.086,0.116-4.294-1.104-6.064
		C106.69,162.613,104.771,161.452,102.637,161.193z M92.052,224.971c-10.947-2.606-19.114-12.468-19.114-24.202
		c0-11.865,8.349-21.815,19.48-24.286c-1.398,8.002-2.104,16.136-2.104,24.286C90.313,208.652,90.885,216.639,92.052,224.971z"/>
	<path d="M367.187,160.894c-1.556,0-3.179,0.101-4.823,0.3c-2.134,0.258-4.054,1.42-5.274,3.189c-1.22,1.77-1.621,3.978-1.104,6.064
		c2.456,9.887,3.701,20.088,3.701,30.322c0,9.863-0.989,19.952-3.022,30.843c-0.387,2.068,0.113,4.203,1.378,5.884
		c1.264,1.682,3.177,2.754,5.271,2.958c1.305,0.126,2.608,0.191,3.874,0.191c21.987,0,39.876-17.888,39.876-39.875
		S389.174,160.894,367.187,160.894z M372.948,224.971c1.167-8.333,1.738-16.319,1.738-24.202c0-8.15-0.706-16.284-2.104-24.286
		c11.132,2.471,19.48,12.421,19.48,24.286C392.063,212.503,383.896,222.365,372.948,224.971z"/>
	<path d="M367.187,129.571c-3.791,0-7.586,0.305-11.339,0.91c-12.876-22.299-31.395-40.497-53.985-53.043V15h2.5
		c4.143,0,7.5-3.358,7.5-7.5s-3.357-7.5-7.5-7.5H160.638c-4.143,0-7.5,3.358-7.5,7.5s3.357,7.5,7.5,7.5h2.5v62.438
		c-22.59,12.544-41.107,30.743-53.984,53.043c-3.753-0.604-7.548-0.91-11.34-0.91c-39.259,0-71.198,31.939-71.198,71.198
		s31.939,71.198,71.198,71.198c1.852,0,3.722-0.076,5.598-0.226c5.508,16.931,12.38,34.615,19.611,53.223
		c14.698,37.823,31.358,80.693,43.499,134.196c0.775,3.416,3.812,5.84,7.314,5.84h117.328c3.503,0,6.539-2.424,7.314-5.84
		c12.142-53.503,28.801-96.373,43.499-134.195c7.231-18.608,14.104-36.293,19.611-53.224c1.876,0.15,3.746,0.226,5.598,0.226
		c39.259,0,71.198-31.939,71.198-71.198S406.445,129.571,367.187,129.571z M367.187,256.967c-3.149,0-6.376-0.28-9.59-0.833
		c-3.712-0.638-7.326,1.579-8.438,5.181c-5.625,18.232-13.173,37.654-21.163,58.216c-14.352,36.93-30.55,78.613-42.794,130.469
		H179.798c-12.244-51.855-28.442-93.54-42.794-130.47c-7.99-20.562-15.538-39.983-21.163-58.215
		c-1.111-3.603-4.728-5.818-8.438-5.181c-3.214,0.552-6.44,0.833-9.59,0.833c-30.987,0-56.198-25.21-56.198-56.198
		s25.211-56.198,56.198-56.198c4.52,0,9.047,0.549,13.459,1.633c3.345,0.824,6.821-0.741,8.426-3.791
		c12.199-23.183,31-41.791,54.37-53.813c2.499-1.286,4.069-3.859,4.069-6.669V15h108.725v66.932c0,2.81,1.57,5.384,4.069,6.669
		c23.371,12.023,42.172,30.631,54.371,53.813c1.604,3.048,5.083,4.617,8.426,3.791c4.412-1.084,8.939-1.633,13.458-1.633
		c30.987,0,56.198,25.21,56.198,56.198S398.174,256.967,367.187,256.967z"/>
	<path d="M310.25,163.5c-4.411,0-8,3.589-8,8s3.589,8,8,8s8-3.589,8-8S314.661,163.5,310.25,163.5z"/>
	<path d="M280.25,133.5c-4.411,0-8,3.589-8,8s3.589,8,8,8s8-3.589,8-8S284.661,133.5,280.25,133.5z"/>
</g>
<g>
</g>
<g>
</g>
<g>
</g>
<g>
</g>
<g>
</g>
<g>
</g>
<g>
</g>
<g>
</g>
<g>
</g>
<g>
</g>
<g>
</g>
<g>
</g>
<g>
</g>
<g>
</g>
<g>
</g>
</svg>
