<?xml version="1.0" encoding="iso-8859-1"?>
<!-- Generator: Adobe Illustrator 17.1.0, SVG Export Plug-In . SVG Version: 6.00 Build 0)  -->
<!DOCTYPE svg PUBLIC "-//W3C//DTD SVG 1.1//EN" "http://www.w3.org/Graphics/SVG/1.1/DTD/svg11.dtd">
<svg version="1.1" id="Capa_1" xmlns="http://www.w3.org/2000/svg" xmlns:xlink="http://www.w3.org/1999/xlink" x="0px" y="0px"
	 viewBox="0 0 465 465" style="enable-background:new 0 0 465 465;" xml:space="preserve">
<g>
	<path d="M457.839,132.185c-10.189-0.461-41.962-9.698-135.46-51.083c-3.783-1.675-8.216,0.035-9.894,3.823
		c-1.677,3.788,0.035,8.217,3.822,9.894c69.705,30.854,112.76,47.433,133.692,51.424v15.015
		c-32.397-5.599-118.233-39.397-152.338-52.827c-3.12-1.229-5.922-2.332-8.348-3.283c-35.764-14.019-74.364-21.127-114.73-21.127
		s-78.967,7.108-114.73,21.127C43.989,111.367,28.957,118.906,15,127.635V96.593C31.307,86.538,49.976,77.714,68.008,71.57
		c34.579-11.782,71.607-16.872,110.052-15.134c38.447,1.739,74.863,10.154,108.237,25.01c3.783,1.682,8.217-0.018,9.901-3.802
		c1.685-3.784-0.018-8.217-3.802-9.902c-35.093-15.621-73.333-24.466-113.659-26.29c-40.322-1.826-79.208,3.532-115.567,15.92
		C46.951,62.898,30.246,70.479,15,79.165V62.447c0-4.142-3.357-7.5-7.5-7.5S0,58.305,0,62.447v79.18c0,2.802,1.563,5.371,4.051,6.66
		c2.489,1.289,5.489,1.082,7.777-0.534c16.175-11.428,34.175-21.063,53.5-28.639c34.012-13.332,70.771-20.092,109.256-20.092
		s75.244,6.76,109.256,20.093c2.42,0.948,5.214,2.049,8.326,3.274c68.643,27.03,141.966,54.661,165.334,54.661
		c4.143,0,7.5-3.358,7.5-7.5v-29.872C465,135.667,461.845,132.366,457.839,132.185z"/>
	<path d="M457.5,203.023c-36.429,0-75.155-13.487-116.154-27.767c-48.893-17.028-104.308-36.328-166.762-36.328
		c-68.402,0-132.893,24.831-172.512,66.421c-2.759,2.896-2.759,7.449,0,10.346c25.309,26.568,60.775,46.281,100.918,57.067
		l-0.001,107.856c0,13.86-10.023,25.424-23.202,27.822l-15.221-41.597c11.193-4.116,19.2-14.886,19.2-27.491v-51.563
		c0-4.142-3.357-7.5-7.5-7.5s-7.5,3.358-7.5,7.5v51.563c0,7.873-6.405,14.278-14.277,14.278c-2.449,0-4.744,1.196-6.147,3.204
		c-1.403,2.007-1.737,4.574-0.896,6.874l20.223,55.266c1.082,2.957,3.895,4.923,7.043,4.923c23.863,0,43.277-19.415,43.277-43.278
		l0.001-103.044c57.607,21.005,98.832,55.875,132.296,84.198c31.792,26.907,56.903,48.16,84.214,48.16
		c26.191,0,47.5-21.309,47.5-47.5c0-25.66-20.456-46.62-45.916-47.46c-0.525-0.027-1.053-0.04-1.584-0.04
		c-16.993,0-30.818,13.825-30.818,30.818s13.825,30.818,30.818,30.818c15.238,0,27.92-11.119,30.38-25.667
		c1.366,3.586,2.12,7.471,2.12,11.531c0,17.92-14.579,32.5-32.5,32.5c-21.814,0-45.075-19.686-74.523-44.609
		c-25.91-21.929-56.345-47.677-95.453-68.403c3.344,0.119,6.696,0.197,10.061,0.197c68.401,0,132.892-24.831,172.511-66.421
		c2.856-2.999,2.741-7.746-0.258-10.604c-2.999-2.856-7.746-2.741-10.604,0.258c-27.254,28.61-67.42,48.678-112.537,57.193
		c13.827-13.061,22.482-31.544,22.482-52.02c0-20.881-8.989-39.698-23.296-52.797c40.335,6.208,77.377,19.105,113.531,31.696
		c42.231,14.708,82.121,28.601,121.088,28.601c4.143,0,7.5-3.358,7.5-7.5S461.643,203.023,457.5,203.023z M334.5,361.569
		c-8.723,0-15.818-7.096-15.818-15.818s7.096-15.818,15.818-15.818s15.818,7.096,15.818,15.818S343.223,361.569,334.5,361.569z
		 M125.475,158.499c-13.829,13.062-22.485,31.545-22.485,52.024s8.656,38.962,22.485,52.024
		c-42.349-7.992-80.336-26.163-107.377-52.024C45.139,184.662,83.125,166.491,125.475,158.499z M231.178,210.523
		c0,31.206-25.388,56.594-56.594,56.594s-56.595-25.388-56.595-56.594s25.389-56.594,56.595-56.594S231.178,179.317,231.178,210.523
		z"/>
	<path d="M149.584,218.023c4.143,0,7.5-3.358,7.5-7.5c0-9.649,7.851-17.5,17.5-17.5s17.5,7.851,17.5,17.5s-7.851,17.5-17.5,17.5
		c-4.143,0-7.5,3.358-7.5,7.5s3.357,7.5,7.5,7.5c17.921,0,32.5-14.58,32.5-32.5s-14.579-32.5-32.5-32.5s-32.5,14.58-32.5,32.5
		C142.084,214.665,145.441,218.023,149.584,218.023z"/>
</g>
<g>
</g>
<g>
</g>
<g>
</g>
<g>
</g>
<g>
</g>
<g>
</g>
<g>
</g>
<g>
</g>
<g>
</g>
<g>
</g>
<g>
</g>
<g>
</g>
<g>
</g>
<g>
</g>
<g>
</g>
</svg>
