<?xml version="1.0" encoding="iso-8859-1"?>
<!-- Generator: Adobe Illustrator 17.1.0, SVG Export Plug-In . SVG Version: 6.00 Build 0)  -->
<!DOCTYPE svg PUBLIC "-//W3C//DTD SVG 1.1//EN" "http://www.w3.org/Graphics/SVG/1.1/DTD/svg11.dtd">
<svg version="1.1" id="Capa_1" xmlns="http://www.w3.org/2000/svg" xmlns:xlink="http://www.w3.org/1999/xlink" x="0px" y="0px"
	 viewBox="0 0 464.968 464.968" style="enable-background:new 0 0 464.968 464.968;" xml:space="preserve">
<g>
	<path d="M444.777,57.884c-26.921-26.921-70.724-26.921-97.644,0L77.679,327.338c-0.068,0.066-0.135,0.133-0.201,0.202L2.197,402.82
		c-2.929,2.929-2.929,7.678,0,10.606c2.929,2.929,7.678,2.929,10.606,0l72.252-72.251c54.018,16.038,104.127,45.033,145.163,84.035
		c1.403,1.333,3.256,2.064,5.167,2.064c0.328,0,0.657-0.021,0.986-0.065c2.248-0.298,4.24-1.597,5.419-3.534l26.027-42.731
		c0.051-0.08,0.1-0.161,0.148-0.242l25.298-41.535c0.051-0.081,0.101-0.162,0.149-0.245l26.007-42.699
		c0.049-0.077,0.095-0.153,0.141-0.231l25.393-41.69c0.029-0.046,0.057-0.092,0.084-0.138l25.198-41.37
		c0.049-0.077,0.097-0.155,0.143-0.234l22.472-36.894c19.385,0.886,38.091-6.304,51.927-20.14
		C471.698,128.607,471.698,84.804,444.777,57.884z M434.171,144.921c-11.337,11.337-26.853,16.974-42.8,15.619
		c-18.718-11.853-38.315-22.037-58.278-30.284c-3.831-1.582-8.214,0.24-9.795,4.068c-1.582,3.828,0.24,8.214,4.068,9.795
		c17.482,7.223,34.682,15.999,51.222,26.129l-17.021,27.945c-19.948-13.057-41.187-24.214-63.241-33.215
		c-3.834-1.565-8.213,0.274-9.778,4.11c-1.565,3.835,0.274,8.212,4.11,9.778c21.316,8.7,41.838,19.499,61.102,32.145l-17.375,28.525
		c-22.731-15.914-47.209-29.264-72.874-39.74c-3.834-1.566-8.212,0.274-9.778,4.109c-1.565,3.835,0.274,8.213,4.11,9.778
		c24.926,10.174,48.685,23.174,70.723,38.69l-17.551,28.815c-25.372-18.968-53.027-34.619-82.322-46.576
		c-3.837-1.566-8.213,0.275-9.778,4.109c-1.565,3.835,0.274,8.213,4.11,9.778c28.556,11.656,55.488,26.967,80.151,45.56
		l-18.17,29.833c-8.424-6.724-17.168-13.109-26.083-19.044c-3.447-2.296-8.104-1.362-10.399,2.086s-1.362,8.104,2.086,10.399
		c9.083,6.048,17.983,12.583,26.527,19.478l-17.435,28.624c-30.253-25.716-64.12-46.299-100.794-61.25
		c-3.834-1.564-8.212,0.279-9.776,4.114c-1.563,3.835,0.278,8.212,4.114,9.776c35.928,14.646,69.056,34.932,98.552,60.337
		l-18.043,29.623c-39.423-35.64-86.309-62.676-136.705-78.854L357.74,68.49c10.208-10.208,23.78-15.829,38.215-15.829
		c14.436,0,28.008,5.622,38.216,15.829S450,92.27,450,106.706S444.379,134.714,434.171,144.921z"/>
	<path d="M183.339,274.091c-1.563,3.835,0.278,8.212,4.114,9.776c12.717,5.184,25.262,11.166,37.289,17.779
		c1.146,0.63,2.385,0.93,3.607,0.93c2.647,0,5.213-1.404,6.579-3.888c1.996-3.629,0.672-8.19-2.958-10.186
		c-12.531-6.891-25.603-13.124-38.854-18.525C189.282,268.412,184.903,270.255,183.339,274.091z"/>
</g>
<g>
</g>
<g>
</g>
<g>
</g>
<g>
</g>
<g>
</g>
<g>
</g>
<g>
</g>
<g>
</g>
<g>
</g>
<g>
</g>
<g>
</g>
<g>
</g>
<g>
</g>
<g>
</g>
<g>
</g>
</svg>
