<?xml version="1.0" encoding="iso-8859-1"?>
<!-- Generator: Adobe Illustrator 17.1.0, SVG Export Plug-In . SVG Version: 6.00 Build 0)  -->
<!DOCTYPE svg PUBLIC "-//W3C//DTD SVG 1.1//EN" "http://www.w3.org/Graphics/SVG/1.1/DTD/svg11.dtd">
<svg version="1.1" id="Capa_1" xmlns="http://www.w3.org/2000/svg" xmlns:xlink="http://www.w3.org/1999/xlink" x="0px" y="0px"
	 viewBox="0 0 465 465" style="enable-background:new 0 0 465 465;" xml:space="preserve">
<g>
	<path d="M232.5,340.551c4.142,0,7.5-3.357,7.5-7.5V115.524c0-4.143-3.358-7.5-7.5-7.5s-7.5,3.357-7.5,7.5v217.526
		C225,337.193,228.358,340.551,232.5,340.551z"/>
	<path d="M261.898,364.77c83.475-103.537,125.798-213.722,125.798-327.545c0-2.697-1.448-5.187-3.792-6.52
		c-2.345-1.333-5.224-1.306-7.542,0.074C330.099,58.3,268.327,45.939,238.66,3.222c-0.026-0.038-0.058-0.071-0.085-0.108
		c-0.129-0.178-0.264-0.35-0.407-0.516c-0.061-0.071-0.125-0.139-0.189-0.208c-0.13-0.139-0.264-0.272-0.404-0.401
		c-0.067-0.062-0.133-0.125-0.202-0.184c-0.175-0.15-0.357-0.291-0.545-0.424c-0.035-0.025-0.067-0.053-0.102-0.077
		c-0.231-0.158-0.472-0.302-0.721-0.434c-0.044-0.023-0.09-0.042-0.134-0.065c-0.204-0.103-0.412-0.197-0.627-0.281
		c-0.071-0.028-0.143-0.053-0.215-0.079c-0.194-0.069-0.39-0.131-0.591-0.184c-0.08-0.021-0.159-0.043-0.239-0.061
		c-0.203-0.047-0.41-0.084-0.62-0.114c-0.075-0.011-0.149-0.026-0.225-0.034C233.074,0.02,232.789,0,232.5,0
		s-0.574,0.02-0.855,0.052c-0.075,0.009-0.149,0.023-0.224,0.034c-0.21,0.03-0.418,0.067-0.622,0.115
		c-0.079,0.019-0.157,0.04-0.235,0.061c-0.203,0.054-0.402,0.116-0.597,0.187c-0.069,0.025-0.139,0.049-0.207,0.076
		c-0.219,0.086-0.432,0.182-0.641,0.288c-0.04,0.02-0.081,0.037-0.121,0.058c-0.251,0.133-0.494,0.278-0.727,0.437
		c-0.029,0.02-0.056,0.043-0.085,0.064c-0.195,0.137-0.382,0.283-0.563,0.438c-0.066,0.057-0.13,0.117-0.194,0.177
		c-0.142,0.131-0.279,0.266-0.411,0.407c-0.063,0.067-0.125,0.134-0.185,0.204c-0.144,0.166-0.28,0.339-0.409,0.518
		c-0.027,0.037-0.059,0.07-0.085,0.107c-29.666,42.716-91.438,55.079-137.702,27.558c-2.318-1.38-5.198-1.407-7.542-0.074
		c-2.344,1.333-3.792,3.822-3.792,6.52c0,113.821,42.323,224.006,125.799,327.545l-21.833,78.623
		c-1.108,3.991,1.229,8.125,5.22,9.233c3.675,1.023,7.466-0.885,8.909-4.31c6.69,2.597,16.952,5.68,29.601,6.604v2.58
		c0,4.143,3.358,7.5,7.5,7.5s7.5-3.357,7.5-7.5v-2.58c12.656-0.924,22.922-4.01,29.612-6.608c1.18,2.798,3.914,4.589,6.887,4.589
		c0.665,0,1.34-0.089,2.011-0.275c3.991-1.108,6.329-5.242,5.22-9.233L261.898,364.77z M92.479,49.682
		c15.901,7.214,32.957,10.689,49.875,10.688c30.6-0.003,60.725-11.382,82.646-32.559v57.714c0,4.143,3.358,7.5,7.5,7.5
		s7.5-3.357,7.5-7.5V27.796c34.039,32.891,87.859,42.149,132.521,21.884c-3.002,106.537-44.579,209.874-123.692,307.387
		c-2.371,1.081-8.42,3.426-16.329,3.426c-7.909,0-13.957-2.345-16.328-3.426C137.058,259.554,95.481,156.217,92.479,49.682z
		 M199.503,433.792l16.854-60.693c2.463,0.742,5.372,1.433,8.643,1.88v64.889C213.728,438.896,204.766,435.943,199.503,433.792z
		 M240,374.979c3.271-0.447,6.18-1.138,8.643-1.88l16.853,60.694c-5.263,2.151-14.226,5.103-25.496,6.075V374.979z"/>
</g>
<g>
</g>
<g>
</g>
<g>
</g>
<g>
</g>
<g>
</g>
<g>
</g>
<g>
</g>
<g>
</g>
<g>
</g>
<g>
</g>
<g>
</g>
<g>
</g>
<g>
</g>
<g>
</g>
<g>
</g>
</svg>
