<?xml version="1.0" encoding="iso-8859-1"?>
<!-- Generator: Adobe Illustrator 17.1.0, SVG Export Plug-In . SVG Version: 6.00 Build 0)  -->
<!DOCTYPE svg PUBLIC "-//W3C//DTD SVG 1.1//EN" "http://www.w3.org/Graphics/SVG/1.1/DTD/svg11.dtd">
<svg version="1.1" id="Capa_1" xmlns="http://www.w3.org/2000/svg" xmlns:xlink="http://www.w3.org/1999/xlink" x="0px" y="0px"
	 viewBox="0 0 465 465" style="enable-background:new 0 0 465 465;" xml:space="preserve">
<path d="M269.652,392.663c17.034-14.999,31.442-34.666,31.442-64.794c0-31.143-15.58-50.925-31.442-64.838
	c17.035-15,31.443-34.669,31.443-64.797c0-31.144-15.58-50.928-31.444-64.841c17.035-15.001,31.443-34.67,31.443-64.799
	C301.094,30.771,270.322,0,232.5,0c-37.823,0-68.594,30.771-68.594,68.594c0,31.143,15.58,50.927,31.443,64.841
	c-17.035,15.001-31.444,34.67-31.444,64.8c0,31.144,15.58,50.926,31.443,64.839c-17.034,15-31.442,34.668-31.442,64.796
	c0,31.142,15.58,50.924,31.442,64.836c-17.035,15-31.443,34.667-31.443,64.795c0,4.142,3.358,7.5,7.5,7.5h30.003
	c4.142,0,7.5-3.358,7.5-7.5c0-15.207,7.316-24.519,23.614-37.012c15.945,12.161,23.57,21.503,23.57,37.012
	c0,4.142,3.357,7.5,7.5,7.5h30.003c4.143,0,7.5-3.358,7.5-7.5C301.095,426.358,285.515,406.576,269.652,392.663z M178.905,198.234
	c0-27.87,14.767-44.723,32.589-58.759c0.171-0.125,0.339-0.255,0.501-0.396c5.242-4.1,10.735-7.967,16.189-11.802
	c23.023-16.188,42.907-30.168,42.907-58.684c0-21.279-17.312-38.591-38.591-38.591c-21.279,0-38.591,17.312-38.591,38.591
	c0,21.429,11.521,34.681,25.944,46.205c-0.101,0.071-0.199,0.14-0.3,0.211c-4.004,2.815-8.165,5.745-12.33,8.859
	c-14.655-12.355-28.317-28.791-28.317-55.275C178.906,39.042,202.948,15,232.5,15s53.594,24.042,53.594,53.594
	c0,27.915-14.814,44.778-32.673,58.826c-0.135,0.101-0.269,0.203-0.398,0.314c-5.248,4.106-10.747,7.977-16.208,11.816
	c-23.023,16.188-42.906,30.169-42.906,58.684c0,21.429,11.521,34.679,25.945,46.203c-0.1,0.07-0.195,0.138-0.295,0.208
	c-4.005,2.816-8.169,5.747-12.335,8.862C192.568,241.153,178.905,224.718,178.905,198.234z M208.909,68.594
	c0-13.008,10.583-23.591,23.591-23.591s23.591,10.583,23.591,23.591c0,15.21-7.314,24.523-23.615,37.018
	C216.529,93.448,208.909,84.108,208.909,68.594z M256.092,198.234c0,15.208-7.316,24.521-23.614,37.014
	c-15.944-12.161-23.569-21.502-23.569-37.014c0-15.21,7.316-24.522,23.615-37.016C248.467,173.38,256.092,182.721,256.092,198.234z
	 M178.906,327.869c0-27.944,14.846-44.811,32.73-58.868c0.061-0.047,0.122-0.094,0.182-0.144
	c5.296-4.152,10.852-8.064,16.368-11.942c23.023-16.188,42.906-30.167,42.906-58.681c0-21.43-11.521-34.681-25.945-46.205
	c0.1-0.07,0.196-0.139,0.297-0.209c4.005-2.816,8.167-5.746,12.333-8.861c14.655,12.355,28.319,28.792,28.319,55.275
	c0,27.979-14.883,44.854-32.797,58.922c-0.084,0.066-0.17,0.129-0.252,0.199c-5.255,4.112-10.762,7.989-16.23,11.834
	c-23.023,16.188-42.906,30.167-42.906,58.681c0,21.426,11.521,34.677,25.944,46.2c-0.1,0.07-0.196,0.138-0.296,0.209
	c-4.005,2.816-8.168,5.746-12.334,8.861C192.569,370.785,178.906,354.351,178.906,327.869z M256.091,327.869
	c0,15.207-7.315,24.519-23.613,37.011c-15.944-12.161-23.569-21.501-23.569-37.011c0-15.208,7.316-24.52,23.613-37.013
	C248.466,303.017,256.091,312.358,256.091,327.869z M194.398,450h-15.119c2.401-23.502,16.07-38.556,32.251-51.291
	c0.114-0.084,0.226-0.169,0.335-0.26c5.281-4.137,10.82-8.035,16.319-11.901c23.023-16.187,42.906-30.166,42.906-58.679
	c0-21.428-11.52-34.678-25.943-46.202c0.1-0.071,0.196-0.139,0.297-0.21c4.005-2.816,8.167-5.746,12.332-8.86
	c14.654,12.354,28.317,28.789,28.317,55.271c0,27.871-14.77,44.723-32.592,58.758c-0.168,0.123-0.334,0.251-0.493,0.389
	c-5.244,4.101-10.739,7.969-16.194,11.805C215.906,413.521,197.587,426.403,194.398,450z M270.592,450
	c-2.359-17.139-12.785-28.584-25.447-38.7c0.101-0.071,0.197-0.139,0.298-0.21c4.005-2.816,8.168-5.746,12.333-8.86
	c13.22,11.144,25.632,25.607,27.937,47.77H270.592z"/>
<g>
</g>
<g>
</g>
<g>
</g>
<g>
</g>
<g>
</g>
<g>
</g>
<g>
</g>
<g>
</g>
<g>
</g>
<g>
</g>
<g>
</g>
<g>
</g>
<g>
</g>
<g>
</g>
<g>
</g>
</svg>
