<?xml version="1.0" encoding="iso-8859-1"?>
<!-- Generator: Adobe Illustrator 17.1.0, SVG Export Plug-In . SVG Version: 6.00 Build 0)  -->
<!DOCTYPE svg PUBLIC "-//W3C//DTD SVG 1.1//EN" "http://www.w3.org/Graphics/SVG/1.1/DTD/svg11.dtd">
<svg version="1.1" id="Capa_1" xmlns="http://www.w3.org/2000/svg" xmlns:xlink="http://www.w3.org/1999/xlink" x="0px" y="0px"
	 viewBox="0 0 464.323 464.323" style="enable-background:new 0 0 464.323 464.323;" xml:space="preserve">
<g>
	<path d="M122.011,416.239c45.384-6.096,85.016-23.814,112.261-39.14c36.206-20.367,58.419-40.524,59.347-41.372
		c1.818-1.662,2.77-4.069,2.578-6.525C289.406,241.752,274.292,57.996,270.832,16h1.313c4.418,0,8-3.582,8-8s-3.582-8-8-8h-10
		c-2.236,0-4.37,0.936-5.885,2.581c-1.515,1.645-2.272,3.849-2.088,6.078c0.181,2.191,17.935,217.353,25.761,317.768
		c-7.022,5.946-26.42,21.532-53.874,36.935c-31.771,17.824-81.194,39.07-136.236,39.07c-17.063,0-30.946,13.882-30.946,30.946
		s13.883,30.946,30.946,30.946c3.15,0,6.238-0.014,9.264-0.041c4.418-0.039,7.968-3.652,7.93-8.07
		c-0.039-4.395-3.613-7.93-7.999-7.93c-0.023,0-0.048,0-0.071,0c-2.979,0.026-6.02,0.04-9.123,0.04
		c-8.241,0-14.946-6.705-14.946-14.946s6.705-14.946,14.946-14.946c5.45,0,10.845-0.196,16.175-0.563l-0.032,4.203
		c-0.033,4.418,3.521,8.027,7.939,8.061c0.021,0,0.041,0,0.062,0c4.39,0,7.965-3.542,7.999-7.939L122.011,416.239z"/>
	<path d="M405.392,8.931c0.266-2.268-0.45-4.542-1.969-6.248C401.906,0.976,399.731,0,397.447,0h-95.302c-4.418,0-8,3.582-8,8
		s3.582,8,8,8h86.324c-4.554,39.649-23.048,203.377-33.325,334.903c-0.553,7.071,2.485,17.924,7.556,34.959
		c3.162,10.627,6.747,22.672,6.747,27.616c0,19.213-15.631,34.845-34.845,34.845c-10.842,0-15.498-1.732-22.547-4.355
		c-7.347-2.733-16.489-6.135-34.779-8.333c-20.972-2.52-38.297-0.018-62.275,3.443c-21.196,3.06-47.575,6.868-86.316,8.473
		c-4.415,0.183-7.845,3.91-7.662,8.324c0.183,4.415,3.934,7.843,8.324,7.662c39.557-1.639,66.384-5.512,87.94-8.624
		c22.764-3.286,39.21-5.66,58.081-3.393c16.401,1.971,24.214,4.877,31.107,7.442c7.408,2.756,14.405,5.36,28.127,5.36
		c28.036,0,50.845-22.809,50.845-50.845c0-7.274-3.435-18.816-7.412-32.18c-3.081-10.353-7.3-24.53-6.939-29.149
		C382.794,202.45,405.168,10.849,405.392,8.931z"/>
</g>
<g>
</g>
<g>
</g>
<g>
</g>
<g>
</g>
<g>
</g>
<g>
</g>
<g>
</g>
<g>
</g>
<g>
</g>
<g>
</g>
<g>
</g>
<g>
</g>
<g>
</g>
<g>
</g>
<g>
</g>
</svg>
