<?xml version="1.0" encoding="iso-8859-1"?>
<!-- Generator: Adobe Illustrator 17.1.0, SVG Export Plug-In . SVG Version: 6.00 Build 0)  -->
<!DOCTYPE svg PUBLIC "-//W3C//DTD SVG 1.1//EN" "http://www.w3.org/Graphics/SVG/1.1/DTD/svg11.dtd">
<svg version="1.1" id="Capa_1" xmlns="http://www.w3.org/2000/svg" xmlns:xlink="http://www.w3.org/1999/xlink" x="0px" y="0px"
	 viewBox="0 0 465 465" style="enable-background:new 0 0 465 465;" xml:space="preserve">
<g>
	<path d="M456.484,133.275c4.142,0,7.5-3.357,7.5-7.5s-3.358-7.5-7.5-7.5h-21.34V86.538H457.5c4.142,0,7.5-3.357,7.5-7.5
		s-3.358-7.5-7.5-7.5h-22.961c-2.945-18.291-16.502-33.307-34.982-37.787c-4.029-0.974-8.08,1.498-9.056,5.522
		c-0.976,4.025,1.497,8.08,5.522,9.056c14.202,3.442,24.121,16.07,24.121,30.709v366.256c0,4.143,3.358,7.5,7.5,7.5
		s7.5-3.357,7.5-7.5v-31.597h15.248c4.142,0,7.5-3.357,7.5-7.5s-3.358-7.5-7.5-7.5h-15.248v-31.737h16.263
		c4.142,0,7.5-3.357,7.5-7.5s-3.358-7.5-7.5-7.5h-16.263v-31.737h17.278c4.142,0,7.5-3.357,7.5-7.5s-3.358-7.5-7.5-7.5h-17.278
		v-31.736h18.294c4.142,0,7.5-3.357,7.5-7.5s-3.358-7.5-7.5-7.5h-18.294v-31.737h19.31c4.142,0,7.5-3.357,7.5-7.5
		s-3.358-7.5-7.5-7.5h-19.31v-31.737h20.325c4.142,0,7.5-3.357,7.5-7.5s-3.358-7.5-7.5-7.5h-20.325v-31.736H456.484z"/>
	<path d="M74.499,39.273c-0.976-4.025-5.027-6.496-9.056-5.522c-18.48,4.48-32.038,19.496-34.982,37.787H7.5
		c-4.142,0-7.5,3.357-7.5,7.5s3.358,7.5,7.5,7.5h22.356v31.737H8.516c-4.142,0-7.5,3.357-7.5,7.5s3.358,7.5,7.5,7.5h21.34v31.736
		H9.531c-4.142,0-7.5,3.357-7.5,7.5s3.358,7.5,7.5,7.5h20.325v31.737h-19.31c-4.142,0-7.5,3.357-7.5,7.5s3.358,7.5,7.5,7.5h19.31
		v31.737H11.562c-4.142,0-7.5,3.357-7.5,7.5s3.358,7.5,7.5,7.5h18.294v31.736H12.578c-4.142,0-7.5,3.357-7.5,7.5s3.358,7.5,7.5,7.5
		h17.278v31.737H13.593c-4.142,0-7.5,3.357-7.5,7.5s3.358,7.5,7.5,7.5h16.263v31.737H14.608c-4.142,0-7.5,3.357-7.5,7.5
		s3.358,7.5,7.5,7.5h15.248v31.597c0,4.143,3.358,7.5,7.5,7.5s7.5-3.357,7.5-7.5V79.038c0-14.639,9.919-27.267,24.121-30.709
		C73.002,47.353,75.475,43.298,74.499,39.273z"/>
	<path d="M204.557,133.017c-13.401,9.019-22.235,24.324-22.235,41.657c0,27.669,22.51,50.179,50.179,50.179
		s50.179-22.51,50.179-50.179c0-17.332-8.835-32.638-22.235-41.657c21.122-10.367,35.701-32.093,35.701-57.166
		c0-35.094-28.551-63.645-63.645-63.645s-63.645,28.551-63.645,63.645C168.855,100.924,183.435,122.65,204.557,133.017z
		 M267.679,174.673c0,19.397-15.781,35.179-35.179,35.179s-35.179-15.781-35.179-35.179s15.781-35.179,35.179-35.179
		S267.679,155.276,267.679,174.673z M232.5,27.206c26.823,0,48.645,21.822,48.645,48.645s-21.822,48.645-48.645,48.645
		s-48.645-21.822-48.645-48.645S205.677,27.206,232.5,27.206z"/>
	<path d="M397.644,235.117H67.356c-4.142,0-7.5,3.357-7.5,7.5s3.358,7.5,7.5,7.5h210.47l17.554,187.677H97.41
		c-6.414,0-11.632-5.218-11.632-11.632c0-5.304,3.611-9.943,8.782-11.283c20.468-5.303,124.542-32.464,125.591-32.737
		c1.955-0.51,3.621-1.787,4.622-3.542c1-1.755,1.25-3.84,0.694-5.781L196.152,270.55c-1.142-3.982-5.293-6.281-9.276-5.144
		c-3.982,1.142-6.285,5.295-5.143,9.276l27.198,94.884c-12.175,3.177-37.449,9.771-61.818,16.125l-42.617-42.617
		c-2.197-2.196-3.407-5.118-3.407-8.226c0-3.106,1.21-6.028,3.407-8.225c3.75-3.751,9.583-4.479,14.188-1.769
		c11.361,6.686,58.194,34.314,58.194,34.315l7.622-12.92c0,0-46.845-27.636-58.209-34.323c-10.494-6.176-23.817-4.493-32.401,4.089
		c-5.03,5.03-7.801,11.719-7.801,18.832c0,7.114,2.771,13.803,7.801,18.833l36.397,36.396c-17.672,4.606-32.909,8.574-39.489,10.28
		c-11.787,3.054-20.02,13.665-20.02,25.803c0,14.685,11.947,26.632,26.632,26.632h206.175c0.007,0,0.014,0.001,0.021,0.001
		c0.007,0,0.014-0.001,0.021-0.001h28.332c4.142,0,7.5-3.357,7.5-7.5s-3.358-7.5-7.5-7.5h-21.513l-17.554-187.677h104.752
		c4.142,0,7.5-3.357,7.5-7.5S401.786,235.117,397.644,235.117z"/>
</g>
<g>
</g>
<g>
</g>
<g>
</g>
<g>
</g>
<g>
</g>
<g>
</g>
<g>
</g>
<g>
</g>
<g>
</g>
<g>
</g>
<g>
</g>
<g>
</g>
<g>
</g>
<g>
</g>
<g>
</g>
</svg>
