<?xml version="1.0" encoding="iso-8859-1"?>
<!-- Generator: Adobe Illustrator 17.1.0, SVG Export Plug-In . SVG Version: 6.00 Build 0)  -->
<!DOCTYPE svg PUBLIC "-//W3C//DTD SVG 1.1//EN" "http://www.w3.org/Graphics/SVG/1.1/DTD/svg11.dtd">
<svg version="1.1" id="Capa_1" xmlns="http://www.w3.org/2000/svg" xmlns:xlink="http://www.w3.org/1999/xlink" x="0px" y="0px"
	 viewBox="0 0 465 465" style="enable-background:new 0 0 465 465;" xml:space="preserve">
<g>
	<path d="M232.5,160.926c-4.142,0-7.5,3.358-7.5,7.5v5.262h-0.298c-4.142,0-7.5,3.358-7.5,7.5s3.358,7.5,7.5,7.5h15.596
		c4.143,0,7.5-3.358,7.5-7.5s-3.357-7.5-7.5-7.5H240v-5.262C240,164.284,236.643,160.926,232.5,160.926z"/>
	<path d="M174.787,118.13c1.049,3.014,3.892,5.034,7.083,5.034H225v17.762h-0.298c-4.142,0-7.5,3.358-7.5,7.5s3.358,7.5,7.5,7.5
		h15.596c4.143,0,7.5-3.358,7.5-7.5s-3.357-7.5-7.5-7.5H240v-17.762h43.13c3.191,0,6.033-2.02,7.083-5.034l10.944-31.433
		c0.799-2.293,0.438-4.832-0.97-6.811c-1.406-1.979-3.685-3.155-6.113-3.155H240V60.847c14.297-3.395,24.967-16.263,24.967-31.583
		V15h2.5c4.143,0,7.5-3.358,7.5-7.5s-3.357-7.5-7.5-7.5h-69.934c-4.142,0-7.5,3.358-7.5,7.5s3.358,7.5,7.5,7.5h2.5v14.264
		c0,15.321,10.67,28.188,24.967,31.583v15.884h-54.074c-2.428,0-4.707,1.176-6.113,3.155c-1.407,1.979-1.768,4.518-0.97,6.811
		L174.787,118.13z M215.033,29.264V15h34.934v14.264c0,9.631-7.836,17.467-17.467,17.467
		C222.869,46.731,215.033,38.895,215.033,29.264z M283.522,91.731l-5.722,16.433h-90.6l-5.721-16.433H283.522z"/>
	<path d="M413.625,172.731h-4.827v-24.305c0-4.142-3.357-7.5-7.5-7.5s-7.5,3.358-7.5,7.5v24.305h-4.828c-4.143,0-7.5,3.358-7.5,7.5
		v112.415c0,4.142,3.357,7.5,7.5,7.5h4.828v113.167c0,7.812-6.355,14.167-14.167,14.167s-14.166-6.355-14.166-14.167V198.468
		c0-20.607-16.766-37.373-37.373-37.373c-6.746,0-12.807,1.523-18.105,4.523c-2.85-1.569-6.501-1.152-8.918,1.264
		c-2.048,2.048-2.659,4.985-1.842,7.568c-10.299,10.002-30.945,30.883-40.376,40.447c-5.504-3.928-11.912-6.661-18.851-7.818v-5.892
		c0-4.142-3.357-7.5-7.5-7.5c-4.142,0-7.5,3.358-7.5,7.5v5.892c-6.939,1.157-13.347,3.89-18.851,7.818
		c-9.431-9.563-30.077-30.445-40.376-40.447c0.817-2.583,0.206-5.52-1.843-7.568c-2.416-2.416-6.067-2.833-8.917-1.264
		c-5.297-3.001-11.358-4.523-18.105-4.523c-20.607,0-37.372,16.765-37.372,37.373v214.845c0,7.812-6.355,14.167-14.167,14.167
		s-14.167-6.355-14.167-14.167V300.146h4.828c4.142,0,7.5-3.358,7.5-7.5V180.231c0-4.142-3.358-7.5-7.5-7.5h-4.828v-24.305
		c0-4.142-3.358-7.5-7.5-7.5s-7.5,3.358-7.5,7.5v24.305h-4.828c-4.142,0-7.5,3.358-7.5,7.5v112.415c0,4.142,3.358,7.5,7.5,7.5h4.828
		v113.167c0,16.083,13.084,29.167,29.167,29.167s29.167-13.084,29.167-29.167V198.468c0-12.336,10.036-22.373,22.372-22.373
		c3.102,0,5.81,0.471,8.251,1.413c-0.193,2.138,0.527,4.344,2.165,5.981c1.464,1.464,3.384,2.197,5.303,2.197
		c0.91,0,1.818-0.17,2.679-0.499c9.274,9.011,28.65,28.568,40.225,40.305c-5.347,7.456-8.508,16.582-8.508,26.437
		c0,11.715,4.454,22.407,11.755,30.478h-0.566c-4.142,0-7.5,3.358-7.5,7.5s3.358,7.5,7.5,7.5h2.5v45.562
		c-21.066,11.55-34.43,33.841-34.43,58.083V450h-2.5c-4.142,0-7.5,3.358-7.5,7.5s3.358,7.5,7.5,7.5h10H291.22h10
		c4.143,0,7.5-3.358,7.5-7.5s-3.357-7.5-7.5-7.5h-2.5v-48.948c0-24.242-13.363-46.534-34.431-58.083v-45.562h2.5
		c4.143,0,7.5-3.358,7.5-7.5s-3.357-7.5-7.5-7.5h-0.566c7.301-8.071,11.755-18.763,11.755-30.478c0-9.855-3.161-18.981-8.509-26.437
		c11.575-11.737,30.951-31.294,40.224-40.305c0.861,0.329,1.769,0.499,2.679,0.499c1.919,0,3.839-0.732,5.304-2.197
		c1.637-1.637,2.357-3.842,2.164-5.981c2.441-0.942,5.149-1.413,8.251-1.413c12.337,0,22.373,10.036,22.373,22.373v214.845
		c0,16.083,13.084,29.167,29.166,29.167c16.083,0,29.167-13.084,29.167-29.167V300.146h4.827c4.143,0,7.5-3.358,7.5-7.5V180.231
		C421.125,176.089,417.768,172.731,413.625,172.731z M68.53,187.731v97.415h-9.655v-97.415H68.53z M232.5,282.407
		c-16.806,0-30.479-13.672-30.479-30.478c0-16.806,13.672-30.479,30.479-30.479c16.806,0,30.479,13.672,30.479,30.479
		C262.979,268.734,249.306,282.407,232.5,282.407z M253.683,354.42c18.247,8.305,30.037,26.609,30.037,46.631V450H181.281v-48.948
		c0-19.5,11.186-37.367,28.626-45.958h16.884c4.142,0,7.5-3.358,7.5-7.5s-3.357-7.5-7.5-7.5h-11.079v-42.688h33.579v50.188
		C249.289,350.534,251.007,353.203,253.683,354.42z M396.47,285.146v-97.415h9.655v97.415H396.47z"/>
</g>
<g>
</g>
<g>
</g>
<g>
</g>
<g>
</g>
<g>
</g>
<g>
</g>
<g>
</g>
<g>
</g>
<g>
</g>
<g>
</g>
<g>
</g>
<g>
</g>
<g>
</g>
<g>
</g>
<g>
</g>
</svg>
