<?xml version="1.0" encoding="iso-8859-1"?>
<!-- Generator: Adobe Illustrator 17.1.0, SVG Export Plug-In . SVG Version: 6.00 Build 0)  -->
<!DOCTYPE svg PUBLIC "-//W3C//DTD SVG 1.1//EN" "http://www.w3.org/Graphics/SVG/1.1/DTD/svg11.dtd">
<svg version="1.1" id="Capa_1" xmlns="http://www.w3.org/2000/svg" xmlns:xlink="http://www.w3.org/1999/xlink" x="0px" y="0px"
	 viewBox="0 0 465 465" style="enable-background:new 0 0 465 465;" xml:space="preserve">
<g>
	<path d="M390.782,301.798c-3.364-2.412-8.053-1.642-10.465,1.725c-2.414,3.366-1.642,8.052,1.725,10.465
		c7.42,5.32,13.621,11.982,18.365,19.521c-14.329,4.715-24.707,18.217-24.707,34.104V457.5c0,4.142,3.357,7.5,7.5,7.5
		s7.5-3.358,7.5-7.5v-89.887c0-9.966,7.017-18.313,16.367-20.391c2.646,7.402,4.058,15.277,4.058,23.31c0,4.142,3.357,7.5,7.5,7.5
		s7.5-3.358,7.5-7.5C426.125,343.361,412.913,317.666,390.782,301.798z"/>
	<path d="M295.287,323.635c23.915-33.415,40.796-91.77,42.154-145.166c15.178-2.49,27.85-12.503,34.071-26.066
		c3.417,5.953,6.506,12.153,9.228,18.589c1.613,3.816,6.019,5.599,9.829,3.987c3.815-1.613,5.601-6.014,3.987-9.829
		C365.529,96.503,298.639,52.132,224.12,52.079c-0.005,0-0.01-0.001-0.015-0.001c-0.009,0-0.018,0-0.028,0
		c-0.03,0-0.06-0.001-0.09-0.001c-102.071,0-185.113,83.042-185.113,185.113V457.5c0,4.142,3.358,7.5,7.5,7.5h177.613
		c4.142,0,7.5-3.358,7.5-7.5V328.686h48.8l0.001,128.814c0,4.142,3.357,7.5,7.5,7.5h49.787c4.143,0,7.5-3.358,7.5-7.5V294.509
		c0-4.142-3.357-7.5-7.5-7.5s-7.5,3.358-7.5,7.5V390h-34.788L295.287,323.635z M156.505,81.051
		c-16.035,16.792-25.895,39.528-25.895,64.524c0,48.989,37.874,89.294,85.878,93.184V390H53.875V237.191
		C53.875,167.355,96.181,107.223,156.505,81.051z M53.875,450v-15h22.5c4.142,0,7.5-3.358,7.5-7.5s-3.358-7.5-7.5-7.5h-22.5v-15
		h162.613v15H106.375c-4.142,0-7.5,3.358-7.5,7.5s3.358,7.5,7.5,7.5h110.113v15H53.875z M231.488,239.071h28.543
		c4.143,0,7.5-3.358,7.5-7.5s-3.357-7.5-7.5-7.5h-35.925c-43.283,0-78.496-35.213-78.496-78.496
		c0-43.277,35.204-78.486,78.479-78.496c50.375,0.029,96.957,22.098,128.69,58.873h-26.935c-18.368,0-33.313,14.944-33.313,33.313
		c0,4.142,3.357,7.5,7.5,7.5s7.5-3.358,7.5-7.5c0-10.098,8.215-18.313,18.313-18.313h33.873
		c-3.354,13.269-15.39,23.119-29.686,23.119c-4.143,0-7.5,3.358-7.5,7.5c0,51.735-15.752,109.406-38.579,142.115h-52.464V239.071z
		 M295.288,450l0-15h34.787v15H295.288z M330.075,405v15h-34.787l0-15H330.075z"/>
	<path d="M223.988,37.078c4.142,0,7.5-3.358,7.5-7.5V7.5c0-4.142-3.358-7.5-7.5-7.5s-7.5,3.358-7.5,7.5v22.078
		C216.488,33.72,219.845,37.078,223.988,37.078z"/>
	<path d="M152.464,42.644c1.129,3.011,3.987,4.869,7.023,4.869c0.875,0,1.765-0.154,2.632-0.479c3.878-1.454,5.844-5.777,4.39-9.655
		l-7.499-20c-1.454-3.879-5.779-5.844-9.655-4.39c-3.879,1.454-5.844,5.777-4.39,9.655L152.464,42.644z"/>
	<path d="M285.856,47.033c0.867,0.325,1.757,0.479,2.632,0.479c3.036,0,5.895-1.858,7.023-4.869l7.499-20
		c1.454-3.878-0.511-8.202-4.39-9.656c-3.877-1.454-8.201,0.511-9.655,4.389l-7.499,20
		C280.012,41.256,281.977,45.579,285.856,47.033z"/>
	<path d="M273.413,126.293c-7.444-14.916-27.942-30.344-49.36-30.344c-21.645,0-39.255,15.115-39.255,33.693
		s17.61,33.693,39.255,33.693c21.418,0,41.916-15.428,49.36-30.344C274.465,130.883,274.465,128.402,273.413,126.293z
		 M224.053,148.336c-13.374,0-24.255-8.386-24.255-18.693s10.881-18.693,24.255-18.693c13.135,0,27.342,9.278,33.927,18.693
		C251.395,139.058,237.188,148.336,224.053,148.336z"/>
</g>
<g>
</g>
<g>
</g>
<g>
</g>
<g>
</g>
<g>
</g>
<g>
</g>
<g>
</g>
<g>
</g>
<g>
</g>
<g>
</g>
<g>
</g>
<g>
</g>
<g>
</g>
<g>
</g>
<g>
</g>
</svg>
