<?xml version="1.0" encoding="iso-8859-1"?>
<!-- Generator: Adobe Illustrator 17.1.0, SVG Export Plug-In . SVG Version: 6.00 Build 0)  -->
<!DOCTYPE svg PUBLIC "-//W3C//DTD SVG 1.1//EN" "http://www.w3.org/Graphics/SVG/1.1/DTD/svg11.dtd">
<svg version="1.1" id="Capa_1" xmlns="http://www.w3.org/2000/svg" xmlns:xlink="http://www.w3.org/1999/xlink" x="0px" y="0px"
	 viewBox="0 0 465 465" style="enable-background:new 0 0 465 465;" xml:space="preserve">
<g>
	<path d="M76.351,116.807c1.49,3.865,5.832,5.79,9.696,4.299c3.865-1.49,5.79-5.832,4.299-9.696
		c-4.976-12.903-8.75-25.086-11.279-36.396c20.002,11.816,41.565,29.315,63.159,51.31c1.646,9.194,3.604,18.569,5.874,28.074
		c0.823,3.443,3.897,5.759,7.289,5.759c0.577,0,1.163-0.067,1.749-0.207c4.029-0.962,6.515-5.009,5.552-9.038
		c-10.128-42.398-13.882-81.89-10.897-113.205c7.622,8.648,15.221,18.801,22.697,30.334c2.253,3.476,6.898,4.467,10.373,2.214
		c3.476-2.253,4.467-6.897,2.214-10.373c-11.541-17.804-23.461-32.599-35.428-43.972c-1.994-1.896-4.866-2.548-7.484-1.696
		c-2.617,0.85-4.559,3.065-5.058,5.771c-4.209,22.802-4.346,50.87-0.58,81.804c-22.888-21.276-45.562-37.53-66.34-47.46
		c-2.483-1.188-5.417-0.918-7.642,0.7c-2.227,1.617-3.388,4.324-3.027,7.052C63.692,78.51,68.683,96.923,76.351,116.807z"/>
	<path d="M280.138,70.255c3.476,2.252,8.119,1.263,10.373-2.214c7.476-11.533,15.075-21.686,22.697-30.334
		c2.985,31.315-0.769,70.807-10.897,113.205c-0.962,4.029,1.523,8.075,5.552,9.038c0.586,0.14,1.172,0.207,1.749,0.207
		c3.391,0,6.466-2.316,7.289-5.759c2.27-9.504,4.228-18.88,5.874-28.074c21.594-21.995,43.157-39.494,63.159-51.31
		c-2.53,11.311-6.304,23.494-11.279,36.396c-1.491,3.865,0.434,8.206,4.299,9.696c3.865,1.49,8.206-0.435,9.696-4.299
		c7.668-19.884,12.659-38.297,14.834-54.726c0.361-2.728-0.8-5.435-3.027-7.052c-2.226-1.617-5.158-1.886-7.642-0.7
		c-20.778,9.93-43.453,26.184-66.34,47.46c3.765-30.934,3.629-59.002-0.58-81.804c-0.5-2.706-2.441-4.921-5.058-5.771
		c-2.616-0.852-5.49-0.199-7.484,1.696c-11.967,11.373-23.887,26.167-35.428,43.972C275.671,63.358,276.662,68.002,280.138,70.255z"
		/>
	<path d="M462.71,128.255c2.329-2.249,2.952-5.74,1.544-8.656c-1.408-2.916-4.527-4.6-7.738-4.174
		c-45.196,5.984-105.492,33.76-161.292,74.302c-7.568,5.499-14.987,11.182-22.187,16.987c0.492-9.464,0.75-19.028,0.75-28.626
		c0-68.974-12.969-134.081-34.693-174.161C237.783,1.507,235.252,0,232.5,0s-5.283,1.507-6.594,3.926
		c-21.724,40.08-34.693,105.187-34.693,174.161c0,9.598,0.257,19.162,0.75,28.626c-7.2-5.805-14.618-11.488-22.187-16.987
		c-55.8-40.542-116.096-68.318-161.292-74.302c-3.21-0.426-6.33,1.258-7.738,4.174c-1.408,2.916-0.785,6.407,1.544,8.656
		l160.214,154.711c0.323,7.016,1.689,13.762,3.936,20.097c-2.388,1.255-4.018,3.755-4.018,6.64c0,4.142,3.358,7.5,7.5,7.5h3.423
		c11.176,17.567,29.942,29.85,51.655,32.172V457.5c0,4.142,3.358,7.5,7.5,7.5s7.5-3.358,7.5-7.5V349.374
		c21.713-2.321,40.479-14.604,51.655-32.172h3.423c4.142,0,7.5-3.358,7.5-7.5c0-2.885-1.631-5.385-4.018-6.64
		c2.247-6.334,3.612-13.08,3.936-20.097L462.71,128.255z M304.041,201.862c44.042-31.999,90.669-55.719,129.622-66.41
		l-141.614,136.75H265.37c2.701-14.265,4.773-29.299,6.185-44.774C281.875,218.633,292.785,210.04,304.041,201.862z M232.5,24.715
		c16.592,38.369,26.287,94.231,26.287,153.373c0,32.819-2.996,65.209-8.683,94.114h-35.208c-5.687-28.905-8.683-61.296-8.683-94.114
		C206.213,118.946,215.908,63.084,232.5,24.715z M160.96,201.862c11.256,8.178,22.166,16.771,32.485,25.567
		c1.412,15.475,3.485,30.509,6.185,44.774h-26.678L31.338,135.452C70.29,146.142,116.918,169.863,160.96,201.862z M232.5,334.78
		c-15.894,0-30.229-6.774-40.292-17.578h6.568c4.142,0,7.5-3.358,7.5-7.5s-3.358-7.5-7.5-7.5h-16.535
		c-2.109-4.692-3.59-9.726-4.311-15h30.816c0.008,0,0.015,0.002,0.023,0.002c0.012,0,0.025-0.002,0.037-0.002h47.339
		c0.021,0,0.042,0,0.063,0h30.862c-0.721,5.274-2.202,10.308-4.311,15h-53.983c-4.142,0-7.5,3.358-7.5,7.5s3.358,7.5,7.5,7.5h44.016
		C262.73,328.006,248.394,334.78,232.5,334.78z"/>
</g>
<g>
</g>
<g>
</g>
<g>
</g>
<g>
</g>
<g>
</g>
<g>
</g>
<g>
</g>
<g>
</g>
<g>
</g>
<g>
</g>
<g>
</g>
<g>
</g>
<g>
</g>
<g>
</g>
<g>
</g>
</svg>
