<?xml version="1.0" encoding="iso-8859-1"?>
<!-- Generator: Adobe Illustrator 17.1.0, SVG Export Plug-In . SVG Version: 6.00 Build 0)  -->
<!DOCTYPE svg PUBLIC "-//W3C//DTD SVG 1.1//EN" "http://www.w3.org/Graphics/SVG/1.1/DTD/svg11.dtd">
<svg version="1.1" id="Capa_1" xmlns="http://www.w3.org/2000/svg" xmlns:xlink="http://www.w3.org/1999/xlink" x="0px" y="0px"
	 viewBox="0 0 465 465" style="enable-background:new 0 0 465 465;" xml:space="preserve">
<g>
	<path d="M176.409,191.616H76.955c-4.142,0-7.5,3.357-7.5,7.5s3.358,7.5,7.5,7.5h99.455c4.142,0,7.5-3.357,7.5-7.5
		S180.551,191.616,176.409,191.616z"/>
	<path d="M288.591,206.616h99.455c4.143,0,7.5-3.357,7.5-7.5s-3.357-7.5-7.5-7.5h-99.455c-4.143,0-7.5,3.357-7.5,7.5
		S284.448,206.616,288.591,206.616z"/>
	<path d="M457.5,226.299h-27.228v-91.233c0-4.143-3.357-7.5-7.5-7.5h-85.405L234.187,7.575c-1.425-1.657-3.501-2.61-5.687-2.61
		c-2.186,0-4.262,0.953-5.687,2.61l-103.18,119.99H42.227c-4.142,0-7.5,3.357-7.5,7.5v91.233H7.5c-4.142,0-7.5,3.357-7.5,7.5v98.734
		c0,4.143,3.358,7.5,7.5,7.5h161.659l-25.334,110.829c-0.923,4.037,1.602,8.06,5.64,8.982c0.563,0.129,1.125,0.19,1.678,0.19
		c3.42,0,6.51-2.355,7.305-5.831l48.668-212.905h50.769l48.668,212.905c0.795,3.476,3.885,5.831,7.305,5.831
		c0.554,0,1.116-0.062,1.678-0.19c4.038-0.923,6.563-4.945,5.641-8.982l-25.334-110.829H457.5c4.143,0,7.5-3.357,7.5-7.5v-98.734
		C465,229.656,461.643,226.299,457.5,226.299z M228.5,23.968l89.085,103.598H139.416L228.5,23.968z M49.727,142.565h365.545v83.733
		H261.363v-61.233c0-4.143-3.357-7.5-7.5-7.5h-42.727c-4.142,0-7.5,3.357-7.5,7.5v61.233H49.727V142.565z M246.363,226.299h-27.727
		v-53.733h27.727V226.299z M172.588,325.033h-18.679v-41.867c0-4.143-3.358-7.5-7.5-7.5s-7.5,3.357-7.5,7.5v41.867h-19.728v-41.867
		c0-4.143-3.358-7.5-7.5-7.5s-7.5,3.357-7.5,7.5v41.867H84.455v-41.867c0-4.143-3.358-7.5-7.5-7.5c-4.142,0-7.5,3.357-7.5,7.5
		v41.867H49.727v-41.867c0-4.143-3.358-7.5-7.5-7.5s-7.5,3.357-7.5,7.5v41.867H15v-83.734h176.728L172.588,325.033z M450,325.033
		h-19.728v-41.867c0-4.143-3.357-7.5-7.5-7.5s-7.5,3.357-7.5,7.5v41.867h-19.727v-41.867c0-4.143-3.357-7.5-7.5-7.5
		s-7.5,3.357-7.5,7.5v41.867h-19.728v-41.867c0-4.143-3.357-7.5-7.5-7.5s-7.5,3.357-7.5,7.5v41.867h-19.728v-41.867
		c0-4.143-3.357-7.5-7.5-7.5s-7.5,3.357-7.5,7.5v41.867h-18.679l-19.141-83.734H450V325.033z"/>
</g>
<g>
</g>
<g>
</g>
<g>
</g>
<g>
</g>
<g>
</g>
<g>
</g>
<g>
</g>
<g>
</g>
<g>
</g>
<g>
</g>
<g>
</g>
<g>
</g>
<g>
</g>
<g>
</g>
<g>
</g>
</svg>
