<?xml version="1.0" encoding="iso-8859-1"?>
<!-- Generator: Adobe Illustrator 17.1.0, SVG Export Plug-In . SVG Version: 6.00 Build 0)  -->
<!DOCTYPE svg PUBLIC "-//W3C//DTD SVG 1.1//EN" "http://www.w3.org/Graphics/SVG/1.1/DTD/svg11.dtd">
<svg version="1.1" id="Capa_1" xmlns="http://www.w3.org/2000/svg" xmlns:xlink="http://www.w3.org/1999/xlink" x="0px" y="0px"
	 viewBox="0 0 465 465" style="enable-background:new 0 0 465 465;" xml:space="preserve">
<g>
	<path d="M359.789,204.209c-1.498-1.416-3.509-2.154-5.571-2.039l-67.758,3.785c6.814-7.158,13.099-15.166,18.611-23.757
		c15.107-23.541,23.428-50.131,23.428-74.871c0-27.155-9.011-53.035-25.373-72.873C285.064,12.559,259.322,0,232.5,0
		s-52.564,12.558-70.625,34.455C145.512,54.292,136.5,80.171,136.5,107.328c0,24.741,8.32,51.33,23.427,74.871
		c5.513,8.591,11.798,16.599,18.611,23.756l-67.756-3.785c-2.066-0.121-4.075,0.623-5.572,2.039
		c-1.498,1.417-2.347,3.388-2.347,5.449v38.695c0,2.062,0.849,4.033,2.347,5.449c1.499,1.417,3.515,2.155,5.572,2.039l91.984-5.139
		l-20.404,197.202c-0.325,3.136,1.347,6.141,4.183,7.519c0.805,0.391,20.017,9.577,45.954,9.577s45.148-9.187,45.953-9.577
		c2.837-1.378,4.509-4.382,4.184-7.519l-20.404-197.202l91.985,5.139c2.061,0.114,4.073-0.623,5.571-2.039
		c1.498-1.417,2.347-3.388,2.347-5.449v-38.695C362.136,207.597,361.287,205.625,359.789,204.209z M347.136,240.422l-92.851-5.188
		c-2.188-0.124-4.329,0.722-5.845,2.312c-1.517,1.589-2.26,3.763-2.033,5.948l20.732,200.374c-6.528,2.388-19.222,6.131-34.64,6.131
		c-15.313,0-28.076-3.759-34.638-6.146l20.73-200.359c0.226-2.185-0.517-4.359-2.033-5.948s-3.646-2.437-5.846-2.312l-92.85,5.188
		v-22.833l81.028,4.526c3.298,0.187,6.309-1.797,7.452-4.883c1.143-3.087,0.14-6.558-2.473-8.559
		c-11.747-8.997-22.577-20.953-31.319-34.576c-13.575-21.153-21.051-44.866-21.051-66.77c0-23.681,7.794-46.172,21.946-63.328
		c15.202-18.43,36.726-29,59.054-29s43.853,10.57,59.054,29c14.151,17.157,21.945,39.647,21.945,63.328
		c0,21.903-7.477,45.616-21.052,66.769c-8.741,13.623-19.571,25.579-31.319,34.576c-2.613,2.001-3.615,5.472-2.473,8.559
		c1.143,3.086,4.168,5.071,7.451,4.883l81.029-4.526V240.422z"/>
	<path d="M292.04,132.998c0.712-4.081-2.019-7.965-6.1-8.677c-4.087-0.715-7.966,2.019-8.678,6.099
		c-4.555,26.106-23.462,53.806-44.755,66.189c-22.742-13.318-45.857-46.639-45.857-78.343c0-31.528,20.568-57.178,45.85-57.178
		c21.198,0,39.517,17.937,44.547,43.619c0.797,4.064,4.736,6.716,8.802,5.918c4.065-0.796,6.715-4.737,5.919-8.802
		c-6.429-32.816-30.8-55.735-59.268-55.735c-33.553,0-60.85,32.379-60.85,72.178c0,40.074,29.847,79.775,57.5,93.577
		c1.054,0.526,2.202,0.79,3.349,0.79s2.295-0.263,3.35-0.79C262.782,198.401,286.414,165.242,292.04,132.998z"/>
</g>
<g>
</g>
<g>
</g>
<g>
</g>
<g>
</g>
<g>
</g>
<g>
</g>
<g>
</g>
<g>
</g>
<g>
</g>
<g>
</g>
<g>
</g>
<g>
</g>
<g>
</g>
<g>
</g>
<g>
</g>
</svg>
