<?xml version="1.0" encoding="iso-8859-1"?>
<!-- Generator: Adobe Illustrator 17.1.0, SVG Export Plug-In . SVG Version: 6.00 Build 0)  -->
<!DOCTYPE svg PUBLIC "-//W3C//DTD SVG 1.1//EN" "http://www.w3.org/Graphics/SVG/1.1/DTD/svg11.dtd">
<svg version="1.1" id="Capa_1" xmlns="http://www.w3.org/2000/svg" xmlns:xlink="http://www.w3.org/1999/xlink" x="0px" y="0px"
	 viewBox="0 0 465 465" style="enable-background:new 0 0 465 465;" xml:space="preserve">
<g>
	<path d="M114.838,170.958c4.143,0,7.5-3.358,7.5-7.5v-62.55h220.324v62.55c0,4.142,3.357,7.5,7.5,7.5s7.5-3.358,7.5-7.5v-70.05
		c0-4.142-3.357-7.5-7.5-7.5h-24.557C321.773,37.896,281.48,0,232.5,0s-89.273,37.896-93.105,85.908h-24.557
		c-4.143,0-7.5,3.358-7.5,7.5v70.05C107.338,167.6,110.695,170.958,114.838,170.958z M232.5,15c40.703,0,74.251,31.18,78.04,70.908
		H154.46C158.249,46.18,191.797,15,232.5,15z"/>
	<path d="M457.5,94.68c-4.143,0-7.5,3.358-7.5,7.5v89.17c-11.224-12.919-27.752-21.112-46.169-21.112
		c-31.188,0-56.981,23.468-60.693,53.669h-17.533C321.773,175.896,281.48,138,232.5,138s-89.273,37.896-93.105,85.908h-17.533
		c-3.711-30.201-29.505-53.669-60.693-53.669c-18.417,0-34.945,8.193-46.169,21.112v-89.17c0-4.142-3.357-7.5-7.5-7.5
		S0,98.038,0,102.18v129.228V457.5c0,4.142,3.357,7.5,7.5,7.5h171.331c4.143,0,7.5-3.358,7.5-7.5v-87.571h92.338V457.5
		c0,4.142,3.357,7.5,7.5,7.5H457.5c4.143,0,7.5-3.358,7.5-7.5V231.408V102.18C465,98.038,461.643,94.68,457.5,94.68z
		 M403.831,185.238c22.904,0,41.956,16.767,45.55,38.669h-91.101C361.875,202.005,380.927,185.238,403.831,185.238z M232.5,153
		c40.703,0,74.251,31.18,78.04,70.908H154.46C158.249,184.18,191.797,153,232.5,153z M61.169,185.238
		c22.904,0,41.956,16.767,45.55,38.669H15.619C19.213,202.005,38.265,185.238,61.169,185.238z M186.95,354.929
		c3.594-21.902,22.646-38.669,45.55-38.669s41.956,16.767,45.55,38.669H186.95z M293.669,450v-87.552
		c0-0.007,0.001-0.013,0.001-0.019c0-0.013-0.002-0.026-0.002-0.039c-0.021-33.711-27.453-61.13-61.168-61.13
		c-33.715,0-61.147,27.419-61.168,61.13c0,0.013-0.002,0.026-0.002,0.039c0,0.007,0.001,0.013,0.001,0.019V450H15v-80.071h133.83
		c4.143,0,7.5-3.358,7.5-7.5s-3.357-7.5-7.5-7.5H15V238.908h435v116.021H316.17c-4.143,0-7.5,3.358-7.5,7.5s3.357,7.5,7.5,7.5H450
		V450H293.669z"/>
</g>
<g>
</g>
<g>
</g>
<g>
</g>
<g>
</g>
<g>
</g>
<g>
</g>
<g>
</g>
<g>
</g>
<g>
</g>
<g>
</g>
<g>
</g>
<g>
</g>
<g>
</g>
<g>
</g>
<g>
</g>
</svg>
