<?xml version="1.0" encoding="iso-8859-1"?>
<!-- Generator: Adobe Illustrator 17.1.0, SVG Export Plug-In . SVG Version: 6.00 Build 0)  -->
<!DOCTYPE svg PUBLIC "-//W3C//DTD SVG 1.1//EN" "http://www.w3.org/Graphics/SVG/1.1/DTD/svg11.dtd">
<svg version="1.1" id="Capa_1" xmlns="http://www.w3.org/2000/svg" xmlns:xlink="http://www.w3.org/1999/xlink" x="0px" y="0px"
	 viewBox="0 0 465.004 465.004" style="enable-background:new 0 0 465.004 465.004;" xml:space="preserve">
<g>
	<path d="M305.364,258.494c-3.937,0.65-7.891-0.268-11.134-2.589c-3.244-2.322-5.39-5.768-6.042-9.704
		c-0.652-3.936,0.268-7.89,2.589-11.134c0.3-0.419,0.62-0.818,0.956-1.199c0.01-0.011,0.021-0.021,0.031-0.033
		c0.756,3.277,3.663,5.746,7.178,5.807c4.165,0.028,7.557-3.228,7.629-7.369l0.183-10.518c0.001-0.071-0.007-0.141-0.008-0.212
		c-0.002-0.169-0.006-0.337-0.019-0.508c-0.009-0.117-0.025-0.232-0.04-0.348c-0.012-0.096-0.017-0.192-0.033-0.289
		c-0.008-0.05-0.023-0.097-0.032-0.146c-0.022-0.119-0.049-0.236-0.077-0.353c-0.034-0.145-0.071-0.289-0.113-0.43
		c-0.032-0.105-0.066-0.209-0.102-0.313c-0.052-0.15-0.109-0.298-0.17-0.444c-0.039-0.093-0.079-0.184-0.122-0.275
		c-0.071-0.151-0.148-0.298-0.228-0.443c-0.046-0.083-0.091-0.166-0.14-0.247c-0.089-0.146-0.184-0.287-0.282-0.426
		c-0.053-0.075-0.103-0.152-0.159-0.226c-0.109-0.144-0.226-0.28-0.345-0.415c-0.054-0.062-0.104-0.126-0.16-0.186
		c-0.175-0.186-0.358-0.364-0.551-0.531c-0.007-0.006-0.012-0.012-0.019-0.018c-0.055-0.047-0.114-0.086-0.17-0.131
		c-0.139-0.113-0.278-0.225-0.425-0.328c-0.089-0.062-0.181-0.117-0.272-0.175c-0.128-0.082-0.257-0.163-0.39-0.237
		c-0.095-0.053-0.192-0.101-0.289-0.15c-0.138-0.069-0.278-0.135-0.42-0.196c-0.093-0.04-0.187-0.077-0.282-0.113
		c-0.154-0.059-0.311-0.111-0.47-0.16c-0.087-0.027-0.174-0.053-0.263-0.077c-0.172-0.046-0.347-0.083-0.523-0.117
		c-0.079-0.015-0.158-0.032-0.238-0.045c-0.188-0.029-0.379-0.048-0.571-0.063c-0.072-0.006-0.143-0.015-0.215-0.019
		c-0.204-0.01-0.41-0.007-0.616,0c-0.061,0.002-0.122-0.001-0.183,0.002c-0.266,0.016-0.533,0.044-0.801,0.088
		c-7.889,1.307-14.796,5.608-19.45,12.11c-4.653,6.502-6.497,14.428-5.189,22.316c1.307,7.889,5.608,14.796,12.11,19.45
		c5.138,3.677,11.164,5.6,17.358,5.6c1.645,0,3.303-0.136,4.958-0.41c4.086-0.677,6.85-4.539,6.173-8.625
		C313.311,260.579,309.444,257.816,305.364,258.494z"/>
	<path d="M404.639,251.54l-33.848-74.948c-0.101-0.268-0.223-0.532-0.358-0.792L293.192,4.771c-1.15-2.547-3.621-4.243-6.411-4.401
		c-41.817-2.372-85.439,6.68-126.161,26.168c-40.722,19.489-75.135,47.788-99.519,81.837c-2.141,2.989-1.799,7.088,0.807,9.682
		L237.793,293.14l-33.571,86.023c-35.758,8.132-62.537,40.158-62.537,78.342c0,4.142,3.358,7.5,7.5,7.5h205.908
		c4.142,0,7.5-3.358,7.5-7.5c0-34.274-21.436-64.236-53.057-75.59l19.688-50.447l32.98,0.117c17.567,0,31.858-14.292,31.858-31.858
		v-6.067c3.534-0.606,6.227-3.677,6.227-7.384s-2.692-6.778-6.227-7.384v-17.771c2.019,1.162,4.544,1.376,6.829,0.344
		C404.665,259.758,406.344,255.315,404.639,251.54z M255.3,155.897l-14.301-20.552l30.668-18.918l12.339,21.762L255.3,155.897z
		 M296.781,130.308l-12.339-21.762l30.625-18.892l10.375,22.973L296.781,130.308z M167.096,40.069
		c36.976-17.696,76.399-26.28,114.319-24.931l27.428,60.732l-90.7,55.95c-3.525,2.175-4.621,6.795-2.446,10.321
		c1.418,2.298,3.875,3.563,6.391,3.563c1.343,0,2.703-0.361,3.93-1.118l2.195-1.354l14.301,20.552l-28.642,17.668l-16.263-19.341
		l2.876-1.774c3.525-2.175,4.621-6.795,2.446-10.321c-2.174-3.525-6.794-4.62-10.321-2.446l-49.264,30.389l-66.27-65.967
		C99.719,82.267,130.715,57.48,167.096,40.069z M154.277,188.841l30.427-18.77l16.263,19.341l-28.472,17.564L154.277,188.841z
		 M157.112,450.004c3.732-32.52,31.428-57.858,64.931-57.858c33.502,0,61.199,25.339,64.931,57.858H157.112z M362.229,316.583
		l-38.097-0.135c-0.009,0-0.018,0-0.026,0c-3.089,0-5.863,1.895-6.987,4.773l-27.292,69.931c-1.506,3.858,0.401,8.208,4.26,9.713
		c0.896,0.35,1.818,0.515,2.725,0.515c3,0,5.833-1.813,6.989-4.775l0.28-0.717c23.573,8.307,40.263,29.304,43.087,54.115h-45.113
		c-3.794-40.807-38.23-72.858-80.011-72.858c-0.316,0-0.627,0.02-0.942,0.024l32.452-83.153c1.084-2.779,0.419-5.937-1.696-8.042
		l-16.648-16.572l19.054-12.049c3.501-2.214,4.544-6.846,2.331-10.347c-2.213-3.5-6.846-4.544-10.347-2.331l-21.94,13.874
		l-40.88-40.693l148.242-91.445l22.571,49.977l-32.543,20.578c-3.501,2.214-4.544,6.846-2.331,10.347
		c1.427,2.257,3.859,3.493,6.346,3.493c1.37,0,2.757-0.375,4.001-1.162l30.76-19.451l15.558,34.45h-25.548
		c-3.264,0-6.153,2.111-7.146,5.221c-0.992,3.11,0.142,6.504,2.803,8.394l9.195,6.529c1.318,0.936,2.834,1.385,4.336,1.385
		c2.347,0,4.659-1.099,6.122-3.158c0.735-1.036,1.17-2.194,1.323-3.372h11.944v39.132h-5.541c-4.142,0-7.5,3.358-7.5,7.5
		s3.358,7.5,7.5,7.5h5.541v5.951C379.061,309.021,371.499,316.583,362.229,316.583z"/>
</g>
<g>
</g>
<g>
</g>
<g>
</g>
<g>
</g>
<g>
</g>
<g>
</g>
<g>
</g>
<g>
</g>
<g>
</g>
<g>
</g>
<g>
</g>
<g>
</g>
<g>
</g>
<g>
</g>
<g>
</g>
</svg>
