<?xml version="1.0" encoding="iso-8859-1"?>
<!-- Generator: Adobe Illustrator 17.1.0, SVG Export Plug-In . SVG Version: 6.00 Build 0)  -->
<!DOCTYPE svg PUBLIC "-//W3C//DTD SVG 1.1//EN" "http://www.w3.org/Graphics/SVG/1.1/DTD/svg11.dtd">
<svg version="1.1" id="Capa_1" xmlns="http://www.w3.org/2000/svg" xmlns:xlink="http://www.w3.org/1999/xlink" x="0px" y="0px"
	 viewBox="0 0 465 465" style="enable-background:new 0 0 465 465;" xml:space="preserve">
<path d="M312.5,380h-22.748l-9.756-290.085c-0.003-0.083-0.016-0.165-0.021-0.247c-0.009-0.138-0.019-0.275-0.035-0.411
	c-0.013-0.109-0.031-0.216-0.05-0.324c-0.025-0.151-0.052-0.301-0.086-0.449c-0.021-0.093-0.046-0.185-0.071-0.277
	c-0.043-0.158-0.089-0.314-0.142-0.469c-0.029-0.083-0.059-0.166-0.091-0.248c-0.061-0.158-0.126-0.313-0.197-0.466
	c-0.019-0.041-0.032-0.083-0.052-0.124l-40-82.667c-0.014-0.028-0.032-0.052-0.046-0.08c-0.287-0.574-0.644-1.105-1.062-1.583
	c-0.054-0.062-0.109-0.121-0.164-0.181c-0.187-0.2-0.383-0.391-0.59-0.57c-0.029-0.025-0.056-0.053-0.085-0.077
	c-0.238-0.199-0.491-0.379-0.753-0.548c-0.057-0.037-0.116-0.07-0.174-0.106c-0.231-0.14-0.469-0.268-0.715-0.382
	c-0.045-0.021-0.088-0.044-0.133-0.064c-0.29-0.128-0.59-0.239-0.898-0.33c-0.046-0.013-0.093-0.023-0.138-0.036
	c-0.26-0.071-0.525-0.128-0.795-0.171c-0.078-0.013-0.156-0.026-0.235-0.036C233.146,0.028,232.827,0,232.5,0
	s-0.646,0.028-0.962,0.068c-0.079,0.01-0.157,0.023-0.235,0.036c-0.27,0.043-0.535,0.1-0.795,0.171
	c-0.046,0.013-0.093,0.022-0.138,0.036c-0.308,0.091-0.607,0.202-0.897,0.33c-0.045,0.02-0.089,0.044-0.134,0.065
	c-0.246,0.115-0.484,0.242-0.715,0.382c-0.058,0.035-0.117,0.069-0.174,0.106c-0.262,0.168-0.515,0.349-0.753,0.548
	c-0.03,0.024-0.056,0.052-0.085,0.077c-0.208,0.179-0.404,0.37-0.59,0.57c-0.056,0.06-0.111,0.119-0.164,0.181
	c-0.418,0.478-0.775,1.009-1.062,1.583c-0.014,0.028-0.032,0.052-0.046,0.08l-40,82.667c-0.02,0.041-0.033,0.083-0.052,0.124
	c-0.071,0.152-0.136,0.307-0.196,0.465c-0.032,0.083-0.062,0.165-0.091,0.249c-0.053,0.154-0.099,0.31-0.142,0.468
	c-0.025,0.092-0.05,0.184-0.071,0.277c-0.034,0.148-0.061,0.298-0.086,0.449c-0.018,0.108-0.036,0.215-0.05,0.324
	c-0.016,0.136-0.026,0.273-0.035,0.411c-0.005,0.083-0.018,0.164-0.021,0.247L175.248,380H152.5c-4.143,0-7.5,3.357-7.5,7.5v70
	c0,4.143,3.357,7.5,7.5,7.5h110h50c4.143,0,7.5-3.357,7.5-7.5v-70C320,383.357,316.643,380,312.5,380z M225,82.667h-20.539
	L225,40.219V82.667z M240,40.219l20.539,42.448H240V40.219z M199.752,97.667H225V287.5c0,4.143,3.357,7.5,7.5,7.5s7.5-3.357,7.5-7.5
	V97.667h25.248L274.743,380H262.5H240v-62.5c0-4.143-3.357-7.5-7.5-7.5s-7.5,3.357-7.5,7.5V380h-34.743L199.752,97.667z M160,395h95
	v55h-95V395z M305,450h-35v-55h35V450z"/>
<g>
</g>
<g>
</g>
<g>
</g>
<g>
</g>
<g>
</g>
<g>
</g>
<g>
</g>
<g>
</g>
<g>
</g>
<g>
</g>
<g>
</g>
<g>
</g>
<g>
</g>
<g>
</g>
<g>
</g>
</svg>
