<?xml version="1.0" encoding="iso-8859-1"?>
<!-- Generator: Adobe Illustrator 17.1.0, SVG Export Plug-In . SVG Version: 6.00 Build 0)  -->
<!DOCTYPE svg PUBLIC "-//W3C//DTD SVG 1.1//EN" "http://www.w3.org/Graphics/SVG/1.1/DTD/svg11.dtd">
<svg version="1.1" id="Capa_1" xmlns="http://www.w3.org/2000/svg" xmlns:xlink="http://www.w3.org/1999/xlink" x="0px" y="0px"
	 viewBox="0 0 465 465" style="enable-background:new 0 0 465 465;" xml:space="preserve">
<g>
	<path d="M276.877,24.439C266.062,8.435,250.783,0,232.5,0c-18.941,0-36.839,9.533-47.491,25.087
		c-48.354,10.527-92.31,37.325-124.052,75.706C28.097,140.526,10,190.852,10,242.5c0,59.432,23.144,115.307,65.169,157.331
		C117.193,441.855,173.068,465,232.5,465s115.307-23.145,157.331-65.169C431.856,357.807,455,301.932,455,242.5
		C455,136.573,380.283,45.388,276.877,24.439z M232.5,450C118.084,450,25,356.916,25,242.5c0-98.346,69.848-183.866,166.078-203.361
		c0.098-0.02,0.196-0.041,0.292-0.064h0c0.003,0,0.007-0.001,0.011-0.002c0.005-0.003,0.009-0.003,0.013-0.003
		c0.005-0.002,0.009-0.001,0.015-0.004c0.004-0.001,0.01,0.003,0.014-0.004c0.005-0.001,0.008-0.003,0.014-0.003
		c0.005-0.001,0.012,0,0.014-0.004c0.019-0.005,0.038-0.009,0.057-0.015h0c0.019-0.005,0.037-0.01,0.056-0.015
		c0.005,0.001,0.008-0.002,0.013-0.003c0.004-0.002,0.008-0.003,0.011-0.003c0.004-0.001,0.01,0.001,0.011-0.004
		c1.785-0.487,3.392-1.633,4.428-3.336c0-0.001,0.001-0.002,0.001-0.003c0.001-0.003,0.003-0.005,0.004-0.007
		c0.001-0.003,0.002-0.005,0.004-0.007c0.001-0.002,0.002-0.003,0.003-0.005c0.002-0.004,0.005-0.008,0.007-0.013
		C203.817,22.718,217.444,15,232.5,15c10.648,0,19.684,3.906,26.981,11.617c-14.357,5.266-24.641,19.079-24.641,35.219
		c0,13.834,7.489,26.034,18.816,32.532C247.299,98.039,240.073,100,232.5,100c-11.801,0-22.773-4.736-30.895-13.335
		c-1.846-1.954-4.598-2.771-7.211-2.142c-34.83,8.402-66.41,28.556-88.924,56.747C82.597,169.912,70,205.863,70,242.5
		C70,332.103,142.897,405,232.5,405S395,332.103,395,242.5c0-36.638-12.596-72.59-35.467-101.234
		c-22.128-27.713-53.017-47.65-87.139-56.302c-0.781-0.396-1.641-0.669-2.563-0.771c-11.397-1.261-19.992-10.873-19.992-22.357
		c0-12.365,10.059-22.457,22.423-22.497c0.56-0.002,1.104-0.07,1.629-0.188C370.324,58.683,440,143.711,440,242.5
		C440,356.916,346.916,450,232.5,450z M380,242.5c0,81.332-66.168,147.5-147.5,147.5S85,323.832,85,242.5
		c0-67.014,44.582-124.979,108.921-142.374C204.505,109.75,218.041,115,232.5,115c14.461,0,28-5.254,38.585-14.884
		C335.422,117.511,380,175.479,380,242.5z"/>
	<path d="M215.979,49.218c4.411,0,8-3.589,8-8s-3.589-8-8-8s-8,3.589-8,8S211.568,49.218,215.979,49.218z"/>
</g>
<g>
</g>
<g>
</g>
<g>
</g>
<g>
</g>
<g>
</g>
<g>
</g>
<g>
</g>
<g>
</g>
<g>
</g>
<g>
</g>
<g>
</g>
<g>
</g>
<g>
</g>
<g>
</g>
<g>
</g>
</svg>
