<?xml version="1.0" encoding="iso-8859-1"?>
<!-- Generator: Adobe Illustrator 17.1.0, SVG Export Plug-In . SVG Version: 6.00 Build 0)  -->
<!DOCTYPE svg PUBLIC "-//W3C//DTD SVG 1.1//EN" "http://www.w3.org/Graphics/SVG/1.1/DTD/svg11.dtd">
<svg version="1.1" id="Capa_1" xmlns="http://www.w3.org/2000/svg" xmlns:xlink="http://www.w3.org/1999/xlink" x="0px" y="0px"
	 viewBox="0 0 465.042 465.042" style="enable-background:new 0 0 465.042 465.042;" xml:space="preserve">
<path d="M432.905,136.171c-16.512-38.04-51.44-64.153-92.167-69.427l60.485-37.619c2.228-1.386,3.569-3.834,3.539-6.457
	s-1.43-5.039-3.689-6.372c-37.663-22.215-84.104-21.685-121.2,1.388c-18.24,11.344-32.337,27.357-41.901,47.593
	c-2.023,4.281-3.811,8.725-5.372,13.294c-8.758-25.754-25.014-46.946-47.429-60.888c-37.096-23.07-83.537-23.602-121.2-1.387
	c-2.259,1.333-3.658,3.749-3.689,6.372s1.311,5.071,3.539,6.457l60.485,37.619c-40.727,5.274-75.655,31.387-92.168,69.427
	c-1.044,2.406-0.756,5.184,0.761,7.323c1.413,1.992,3.698,3.163,6.118,3.163c0.179,0,0.359-0.007,0.54-0.02l71.045-5.117
	c-29.848,28.206-42.756,69.862-33.756,110.342c0.569,2.561,2.435,4.638,4.92,5.478c0.785,0.265,1.596,0.395,2.4,0.395
	c1.744,0,3.461-0.608,4.834-1.765l120.956-101.927l-7.188,103.928c-3.161,0.882-5.483,3.775-5.483,7.218
	c0,3.078,1.856,5.72,4.509,6.876l-7.895,114.142c-3.16,0.882-5.481,3.775-5.481,7.217c0,3.078,1.855,5.719,4.507,6.875
	l-3.924,56.725c-0.286,4.133,2.832,7.714,6.964,8c0.176,0.012,0.351,0.018,0.525,0.018c3.906,0,7.201-3.026,7.474-6.982
	l3.952-57.135h30.713c4.142,0,7.5-3.357,7.5-7.5s-3.358-7.5-7.5-7.5h-29.676l7.832-113.235h12.974c4.142,0,7.5-3.357,7.5-7.5
	s-3.358-7.5-7.5-7.5h-11.936l8.099-117.1l6.6-5.562l6.6,5.562l3.665,52.982h-3.066c-4.142,0-7.5,3.357-7.5,7.5s3.358,7.5,7.5,7.5
	h4.104l7.832,113.234H230.85c-4.142,0-7.5,3.357-7.5,7.5s3.358,7.5,7.5,7.5h21.843l8.387,121.253
	c0.273,3.956,3.568,6.982,7.474,6.982c0.174,0,0.349-0.006,0.525-0.018c4.132-0.286,7.25-3.867,6.964-8l-8.358-120.842
	c2.652-1.156,4.508-3.797,4.508-6.876c0-3.443-2.322-6.336-5.483-7.218l-7.895-114.141c2.653-1.156,4.509-3.797,4.509-6.876
	c0-3.443-2.323-6.336-5.484-7.218l-2.754-39.81L376.043,255.97c1.373,1.156,3.09,1.765,4.834,1.765c0.805,0,1.615-0.13,2.4-0.395
	c2.485-0.84,4.351-2.917,4.92-5.478c9-40.48-3.908-82.136-33.756-110.342l71.045,5.117c0.18,0.013,0.36,0.02,0.54,0.02
	c2.42,0,4.706-1.171,6.118-3.163C433.661,141.355,433.949,138.578,432.905,136.171z M287.794,30.421
	c28.676-17.835,63.76-20.218,94.233-7.021l-69.221,43.052c-26.827,2.927-51.693,15.036-70.527,34.237
	C247.947,70.514,264.076,45.174,287.794,30.421z M177.247,30.42c24.156,15.024,40.103,39.974,45.618,70.373
	c-18.847-19.262-43.756-31.411-70.63-34.342L83.014,23.4C113.489,10.204,148.572,12.586,177.247,30.42z M132.083,81.015
	c30.415-2.188,59.57,9.211,80.271,30.485c-7.047-1.31-14.223-1.977-21.487-1.977c-20.351,0-40.283,5.361-57.804,15.341
	l-81.343,5.859C68.617,102.135,98.401,83.441,132.083,81.015z M125.282,148.494c18.344-15.458,41.635-23.971,65.584-23.971
	c9.082,0,18.008,1.181,26.665,3.52L89.485,235.944C86.352,202.883,99.459,170.254,125.282,148.494z M375.556,235.944
	L247.511,128.043c8.657-2.339,17.583-3.52,26.665-3.52c23.949,0,47.241,8.513,65.584,23.971
	C365.583,170.254,378.69,202.883,375.556,235.944z M331.979,124.864c-17.521-9.98-37.454-15.341-57.804-15.341
	c-7.264,0-14.44,0.668-21.487,1.977c20.703-21.276,49.862-32.677,80.271-30.485c33.682,2.426,63.465,21.12,80.363,49.708
	L331.979,124.864z"/>
<g>
</g>
<g>
</g>
<g>
</g>
<g>
</g>
<g>
</g>
<g>
</g>
<g>
</g>
<g>
</g>
<g>
</g>
<g>
</g>
<g>
</g>
<g>
</g>
<g>
</g>
<g>
</g>
<g>
</g>
</svg>
