<?xml version="1.0" encoding="iso-8859-1"?>
<!-- Generator: Adobe Illustrator 17.1.0, SVG Export Plug-In . SVG Version: 6.00 Build 0)  -->
<!DOCTYPE svg PUBLIC "-//W3C//DTD SVG 1.1//EN" "http://www.w3.org/Graphics/SVG/1.1/DTD/svg11.dtd">
<svg version="1.1" id="Capa_1" xmlns="http://www.w3.org/2000/svg" xmlns:xlink="http://www.w3.org/1999/xlink" x="0px" y="0px"
	 viewBox="0 0 465 465" style="enable-background:new 0 0 465 465;" xml:space="preserve">
<g>
	<path d="M428.732,155.747H400c-11.867,0-22.838,6.337-30.893,17.844c-7.485,10.693-11.607,24.776-11.607,39.656
		c0,20.225,7.574,38.53,19.999,48.91l0.001,19.093c0,15.163-12.336,27.5-27.5,27.5s-27.5-12.337-27.5-27.5V247.5
		c0-75.129-61.122-136.25-136.25-136.25S50,172.371,50,247.5v33.75c0,15.163-12.336,27.5-27.5,27.5c-12.407,0-22.5,10.094-22.5,22.5
		s10.093,22.5,22.5,22.5c34.102,0,62.763-23.674,70.455-55.446c18.046,33.008,53.099,55.446,93.295,55.446
		s75.249-22.438,93.295-55.446c7.692,31.772,36.353,55.446,70.455,55.446c39.977,0,72.5-32.523,72.5-72.5v-19.091
		c12.426-10.381,20-28.688,20-48.912c0-4.686-0.416-9.273-1.214-13.731H457.5c4.142,0,7.5-3.357,7.5-7.5
		C465,172.017,448.73,155.747,428.732,155.747z M186.25,338.75c-50.315,0-91.25-40.935-91.25-91.25s40.935-91.25,91.25-91.25
		s91.25,40.935,91.25,91.25S236.565,338.75,186.25,338.75z M431.708,184.516c-0.065,0-0.131-0.002-0.196,0H415
		c-4.142,0-7.5,3.357-7.5,7.5s3.358,7.5,7.5,7.5h10.989c0.998,4.397,1.511,8.993,1.511,13.731c0,16.791-6.56,32.093-16.712,38.982
		c-2.057,1.396-3.288,3.721-3.288,6.206v22.814c0,31.706-25.794,57.5-57.5,57.5s-57.5-25.794-57.5-57.5V247.5
		c0-58.587-47.664-106.25-106.25-106.25S80,188.913,80,247.5v33.75c0,31.706-25.794,57.5-57.5,57.5c-4.136,0-7.5-3.364-7.5-7.5
		s3.364-7.5,7.5-7.5c23.435,0,42.5-19.065,42.5-42.5V247.5c0-66.857,54.393-121.25,121.25-121.25S307.5,180.643,307.5,247.5v33.75
		c0,23.435,19.065,42.5,42.5,42.5s42.5-19.065,42.5-42.5l-0.001-22.816c0-2.486-1.231-4.81-3.289-6.206
		c-10.151-6.889-16.71-22.19-16.71-38.98c0-23.037,12.593-42.5,27.5-42.5h28.732c9.089,0,16.864,5.73,19.902,13.769H431.708z"/>
	<path d="M186.25,232.5c-8.271,0-15,6.729-15,15s6.729,15,15,15s15-6.729,15-15S194.521,232.5,186.25,232.5z"/>
</g>
<g>
</g>
<g>
</g>
<g>
</g>
<g>
</g>
<g>
</g>
<g>
</g>
<g>
</g>
<g>
</g>
<g>
</g>
<g>
</g>
<g>
</g>
<g>
</g>
<g>
</g>
<g>
</g>
<g>
</g>
</svg>
