<?xml version="1.0" encoding="iso-8859-1"?>
<!-- Generator: Adobe Illustrator 17.1.0, SVG Export Plug-In . SVG Version: 6.00 Build 0)  -->
<!DOCTYPE svg PUBLIC "-//W3C//DTD SVG 1.1//EN" "http://www.w3.org/Graphics/SVG/1.1/DTD/svg11.dtd">
<svg version="1.1" id="Capa_1" xmlns="http://www.w3.org/2000/svg" xmlns:xlink="http://www.w3.org/1999/xlink" x="0px" y="0px"
	 viewBox="0 0 465 465" style="enable-background:new 0 0 465 465;" xml:space="preserve">
<g>
	<path d="M375.369,403.873V61.127c0-4.143-3.357-7.5-7.5-7.5H197.131c-4.143,0-7.5,3.357-7.5,7.5s3.357,7.5,7.5,7.5h163.238v327.746
		H104.631V68.627h62.5c4.143,0,7.5-3.357,7.5-7.5s-3.357-7.5-7.5-7.5h-70c-4.143,0-7.5,3.357-7.5,7.5v342.746
		c0,4.143,3.357,7.5,7.5,7.5h270.738C372.012,411.373,375.369,408.016,375.369,403.873z"/>
	<path d="M307.869,303.201c4.143,0,7.5-3.357,7.5-7.5V121.127c0-4.143-3.357-7.5-7.5-7.5H157.131c-4.143,0-7.5,3.357-7.5,7.5
		v222.746c0,4.143,3.357,7.5,7.5,7.5h150.738c4.143,0,7.5-3.357,7.5-7.5v-18.172c0-4.143-3.357-7.5-7.5-7.5s-7.5,3.357-7.5,7.5
		v10.672H164.631V128.627h135.738v167.074C300.369,299.844,303.727,303.201,307.869,303.201z"/>
	<path d="M397.869,0c-4.143,0-7.5,3.357-7.5,7.5v16.127h-32.248V7.5c0-4.143-3.357-7.5-7.5-7.5s-7.5,3.357-7.5,7.5v16.127h-32.249
		V7.5c0-4.143-3.357-7.5-7.5-7.5s-7.5,3.357-7.5,7.5v16.127h-32.248V7.5c0-4.143-3.357-7.5-7.5-7.5s-7.5,3.357-7.5,7.5v16.127
		h-32.248V7.5c0-4.143-3.357-7.5-7.5-7.5s-7.5,3.357-7.5,7.5v16.127h-32.248V7.5c0-4.143-3.357-7.5-7.5-7.5s-7.5,3.357-7.5,7.5
		v16.127h-32.249V7.5c0-4.143-3.357-7.5-7.5-7.5s-7.5,3.357-7.5,7.5v16.127H74.631V7.5c0-4.143-3.357-7.5-7.5-7.5
		s-7.5,3.357-7.5,7.5v23.627v402.746V457.5c0,4.143,3.357,7.5,7.5,7.5s7.5-3.357,7.5-7.5v-16.127h32.248V457.5
		c0,4.143,3.357,7.5,7.5,7.5s7.5-3.357,7.5-7.5v-16.127h32.249V457.5c0,4.143,3.357,7.5,7.5,7.5s7.5-3.357,7.5-7.5v-16.127h32.248
		V457.5c0,4.143,3.357,7.5,7.5,7.5s7.5-3.357,7.5-7.5v-16.127h32.248V457.5c0,4.143,3.357,7.5,7.5,7.5s7.5-3.357,7.5-7.5v-16.127
		h32.248V457.5c0,4.143,3.357,7.5,7.5,7.5s7.5-3.357,7.5-7.5v-16.127h32.249V457.5c0,4.143,3.357,7.5,7.5,7.5s7.5-3.357,7.5-7.5
		v-16.127h32.248V457.5c0,4.143,3.357,7.5,7.5,7.5s7.5-3.357,7.5-7.5v-23.627V31.127V7.5C405.369,3.357,402.012,0,397.869,0z
		 M74.631,38.627h315.738v387.746H74.631V38.627z"/>
</g>
<g>
</g>
<g>
</g>
<g>
</g>
<g>
</g>
<g>
</g>
<g>
</g>
<g>
</g>
<g>
</g>
<g>
</g>
<g>
</g>
<g>
</g>
<g>
</g>
<g>
</g>
<g>
</g>
<g>
</g>
</svg>
