<?xml version="1.0" encoding="iso-8859-1"?>
<!-- Generator: Adobe Illustrator 17.1.0, SVG Export Plug-In . SVG Version: 6.00 Build 0)  -->
<!DOCTYPE svg PUBLIC "-//W3C//DTD SVG 1.1//EN" "http://www.w3.org/Graphics/SVG/1.1/DTD/svg11.dtd">
<svg version="1.1" id="Capa_1" xmlns="http://www.w3.org/2000/svg" xmlns:xlink="http://www.w3.org/1999/xlink" x="0px" y="0px"
	 viewBox="0 0 465 465" style="enable-background:new 0 0 465 465;" xml:space="preserve">
<g>
	<path d="M366.627,98.878C366.627,44.356,322.174,0,267.533,0h-70c-17.933,0-34.768,4.778-49.295,13.124
		c-0.559,0.247-1.081,0.552-1.553,0.917C117.807,31.34,98.439,62.893,98.439,98.878v11.337c-0.039,0.311-0.066,0.626-0.066,0.948
		c0,23.376,20.763,245.955,24.481,285.626c-6.527,3.051-11.071,9.662-11.071,17.33v31.743c0,10.553,8.585,19.138,19.138,19.138
		h133.225h70c10.553,0,19.138-8.585,19.138-19.138v-31.743c0-7.669-4.544-14.28-11.072-17.331
		c3.888-41.597,24.416-262.322,24.416-284.91V98.878z M231.414,47.538h-67.761c-1.692-9.582-3.177-18.206-4.078-23.47
		C170.987,18.283,183.879,15,197.533,15c13.654,0,26.547,3.284,37.959,9.069C234.592,29.333,233.106,37.956,231.414,47.538z
		 M228.733,62.538c-2.345,12.929-4.709,25.397-6.25,32.076c-2.107,9.135-10.813,18.966-24.949,18.966s-22.842-9.831-24.949-18.966
		c-1.541-6.679-3.905-19.148-6.25-32.076H228.733z M126.783,445.862v-31.743c0-2.281,1.856-4.138,4.138-4.138h22.667
		c4.142,0,7.5-3.357,7.5-7.5s-3.358-7.5-7.5-7.5h-15.836c-3.341-35.694-20.3-217.707-23.761-270.971
		c10.407,7.121,17.072,19.171,17.072,32.199c0,23.071,18.77,41.841,41.84,41.841c4.142,0,7.5-3.357,7.5-7.5v-43.404
		c0-4.143-3.358-7.5-7.5-7.5s-7.5,3.357-7.5,7.5v34.838c-11.161-3.253-19.34-13.577-19.34-25.774
		c0-21.544-13.165-41.174-32.623-49.551v-7.78c0-26.824,12.705-50.73,32.411-66.095c1.04,6.035,2.401,13.859,3.865,22.092
		c-0.001,0.055-0.008,0.108-0.008,0.162c0,0.972,0.191,1.898,0.528,2.751c2.775,15.522,5.823,31.912,7.734,40.197
		c3.398,14.735,17.229,30.595,39.565,30.595s36.167-15.859,39.565-30.595c3.055-13.241,9.013-47.186,12.119-65.201
		c19.705,15.365,32.41,39.27,32.41,66.093v7.78c-19.457,8.378-32.622,28.007-32.622,49.551c0,12.197-8.18,22.521-19.34,25.774
		v-34.838c0-4.143-3.358-7.5-7.5-7.5s-7.5,3.357-7.5,7.5v43.404c0,4.143,3.358,7.5,7.5,7.5c23.071,0,41.84-18.77,41.84-41.841
		c0-13.015,6.65-25.052,17.039-32.176c-3.359,51.854-20.229,233.437-23.729,270.949h-73.726c-4.142,0-7.5,3.357-7.5,7.5
		s3.358,7.5,7.5,7.5h80.546c0.007,0,0.014,0.001,0.02,0.001h0.001c2.277,0.005,4.128,1.859,4.128,4.137v31.743
		c0,2.281-1.856,4.138-4.138,4.138H130.921C128.639,450,126.783,448.144,126.783,445.862z M338.283,445.862
		c0,2.281-1.856,4.138-4.138,4.138H282.82c0.296-1.334,0.463-2.716,0.463-4.138v-31.743c0-7.669-4.544-14.28-11.072-17.331
		c3.888-41.597,24.416-262.322,24.416-284.91v-13c0-35.332-18.672-66.389-46.683-83.878h17.589
		c46.369,0,84.094,37.628,84.094,83.878v5.5h-32.5c-4.143,0-7.5,3.357-7.5,7.5s3.357,7.5,7.5,7.5h32.202
		c-2.528,44.495-20.399,236.867-24.014,275.604h-23.169c-4.143,0-7.5,3.357-7.5,7.5s3.357,7.5,7.5,7.5h29.989
		c0.007,0,0.014,0.001,0.02,0.001c0,0,0,0,0,0c2.277,0.005,4.128,1.859,4.128,4.137V445.862z"/>
	<path d="M198.233,256.487l20.027,20.027c1.464,1.464,3.384,2.196,5.303,2.196s3.839-0.732,5.303-2.196
		c2.929-2.93,2.929-7.678,0-10.607L208.84,245.88l20.027-20.026c2.929-2.93,2.929-7.678,0-10.607c-2.928-2.928-7.677-2.928-10.606,0
		l-20.027,20.027l-20.027-20.027c-2.929-2.928-7.678-2.928-10.606,0c-2.929,2.93-2.929,7.678,0,10.607l20.027,20.026l-20.027,20.026
		c-2.929,2.93-2.929,7.678,0,10.607c1.464,1.464,3.384,2.196,5.303,2.196c1.919,0,3.839-0.732,5.303-2.196L198.233,256.487z"/>
</g>
<g>
</g>
<g>
</g>
<g>
</g>
<g>
</g>
<g>
</g>
<g>
</g>
<g>
</g>
<g>
</g>
<g>
</g>
<g>
</g>
<g>
</g>
<g>
</g>
<g>
</g>
<g>
</g>
<g>
</g>
</svg>
