<?xml version="1.0" encoding="iso-8859-1"?>
<!-- Generator: Adobe Illustrator 17.1.0, SVG Export Plug-In . SVG Version: 6.00 Build 0)  -->
<!DOCTYPE svg PUBLIC "-//W3C//DTD SVG 1.1//EN" "http://www.w3.org/Graphics/SVG/1.1/DTD/svg11.dtd">
<svg version="1.1" id="Capa_1" xmlns="http://www.w3.org/2000/svg" xmlns:xlink="http://www.w3.org/1999/xlink" x="0px" y="0px"
	 viewBox="0 0 465 465" style="enable-background:new 0 0 465 465;" xml:space="preserve">
<g>
	<path d="M232.5,117.762c32.467,0,58.881-26.414,58.881-58.881C291.381,26.414,264.967,0,232.5,0s-58.881,26.414-58.881,58.881
		C173.619,91.348,200.033,117.762,232.5,117.762z M232.5,15c24.196,0,43.881,19.685,43.881,43.881
		c0,24.196-19.685,43.881-43.881,43.881s-43.881-19.685-43.881-43.881C188.619,34.685,208.304,15,232.5,15z"/>
	<path d="M232.5,426.465c-10.624,0-19.268,8.644-19.268,19.268S221.876,465,232.5,465s19.268-8.644,19.268-19.268
		S243.124,426.465,232.5,426.465z M232.5,450c-2.353,0-4.268-1.915-4.268-4.268s1.915-4.268,4.268-4.268s4.268,1.915,4.268,4.268
		S234.853,450,232.5,450z"/>
	<path d="M355.136,220.749c4.142,0,7.5-3.358,7.5-7.5v-31.732c0-39.565-17.743-76.533-48.68-101.426
		c-3.227-2.597-7.949-2.085-10.545,1.142c-2.597,3.227-2.085,7.948,1.142,10.545c27.38,22.031,43.083,54.74,43.083,89.739v24.232
		l-27.986,0c-3.554-19.876-20.956-35.014-41.838-35.014h-1.007c-3.581-21.216-22.085-37.431-44.305-37.431
		c-22.219,0-40.724,16.214-44.305,37.431h-1.007c-20.882,0-38.283,15.138-41.838,35.014l-27.986,0v-24.232
		c0-35,15.703-67.708,43.083-89.738c3.227-2.597,3.738-7.318,1.142-10.545c-2.596-3.226-7.317-3.739-10.545-1.142
		c-30.937,24.892-48.679,61.86-48.679,101.425v31.732c0,4.142,3.358,7.5,7.5,7.5l34.81,0v58.675l-30.78-19.613
		c-2.309-1.471-5.236-1.568-7.637-0.25c-2.401,1.317-3.893,3.837-3.893,6.576v26.96c0,4.142,3.358,7.5,7.5,7.5s7.5-3.358,7.5-7.5
		v-13.288l27.31,17.402v18.386h-34.81c-4.142,0-7.5,3.358-7.5,7.5c0,54.853,34.746,104.12,86.459,122.596
		c0.834,0.298,1.686,0.439,2.523,0.439c3.08,0,5.968-1.912,7.063-4.979c1.394-3.901-0.639-8.193-4.54-9.586
		c-43.39-15.501-73.28-55.497-76.261-100.97h27.388c3.818,44.93,41.601,80.326,87.502,80.326c45.901,0,83.684-35.396,87.503-80.326
		h27.388c-2.981,45.474-32.871,85.469-76.261,100.97c-3.9,1.394-5.933,5.686-4.54,9.586c1.096,3.067,3.983,4.979,7.063,4.979
		c0.837,0,1.689-0.141,2.523-0.439c51.714-18.476,86.459-67.744,86.459-122.596c0-4.142-3.358-7.5-7.5-7.5h-34.81v-18.386
		l27.31-17.402v13.288c0,4.142,3.358,7.5,7.5,7.5s7.5-3.358,7.5-7.5v-26.96c0-2.738-1.492-5.259-3.893-6.576
		c-2.401-1.317-5.329-1.22-7.637,0.25l-30.779,19.613V220.75L355.136,220.749z M187.188,185.735h7.881h44.862
		c4.142,0,7.5-3.358,7.5-7.5s-3.358-7.5-7.5-7.5h-36.41c3.337-12.886,15.064-22.431,28.979-22.431
		c16.504,0,29.931,13.427,29.931,29.931c0,4.142,3.358,7.5,7.5,7.5h7.881c15.171,0,27.514,12.343,27.514,27.514
		c0,15.171-12.343,27.514-27.514,27.514h-21.283c-9.309,0-17.938,3.917-24.029,10.426c-6.091-6.508-14.72-10.426-24.029-10.426
		h-21.283c-15.171,0-27.514-12.343-27.514-27.514C159.674,198.078,172.017,185.735,187.188,185.735z M159.674,323.097v-77.475
		c7.422,6.317,17.027,10.142,27.514,10.142h21.283c7.273,0,13.774,4.4,16.529,11.052v128.723
		C188.354,391.771,159.674,360.721,159.674,323.097z M240,395.538V266.815c2.755-6.652,9.257-11.052,16.529-11.052h21.283
		c10.487,0,20.093-3.825,27.514-10.142v77.476C305.326,360.721,276.646,391.772,240,395.538z"/>
</g>
<g>
</g>
<g>
</g>
<g>
</g>
<g>
</g>
<g>
</g>
<g>
</g>
<g>
</g>
<g>
</g>
<g>
</g>
<g>
</g>
<g>
</g>
<g>
</g>
<g>
</g>
<g>
</g>
<g>
</g>
</svg>
