<?xml version="1.0" encoding="iso-8859-1"?>
<!-- Generator: Adobe Illustrator 17.1.0, SVG Export Plug-In . SVG Version: 6.00 Build 0)  -->
<!DOCTYPE svg PUBLIC "-//W3C//DTD SVG 1.1//EN" "http://www.w3.org/Graphics/SVG/1.1/DTD/svg11.dtd">
<svg version="1.1" id="Capa_1" xmlns="http://www.w3.org/2000/svg" xmlns:xlink="http://www.w3.org/1999/xlink" x="0px" y="0px"
	 viewBox="0 0 465 465" style="enable-background:new 0 0 465 465;" xml:space="preserve">
<g>
	<path d="M371.908,301.798c-3.365-2.413-8.052-1.642-10.465,1.725c-2.414,3.366-1.641,8.052,1.725,10.465
		c7.42,5.32,13.621,11.982,18.365,19.521c-14.33,4.715-24.707,18.217-24.707,34.104V457.5c0,4.142,3.358,7.5,7.5,7.5
		s7.5-3.358,7.5-7.5v-89.887c0-9.967,7.018-18.313,16.368-20.391c2.646,7.402,4.058,15.277,4.058,23.311c0,4.142,3.358,7.5,7.5,7.5
		s7.5-3.358,7.5-7.5C407.251,343.361,394.039,317.666,371.908,301.798z"/>
	<path d="M112.502,72.816h133.04c4.142,0,7.5-3.358,7.5-7.5s-3.358-7.5-7.5-7.5h-37.096c4.387-6.013,6.985-13.411,6.985-21.408
		C215.431,16.333,199.098,0,179.022,0s-36.408,16.333-36.408,36.408c0,7.997,2.598,15.395,6.985,21.408h-37.097
		c-4.142,0-7.5,3.358-7.5,7.5S108.36,72.816,112.502,72.816z M157.614,36.408c0-11.805,9.604-21.408,21.408-21.408
		s21.408,9.604,21.408,21.408s-9.604,21.408-21.408,21.408S157.614,48.213,157.614,36.408z"/>
	<path d="M465,182.012V129.85c0-4.142-3.358-7.5-7.5-7.5s-7.5,3.358-7.5,7.5v2.05H288.703c-3.644-24.91-25.144-44.1-51.049-44.1
		H120.391C54.007,87.8,0,141.807,0,208.191V457.5c0,4.142,3.358,7.5,7.5,7.5h197.731c4.142,0,7.5-3.358,7.5-7.5V348.686h48.682
		V457.5c0,4.142,3.358,7.5,7.5,7.5h49.788c4.142,0,7.5-3.358,7.5-7.5V242.571c0-4.142-3.358-7.5-7.5-7.5s-7.5,3.358-7.5,7.5V390
		h-34.788V262.359c0-23.318,18.97-42.288,42.288-42.288h17.957h17.937h84.949c14.037,0,25.457-11.42,25.457-25.457v-12.571
		C465,182.033,465,182.023,465,182.012z M120.391,102.8h27.552v104.615c0,29.044,21.735,53.266,49.788,57.134V390H15V208.191
		C15,150.078,62.278,102.8,120.391,102.8z M15,450v-15h22.5c4.142,0,7.5-3.358,7.5-7.5s-3.358-7.5-7.5-7.5H15v-15h182.731v15H67.5
		c-4.142,0-7.5,3.358-7.5,7.5s3.358,7.5,7.5,7.5h130.231v15H15z M276.413,450v-15h34.788v15H276.413z M311.201,405v15h-34.788v-15
		H311.201z M439.543,205.071h-84.949h-17.937h-17.957c-31.589,0-57.288,25.699-57.288,57.288v71.327h-48.682v-76.1
		c0-4.121-3.325-7.47-7.445-7.5c-23.348-0.171-42.343-19.313-42.343-42.671v-67.315h68.262l8.264,11.402
		c1.467,2.024,3.756,3.1,6.079,3.1c1.525,0,3.065-0.464,4.395-1.428c3.354-2.431,4.103-7.12,1.672-10.474l-10.509-14.501
		c-1.411-1.947-3.669-3.099-6.073-3.099h-72.089V102.8h74.71c20.181,0,36.6,16.419,36.6,36.6c0,4.142,3.358,7.5,7.5,7.5H450v20.882
		l-5.844-3.991c-2.551-1.741-5.909-1.742-8.459,0l-13.34,9.111l-13.343-9.111c-2.551-1.742-5.908-1.742-8.459,0l-13.343,9.112
		l-13.346-9.112c-2.551-1.742-5.908-1.742-8.459,0l-13.341,9.111l-13.347-9.112c-2.551-1.742-5.907-1.741-8.458,0l-13.349,9.113
		l-13.351-9.113c-2.551-1.741-5.906-1.741-8.457,0l-17.579,12c-3.421,2.335-4.301,7.002-1.966,10.423
		c1.452,2.127,3.806,3.272,6.201,3.272c1.456,0,2.928-0.423,4.222-1.306l13.351-9.114l13.351,9.114c2.551,1.741,5.907,1.74,8.458,0
		l13.348-9.113l13.347,9.113c2.551,1.741,5.908,1.742,8.459,0l13.341-9.111l13.345,9.112c2.55,1.741,5.908,1.741,8.458,0
		l13.343-9.112l13.343,9.111c2.551,1.742,5.909,1.742,8.459,0l13.341-9.111L450,185.946v8.668
		C450,200.38,445.309,205.071,439.543,205.071z"/>
</g>
<g>
</g>
<g>
</g>
<g>
</g>
<g>
</g>
<g>
</g>
<g>
</g>
<g>
</g>
<g>
</g>
<g>
</g>
<g>
</g>
<g>
</g>
<g>
</g>
<g>
</g>
<g>
</g>
<g>
</g>
</svg>
