<?xml version="1.0" encoding="iso-8859-1"?>
<!-- Generator: Adobe Illustrator 17.1.0, SVG Export Plug-In . SVG Version: 6.00 Build 0)  -->
<!DOCTYPE svg PUBLIC "-//W3C//DTD SVG 1.1//EN" "http://www.w3.org/Graphics/SVG/1.1/DTD/svg11.dtd">
<svg version="1.1" id="Capa_1" xmlns="http://www.w3.org/2000/svg" xmlns:xlink="http://www.w3.org/1999/xlink" x="0px" y="0px"
	 viewBox="0 0 465 465" style="enable-background:new 0 0 465 465;" xml:space="preserve">
<g>
	<path d="M78.458,409.583c-4.142,0-7.5,3.358-7.5,7.5V457.5c0,4.142,3.358,7.5,7.5,7.5s7.5-3.358,7.5-7.5v-40.417
		C85.958,412.941,82.601,409.583,78.458,409.583z"/>
	<path d="M118.164,409.583c-4.142,0-7.5,3.358-7.5,7.5V457.5c0,4.142,3.358,7.5,7.5,7.5s7.5-3.358,7.5-7.5v-40.417
		C125.664,412.941,122.306,409.583,118.164,409.583z"/>
	<path d="M157.869,409.583c-4.142,0-7.5,3.358-7.5,7.5V457.5c0,4.142,3.358,7.5,7.5,7.5s7.5-3.358,7.5-7.5v-40.417
		C165.369,412.941,162.011,409.583,157.869,409.583z"/>
	<path d="M406.892,369.166h-12.85v-83.634c0-24.417-18.579-44.573-42.343-47.081c3.523-25.528,25.392-45.252,51.777-45.252
		c2.738,0,5.259-1.492,6.576-3.893s1.221-5.329-0.251-7.638L319.443,39.884c-0.182-0.285-0.385-0.548-0.597-0.8
		c-0.046-0.055-0.093-0.107-0.141-0.161c-0.247-0.277-0.507-0.538-0.786-0.771c-0.012-0.01-0.026-0.019-0.038-0.029
		c-0.29-0.239-0.598-0.45-0.917-0.641c-0.038-0.022-0.073-0.047-0.111-0.069c-0.327-0.188-0.668-0.346-1.017-0.481
		c-0.031-0.012-0.059-0.031-0.09-0.043c-0.996-0.373-23.104-8.526-55.56-11.944c0.921-6.87,1.565-12.649,1.616-13.11
		c0.378-3.414-1.611-6.647-4.827-7.851C256.54,3.822,246.164,0,232.5,0s-24.04,3.822-24.475,3.984
		c-3.216,1.203-5.205,4.437-4.827,7.851c0.051,0.461,0.695,6.24,1.616,13.11c-32.456,3.418-54.564,11.572-55.56,11.944
		c-0.03,0.011-0.056,0.029-0.086,0.041c-0.352,0.136-0.694,0.296-1.023,0.485c-0.036,0.021-0.069,0.043-0.104,0.064
		c-0.322,0.192-0.632,0.405-0.925,0.646c-0.011,0.009-0.023,0.017-0.033,0.026c-0.28,0.234-0.541,0.495-0.789,0.773
		c-0.047,0.053-0.093,0.104-0.139,0.158c-0.212,0.252-0.416,0.515-0.598,0.801L55.199,181.668c-1.472,2.309-1.568,5.237-0.251,7.638
		s3.837,3.893,6.576,3.893c26.385,0,48.254,19.723,51.777,45.252c-23.763,2.509-42.343,22.664-42.343,47.081v83.634h-12.85
		c-14.808,0-26.855,12.047-26.855,26.855V457.5c0,4.142,3.358,7.5,7.5,7.5h9.705c4.142,0,7.5-3.358,7.5-7.5s-3.358-7.5-7.5-7.5
		h-2.205v-53.979c0-6.537,5.318-11.855,11.855-11.855h120.11c6.537,0,11.855,5.318,11.855,11.855V450h-2.205
		c-4.142,0-7.5,3.358-7.5,7.5s3.358,7.5,7.5,7.5h9.705c4.142,0,7.5-3.358,7.5-7.5v-61.479c0-14.808-12.047-26.855-26.855-26.855
		h-92.26v-63.028h51.615c4.142,0,7.5-3.358,7.5-7.5s-3.358-7.5-7.5-7.5H85.958v-5.606c0-17.837,14.511-32.348,32.348-32.348h162.38
		c4.142,0,7.5-3.358,7.5-7.5s-3.358-7.5-7.5-7.5H128.38c-3.258-29.4-25.408-53.167-53.974-58.744l72.48-113.731
		c3.22,26.409,9.109,71.171,14.765,95.696c7.792,33.782,36.926,57.376,70.849,57.376c33.923,0,63.058-23.594,70.849-57.376
		c5.656-24.524,11.545-69.287,14.765-95.696l72.48,113.731c-28.566,5.577-50.716,29.343-53.974,58.744h-19.927
		c-4.142,0-7.5,3.358-7.5,7.5s3.358,7.5,7.5,7.5h30c17.837,0,32.348,14.511,32.348,32.348v5.606H167.574c-4.142,0-7.5,3.358-7.5,7.5
		s3.358,7.5,7.5,7.5h22.5v39.883c0,4.142,3.358,7.5,7.5,7.5s7.5-3.358,7.5-7.5v-39.883h54.853v39.883c0,4.142,3.358,7.5,7.5,7.5
		s7.5-3.358,7.5-7.5v-39.883h104.115v63.028h-92.26c-14.808,0-26.855,12.047-26.855,26.855V457.5c0,4.142,3.358,7.5,7.5,7.5h9.705
		c4.142,0,7.5-3.358,7.5-7.5s-3.358-7.5-7.5-7.5h-2.205v-53.979c0-6.537,5.318-11.855,11.855-11.855h120.11
		c6.537,0,11.855,5.318,11.855,11.855V450h-2.205c-4.142,0-7.5,3.358-7.5,7.5s3.358,7.5,7.5,7.5h9.705c4.142,0,7.5-3.358,7.5-7.5
		v-61.479C433.747,381.212,421.7,369.166,406.892,369.166z M288.732,158.033c-6.311,27.363-28.909,45.748-56.232,45.748
		c-27.323,0-49.921-18.385-56.232-45.748c-6.698-29.042-14.004-89.624-16.243-108.913c8.278-2.542,25.292-7.095,47.073-9.334
		c0.29,1.573,0.583,3.026,0.875,4.292c0.931,4.036,4.958,6.552,8.994,5.623c4.036-0.931,6.554-4.958,5.623-8.994
		c-1.374-5.955-2.864-17.146-3.733-24.198C222.302,15.752,227.09,15,232.5,15c5.412,0,10.201,0.752,13.645,1.508
		c-0.479,3.885-1.147,9.026-1.88,13.858c-0.001,0.003-0.001,0.007-0.001,0.01c-0.596,3.931-1.236,7.657-1.852,10.33
		c-0.931,4.036,1.586,8.063,5.623,8.994c0.567,0.131,1.134,0.193,1.692,0.193c3.414,0,6.501-2.347,7.301-5.816
		c0.292-1.265,0.585-2.719,0.875-4.291c21.715,2.237,38.774,6.798,47.072,9.34C302.735,68.423,295.431,128.99,288.732,158.033z"/>
	<path d="M307.131,409.583c-4.142,0-7.5,3.358-7.5,7.5V457.5c0,4.142,3.358,7.5,7.5,7.5s7.5-3.358,7.5-7.5v-40.417
		C314.631,412.941,311.273,409.583,307.131,409.583z"/>
	<path d="M346.836,409.583c-4.142,0-7.5,3.358-7.5,7.5V457.5c0,4.142,3.358,7.5,7.5,7.5s7.5-3.358,7.5-7.5v-40.417
		C354.336,412.941,350.979,409.583,346.836,409.583z"/>
	<path d="M386.542,409.583c-4.142,0-7.5,3.358-7.5,7.5V457.5c0,4.142,3.358,7.5,7.5,7.5s7.5-3.358,7.5-7.5v-40.417
		C394.042,412.941,390.684,409.583,386.542,409.583z"/>
</g>
<g>
</g>
<g>
</g>
<g>
</g>
<g>
</g>
<g>
</g>
<g>
</g>
<g>
</g>
<g>
</g>
<g>
</g>
<g>
</g>
<g>
</g>
<g>
</g>
<g>
</g>
<g>
</g>
<g>
</g>
</svg>
