<?xml version="1.0" encoding="iso-8859-1"?>
<!-- Generator: Adobe Illustrator 17.1.0, SVG Export Plug-In . SVG Version: 6.00 Build 0)  -->
<!DOCTYPE svg PUBLIC "-//W3C//DTD SVG 1.1//EN" "http://www.w3.org/Graphics/SVG/1.1/DTD/svg11.dtd">
<svg version="1.1" id="Capa_1" xmlns="http://www.w3.org/2000/svg" xmlns:xlink="http://www.w3.org/1999/xlink" x="0px" y="0px"
	 viewBox="0 0 465 465" style="enable-background:new 0 0 465 465;" xml:space="preserve">
<g>
	<path d="M457.5,330H420v-62.5c0-4.143-3.358-7.5-7.5-7.5H375v-62.5c0-4.143-3.358-7.5-7.5-7.5H330v-62.5c0-4.143-3.358-7.5-7.5-7.5
		H285V57.5c0-4.143-3.358-7.5-7.5-7.5h-90c-4.142,0-7.5,3.357-7.5,7.5V120h-37.5c-4.142,0-7.5,3.357-7.5,7.5V190H97.5
		c-4.142,0-7.5,3.357-7.5,7.5V260H52.5c-4.142,0-7.5,3.357-7.5,7.5V330H7.5c-4.142,0-7.5,3.357-7.5,7.5v70
		c0,4.143,3.358,7.5,7.5,7.5h450c4.142,0,7.5-3.357,7.5-7.5v-70C465,333.357,461.642,330,457.5,330z M240,65h30v55h-30V65z M240,135
		h75v55h-75V135z M240,205h120v55H240V205z M195,65h30v55h-30V65z M105,205h67.5c4.142,0,7.5-3.357,7.5-7.5s-3.358-7.5-7.5-7.5H150
		v-55h75v55h-22.5c-4.142,0-7.5,3.357-7.5,7.5s3.358,7.5,7.5,7.5H225v55H105V205z M225,400H15v-55h210V400z M450,400H240v-55h132.5
		c4.142,0,7.5-3.357,7.5-7.5s-3.358-7.5-7.5-7.5H240v-12.5c0-4.143-3.358-7.5-7.5-7.5s-7.5,3.357-7.5,7.5V330H60v-55h165v12.5
		c0,4.143,3.358,7.5,7.5,7.5s7.5-3.357,7.5-7.5V275h165v55h-2.5c-4.142,0-7.5,3.357-7.5,7.5s3.358,7.5,7.5,7.5H450V400z"/>
	<path d="M327,229c-4.411,0-8,3.589-8,8s3.589,8,8,8s8-3.589,8-8S331.411,229,327,229z"/>
	<path d="M273,369c-4.411,0-8,3.589-8,8s3.589,8,8,8s8-3.589,8-8S277.411,369,273,369z"/>
	<path d="M313,360c-4.411,0-8,3.589-8,8s3.589,8,8,8s8-3.589,8-8S317.411,360,313,360z"/>
</g>
<g>
</g>
<g>
</g>
<g>
</g>
<g>
</g>
<g>
</g>
<g>
</g>
<g>
</g>
<g>
</g>
<g>
</g>
<g>
</g>
<g>
</g>
<g>
</g>
<g>
</g>
<g>
</g>
<g>
</g>
</svg>
