<?xml version="1.0" encoding="iso-8859-1"?>
<!-- Generator: Adobe Illustrator 17.1.0, SVG Export Plug-In . SVG Version: 6.00 Build 0)  -->
<!DOCTYPE svg PUBLIC "-//W3C//DTD SVG 1.1//EN" "http://www.w3.org/Graphics/SVG/1.1/DTD/svg11.dtd">
<svg version="1.1" id="Capa_1" xmlns="http://www.w3.org/2000/svg" xmlns:xlink="http://www.w3.org/1999/xlink" x="0px" y="0px"
	 viewBox="0 0 465 465" style="enable-background:new 0 0 465 465;" xml:space="preserve">
<g>
	<path d="M355.375,103.565c26.763,16.712,42.038,40.913,44.175,69.985c0.303,4.131,3.907,7.24,8.029,6.93
		c4.131-0.304,7.233-3.898,6.93-8.03c-2.501-34.039-20.202-62.258-51.188-81.608c-25.76-16.087-60.341-25.393-98.041-26.483v-2.609
		c0-4.142-3.357-7.5-7.5-7.5s-7.5,3.358-7.5,7.5v2.5h-18.676c-1.991,0-3.9,0.792-5.307,2.2c-1.407,1.409-2.196,3.319-2.193,5.31
		c0,0.001,0.023,16.795,0.023,26.032c0,67.292,12.576,91.718,24.738,115.339c11.358,22.058,22.108,42.948,22.962,100.553h-48.682
		c-0.909-61.346-13.005-84.763-24.719-107.43c-11.909-23.044-23.158-44.811-23.158-108.462V7.5c0-4.142-3.357-7.5-7.5-7.5
		C92.062,0,30.471,61.433,30.471,136.944V457.5c0,4.142,3.357,7.5,7.5,7.5h177.731c4.143,0,7.5-3.358,7.5-7.5V328.686h48.682
		l0.001,128.814c0,4.142,3.357,7.5,7.5,7.5h49.787c4.143,0,7.5-3.358,7.5-7.5V356.977c0-31.918-8.259-63.388-23.883-91.008
		c-2.04-3.605-6.617-4.875-10.221-2.835c-3.605,2.04-4.875,6.615-2.836,10.221c14.354,25.371,21.939,54.287,21.939,83.622V390
		h-34.788l0-68.814c0-66.983-12.548-91.353-24.682-114.919c-11.867-23.047-23.075-44.815-23.075-108.473
		c0-5.231-0.008-12.883-0.014-18.542h18.666C295.606,79.251,330.267,87.886,355.375,103.565z M160.268,15.227v82.567
		c0,67.298,12.624,91.726,24.833,115.349c11.88,22.988,23.102,44.701,23.102,108.043V390H45.471V136.944
		C45.471,72.215,96.313,19.104,160.268,15.227z M45.471,450v-15h22.501c4.143,0,7.5-3.358,7.5-7.5s-3.357-7.5-7.5-7.5H45.471v-15
		h162.731v15H97.972c-4.143,0-7.5,3.358-7.5,7.5s3.357,7.5,7.5,7.5h110.23v15H45.471z M286.885,450v-15h34.787v15H286.885z
		 M321.672,405v15h-34.787l0-15H321.672z"/>
	<path d="M231.604,49.869c4.411,0,8-3.589,8-8s-3.589-8-8-8s-8,3.589-8,8S227.192,49.869,231.604,49.869z"/>
	<path d="M380.611,70.878c-31.913-24.672-73.683-38.643-118.069-39.577C252.45,12.132,232.586,0,210.637,0h-12.869
		c-4.143,0-7.5,3.358-7.5,7.5s3.357,7.5,7.5,7.5h12.869c17.59,0,33.384,10.469,40.234,26.672c1.174,2.775,3.895,4.579,6.908,4.579
		c42.854,0,83.218,12.96,113.658,36.494c31.013,23.975,48.092,56.028,48.092,90.256c0,4.142,3.357,7.5,7.5,7.5s7.5-3.358,7.5-7.5
		C434.529,134.025,415.381,97.757,380.611,70.878z"/>
	<path d="M382.379,301.798c-3.364-2.412-8.052-1.642-10.465,1.725c-2.414,3.366-1.642,8.052,1.725,10.465
		c7.42,5.32,13.621,11.982,18.365,19.521c-14.329,4.715-24.707,18.217-24.707,34.104V457.5c0,4.142,3.357,7.5,7.5,7.5
		s7.5-3.358,7.5-7.5v-89.887c0-9.966,7.017-18.313,16.367-20.391c2.646,7.402,4.058,15.277,4.058,23.31c0,4.142,3.357,7.5,7.5,7.5
		s7.5-3.358,7.5-7.5C417.722,343.361,404.51,317.666,382.379,301.798z"/>
</g>
<g>
</g>
<g>
</g>
<g>
</g>
<g>
</g>
<g>
</g>
<g>
</g>
<g>
</g>
<g>
</g>
<g>
</g>
<g>
</g>
<g>
</g>
<g>
</g>
<g>
</g>
<g>
</g>
<g>
</g>
</svg>
