<?xml version="1.0" encoding="iso-8859-1"?>
<!-- Generator: Adobe Illustrator 17.1.0, SVG Export Plug-In . SVG Version: 6.00 Build 0)  -->
<!DOCTYPE svg PUBLIC "-//W3C//DTD SVG 1.1//EN" "http://www.w3.org/Graphics/SVG/1.1/DTD/svg11.dtd">
<svg version="1.1" id="Capa_1" xmlns="http://www.w3.org/2000/svg" xmlns:xlink="http://www.w3.org/1999/xlink" x="0px" y="0px"
	 viewBox="0 0 466 466" style="enable-background:new 0 0 466 466;" xml:space="preserve">
<g>
	<path d="M8,327.206h98.565c4.418,0,8-3.582,8-8s-3.582-8-8-8H8c-4.418,0-8,3.582-8,8S3.582,327.206,8,327.206z"/>
	<path d="M114.565,347.161c0-4.418-3.582-8-8-8H8c-4.418,0-8,3.582-8,8s3.582,8,8,8h98.565
		C110.983,355.161,114.565,351.579,114.565,347.161z"/>
	<path d="M28.275,299.251H128.43c3.817,22.533,23.477,39.748,47.081,39.748c4.418,0,8-3.582,8-8s-3.582-8-8-8
		c-17.508,0-31.751-14.242-31.751-31.748c0-4.418-3.582-8-8-8H28.275c-4.418,0-8,3.582-8,8S23.857,299.251,28.275,299.251z"/>
	<path d="M89.714,271.296h65.627c17.052,0,32.955,9.18,41.504,23.958c4.191,7.245,6.406,15.527,6.406,23.952c0,4.418,3.582,8,8,8
		s8-3.582,8-8c0-6.807-1.093-13.546-3.195-19.955h158.08c4.418,0,8-3.582,8-8V98.885h2c4.418,0,8-3.582,8-8s-3.582-8-8-8h-10
		c-4.418,0-8,3.582-8,8v192.366h-157.96c-11.839-17.351-31.671-27.955-52.835-27.955H89.714c-4.418,0-8,3.582-8,8
		S85.296,271.296,89.714,271.296z"/>
	<path d="M458,82.885h-43.864c-4.418,0-8,3.582-8,8s3.582,8,8,8H450v253.575c0,8.081-6.575,14.656-14.656,14.656H38.413
		c-4.418,0-8,3.582-8,8s3.582,8,8,8h396.931c16.904,0,30.656-13.752,30.656-30.656V90.885C466,86.466,462.418,82.885,458,82.885z"/>
</g>
<g>
</g>
<g>
</g>
<g>
</g>
<g>
</g>
<g>
</g>
<g>
</g>
<g>
</g>
<g>
</g>
<g>
</g>
<g>
</g>
<g>
</g>
<g>
</g>
<g>
</g>
<g>
</g>
<g>
</g>
</svg>
