<?xml version="1.0" encoding="iso-8859-1"?>
<!-- Generator: Adobe Illustrator 17.1.0, SVG Export Plug-In . SVG Version: 6.00 Build 0)  -->
<!DOCTYPE svg PUBLIC "-//W3C//DTD SVG 1.1//EN" "http://www.w3.org/Graphics/SVG/1.1/DTD/svg11.dtd">
<svg version="1.1" id="Capa_1" xmlns="http://www.w3.org/2000/svg" xmlns:xlink="http://www.w3.org/1999/xlink" x="0px" y="0px"
	 viewBox="0 0 465 465" style="enable-background:new 0 0 465 465;" xml:space="preserve">
<path d="M457.5,133.877H273.192c-10.171-10.896-24.645-17.728-40.692-17.728s-30.521,6.831-40.692,17.728H7.5
	c-4.143,0-7.5,3.357-7.5,7.5c0,54.521,44.356,98.878,98.878,98.878h68.695c4.143,0,7.5-3.357,7.5-7.5v-22.96h16.735
	c4.511,4.833,9.869,8.861,15.837,11.851v91.067c0,9.012-5.679,16.703-13.638,19.738v-53.376c0-4.143-3.357-7.5-7.5-7.5H152.5
	c-4.143,0-7.5,3.357-7.5,7.5c0,3.402,2.266,6.27,5.369,7.188v26.449c0,19.927,16.211,36.138,36.138,36.138
	s36.138-16.211,36.138-36.138v-86.081c3.201,0.574,6.491,0.891,9.855,0.891s6.654-0.317,9.855-0.891v86.081
	c0,19.927,16.211,36.138,36.138,36.138s36.138-16.211,36.138-36.138v-26.449c3.104-0.919,5.369-3.787,5.369-7.188
	c0-4.143-3.357-7.5-7.5-7.5h-34.007c-4.143,0-7.5,3.357-7.5,7.5v53.376c-7.959-3.035-13.638-10.726-13.638-19.738v-91.067
	c5.968-2.99,11.325-7.018,15.837-11.851h16.735v22.96c0,4.143,3.357,7.5,7.5,7.5h68.695c54.521,0,98.878-44.356,98.878-98.878
	C465,137.234,461.643,133.877,457.5,133.877z M165.369,312.713v-26.138h13.638v45.876
	C171.048,329.416,165.369,321.724,165.369,312.713z M299.631,286.575v26.138c0,9.012-5.679,16.703-13.638,19.738v-45.876H299.631z
	 M160.073,225.255H98.878c-32.596,0-60.899-18.694-74.776-45.919h25.986c4.143,0,7.5-3.357,7.5-7.5s-3.357-7.5-7.5-7.5H18.196
	c-1.419-4.981-2.391-10.149-2.864-15.459h50.049c3.748,34.209,32.808,60.918,67.999,60.918h26.693V225.255z M133.38,194.795
	c-26.909,0-49.222-20.003-52.881-45.918h101.288c-3.184,7.006-4.973,14.775-4.973,22.959s1.789,15.953,4.973,22.959H133.38z
	 M232.5,212.522c-22.435,0-40.687-18.252-40.687-40.687s18.252-40.687,40.687-40.687s40.687,18.252,40.687,40.687
	S254.935,212.522,232.5,212.522z M283.213,148.877h101.288c-3.659,25.915-25.972,45.918-52.881,45.918h-48.407
	c3.184-7.006,4.973-14.775,4.973-22.959S286.397,155.883,283.213,148.877z M366.122,225.255h-61.195v-15.46h26.693
	c35.19,0,64.25-26.709,67.999-60.918h50.049c-0.473,5.31-1.444,10.478-2.864,15.459h-31.892c-4.143,0-7.5,3.357-7.5,7.5
	s3.357,7.5,7.5,7.5h25.986C427.021,206.561,398.718,225.255,366.122,225.255z"/>
<g>
</g>
<g>
</g>
<g>
</g>
<g>
</g>
<g>
</g>
<g>
</g>
<g>
</g>
<g>
</g>
<g>
</g>
<g>
</g>
<g>
</g>
<g>
</g>
<g>
</g>
<g>
</g>
<g>
</g>
</svg>
