<?xml version="1.0" encoding="iso-8859-1"?>
<!-- Generator: Adobe Illustrator 17.1.0, SVG Export Plug-In . SVG Version: 6.00 Build 0)  -->
<!DOCTYPE svg PUBLIC "-//W3C//DTD SVG 1.1//EN" "http://www.w3.org/Graphics/SVG/1.1/DTD/svg11.dtd">
<svg version="1.1" id="Capa_1" xmlns="http://www.w3.org/2000/svg" xmlns:xlink="http://www.w3.org/1999/xlink" x="0px" y="0px"
	 viewBox="0 0 465 465" style="enable-background:new 0 0 465 465;" xml:space="preserve">
<g>
	<path d="M357.5,142.099c-34.927,0-46.695-15.147-59.156-31.184c-6.766-8.708-14.028-18.046-25.058-24.748V7.5
		c0-4.142-3.357-7.5-7.5-7.5s-7.5,3.358-7.5,7.5v72.175c-4.486-1.272-9.449-2.173-15-2.597V7.5c0-2.25-1.011-4.382-2.752-5.806
		c-1.742-1.425-4.034-1.991-6.237-1.544c-2.331,0.472-56.047,12.072-80.354,76.774C90.02,79.719,38.875,132.591,38.875,197.191
		V457.5c0,4.142,3.357,7.5,7.5,7.5h177.73c4.143,0,7.5-3.358,7.5-7.5V348.686h48.683V457.5c0,4.142,3.357,7.5,7.5,7.5h49.787
		c4.143,0,7.5-3.358,7.5-7.5V252.571c0-4.142-3.357-7.5-7.5-7.5s-7.5,3.358-7.5,7.5V390h-34.787V271.359
		c0-23.318,18.97-42.288,42.287-42.288c3.631,0,6.74-2.601,7.382-6.174l11.818-65.808c0.245,0.001,0.479,0.011,0.725,0.011
		c4.143,0,7.5-3.358,7.5-7.5S361.642,142.099,357.5,142.099z M53.875,405h44.243v45H53.875V405z M157.362,405v45h-44.244v-45
		H157.362z M172.362,450v-45h44.243v45H172.362z M231.605,333.686v-15h48.683v15H231.605z M330.075,405v45h-34.787v-45H330.075z
		 M331.239,214.419c-28.619,3.162-50.951,27.491-50.951,56.94v32.327h-48.683v-62.115c0-4.121-3.324-7.47-7.445-7.5
		c-23.348-0.171-42.343-19.313-42.343-42.671c0-4.142-3.357-7.5-7.5-7.5s-7.5,3.358-7.5,7.5c0,29.044,21.735,53.266,49.788,57.134
		V390H53.875V197.191c0-58.113,47.278-105.391,105.391-105.391h15.052c4.143,0,7.5-3.358,7.5-7.5s-3.357-7.5-7.5-7.5h-4.17
		c8.807-20.714,21.996-37.159,39.322-48.958c7.176-4.888,13.823-8.066,18.817-10.055V84.3c0,4.142,3.357,7.5,7.5,7.5
		c28.711,0,38.907,13.123,50.713,28.319c11.639,14.979,24.635,31.674,55.222,35.937L331.239,214.419z"/>
	<path d="M424.127,302.796c-1.42-1.532-3.413-2.403-5.502-2.403h-35.426c-2.089,0-4.082,0.871-5.502,2.403
		c-1.419,1.532-2.136,3.586-1.977,5.668l2.727,35.695c0.299,3.909,3.558,6.929,7.479,6.929h7.486v9.025h-2.486
		c-4.143,0-7.5,3.358-7.5,7.5s3.357,7.5,7.5,7.5h2.486V457.5c0,4.142,3.357,7.5,7.5,7.5s7.5-3.358,7.5-7.5v-82.387h2.486
		c4.143,0,7.5-3.358,7.5-7.5s-3.357-7.5-7.5-7.5h-2.486v-9.025h7.486c3.921,0,7.18-3.02,7.479-6.929l2.727-35.695
		C426.263,306.382,425.546,304.328,424.127,302.796z M408.949,336.088h-16.074l-1.581-20.695h19.236L408.949,336.088z"/>
	<path d="M235.786,128.918c-17.223,0-33.53,7.232-44.392,19.5h-17.077c-4.143,0-7.5,3.358-7.5,7.5s3.357,7.5,7.5,7.5h17.077
		c10.863,12.268,27.169,19.5,44.392,19.5c18.561,0,36.067-8.389,46.831-22.439c2.062-2.691,2.062-6.431,0-9.122
		C271.853,137.307,254.347,128.918,235.786,128.918z M235.786,167.918c-11.741,0-22.865-4.402-30.827-12
		c7.962-7.598,19.086-12,30.827-12s22.865,4.402,30.827,12C258.651,163.516,247.527,167.918,235.786,167.918z"/>
</g>
<g>
</g>
<g>
</g>
<g>
</g>
<g>
</g>
<g>
</g>
<g>
</g>
<g>
</g>
<g>
</g>
<g>
</g>
<g>
</g>
<g>
</g>
<g>
</g>
<g>
</g>
<g>
</g>
<g>
</g>
</svg>
