<?xml version="1.0" encoding="iso-8859-1"?>
<!-- Generator: Adobe Illustrator 17.1.0, SVG Export Plug-In . SVG Version: 6.00 Build 0)  -->
<!DOCTYPE svg PUBLIC "-//W3C//DTD SVG 1.1//EN" "http://www.w3.org/Graphics/SVG/1.1/DTD/svg11.dtd">
<svg version="1.1" id="Capa_1" xmlns="http://www.w3.org/2000/svg" xmlns:xlink="http://www.w3.org/1999/xlink" x="0px" y="0px"
	 viewBox="0 0 465 465" style="enable-background:new 0 0 465 465;" xml:space="preserve">
<g>
	<path d="M324.853,238.408c-4.102-0.503-7.857,2.402-8.371,6.514l-25.185,201.726c-0.211,1.692-2.092,3.353-3.797,3.353h-110
		c-1.705,0-3.586-1.66-3.797-3.352l-25.185-201.727c-0.514-4.111-4.283-7.019-8.371-6.514c-4.11,0.514-7.026,4.262-6.514,8.371
		l25.185,201.728C159.974,457.755,168.18,465,177.5,465h110c9.32,0,17.526-7.245,18.682-16.494l25.185-201.727
		C331.879,242.67,328.963,238.922,324.853,238.408z"/>
	<path d="M237.198,417c0-4.411-3.589-8-8-8s-8,3.589-8,8s3.589,8,8,8S237.198,421.411,237.198,417z"/>
	<path d="M207.198,387c0-4.411-3.589-8-8-8s-8,3.589-8,8s3.589,8,8,8S207.198,391.411,207.198,387z"/>
	<path d="M333.51,220.323c0.084-0.112,0.169-0.223,0.246-0.34c0.053-0.08,0.1-0.164,0.149-0.246c0.075-0.124,0.152-0.247,0.22-0.375
		c0.046-0.086,0.085-0.176,0.127-0.264c0.062-0.129,0.125-0.256,0.18-0.389c0.042-0.102,0.076-0.208,0.114-0.312
		c0.044-0.122,0.091-0.243,0.129-0.369c0.038-0.126,0.067-0.255,0.099-0.383c0.027-0.109,0.057-0.215,0.079-0.326
		c0.03-0.15,0.049-0.303,0.07-0.457c0.013-0.093,0.03-0.184,0.039-0.279c0.016-0.162,0.02-0.327,0.025-0.492
		c0.003-0.082,0.012-0.161,0.012-0.243c0-0.01-0.001-0.019-0.001-0.029c-0.001-0.125-0.012-0.252-0.019-0.378
		c-0.007-0.135-0.01-0.271-0.025-0.403c-0.001-0.009-0.001-0.017-0.002-0.026L318.296,66.479C316.042,46.364,297.74,30,277.5,30
		h-16.909l1.24-18.488c0.222-3.307-1.753-6.366-4.856-7.526C256.54,3.822,246.163,0,232.5,0s-24.04,3.822-24.475,3.985
		c-3.104,1.16-5.078,4.221-4.856,7.526L204.409,30H187.5c-20.24,0-38.542,16.364-40.796,36.478l-16.657,148.536
		c-0.001,0.009-0.001,0.017-0.002,0.026c-0.014,0.133-0.018,0.268-0.025,0.403c-0.007,0.126-0.018,0.253-0.019,0.378
		c0,0.01-0.001,0.019-0.001,0.029c0,0.082,0.01,0.162,0.012,0.243c0.005,0.165,0.009,0.329,0.025,0.492
		c0.009,0.094,0.027,0.186,0.039,0.279c0.021,0.153,0.04,0.306,0.07,0.457c0.022,0.111,0.053,0.219,0.08,0.328
		c0.031,0.127,0.06,0.255,0.098,0.38c0.038,0.125,0.085,0.246,0.129,0.369c0.038,0.105,0.072,0.211,0.115,0.313
		c0.054,0.132,0.118,0.259,0.179,0.386c0.043,0.089,0.082,0.179,0.128,0.266c0.068,0.129,0.145,0.251,0.22,0.375
		c0.05,0.082,0.096,0.166,0.149,0.246c0.077,0.117,0.162,0.228,0.246,0.34c0.061,0.081,0.118,0.165,0.182,0.243
		c0.083,0.102,0.172,0.197,0.259,0.295c0.074,0.083,0.146,0.167,0.224,0.246c0.085,0.086,0.175,0.166,0.264,0.248
		s0.175,0.166,0.268,0.244c0.088,0.074,0.182,0.141,0.273,0.211c0.1,0.077,0.199,0.155,0.303,0.227
		c0.096,0.066,0.197,0.124,0.296,0.186c0.106,0.066,0.21,0.134,0.319,0.194c0.11,0.061,0.225,0.113,0.338,0.169
		c0.104,0.051,0.206,0.105,0.313,0.151c0.131,0.057,0.268,0.104,0.403,0.153c0.094,0.034,0.186,0.073,0.282,0.103
		c0.157,0.05,0.319,0.089,0.481,0.13c0.08,0.02,0.157,0.044,0.238,0.061c0.169,0.036,0.343,0.06,0.516,0.084
		c0.072,0.01,0.141,0.027,0.214,0.035c0.008,0.001,0.016,0,0.025,0.001c0.244,0.026,0.492,0.04,0.742,0.042
		c0.026,0,0.053,0.004,0.079,0.004c0.007,0,0.014-0.001,0.021-0.001h189.939c0.007,0,0.014,0.001,0.021,0.001
		c0.026,0,0.053-0.004,0.079-0.004c0.25-0.002,0.498-0.016,0.742-0.042c0.008-0.001,0.016,0,0.025-0.001
		c0.073-0.008,0.142-0.025,0.214-0.035c0.173-0.024,0.347-0.048,0.516-0.084c0.081-0.017,0.158-0.042,0.238-0.061
		c0.162-0.04,0.324-0.079,0.481-0.13c0.096-0.03,0.187-0.069,0.281-0.103c0.135-0.049,0.272-0.097,0.404-0.154
		c0.107-0.046,0.209-0.1,0.313-0.151c0.113-0.055,0.228-0.108,0.338-0.169c0.11-0.061,0.214-0.129,0.321-0.195
		c0.099-0.061,0.199-0.119,0.295-0.185c0.104-0.072,0.203-0.15,0.303-0.227c0.091-0.07,0.185-0.137,0.273-0.211
		c0.093-0.078,0.179-0.162,0.268-0.244s0.179-0.162,0.264-0.248c0.078-0.079,0.15-0.164,0.224-0.246
		c0.088-0.097,0.177-0.193,0.259-0.295C333.391,220.488,333.449,220.405,333.51,220.323z M277.5,45
		c12.627,0,24.483,10.601,25.89,23.149l15.722,140.2h-32.021l-3.82-68.124c1.862-8.111,3.779-17.391,5.506-26.155
		c0.01-0.046,0.018-0.092,0.027-0.138c3.392-17.217,6.043-32.383,6.084-32.613c0.38-2.182-0.223-4.419-1.647-6.114
		c-1.426-1.695-3.526-2.674-5.741-2.674h-29.76L259.586,45H277.5z M186.464,87.532h92.072c-0.845,4.637-1.98,10.76-3.273,17.468
		H252.5c-4.143,0-7.5,3.357-7.5,7.5s3.357,7.5,7.5,7.5h19.788c-1.227,5.991-2.501,11.952-3.747,17.352
		c-4.051,17.563-18.534,29.362-36.041,29.362c-17.363,0-31.745-11.609-35.933-28.932c-0.01-0.043-0.021-0.086-0.032-0.128
		c-0.024-0.101-0.052-0.2-0.076-0.302c-1.245-5.4-2.519-11.361-3.747-17.352H212.5c4.143,0,7.5-3.357,7.5-7.5s-3.357-7.5-7.5-7.5
		h-22.763C188.444,98.292,187.309,92.169,186.464,87.532z M195.317,165.812c7.839,8.179,18.2,13.665,29.683,15.347v27.191h-32.068
		L195.317,165.812z M240,181.158c11.482-1.682,21.843-7.168,29.682-15.347l2.385,42.538H240V181.158z M232.5,15
		c5.577,0,10.493,0.8,13.957,1.578l-3.751,55.954h-20.41l-3.752-55.954C222.008,15.8,226.925,15,232.5,15z M161.61,68.148
		C163.017,55.601,174.873,45,187.5,45h17.915l1.846,27.532H177.5c-2.215,0-4.315,0.979-5.741,2.674
		c-1.425,1.695-2.027,3.933-1.647,6.114c0.04,0.23,2.692,15.397,6.084,32.613c0.009,0.046,0.018,0.092,0.027,0.138
		c1.727,8.763,3.644,18.043,5.506,26.154l-3.82,68.125h-32.021L161.61,68.148z"/>
</g>
<g>
</g>
<g>
</g>
<g>
</g>
<g>
</g>
<g>
</g>
<g>
</g>
<g>
</g>
<g>
</g>
<g>
</g>
<g>
</g>
<g>
</g>
<g>
</g>
<g>
</g>
<g>
</g>
<g>
</g>
</svg>
