<?xml version="1.0" encoding="iso-8859-1"?>
<!-- Generator: Adobe Illustrator 17.1.0, SVG Export Plug-In . SVG Version: 6.00 Build 0)  -->
<!DOCTYPE svg PUBLIC "-//W3C//DTD SVG 1.1//EN" "http://www.w3.org/Graphics/SVG/1.1/DTD/svg11.dtd">
<svg version="1.1" id="Capa_1" xmlns="http://www.w3.org/2000/svg" xmlns:xlink="http://www.w3.org/1999/xlink" x="0px" y="0px"
	 viewBox="0 0 465 465" style="enable-background:new 0 0 465 465;" xml:space="preserve">
<g>
	<path d="M324.853,238.408c-4.101-0.503-7.857,2.402-8.371,6.514l-25.185,201.726c-0.211,1.692-2.092,3.353-3.797,3.353h-110
		c-1.705,0-3.585-1.66-3.796-3.352l-25.185-201.727c-0.514-4.109-4.261-7.022-8.372-6.514c-4.11,0.514-7.026,4.262-6.513,8.371
		l25.185,201.727c1.155,9.249,9.36,16.494,18.681,16.494h110c9.32,0,17.526-7.245,18.682-16.494l25.185-201.727
		C331.879,242.67,328.963,238.922,324.853,238.408z"/>
	<path d="M237.197,417c0-4.411-3.588-8-8-8c-4.411,0-8,3.589-8,8s3.589,8,8,8C233.609,425,237.197,421.411,237.197,417z"/>
	<path d="M207.198,387c0-4.411-3.589-8-8-8s-8,3.589-8,8s3.589,8,8,8S207.198,391.411,207.198,387z"/>
	<path d="M334.494,213.143l-38.282-98.911c18.628-21.234,16.803-50.207,8.426-71.016C294.231,17.367,273.278,0,252.5,0
		c-4.143,0-7.5,3.357-7.5,7.5v63.276C240.85,70.263,236.654,70,232.5,70s-8.35,0.263-12.5,0.776V7.5c0-4.143-3.358-7.5-7.5-7.5
		c-20.778,0-41.73,17.367-52.137,43.216c-8.377,20.809-10.203,49.781,8.425,71.016l-38.282,98.911
		c-0.893,2.307-0.59,4.906,0.808,6.946c1.398,2.041,3.713,3.261,6.187,3.261h190c2.474,0,4.788-1.22,6.187-3.261
		C335.085,218.049,335.388,215.449,334.494,213.143z M260,16.182c12.142,3.753,24.078,16.131,30.723,32.637
		c5.539,13.758,7.635,31.844,0.036,46.864C284.858,85.061,273.374,77.888,260,73.88V16.182z M278.514,105H252.5
		c-4.143,0-7.5,3.357-7.5,7.5s3.357,7.5,7.5,7.5h26.448c-5.107,19.227-28.021,40-46.448,40s-41.341-20.773-46.448-40H212.5
		c4.142,0,7.5-3.357,7.5-7.5s-3.358-7.5-7.5-7.5h-26.014c6.056-14.519,29.508-20,46.014-20S272.457,90.481,278.514,105z
		 M174.278,48.817c6.645-16.505,18.581-28.883,30.722-32.636V73.88c-13.373,4.008-24.857,11.181-30.758,21.801
		C166.643,80.661,168.739,62.575,174.278,48.817z M148.445,208.35l28.02-72.396c3.438,6.518,8.143,12.899,13.912,18.669
		C203.136,167.383,218.883,175,232.5,175c13.616,0,29.363-7.617,42.123-20.377c5.77-5.77,10.474-12.151,13.912-18.669l28.019,72.396
		H148.445z"/>
</g>
<g>
</g>
<g>
</g>
<g>
</g>
<g>
</g>
<g>
</g>
<g>
</g>
<g>
</g>
<g>
</g>
<g>
</g>
<g>
</g>
<g>
</g>
<g>
</g>
<g>
</g>
<g>
</g>
<g>
</g>
</svg>
