<?xml version="1.0" encoding="iso-8859-1"?>
<!-- Generator: Adobe Illustrator 19.0.0, SVG Export Plug-In . SVG Version: 6.00 Build 0)  -->
<svg version="1.1" id="Capa_1" xmlns="http://www.w3.org/2000/svg" xmlns:xlink="http://www.w3.org/1999/xlink" x="0px" y="0px"
	 viewBox="0 0 512 512" style="enable-background:new 0 0 512 512;" xml:space="preserve">
<path style="fill:#FFCF65;" d="M481,40h-30c5.523,0,10,4.477,10,10v20c0,5.523-4.477,10-10,10h30c5.523,0,10,4.477,10,10v20
	c0,5.523-4.477,10-10,10h-30c5.523,0,10,4.477,10,10v20c0,5.523-4.477,10-10,10h30c5.523,0,10,4.477,10,10v20
	c0,5.523-4.477,10-10,10h-30c5.523,0,10,4.477,10,10v20c0,5.523-4.477,10-10,10c5.523,0,10,4.477,10,10v20c0,5.523-4.477,10-10,10
	h30c5.523,0,10,4.477,10,10v20c0,5.523-4.477,10-10,10h-30c5.523,0,10,4.477,10,10v20c0,5.523-4.477,10-20.006,10h-240
	c4.483,0,0.006-4.477,0.006-10v-20c0-5.523,4.477-10,10-10h19.994c-5.523,0-10-4.477-10-10v-20c0-5.523,4.477-10,10-10H211
	c-5.523,0-10-4.477-10-10v-20c0-5.523,4.477-10,10-10c-5.523,0-10-4.477-10-10v-20c0-5.523,4.477-10,10-10h30
	c-5.523,0-10-4.477-10-10v-20c0-5.523,4.477-10,10-10h-30c-5.523,0-10-4.477-10-10v-20c0-5.523,4.477-10,10-10h30
	c-5.523,0-10-4.477-10-10V90c0-5.523,4.477-10,10-10h-30c-5.523,0-10-4.477-10-10V50c0-5.523,4.477-10,10-10h30
	c-5.523,0-10-4.477-10-10V10c0-5.523,4.477-10,10-10h240c5.523,0,10,4.477,10,10v20C491,35.523,486.523,40,481,40z"/>
<path style="fill:#FFB450;" d="M481,40h-30c5.523,0,10,4.477,10,10v20c0,5.523-4.477,10-10,10h30c5.523,0,10,4.477,10,10v20
	c0,5.523-4.477,10-10,10h-30c5.523,0,10,4.477,10,10v20c0,5.523-4.477,10-10,10h30c5.523,0,10,4.477,10,10v20
	c0,5.523-4.477,10-10,10h-30c5.523,0,10,4.477,10,10v20c0,5.523-4.477,10-10,10c5.523,0,10,4.477,10,10v20c0,5.523-4.477,10-10,10
	h30c5.523,0,10,4.477,10,10v20c0,5.523-4.477,10-10,10h-30c5.523,0,10,4.477,10,10v20c0,5.523-4.477,10-20.006,10h-33
	c15.529,0,20.006-4.477,20.006-10v-20c0-5.523-4.477-10-10-10h30c5.523,0,10-4.477,10-10v-20c0-5.523-4.477-10-10-10h-30
	c5.523,0,10-4.477,10-10v-20c0-5.523-4.477-10-10-10c5.523,0,10-4.477,10-10v-20c0-5.523-4.477-10-10-10h30c5.523,0,10-4.477,10-10
	v-20c0-5.523-4.477-10-10-10h-30c5.523,0,10-4.477,10-10v-20c0-5.523-4.477-10-10-10h30c5.523,0,10-4.477,10-10V90
	c0-5.523-4.477-10-10-10h-30c5.523,0,10-4.477,10-10V50c0-5.523-4.477-10-10-10h30c5.523,0,10-4.477,10-10V10
	c0-5.523-4.477-10-10-10h33c5.523,0,10,4.477,10,10v20C491,35.523,486.523,40,481,40z"/>
<path style="fill:#F0C087;" d="M491,290v20c0,5.523-4.477,10-10,10H219.667c-5.523,0-10-4.477-10-10v-20c0-5.523,4.477-10,10-10H481
	C486.523,280,491,284.477,491,290z M481,160H241c-5.523,0-10,4.477-10,10v20c0,5.523,4.477,10,10,10h-30c-5.523,0-10,4.477-10,10v20
	c0,5.523,4.477,10,10,10h240c5.523,0,10-4.477,10-10v-20c0-5.523-4.477-10-10-10h30c5.523,0,10-4.477,10-10v-20
	C491,164.477,486.523,160,481,160z M481,80h-30c5.523,0,10-4.477,10-10V50c0-5.523-4.477-10-10-10H211c-5.523,0-10,4.477-10,10v20
	c0,5.523,4.477,10,10,10h30c-5.523,0-10,4.477-10,10v20c0,5.523,4.477,10,10,10h240c5.523,0,10-4.477,10-10V90
	C491,84.477,486.523,80,481,80z"/>
<path style="fill:#E6AF78;" d="M491,290v20c0,5.523-4.477,10-10,10h-32c5.523,0,10-4.477,10-10v-20c0-5.523-4.477-10-10-10h32
	C486.523,280,491,284.477,491,290z M481,160h-32c5.523,0,10,4.477,10,10v20c0,5.523-4.477,10-10,10h-30c5.523,0,10,4.477,10,10v20
	c0,5.523-4.477,10-10,10h32c5.523,0,10-4.477,10-10v-20c0-5.523-4.477-10-10-10h30c5.523,0,10-4.477,10-10v-20
	C491,164.477,486.523,160,481,160z M481,80h-30c5.523,0,10-4.477,10-10V50c0-5.523-4.477-10-10-10h-32c5.523,0,10,4.477,10,10v20
	c0,5.523-4.477,10-10,10h30c5.523,0,10,4.477,10,10v20c0,5.523-4.477,10-10,10h32c5.523,0,10-4.477,10-10V90
	C491,84.477,486.523,80,481,80z"/>
<path style="fill:#D5945E;" d="M491,170v20c0,5.523-4.477,10-10,10H241c-5.523,0-10-4.477-10-10v-20c0-5.523,4.477-10,10-10h240
	C486.523,160,491,164.477,491,170z M481,80H241c-5.523,0-10,4.477-10,10v20c0,5.523,4.477,10,10,10h240c5.523,0,10-4.477,10-10V90
	C491,84.477,486.523,80,481,80z"/>
<path style="fill:#CE8855;" d="M491,170v20c0,5.523-4.477,10-10,10h-30.333c5.523,0,10-4.477,10-10v-20c0-5.523-4.477-10-10-10H481
	C486.523,160,491,164.477,491,170z M481,80h-30.333c5.523,0,10,4.477,10,10v20c0,5.523-4.477,10-10,10H481c5.523,0,10-4.477,10-10
	V90C491,84.477,486.523,80,481,80z"/>
<path style="fill:#E6AF78;" d="M151,512c-71.797,0-130-58.203-130-130s58.203-130,130-130s130,58.203,130,130S222.797,512,151,512z"
	/>
<path style="fill:#D5945E;" d="M281,382c0,71.797-58.203,130-130,130c-4.458,0-8.862-0.231-13.203-0.672
	C203.348,504.669,254.5,449.308,254.5,382s-51.152-122.669-116.703-129.328C142.138,252.231,146.542,252,151,252
	C222.797,252,281,310.203,281,382z"/>
<path style="fill:#FFCF65;" d="M151,477c-52.467,0-95-42.533-95-95s42.533-95,95-95s95,42.533,95,95S203.467,477,151,477z"/>
<path style="fill:#C37A4F;" d="M197.24,334.16l-32.227,48.34H181c4.142,0,7.5,3.358,7.5,7.5s-3.358,7.5-7.5,7.5h-22.5v15H181
	c4.142,0,7.5,3.358,7.5,7.5s-3.358,7.5-7.5,7.5h-22.5V450c0,4.142-3.358,7.5-7.5,7.5s-7.5-3.358-7.5-7.5v-22.5H121
	c-4.142,0-7.5-3.358-7.5-7.5s3.358-7.5,7.5-7.5h22.5v-15H121c-4.142,0-7.5-3.358-7.5-7.5s3.358-7.5,7.5-7.5h15.986l-32.227-48.34
	c-2.298-3.446-1.367-8.103,2.08-10.4s8.103-1.366,10.4,2.08L151,376.479l33.76-50.639c2.297-3.447,6.954-4.378,10.4-2.08
	C198.607,326.057,199.538,330.714,197.24,334.16z"/>
<g>
</g>
<g>
</g>
<g>
</g>
<g>
</g>
<g>
</g>
<g>
</g>
<g>
</g>
<g>
</g>
<g>
</g>
<g>
</g>
<g>
</g>
<g>
</g>
<g>
</g>
<g>
</g>
<g>
</g>
</svg>
