<?xml version="1.0" encoding="iso-8859-1"?>
<!-- Generator: Adobe Illustrator 19.0.0, SVG Export Plug-In . SVG Version: 6.00 Build 0)  -->
<svg version="1.1" id="Capa_1" xmlns="http://www.w3.org/2000/svg" xmlns:xlink="http://www.w3.org/1999/xlink" x="0px" y="0px"
	 viewBox="0 0 512 512" style="enable-background:new 0 0 512 512;" xml:space="preserve">
<path style="fill:#D5945E;" d="M154,435.749v40.223c0,2.777-2.239,5.028-5,5.028H66c-2.761,0-5-2.251-5-5.028v-40.223
	c0-2.777,2.239-5.028,5-5.028h83C151.761,430.721,154,432.972,154,435.749z M446,430.721h-83c-2.761,0-5,2.251-5,5.028v40.223
	c0,2.777,2.239,5.028,5,5.028h83c2.761,0,5-2.251,5-5.028v-40.223C451,432.972,448.761,430.721,446,430.721z"/>
<path style="fill:#E6AF78;" d="M512,405.581v40.223c0,2.777-2.239,5.028-5,5.028H5c-2.761,0-5-2.251-5-5.028v-40.223
	c0-2.777,2.239-5.028,5-5.028h39.951c-8.284,0-15-6.753-15-15.084v-25.14h70.097v25.14c0,8.331-6.716,15.084-15,15.084h170.854
	c-8.284,0-15-6.753-15-15.084v-25.14H401v25.14c0,8.331-6.716,15.084-15,15.084h121C509.761,400.553,512,402.804,512,405.581z"/>
<path style="fill:#803030;" d="M512,279.883v20.112c0,26.338-21.309,47.765-47.5,47.765h-51.242
	c4.635-4.507,8.727-9.568,12.175-15.084H464.5c17.921,0,32.5-14.661,32.5-32.682v-20.112c0-18.021-14.579-32.682-32.5-32.682
	h-39.067c-3.447-5.516-7.54-10.577-12.175-15.084H464.5C490.691,232.117,512,253.545,512,279.883z"/>
<path style="fill:#963737;" d="M29.951,360.33h70.097v25.14c0,8.331-6.716,15.084-15,15.084H44.951c-8.284,0-15-6.753-15-15.084
	V360.33z M381,209.492L381,209.492v-15.084c0-2.777-2.239-5.028-5-5.028h5l0,0c0-24.342-17.202-44.64-40.049-49.28v-11.055
	c0-11.107-8.954-20.112-20-20.112l0,0c-11.045,0-20,9.004-20,20.112V140.1c-22.846,4.64-40.049,24.939-40.049,49.28l0,0h5
	c-2.761,0-5,2.251-5,5.028v15.084l0,0c-24.611,0-46.617,11.185-61.292,28.765l-35.676-35.876c-1.875-1.886-4.419-2.945-7.071-2.945
	H125c-2.761,0-5,2.251-5,5.028c0,19.249,6.208,37.978,17.693,53.377l38.973,52.254c2.357,3.16,5.44,5.391,8.818,6.693
	c8.813,25.031,29.583,44.376,55.418,51.063v17.618c0,8.331,6.716,15.084,15,15.084H386c8.284,0,15-6.753,15-15.084v-17.618
	c34.504-8.93,60-40.427,60-77.912l0,0C461,245.509,425.183,209.492,381,209.492z"/>
<path style="fill:#AA4141;" d="M435.5,289.938L435.5,289.938c0,44.43-35.817,80.447-80,80.447h-94.597
	c-44.183,0-80-36.017-80-80.447l0,0c0-44.43,35.817-80.447,80-80.447v-15.084c0-2.777,2.239-5.028,5-5.028h-5l0,0
	c0-27.391,21.786-49.651,48.882-50.251c27.096,0.6,48.882,22.859,48.882,50.251l0,0H350.5c2.761,0,5,2.251,5,5.028v15.084
	C399.683,209.492,435.5,245.509,435.5,289.938z"/>
<path style="fill:#D24A4A;" d="M130,315.078v5.028c0,27.768-22.386,50.279-50,50.279H50c-27.614,0-50-22.511-50-50.279v-5.028
	c0-2.777,2.239-5.028,5-5.028h120C127.761,310.05,130,312.301,130,315.078z M386,179.324H255.903c-8.284,0-15,6.753-15,15.084
	s6.716,15.084,15,15.084H386c8.284,0,15-6.753,15-15.084C401,186.077,394.284,179.324,386,179.324z"/>
<path style="fill:#D5945E;" d="M512,405.581v40.223c0,2.777-2.239,5.028-5,5.028h-25c2.761,0,5-2.251,5-5.028v-40.223
	c0-2.777-2.239-5.028-5-5.028h25C509.761,400.553,512,402.804,512,405.581z"/>
<path style="fill:#C83741;" d="M125,310.05h-23c2.761,0,5,2.251,5,5.028v5.028c0,27.768-22.386,50.279-50,50.279h23
	c27.614,0,50-22.511,50-50.279v-5.028C130,312.301,127.761,310.05,125,310.05z M386,179.324h-23c8.284,0,15,6.753,15,15.084
	s-6.716,15.084-15,15.084h23c8.284,0,15-6.753,15-15.084C401,186.077,394.284,179.324,386,179.324z"/>
<path style="fill:#DCDBDE;" d="M167.5,88.821c0,14.983-5.803,29.07-16.338,39.665l-1.718,1.727
	c-7.702,7.745-11.944,18.044-11.944,28.998v10.056c0,4.165-3.357,7.542-7.5,7.542s-7.5-3.377-7.5-7.542v-10.056
	c0-14.983,5.803-29.07,16.338-39.665l1.718-1.727c7.702-7.745,11.944-18.044,11.944-28.998s-4.242-21.254-11.945-29l-15.857-15.946
	c-2.93-2.945-2.93-7.72-0.001-10.666c2.93-2.945,7.679-2.946,10.606,0l15.858,15.946C161.697,59.751,167.5,73.838,167.5,88.821z
	 M190,71.224c-4.143,0-7.5,3.377-7.5,7.542v20.111c0,10.954-4.242,21.254-11.944,28.999l-1.718,1.727
	c-10.535,10.595-16.338,24.682-16.338,39.666c0,4.165,3.357,7.542,7.5,7.542s7.5-3.377,7.5-7.542
	c0-10.954,4.242-21.254,11.944-28.999l1.718-1.727c10.535-10.595,16.338-24.682,16.338-39.666V78.765
	C197.5,74.6,194.143,71.224,190,71.224z"/>
<g>
</g>
<g>
</g>
<g>
</g>
<g>
</g>
<g>
</g>
<g>
</g>
<g>
</g>
<g>
</g>
<g>
</g>
<g>
</g>
<g>
</g>
<g>
</g>
<g>
</g>
<g>
</g>
<g>
</g>
</svg>
