<?xml version="1.0" encoding="iso-8859-1"?>
<!-- Generator: Adobe Illustrator 19.0.0, SVG Export Plug-In . SVG Version: 6.00 Build 0)  -->
<svg version="1.1" id="Capa_1" xmlns="http://www.w3.org/2000/svg" xmlns:xlink="http://www.w3.org/1999/xlink" x="0px" y="0px"
	 viewBox="0 0 512 512" style="enable-background:new 0 0 512 512;" xml:space="preserve">
<path style="fill:#BFEEFC;" d="M480,120v370c0,5.523-4.477,10-10,10H140c-5.523,0-10-4.477-10-10V120c0-5.523,4.477-10,10-10h330
	C475.523,110,480,114.477,480,120z"/>
<path style="fill:#A1D7FC;" d="M230,210v280c0,5.523-4.477,10-10,10H40c-5.523,0-10-4.477-10-10V210c0-5.523,4.477-10,10-10h180
	C225.523,200,230,204.477,230,210z"/>
<path style="fill:#69AFEB;" d="M91,380H61V200h30V380z"/>
<path style="fill:#85C2EF;" d="M76,207.5c-4.142,0-7.5-3.358-7.5-7.5V40c0-4.142,3.358-7.5,7.5-7.5s7.5,3.358,7.5,7.5v160
	C83.5,204.142,80.142,207.5,76,207.5z"/>
<path style="fill:#736F7B;" d="M41,205c0-19.33,15.67-35,35-35s35,15.67,35,35s-15.67,35-35,35S41,224.33,41,205z M76,120
	c8.284,0,15-6.716,15-15s-6.716-15-15-15s-15,6.716-15,15S67.716,120,76,120z M76,340c-30.376,0-55,24.624-55,55s24.624,55,55,55
	s55-24.624,55-55S106.376,340,76,340z"/>
<path style="fill:#504B5A;" d="M89.333,205c0-15.547-10.141-28.719-24.166-33.282C68.579,170.608,72.218,170,76,170
	c19.33,0,35,15.67,35,35s-15.67,35-35,35c-3.782,0-7.421-0.608-10.832-1.718C79.193,233.719,89.333,220.547,89.333,205z M76,340
	c-4.718,0-9.297,0.596-13.667,1.713c23.764,6.077,41.333,27.629,41.333,53.287s-17.57,47.21-41.333,53.287
	C66.703,449.404,71.282,450,76,450c30.376,0,55-24.624,55-55S106.376,340,76,340z"/>
<g>
	<path style="fill:#69AFEB;" d="M491,425v60c0,2.761-2.239,5-5,5H66c-2.761,0-5-2.239-5-5v-60c0-2.761,2.239-5,5-5h420
		C488.761,420,491,422.239,491,425z"/>
	<path style="fill:#69AFEB;" d="M234.015,80v120c0,4.142-3.358,7.5-7.5,7.5s-7.5-3.358-7.5-7.5V80c0-4.142,3.358-7.5,7.5-7.5
		S234.015,75.858,234.015,80z"/>
</g>
<path style="fill:#85C2EF;" d="M265.082,300h-77.135v-70l38.979-90l38.156,90V300z"/>
<path style="fill:#69AFEB;" d="M265.082,230v70h-18v-70l-29.252-68.998L226.926,140L265.082,230z"/>
<path style="fill:#4B82C8;" d="M106,395v90c0,2.761-2.239,5-5,5H51c-2.761,0-5-2.239-5-5v-90c0-2.761,2.239-5,5-5h50
	C103.761,390,106,392.239,106,395z"/>
<path style="fill:#5091D7;" d="M282.029,350v160H171V350l8.474-20v-90c0-5.523,4.477-10,10-10h74.082c5.523,0,10,4.477,10,10v90
	L282.029,350z"/>
<path style="fill:#4B82C8;" d="M282.029,350v160h-15.25V355.003l-8.474-20V240c0-5.523-4.477-10-10-10h15.25c5.523,0,10,4.477,10,10
	v90L282.029,350z"/>
<path style="fill:#85C2EF;" d="M441,23.904v23.887c0,114.772,3.952,229.51,11.848,344.011L461,510H321l8.152-118.199
	C337.048,277.301,341,162.563,341,47.791V5c0-2.761,2.239-5,5-5l0,0c9.962,0,19.887,1.222,29.552,3.638l61.661,15.415
	C439.439,19.61,441,21.61,441,23.904z"/>
<path style="fill:#69AFEB;" d="M461,510h-30l-8.152-118.199C414.952,277.301,411,162.563,411,47.791V12.5l26.213,6.553
	C439.439,19.61,441,21.61,441,23.904v23.887c0,114.772,3.952,229.51,11.848,344.01L461,510z"/>
<path style="fill:#5091D7;" d="M447.25,297.5h-24.822c-4.142,0-7.5-3.358-7.5-7.5s3.358-7.5,7.5-7.5h24.087
	C446.751,287.5,447,292.5,447.25,297.5z M441.032,62.5H371c-4.142,0-7.5,3.358-7.5,7.5s3.358,7.5,7.5,7.5h70.099
	C441.069,72.5,441.046,67.5,441.032,62.5z M443.401,202.5h-46.687c-4.142,0-7.5,3.358-7.5,7.5s3.358,7.5,7.5,7.5h47.171
	C443.716,212.5,443.556,207.5,443.401,202.5z M441.72,132.5h-57.863c-4.142,0-7.5,3.358-7.5,7.5s3.358,7.5,7.5,7.5h58.148
	C441.905,142.5,441.805,137.5,441.72,132.5z M450.925,362.5h-11.8c-4.142,0-7.5,3.358-7.5,7.5s3.358,7.5,7.5,7.5h12.768
	C451.563,372.5,451.24,367.5,450.925,362.5z"/>
<path style="fill:#69AFEB;" d="M219.015,260v160c0,4.142-3.358,7.5-7.5,7.5s-7.5-3.358-7.5-7.5V260c0-4.142,3.358-7.5,7.5-7.5
	S219.015,255.858,219.015,260z M241.515,252.5c-4.142,0-7.5,3.358-7.5,7.5v160c0,4.142,3.358,7.5,7.5,7.5s7.5-3.358,7.5-7.5V260
	C249.015,255.858,245.657,252.5,241.515,252.5z"/>
<path style="fill:#4B82C8;" d="M341,455v30c0,2.761-2.239,5-5,5H146c-2.761,0-5-2.239-5-5v-30c0-2.761,2.239-5,5-5h190
	C338.761,450,341,452.239,341,455z"/>
<path style="fill:#5091D7;" d="M339.596,110c8.352,0,15.398,6.23,16.413,14.521C373.843,270.174,403.927,402.769,441,510H315.058
	l8.152-118.199c6.357-92.172,10.153-184.498,11.393-276.872C334.64,112.196,336.863,110,339.596,110L339.596,110z"/>
<path style="fill:#4B82C8;" d="M347.5,217.5h-15.328c0.17-5,0.332-10,0.487-15H347.5c4.142,0,7.5,3.358,7.5,7.5
	S351.642,217.5,347.5,217.5z M368.5,290c0-4.142-3.358-7.5-7.5-7.5h-31.462c-0.235,5-0.478,10-0.728,15H361
	C365.142,297.5,368.5,294.142,368.5,290z M371,362.5h-45.862c-0.315,5-0.636,10-0.966,15H371c4.142,0,7.5-3.358,7.5-7.5
	S375.142,362.5,371,362.5z"/>
<path style="fill:#736F7B;" d="M507,512H5c-2.761,0-5-2.239-5-5v-20c0-2.761,2.239-5,5-5h502c2.761,0,5,2.239,5,5v20
	C512,509.761,509.761,512,507,512z"/>
<g>
</g>
<g>
</g>
<g>
</g>
<g>
</g>
<g>
</g>
<g>
</g>
<g>
</g>
<g>
</g>
<g>
</g>
<g>
</g>
<g>
</g>
<g>
</g>
<g>
</g>
<g>
</g>
<g>
</g>
</svg>
