<?xml version="1.0" encoding="iso-8859-1"?>
<!-- Generator: Adobe Illustrator 19.0.0, SVG Export Plug-In . SVG Version: 6.00 Build 0)  -->
<svg version="1.1" id="Capa_1" xmlns="http://www.w3.org/2000/svg" xmlns:xlink="http://www.w3.org/1999/xlink" x="0px" y="0px"
	 viewBox="0 0 512 512" style="enable-background:new 0 0 512 512;" xml:space="preserve">
<path style="fill:#FF4B4B;" d="M10,111h162v360H10c-5.523,0-10-4.477-10-10V121C0,115.477,4.477,111,10,111z"/>
<path style="fill:#FFB450;" d="M0,407.5v-15h36.894L52.5,376.893V322.27l-18.74-28.11c-2.298-3.446-1.366-8.103,2.08-10.4
	s8.104-1.366,10.4,2.08l6.26,9.39V260c0-4.143,3.357-7.5,7.5-7.5s7.5,3.357,7.5,7.5v28.229l5.792-11.584
	c1.852-3.704,6.356-5.208,10.063-3.354c3.704,1.853,5.206,6.357,3.354,10.063L67.5,321.771v40.123l64.226-63.834
	c2.93-2.928,7.678-2.928,10.607,0c2.929,2.93,2.929,7.678,0,10.607l-97.03,96.637C43.896,406.71,41.989,407.5,40,407.5H0z"/>
<path style="fill:#CF4036;" d="M212,441c0,16.569-13.431,30-30,30h-30c-16.569,0-30-13.431-30-30v-11c0-16.569,13.431-30,30-30h60
	V441z"/>
<path style="fill:#FF6969;" d="M482,52L482,52c16.569,0,30,13.431,30,30v299c0,16.569-13.431,30-30,30H152
	c-16.569,0-30,13.431-30,30v-30V82c0-16.569,13.431-30,30-30H482z"/>
<path style="fill:#CE8855;" d="M431,132V16c0-8.837,7.163-16,16-16l0,0c8.837,0,16,7.163,16,16v116H431z"/>
<path style="fill:#FF4B4B;" d="M412,42h70c16.569,0,30,13.431,30,30v393.5c0,16.569-13.431,30-30,30h-70c-16.569,0-30-13.431-30-30
	V72C382,55.431,395.431,42,412,42z"/>
<path style="fill:#FFCF65;" d="M357.5,235c0,4.143-3.357,7.5-7.5,7.5H248.106L225.607,265l17.5,17.5H300c4.143,0,7.5,3.357,7.5,7.5
	s-3.357,7.5-7.5,7.5h-37.5l22,16.5c3.313,2.485,3.985,7.187,1.5,10.5c-1.474,1.965-3.726,3-6.006,3c-1.565,0-3.145-0.488-4.494-1.5
	l-20.792-15.594l12.407,37.222c1.31,3.93-0.813,8.178-4.743,9.487c-0.787,0.262-1.587,0.387-2.373,0.387
	c-3.141,0-6.066-1.987-7.114-5.13l-14.274-42.823l-21.903,43.805c-1.313,2.628-3.963,4.147-6.714,4.147
	c-1.127,0-2.271-0.255-3.349-0.794c-3.704-1.853-5.206-6.357-3.354-10.063l27.582-55.164L160,220.607l-34.696,34.697
	c-0.951,0.95-2.094,1.587-3.304,1.92v-19.832l72.696-72.696c1.407-1.406,3.314-2.196,5.304-2.196h47.5l-22-16.5
	c-3.313-2.485-3.985-7.187-1.5-10.5c2.485-3.314,7.185-3.985,10.5-1.5l20.792,15.594l-12.407-37.222
	c-1.31-3.93,0.813-8.178,4.743-9.487c3.931-1.308,8.177,0.813,9.487,4.743l14.274,42.823l21.903-43.805
	c1.852-3.705,6.356-5.208,10.063-3.354c3.704,1.853,5.206,6.357,3.354,10.063L282.135,162.5h15.594l28.11-18.74
	c3.446-2.297,8.103-1.366,10.4,2.08s1.366,8.103-2.08,10.4l-30,20c-1.231,0.821-2.68,1.26-4.16,1.26h-29.985l-0.016,0.002h-0.003
	h-0.002c-0.011,0-0.023-0.002-0.034-0.002h-66.854L170.607,210L215,254.393l24.696-24.696c1.407-1.406,3.314-2.196,5.304-2.196
	h26.893l22.804-22.804c2.93-2.928,7.678-2.928,10.607,0c2.929,2.93,2.929,7.678,0,10.607L293.107,227.5H350
	C354.143,227.5,357.5,230.857,357.5,235z"/>
<path style="fill:#FFB450;" d="M512,199.009v21.261l-54.08,54.323c-0.38,0.489-0.817,0.928-1.304,1.31l-19.301,19.388
	c-1.408,1.414-3.32,2.209-5.315,2.209h-50v-15h46.884l15.616-15.687V212.27l-18.74-28.11c-2.298-3.446-1.366-8.103,2.08-10.4
	s8.104-1.367,10.4,2.08l6.26,9.39V150c0-4.143,3.357-7.5,7.5-7.5s7.5,3.357,7.5,7.5v28.229l5.792-11.584
	c1.852-3.704,6.356-5.208,10.063-3.354c3.704,1.853,5.206,6.357,3.354,10.063L459.5,211.771v39.975L512,199.009z"/>
<path style="fill:#D24A4A;" d="M512,72v393.5c0,16.569-13.431,30-30,30h-22c16.569,0,30-13.431,30-30V72c0-16.569-13.431-30-30-30
	h22C498.569,42,512,55.431,512,72z"/>
<path style="fill:#C83741;" d="M412,432h70c16.569,0,30,13.431,30,30v3.5c0,16.569-13.431,30-30,30h-70c-16.569,0-30-13.431-30-30
	V462C382,445.431,395.431,432,412,432z"/>
<path style="fill:#CE8855;" d="M463,462v34c0,8.836-7.164,16-16,16s-16-7.164-16-16v-34H463z"/>
<path style="fill:#963737;" d="M484.5,462c0,4.143-3.357,7.5-7.5,7.5h-60c-4.143,0-7.5-3.357-7.5-7.5s3.357-7.5,7.5-7.5h60
	C481.143,454.5,484.5,457.857,484.5,462z"/>
<path style="fill:#FF9744;" d="M512,199.009v21.261l-22,22.099v-21.261L512,199.009z"/>
<g>
</g>
<g>
</g>
<g>
</g>
<g>
</g>
<g>
</g>
<g>
</g>
<g>
</g>
<g>
</g>
<g>
</g>
<g>
</g>
<g>
</g>
<g>
</g>
<g>
</g>
<g>
</g>
<g>
</g>
</svg>
