<?xml version="1.0" encoding="iso-8859-1"?>
<!-- Generator: Adobe Illustrator 19.0.0, SVG Export Plug-In . SVG Version: 6.00 Build 0)  -->
<svg version="1.1" id="Capa_1" xmlns="http://www.w3.org/2000/svg" xmlns:xlink="http://www.w3.org/1999/xlink" x="0px" y="0px"
	 viewBox="0 0 512 512" style="enable-background:new 0 0 512 512;" xml:space="preserve">
<path style="fill:#C37A4F;" d="M231.652,512h-10.206c-5.523,0-10-4.477-10-10V10c0-5.523,4.477-10,10-10h10.206
	c5.523,0,10,4.477,10,10v492C241.652,507.523,237.175,512,231.652,512z"/>
<path style="fill:#F0C087;" d="M483.77,263.473c-0.287,11.402-6.886,21.716-17.158,26.817l0,0c-2.219,1.102-3.95,2.979-4.862,5.271
	l-47.936,120.526c-18.221,45.813-62.78,75.915-112.377,75.915H136.681c-51.741,0-97.739-32.72-114.395-81.372l-21.75-63.536
	c-1.089-3.18-0.497-6.69,1.574-9.345l24.872-31.874c1.907-2.444,4.845-3.874,7.959-3.874H54.49c2.988,0,5.822,1.318,7.735,3.598
	l23.172,27.617c15.304,18.239,37.975,28.785,61.881,28.785h123.293c20.25,0,39.756-7.575,54.636-21.216l104.86-96.132
	c1.86-1.705,4.298-2.652,6.829-2.652h47.414L483.77,263.473z"/>
<g>
	<path style="fill:#E6AF78;" d="M484.311,242.001l-0.54,21.472c-0.287,11.402-6.886,21.716-17.158,26.817
		c-2.219,1.102-3.95,2.979-4.862,5.271l-47.936,120.526c-18.221,45.813-62.78,75.915-112.377,75.915h-32.975
		c49.597,0,94.156-30.101,112.377-75.915l47.936-120.526c0.911-2.292,2.643-4.169,4.862-5.271
		c10.272-5.101,16.871-15.415,17.158-26.817l0.54-21.472L484.311,242.001L484.311,242.001z"/>
	<path style="fill:#E6AF78;" d="M509.788,222.305l-45.31,45c-1.474,1.464-3.407,2.196-5.34,2.196s-3.865-0.732-5.34-2.196
		c-2.949-2.93-2.949-7.678,0-10.607l45.31-45c2.949-2.928,7.731-2.928,10.679,0C512.737,214.627,512.737,219.375,509.788,222.305z"
		/>
</g>
<path style="fill:#D5945E;" d="M369.824,470.907c1.2,2.21,1.884,4.739,1.884,7.426c0,8.652-7.063,15.667-15.775,15.667
	c-6.262,0-11.656-3.633-14.203-8.885c-12.712,4.472-26.297,6.886-40.291,6.886H136.681c-47.593,0-90.308-27.696-109.816-70h384.389
	C401.986,442.093,387.516,458.835,369.824,470.907z"/>
<path style="fill:#C37A4F;" d="M378.279,422.001h32.975c-9.268,20.092-23.738,36.834-41.43,48.906c1.2,2.21,1.884,4.739,1.884,7.426
	c0,8.652-7.063,15.667-15.775,15.667c-6.262,0-11.656-3.633-14.203-8.885c-12.712,4.472-26.297,6.886-40.291,6.886h-32.962
	C315.896,491.996,358.691,464.462,378.279,422.001z"/>
<path style="fill:#FFA5A5;" d="M120.724,147.3L321.533,1.982c5.33-3.857,12.884-1.87,15.592,4.102l11.736,25.878
	c0.494,1.09,1.176,2.087,2.014,2.945l35.464,36.326c1.76,1.803,2.797,4.18,2.919,6.688l1.791,37.048
	c0.079,1.626,0.544,3.211,1.357,4.625l17.375,30.198c1.387,2.41,1.737,5.273,0.972,7.943l-8.451,29.505
	c-0.487,1.701-0.526,3.498-0.113,5.218l9.156,38.118c0.397,1.651,0.377,3.374-0.057,5.015l-9.044,34.205
	c-0.449,1.699-0.454,3.483-0.015,5.185l6.522,25.256c1.645,6.37-3.049,12.622-9.665,12.875L129.235,323.42
	c-7.175,0.274-12.461-6.59-10.314-13.396l1.134-3.596c0.633-2.008,0.633-4.161,0-6.169l-4.676-14.827
	c-0.563-1.784-0.627-3.687-0.185-5.505l5.159-21.232c0.442-1.818,0.378-3.721-0.185-5.505l-4.697-14.894
	c-0.62-1.966-0.633-4.072-0.038-6.046l4.681-15.518c0.595-1.974,0.582-4.08-0.038-6.046l-4.625-14.665
	c-0.608-1.928-0.633-3.991-0.071-5.932l4.743-16.406c0.589-2.037,0.532-4.205-0.163-6.209L117.02,159
	C115.533,154.716,117.036,149.969,120.724,147.3z"/>
<path style="fill:#FF4B4B;" d="M411.345,230.576c0.397,1.651,0.377,3.374-0.057,5.015l-9.044,34.206
	c-0.449,1.699-0.454,3.483-0.015,5.185l6.522,25.256c1.645,6.37-3.049,12.622-9.665,12.875L129.235,323.42
	c-7.175,0.274-12.461-6.59-10.314-13.396l1.134-3.596c0.633-2.008,0.633-4.16,0-6.168l-4.676-14.827
	c-0.563-1.784-0.627-3.687-0.185-5.505l5.078-20.898l286.432-47.78L411.345,230.576z"/>
<path style="fill:#FF6969;" d="M411.345,230.576c0.203,0.844,0.293,1.708,0.279,2.569l-296.713,49.496
	c-0.026-0.908,0.066-1.821,0.282-2.712l5.159-21.231c0.442-1.818,0.378-3.721-0.185-5.505l-4.697-14.894
	c-0.62-1.966-0.633-4.072-0.038-6.046l4.681-15.518c0.595-1.974,0.582-4.08-0.038-6.046l-4.625-14.665
	c-0.324-1.028-0.47-2.094-0.462-3.159l273.426-118.55c0.494,1.133,0.784,2.354,0.844,3.607l1.791,37.047
	c0.079,1.626,0.544,3.211,1.357,4.625l17.375,30.198c1.387,2.41,1.737,5.273,0.972,7.943l-8.451,29.505
	c-0.487,1.701-0.526,3.498-0.113,5.218L411.345,230.576z"/>
<path style="fill:#FF8787;" d="M115.451,196.022c-0.324-1.028-0.47-2.094-0.462-3.159L388.414,74.315
	c0.494,1.133,0.784,2.354,0.844,3.607l1.791,37.047c0.079,1.626,0.544,3.211,1.357,4.625l17.375,30.198
	c0.716,1.244,1.15,2.61,1.302,4.006l-296.08,81.349c0.006-0.975,0.143-1.951,0.428-2.895l4.681-15.518
	c0.595-1.974,0.582-4.08-0.038-6.046L115.451,196.022z"/>
<path style="fill:#A1D7FC;" d="M499.414,504c0,2.74-0.279,5.415-0.807,8H16.917c-0.528-2.585-0.807-5.26-0.807-8
	c0-22.091,18.032-40,40.275-40c14.012,0,26.348,7.11,33.563,17.893C97.163,471.11,109.499,464,123.511,464
	s26.348,7.11,33.563,17.893C164.289,471.11,176.624,464,190.636,464c14.012,0,26.348,7.11,33.563,17.893
	C231.414,471.11,243.75,464,257.762,464c14.012,0,26.348,7.11,33.563,17.893C298.54,471.11,310.875,464,324.888,464
	c14.012,0,26.348,7.11,33.563,17.893C365.665,471.11,378.001,464,392.013,464s26.348,7.11,33.563,17.893
	C432.791,471.11,445.126,464,459.139,464C481.382,464,499.414,481.909,499.414,504z"/>
<g>
</g>
<g>
</g>
<g>
</g>
<g>
</g>
<g>
</g>
<g>
</g>
<g>
</g>
<g>
</g>
<g>
</g>
<g>
</g>
<g>
</g>
<g>
</g>
<g>
</g>
<g>
</g>
<g>
</g>
</svg>
