<?xml version="1.0" encoding="iso-8859-1"?>
<!-- Generator: Adobe Illustrator 19.0.0, SVG Export Plug-In . SVG Version: 6.00 Build 0)  -->
<svg version="1.1" id="Capa_1" xmlns="http://www.w3.org/2000/svg" xmlns:xlink="http://www.w3.org/1999/xlink" x="0px" y="0px"
	 viewBox="0 0 512 512" style="enable-background:new 0 0 512 512;" xml:space="preserve">
<path style="fill:#B4826E;" d="M212.637,20v80l-9.917,290h-19.834l-9.917-290V20c0-11.046,8.88-20,19.834-20l0,0
	C203.757,0,212.637,8.954,212.637,20z M97.497,34.829C94.662,24.16,83.786,17.828,73.205,20.687l0,0
	c-10.581,2.859-16.86,13.825-14.025,24.495l20.534,77.274l84.013,277.53l19.158-5.177L118.03,112.103L97.497,34.829z"/>
<path style="fill:#A06E5F;" d="M97.497,34.829l20.534,77.274l-38.316,10.353L59.181,45.181
	c-2.835-10.669,3.444-21.636,14.025-24.495C83.786,17.828,94.662,24.159,97.497,34.829z M192.803,0
	c-10.954,0-19.834,8.954-19.834,20v80h39.668V20C212.637,8.954,203.757,0,192.803,0z"/>
<path style="fill:#FFEBBE;" d="M424.24,321.875L424.24,321.875c0,15.533-12.487,28.125-27.892,28.125h-236.52
	c-15.404,0-27.892-12.592-27.892-28.125l0,0c0-13.839,9.916-25.336,22.972-27.68c-0.427-1.956-0.659-3.985-0.659-6.07l0,0
	c0-13.839,9.916-25.336,22.972-27.68c-0.427-1.956-0.659-3.985-0.659-6.07l0,0c0-13.839,9.916-25.335,22.972-27.68
	c-0.427-1.956-0.659-3.985-0.659-6.07l0,0c0-15.533,12.487-28.125,27.891-28.125h12.272c0-12.426,9.99-22.5,22.313-22.5
	c6.673,0,12.646,2.97,16.735,7.652c4.089-4.682,10.061-7.652,16.735-7.652c12.323,0,22.313,10.074,22.313,22.5h12.272
	c15.404,0,27.892,12.592,27.892,28.125l0,0c0,2.085-0.232,4.114-0.659,6.07c13.056,2.344,22.972,13.841,22.972,27.68l0,0
	c0,2.085-0.232,4.114-0.659,6.07c13.056,2.344,22.972,13.841,22.972,27.68l0,0c0,2.085-0.232,4.114-0.659,6.07
	C414.325,296.539,424.24,308.036,424.24,321.875z"/>
<path style="fill:#FFE1B3;" d="M424.24,321.875L424.24,321.875c0,15.533-12.488,28.125-27.892,28.125H272.887
	c43.666-4,48.625-40.823,48.625-80c0-29.404-18.271-76.684-32.532-99.212c1.862-0.511,3.82-0.788,5.844-0.788
	c12.323,0,22.313,10.073,22.313,22.5h12.272c15.404,0,27.892,12.592,27.892,28.125l0,0c0,2.085-0.232,4.114-0.659,6.07
	c13.056,2.344,22.972,13.841,22.972,27.68l0,0c0,2.085-0.232,4.114-0.659,6.07c13.056,2.344,22.972,13.841,22.972,27.68l0,0
	c0,2.085-0.232,4.114-0.659,6.07C414.325,296.54,424.24,308.036,424.24,321.875z"/>
<path style="fill:#B4826E;" d="M321.724,227.5h-9.917c-4.108,0-7.438-3.357-7.438-7.5s3.33-7.5,7.438-7.5h9.917
	c4.108,0,7.438,3.357,7.438,7.5S325.832,227.5,321.724,227.5z M282.056,222.5h-9.917c-4.108,0-7.438,3.357-7.438,7.5
	s3.33,7.5,7.438,7.5h9.917c4.108,0,7.438-3.357,7.438-7.5S286.164,222.5,282.056,222.5z M331.641,262.5h-9.917
	c-4.108,0-7.438,3.357-7.438,7.5s3.33,7.5,7.438,7.5h9.917c4.108,0,7.438-3.357,7.438-7.5S335.749,262.5,331.641,262.5z"/>
<path style="fill:#AA4141;" d="M104.505,340H443.5c5.523,0,10,4.477,10,10v42c0,66.274-53.726,120-120,120H214.505
	c-66.274,0-120-53.726-120-120v-42C94.505,344.477,98.983,340,104.505,340z"/>
<path style="fill:#963737;" d="M453.5,350v42c0,66.274-53.28,120-119.004,120h-36.693c65.724,0,119.004-53.726,119.004-120v-52
	h26.776C449.06,340,453.5,344.477,453.5,350z"/>
<g>
</g>
<g>
</g>
<g>
</g>
<g>
</g>
<g>
</g>
<g>
</g>
<g>
</g>
<g>
</g>
<g>
</g>
<g>
</g>
<g>
</g>
<g>
</g>
<g>
</g>
<g>
</g>
<g>
</g>
</svg>
