<?xml version="1.0" encoding="iso-8859-1"?>
<!-- Generator: Adobe Illustrator 19.0.0, SVG Export Plug-In . SVG Version: 6.00 Build 0)  -->
<svg version="1.1" id="Capa_1" xmlns="http://www.w3.org/2000/svg" xmlns:xlink="http://www.w3.org/1999/xlink" x="0px" y="0px"
	 viewBox="0 0 512 512" style="enable-background:new 0 0 512 512;" xml:space="preserve">
<path style="fill:#CFF1D7;" d="M373.379,114.971c7.622,3.037,12.621,10.391,12.621,18.57V472c0,22.091-17.978,40-40.154,40H166.154
	C143.978,512,126,494.091,126,472V133.541c0-8.178,4.998-15.532,12.621-18.57L176.193,100V30h159.614v70L373.379,114.971z"/>
<path style="fill:#C2E8CD;" d="M386,133.541V472c0,22.091-17.978,40-40.154,40h-29.447c22.177,0,40.154-17.909,40.154-40V153.541
	c0-8.178-4.998-15.532-12.621-18.569L306.36,120V30h29.447v70l37.572,14.971C381.002,118.008,386,125.362,386,133.541z"/>
<path style="fill:#E6AF78;" d="M342.448,60H169.552c-16.569,0-30-13.431-30-30l0,0c0-16.569,13.431-30,30-30h172.896
	c16.569,0,30,13.431,30,30l0,0C372.448,46.569,359.016,60,342.448,60z"/>
<path style="fill:#D5945E;" d="M372.448,30L372.448,30c0,16.568-13.483,30-30.116,30h-31.12c16.633,0,30.116-13.432,30.116-30l0,0
	c0-16.568-13.483-30-30.116-30h31.12C358.965,0,372.448,13.432,372.448,30z"/>
<path style="fill:#FF4B4B;" d="M352.036,100c0,4.143-3.37,7.5-7.529,7.5h-31.789V180c0,4.143-3.37,7.5-7.529,7.5
	s-7.529-3.357-7.529-7.5v-72.5H167.493c-4.158,0-7.529-3.357-7.529-7.5s3.371-7.5,7.529-7.5h177.014
	C348.666,92.5,352.036,95.857,352.036,100z"/>
<path style="fill:#8CE16E;" d="M226.455,230H386v242c0,22.091-17.978,40-40.154,40H166.154C143.978,512,126,494.091,126,472V230
	h43.668c5.325,0,10.432,2.107,14.197,5.858l0,0c7.841,7.81,20.553,7.81,28.393,0l0,0C216.023,232.107,221.13,230,226.455,230z"/>
<path style="fill:#7DC86E;" d="M386,230v242c0,22.091-17.978,40-40.154,40h-29.447c22.177,0,40.154-17.909,40.154-40V230H386z"/>
<path style="fill:#FFE1B3;" d="M335.324,330h-60.27c-2.761,0-5-2.239-5-5V185c0-2.761,2.239-5,5-5h60.27c2.761,0,5,2.239,5,5v140
	C340.324,327.761,338.086,330,335.324,330z"/>
<path style="fill:#FFEBBE;" d="M310.208,330h-35.135c-2.772,0-5.019-2.239-5.019-5V185c0-2.761,2.247-5,5.019-5h35.135V330z"/>
<path style="fill:#7DB764;" d="M209.379,337.726l-16.254-2.699l-6.642,6.616c-1.47,1.464-3.397,2.196-5.324,2.196
	s-3.854-0.732-5.324-2.196c-2.941-2.93-2.941-7.678,0-10.607l6.641-6.615l-2.709-16.193c-0.684-4.086,2.087-7.95,6.189-8.631
	c4.095-0.69,7.981,2.078,8.664,6.164l2.462,14.717l14.773,2.453c4.101,0.681,6.872,4.545,6.188,8.631
	c-0.614,3.668-3.804,6.268-7.417,6.268C210.215,337.829,209.798,337.796,209.379,337.726z M337.746,393.501l8.704-12.14
	c2.417-3.371,1.633-8.055-1.75-10.462c-3.382-2.407-8.086-1.628-10.502,1.743L324.619,386h-9.392c-4.159,0-7.529,3.357-7.529,7.5
	s3.37,7.5,7.529,7.5h9.392l9.579,13.358c1.47,2.05,3.783,3.142,6.132,3.142c1.515,0,3.044-0.454,4.37-1.398
	c3.383-2.407,4.167-7.091,1.75-10.462L337.746,393.501z M240.194,420.756l-16.256,2.699l-6.641-6.615
	c-2.94-2.928-7.707-2.929-10.647,0.001c-2.941,2.929-2.94,7.678,0,10.606l6.641,6.615l-2.709,16.192
	c-0.684,4.086,2.087,7.95,6.189,8.631c0.419,0.07,0.836,0.104,1.247,0.104c3.614,0,6.804-2.6,7.417-6.268l2.462-14.716l14.773-2.452
	c4.102-0.682,6.873-4.546,6.189-8.631C248.175,422.836,244.298,420.073,240.194,420.756z"/>
<path style="fill:#B4826E;" d="M292.641,210c0-4.143,3.37-7.5,7.529-7.5h10.039c4.159,0,7.529,3.357,7.529,7.5s-3.37,7.5-7.529,7.5
	H300.17C296.011,217.5,292.641,214.143,292.641,210z M310.208,232.5H300.17c-4.159,0-7.529,3.357-7.529,7.5s3.37,7.5,7.529,7.5
	h10.039c4.159,0,7.529-3.357,7.529-7.5S314.367,232.5,310.208,232.5z M310.208,262.5H300.17c-4.159,0-7.529,3.357-7.529,7.5
	s3.37,7.5,7.529,7.5h10.039c4.159,0,7.529-3.357,7.529-7.5S314.367,262.5,310.208,262.5z M310.208,292.5H300.17
	c-4.159,0-7.529,3.357-7.529,7.5s3.37,7.5,7.529,7.5h10.039c4.159,0,7.529-3.357,7.529-7.5S314.367,292.5,310.208,292.5z"/>
<g>
</g>
<g>
</g>
<g>
</g>
<g>
</g>
<g>
</g>
<g>
</g>
<g>
</g>
<g>
</g>
<g>
</g>
<g>
</g>
<g>
</g>
<g>
</g>
<g>
</g>
<g>
</g>
<g>
</g>
</svg>
