<?xml version="1.0" encoding="iso-8859-1"?>
<!-- Generator: Adobe Illustrator 19.0.0, SVG Export Plug-In . SVG Version: 6.00 Build 0)  -->
<svg version="1.1" id="Capa_1" xmlns="http://www.w3.org/2000/svg" xmlns:xlink="http://www.w3.org/1999/xlink" x="0px" y="0px"
	 viewBox="0 0 512.001 512.001" style="enable-background:new 0 0 512.001 512.001;" xml:space="preserve">
<path style="fill:#916050;" d="M196.773,267.501c-29.323,0-56.54-14.565-72.805-38.964l-16.251-24.376
	c-2.298-3.446-1.366-8.103,2.08-10.4s8.103-1.366,10.4,2.08l16.251,24.376c13.477,20.215,36.027,32.284,60.324,32.284h107.185
	c4.143,0,7.5,3.357,7.5,7.5s-3.357,7.5-7.5,7.5H196.773z M414.686,274.145c-3.234-2.588-7.955-2.064-10.542,1.171l-21.985,27.481
	c-10.018,12.522-24.96,19.704-40.996,19.704H180c-4.143,0-7.5,3.357-7.5,7.5s3.357,7.5,7.5,7.5h161.162
	c20.617,0,39.829-9.233,52.709-25.333l21.985-27.481C418.444,281.452,417.92,276.732,414.686,274.145z"/>
<path style="fill:#A06E5F;" d="M320,89.092v129.696c0,71.015-58.099,127.839-129.115,128.031c-0.824,0.002-1.646,0.016-2.465,0.04
	c-27.84,0.822-49.784,24.072-49.784,51.924l0,0c0,9.28,4.638,17.946,12.359,23.094l3.917,2.612
	c7.721,5.147,12.359,13.813,12.359,23.094v42.418H33.636v-41.806c0-9.615,4.976-18.545,13.153-23.604l7.899-4.887
	c6.015-3.721,10.327-9.614,12.207-16.432c15.061-54.607,65.239-94.801,124.607-94.635c49.939,0.14,90.315-40.743,90.315-90.682
	V89.549c0-10.352,8.05-19.168,18.395-19.536C311.074,69.627,320,78.317,320,89.092z"/>
<path style="fill:#7DB764;" d="M512,102.959L512,102.959c0,23.482-19.036,42.519-42.518,42.519h-85.326
	c-3.426,19.611-20.524,34.523-41.116,34.523H34.224C15.323,180.001,0,164.678,0,145.777l0,0c0-11.187,5.467-21.667,14.642-28.068
	L76.503,74.55c31.183-21.756,68.291-33.421,106.314-33.421l0,0c21.908,0,43.618,3.88,64.136,11.426
	c21.249-32.322,57.63-52.554,97.441-52.554l0,0c20.366,0,40.377,5.333,58.042,15.469l88.206,50.61
	C503.853,73.66,512,87.727,512,102.959z"/>
<path style="fill:#74A45F;" d="M512,102.959L512,102.959c0,23.482-19.036,42.519-42.519,42.519h-85.326
	c-3.425,19.611-20.523,34.523-41.115,34.523H34.224c-18.519,0-33.593-14.712-34.195-33.084c4.325,1.975,9.129,3.084,14.195,3.084
	H323.04c16.524,0,30.798-9.602,37.563-23.529c3.299-6.792,10.304-10.995,17.855-10.995h71.024c23.482,0,42.519-19.036,42.519-42.519
	l0,0c0-2.144-0.178-4.26-0.493-6.343C504.199,74.307,512,88.068,512,102.959z"/>
<path style="fill:#D2B48C;" d="M247.433,512H43.802c-15.205,0-27.531-12.326-27.531-27.531l0,0c0-11.064,6.624-21.054,16.815-25.36
	l68.68-29.02c15.09-6.376,31.305-9.661,47.686-9.661l0,0c25.072,0,49.54,7.692,70.103,22.038l40.791,28.459
	c6.05,4.221,9.655,11.131,9.655,18.508l0,0C270,501.897,259.896,512,247.433,512z"/>
<path style="fill:#E6C8A0;" d="M219.555,442.467l20.313,14.172c0.083,0.782,0.133,1.571,0.133,2.366
	c0,12.463-10.104,22.567-22.567,22.567H16.442c1.045-9.882,7.353-18.536,16.645-22.462l68.68-29.02
	c15.09-6.375,31.305-9.661,47.686-9.661l0,0C174.524,420.43,198.992,428.122,219.555,442.467z"/>
<path style="fill:#8CE16E;" d="M225.692,192.003L225.692,192.003c0,15.462-12.535,27.998-27.998,27.998H71.188
	C53.963,220.001,40,206.038,40,188.813c0-3.74,0.673-7.449,1.986-10.951l1.433-3.823c11.24-29.974,39.895-49.832,71.907-49.832l0,0
	c13.411,0,26.587,3.512,38.219,10.186l58.082,33.326C220.327,172.71,225.692,181.974,225.692,192.003z M503.859,255.364
	l-34.397-23.998c-17.339-12.097-37.972-18.583-59.114-18.583l0,0c-13.813,0-27.487,2.77-40.211,8.146L312.222,245.4
	c-8.594,3.631-14.179,12.055-14.179,21.385l0,0c0,12.821,10.394,23.215,23.216,23.215H492.97c10.51,0,19.03-8.52,19.03-19.03
	C512,264.751,508.96,258.924,503.859,255.364z"/>
<path style="fill:#7DC86E;" d="M225.692,192.003c0,15.462-12.535,27.998-27.998,27.998h-14.251
	c4.09-4.867,6.557-11.143,6.557-17.998c0-10.03-5.365-19.293-14.064-24.285l-58.082-33.326
	c-11.632-6.674-24.809-10.186-38.219-10.186c-0.754,0-1.504,0.021-2.254,0.043c11.322-6.438,24.327-10.043,37.946-10.043l0,0
	c13.411,0,26.587,3.512,38.219,10.186l58.082,33.326C220.327,172.71,225.692,181.974,225.692,192.003z M503.859,255.364
	l-34.397-23.998c-17.339-12.097-37.972-18.583-59.114-18.583l0,0c-8.801,0-17.544,1.129-26.022,3.336
	c11.796,3.065,23.028,8.195,33.137,15.247l34.397,23.998c5.101,3.56,8.141,9.387,8.141,15.607c0,10.51-8.52,19.03-19.03,19.03h52
	c10.51,0,19.03-8.52,19.03-19.03C512,264.751,508.96,258.924,503.859,255.364z"/>
<g>
</g>
<g>
</g>
<g>
</g>
<g>
</g>
<g>
</g>
<g>
</g>
<g>
</g>
<g>
</g>
<g>
</g>
<g>
</g>
<g>
</g>
<g>
</g>
<g>
</g>
<g>
</g>
<g>
</g>
</svg>
