<?xml version="1.0" encoding="iso-8859-1"?>
<!-- Generator: Adobe Illustrator 19.0.0, SVG Export Plug-In . SVG Version: 6.00 Build 0)  -->
<svg version="1.1" id="Capa_1" xmlns="http://www.w3.org/2000/svg" xmlns:xlink="http://www.w3.org/1999/xlink" x="0px" y="0px"
	 viewBox="0 0 512 512" style="enable-background:new 0 0 512 512;" xml:space="preserve">
<path style="fill:#FFEBBE;" d="M456,401v21c0,5.522-4.477,10-10,10v10.248c0,2.081-0.73,4.077-1.982,5.74
	C438.985,454.672,436,462.985,436,472c0,9.014,2.985,17.327,8.018,24.012c1.252,1.663,1.982,3.659,1.982,5.74v0.944
	c0,5.138-4.165,9.304-9.304,9.304H76c-11.046,0-20-8.955-20-20v-40l0,0v-20v-31L456,401L456,401z"/>
<g>
	<path style="fill:#E6C8A0;" d="M456,401v21c0,5.522-4.477,10-10,10v10.248c0,2.081-0.73,4.077-1.982,5.74
		C438.985,454.672,436,462.985,436,472c0,9.014,2.985,17.327,8.018,24.012c1.252,1.663,1.982,3.659,1.982,5.74v0.944
		c0,5.138-4.165,9.304-9.304,9.304h-26c5.138,0,9.304-4.166,9.304-9.304v-0.944c0-2.081-0.73-4.077-1.982-5.74
		C412.985,489.327,410,481.014,410,472c0-9.015,2.985-17.328,8.018-24.013c1.252-1.663,1.982-3.659,1.982-5.74V432
		c5.523,0,10-4.478,10-10v-21H456z"/>
	<path style="fill:#E6C8A0;" d="M97.5,396v36v44v36H76c-11.046,0-20-8.954-20-20v-36v-4v-36c0-11.046,8.954-20,20-20H97.5z"/>
</g>
<path style="fill:#D2B48C;" d="M436.382,477.497c0.747,5.424,2.581,10.499,5.277,15H436H331h-35c-4.142,0-7.5-3.357-7.5-7.5
	s3.358-7.5,7.5-7.5h35h105H436.382z M366,466.499h35h35h0.383c0.747-5.424,2.582-10.499,5.279-15H436h-35h-35
	c-4.142,0-7.5,3.357-7.5,7.5S361.858,466.499,366,466.499z"/>
<path style="fill:#69AFEB;" d="M456,40v382c0,5.523-4.477,10-10,10H76c-11.046,0-20,8.954-20,20v-20V50c0-11.046,8.954-20,20-20
	h235.909c0.767-3.755,2.098-7.306,3.898-10.564c1.3-2.352,3.82-3.769,6.508-3.769l0,0c5.623,0,9.379,6.035,6.649,10.952
	c-0.598,1.076-1.109,2.207-1.526,3.382H446C451.523,30,456,34.477,456,40z"/>
<g>
	<path style="fill:#5091D7;" d="M456,40v382c0,5.523-4.477,10-10,10h-26c5.523,0,10-4.477,10-10V40c0-5.523-4.477-10-10-10h26
		C451.523,30,456,34.477,456,40z"/>
	<path style="fill:#5091D7;" d="M97.5,30v402h-15V30H97.5z"/>
</g>
<path style="fill:#EDEDEE;" d="M268.652,120c7.278,0,14.411-3.378,21.348-2.184C348.866,127.945,393.652,179.242,393.652,241
	c0,69.036-55.964,125-125,125S150,310.036,150,241S199.617,120,268.652,120z"/>
<path style="fill:#504B5A;" d="M246.652,364.069V316.34c0-27.011,7.626-53.472,22-76.34c14.374-22.868,22-49.329,22-76.339v-45.729
	c-7.142-1.269-14.494-1.932-22-1.932c-69.036,0-125,55.965-125,125C143.652,302.529,188.109,353.674,246.652,364.069z M234.652,165
	c11.046,0,20,8.955,20,20c0,11.046-8.954,20-20,20s-20-8.954-20-20S223.607,165,234.652,165z M302.652,277c11.046,0,20,8.955,20,20
	c0,11.046-8.954,20-20,20s-20-8.954-20-20S291.607,277,302.652,277z"/>
<path style="fill:#FF4B4B;" d="M405.857,160.541c0.556,2.281-0.554,4.629-2.654,5.679c-7.39,3.696-15.726,5.78-24.551,5.78
	s-17.161-2.084-24.551-5.78c-2.1-1.05-3.21-3.399-2.654-5.679l14.744-60.449c1.296-5.315,5.696-9.467,11.138-10.024
	c6.411-0.656,12.198,3.52,13.693,9.647L405.857,160.541z"/>
<path style="fill:#D24A4A;" d="M386.152,140v31.471c-2.454,0.335-4.953,0.529-7.5,0.529s-5.046-0.193-7.5-0.529V140
	c0-4.143,3.358-7.5,7.5-7.5S386.152,135.857,386.152,140z"/>
<path style="fill:#FF4B4B;" d="M386.152,37.5v60c0,4.143-3.358,7.5-7.5,7.5s-7.5-3.357-7.5-7.5v-60c0-12.406-10.093-22.5-22.5-22.5
	c-9.777,0-18.114,6.271-21.21,15h-15.536c3.484-17.096,18.636-30,36.745-30C369.33,0,386.152,16.822,386.152,37.5z"/>
<g>
</g>
<g>
</g>
<g>
</g>
<g>
</g>
<g>
</g>
<g>
</g>
<g>
</g>
<g>
</g>
<g>
</g>
<g>
</g>
<g>
</g>
<g>
</g>
<g>
</g>
<g>
</g>
<g>
</g>
</svg>
