<?xml version="1.0" encoding="iso-8859-1"?>
<!-- Generator: Adobe Illustrator 19.0.0, SVG Export Plug-In . SVG Version: 6.00 Build 0)  -->
<svg version="1.1" id="Capa_1" xmlns="http://www.w3.org/2000/svg" xmlns:xlink="http://www.w3.org/1999/xlink" x="0px" y="0px"
	 viewBox="0 0 512 512" style="enable-background:new 0 0 512 512;" xml:space="preserve">
<path style="fill:#963737;" d="M263.462,360v120c0,4.142-3.34,7.5-7.462,7.5c-4.121,0-7.462-3.358-7.462-7.5V360
	c0-4.142,3.341-7.5,7.462-7.5S263.462,355.858,263.462,360z M284.533,67.929l-21.938,41.668c-1.293,2.456-3.831,3.992-6.595,3.992
	s-5.302-1.536-6.595-3.992l-21.939-41.668c-8.859-16.826-7.362-39.685,3.561-54.354C237.545,4.821,246.414,0,256,0
	s18.455,4.821,24.974,13.575C291.895,28.245,293.392,51.104,284.533,67.929z M269.025,22.563C265.394,17.686,260.768,15,256,15
	s-9.394,2.686-13.025,7.563c-7.517,10.095-8.513,26.582-2.318,38.349L256,90.054l15.343-29.142
	C277.539,49.146,276.542,32.659,269.025,22.563z"/>
<path style="fill:#FFCF65;" d="M336.561,380H175.439c-2.761,0-5-2.239-5-5V96c0-2.761,2.239-5,5-5h161.122c2.761,0,5,2.239,5,5v279
	C341.561,377.761,339.323,380,336.561,380z"/>
<path style="fill:#FFB450;" d="M341.561,96v279c0,2.761-2.227,5-4.974,5h-30.842c2.747,0,4.974-2.239,4.974-5V96
	c0-2.761-2.227-5-4.974-5h30.842C339.334,91,341.561,93.239,341.561,96z"/>
<path style="fill:#C83741;" d="M344,342.5H168c-59.094,0-107-47.905-107-107l0,0c0-59.094,47.905-107,107-107h176
	c59.094,0,107,47.905,107,107l0,0C451,294.595,403.095,342.5,344,342.5z"/>
<path style="fill:#D24A4A;" d="M319.625,342.5H168c-59.094,0-107-47.905-107-107l0,0c0-59.094,47.905-107,107-107h151.625
	c59.094,0,107,47.905,107,107l0,0C426.625,294.595,378.72,342.5,319.625,342.5z"/>
<g>
	<path style="fill:#FF4B4B;" d="M269.383,342.5h-26.766c-59.094,0-107-47.905-107-107l0,0c0-59.094,47.905-107,107-107h26.766
		c59.094,0,107,47.905,107,107l0,0C376.383,294.595,328.477,342.5,269.383,342.5z"/>
	<path style="fill:#FF4B4B;" d="M283.066,500.541c0.553,2.281-0.552,4.629-2.641,5.679C273.073,509.916,264.78,512,256,512
		s-17.073-2.084-24.426-5.78c-2.089-1.05-3.194-3.399-2.641-5.679l14.668-60.449c1.29-5.315,5.667-9.467,11.081-10.024
		c6.378-0.656,12.136,3.52,13.623,9.647L283.066,500.541z"/>
</g>
<path style="fill:#963737;" d="M263.462,480v31.471C261.02,511.807,258.533,512,256,512s-5.02-0.193-7.462-0.529V480
	c0-4.142,3.341-7.5,7.462-7.5S263.462,475.858,263.462,480z"/>
<g>
</g>
<g>
</g>
<g>
</g>
<g>
</g>
<g>
</g>
<g>
</g>
<g>
</g>
<g>
</g>
<g>
</g>
<g>
</g>
<g>
</g>
<g>
</g>
<g>
</g>
<g>
</g>
<g>
</g>
</svg>
