<?xml version="1.0" encoding="iso-8859-1"?>
<!-- Generator: Adobe Illustrator 19.0.0, SVG Export Plug-In . SVG Version: 6.00 Build 0)  -->
<svg version="1.1" id="Capa_1" xmlns="http://www.w3.org/2000/svg" xmlns:xlink="http://www.w3.org/1999/xlink" x="0px" y="0px"
	 viewBox="0 0 512.001 512.001" style="enable-background:new 0 0 512.001 512.001;" xml:space="preserve">
<path style="fill:#736F7B;" d="M117.826,56.831l46.365,60.756l-77.782,77.942l-60.631-46.461
	c-31.546-24.173-34.625-70.656-6.544-98.795l0,0C47.316,22.134,93.703,25.22,117.826,56.831z M492.767,50.273L492.767,50.273
	c-28.081-28.139-74.469-25.054-98.592,6.557l-46.365,60.756l77.782,77.942l60.631-46.461
	C517.77,124.895,520.848,78.412,492.767,50.273z"/>
<path style="fill:#625D6B;" d="M117.826,56.831l46.365,60.756l-19.269,19.308L98.558,76.139
	C77.28,48.257,38.689,42.583,10.609,60.938c2.45-3.763,5.313-7.345,8.626-10.665l0,0C47.316,22.134,93.703,25.22,117.826,56.831z
	 M492.767,50.273L492.767,50.273c-3.754-3.761-7.842-6.947-12.153-9.599c17.152,27.997,11.207,65.675-16.123,86.617l-60.631,46.461
	l21.731,21.776l60.631-46.461C517.77,124.895,520.848,78.412,492.767,50.273z"/>
<path style="fill:#DCDBDE;" d="M372.001,450.938h-232c-77.32,0-140-62.68-140-140v-20.763c0-115.98,94.02-210,210-210h92
	c115.98,0,210,94.02,210,210v20.763C512.001,388.258,449.321,450.938,372.001,450.938z"/>
<path style="fill:#EDEDEE;" d="M340.001,450.938h-200c-77.32,0-140-62.68-140-140v-20.763c0-115.98,94.02-210,210-210h60
	c115.98,0,210,94.02,210,210v20.763C480.001,388.258,417.321,450.938,340.001,450.938z"/>
<path style="fill:#736F7B;" d="M229.567,259.247l-14.748,59.114c-5.258,21.075-24.155,35.86-45.834,35.86h-20.518
	c-36.689,0-59.377-40.078-40.552-71.634l35.265-59.114c8.529-14.297,23.929-23.051,40.552-23.051l0,0
	C214.469,200.423,237.022,229.367,229.567,259.247z M404.086,282.587l-35.265-59.114c-8.529-14.297-23.929-23.051-40.552-23.051l0,0
	c-30.736,0-53.289,28.945-45.834,58.825l14.748,59.114c5.258,21.075,24.155,35.86,45.834,35.86h20.518
	C400.224,354.221,422.912,314.143,404.086,282.587z"/>
<path style="fill:#FFEBBE;" d="M201.929,250.526c0,11.068-8.954,20.041-20,20.041s-20-8.973-20-20.041
	c0-11.068,8.954-20.041,20-20.041S201.929,239.457,201.929,250.526z M330.073,230.485c-11.046,0-20,8.973-20,20.041
	s8.954,20.041,20,20.041s20-8.973,20-20.041C350.073,239.457,341.118,230.485,330.073,230.485z"/>
<path style="fill:#504B5A;" d="M190.858,250.526c0,4.981-4.03,9.019-9,9.019c-4.971,0-9-4.038-9-9.019s4.029-9.019,9-9.019
	C186.828,241.507,190.858,245.545,190.858,250.526z M330.073,241.507c-4.97,0-9,4.038-9,9.019s4.03,9.019,9,9.019
	c4.971,0,9-4.038,9-9.019C339.073,245.545,335.043,241.507,330.073,241.507z"/>
<path style="fill:#DCDBDE;" d="M327.065,311.249l27.447,92.49c11.44,38.546-17.379,77.261-57.51,77.261H215
	c-40.131,0-68.95-38.715-57.511-77.261l27.447-92.49c5.045-17.001,20.641-28.657,38.341-28.657h65.448
	C306.425,282.592,322.02,294.249,327.065,311.249z"/>
<path style="fill:#504B5A;" d="M330.882,426.582l-6.089,5.23c-12.747,10.948-28.523,16.635-44.56,16.635
	c-8.131,0-16.328-1.461-24.232-4.441c-23.492,8.854-49.582,4.305-68.793-12.194l-6.088-5.23c-3.146-2.702-3.509-7.446-0.813-10.597
	s7.43-3.517,10.575-0.815l6.088,5.23c14.406,12.374,33.764,16.141,51.531,10.31v-79.978c0-4.151,3.357-7.515,7.5-7.515
	c4.143,0,7.5,3.364,7.5,7.515v79.977c17.766,5.83,37.122,2.064,51.53-10.309l6.089-5.23c3.146-2.701,7.881-2.334,10.575,0.815
	C334.392,419.137,334.026,423.882,330.882,426.582z"/>
<path style="fill:#736F7B;" d="M282.335,367.6l-26.334,13.194L229.667,367.6c-8.376-4.197-13.666-12.774-13.666-22.157l0,0
	c0-13.681,11.068-24.772,24.721-24.772h30.557c13.653,0,24.721,11.091,24.721,24.772l0,0
	C296.001,354.826,290.711,363.404,282.335,367.6z"/>
<g>
</g>
<g>
</g>
<g>
</g>
<g>
</g>
<g>
</g>
<g>
</g>
<g>
</g>
<g>
</g>
<g>
</g>
<g>
</g>
<g>
</g>
<g>
</g>
<g>
</g>
<g>
</g>
<g>
</g>
</svg>
