<?xml version="1.0" encoding="iso-8859-1"?>
<!-- Generator: Adobe Illustrator 19.0.0, SVG Export Plug-In . SVG Version: 6.00 Build 0)  -->
<svg version="1.1" id="Capa_1" xmlns="http://www.w3.org/2000/svg" xmlns:xlink="http://www.w3.org/1999/xlink" x="0px" y="0px"
	 viewBox="0 0 512 512" style="enable-background:new 0 0 512 512;" xml:space="preserve">
<path style="fill:#FF9744;" d="M256.444,122.36v160c0,4.143-3.358,7.5-7.5,7.5s-7.5-3.357-7.5-7.5v-160c0-4.143,3.358-7.5,7.5-7.5
	S256.444,118.218,256.444,122.36z M311.243,130.125c-7.701-3.852-16.896-3.852-24.598,0c-9.376,4.688-15.201,14.113-15.201,24.597
	V352.36c0,4.143,3.357,7.5,7.5,7.5s7.5-3.357,7.5-7.5V154.722c0-4.766,2.647-9.05,6.91-11.181c3.5-1.75,7.68-1.75,11.18,0
	c3.707,1.854,8.211,0.352,10.063-3.354C316.449,136.482,314.947,131.978,311.243,130.125z M211.242,157.763
	c-7.7-3.848-16.895-3.847-24.595,0c-3.705,1.853-5.207,6.357-3.355,10.063c1.852,3.704,6.354,5.207,10.062,3.355
	c3.5-1.75,7.68-1.752,11.18-0.001c4.263,2.132,6.911,6.416,6.911,11.181V380c0,4.143,3.358,7.5,7.5,7.5s7.5-3.357,7.5-7.5V182.36
	C226.444,171.878,220.62,162.453,211.242,157.763z"/>
<path style="fill:#FFCF65;" d="M357.574,237.071l-35.355-35.355c-3.905-3.905-3.905-10.237,0-14.142l35.355-35.355
	c3.905-3.905,10.237-3.905,14.142,0l35.355,35.355c3.905,3.905,3.905,10.237,0,14.142l-35.355,35.355
	C367.81,240.976,361.479,240.976,357.574,237.071z"/>
<path style="fill:#8CE16E;" d="M210,40c-11.046,0-20-8.954-20-20s8.954-20,20-20s20,8.954,20,20S221.046,40,210,40z"/>
<path style="fill:#916050;" d="M67.24,276.84c2.298,3.446,1.367,8.103-2.08,10.4c-1.278,0.853-2.724,1.261-4.153,1.261
	c-2.424,0-4.802-1.173-6.247-3.341l-40-60c-2.298-3.446-1.367-8.103,2.08-10.4c3.446-2.297,8.103-1.366,10.4,2.08L67.24,276.84z
	 M495.16,214.76c-3.446-2.298-8.103-1.367-10.4,2.08l-40,60c-2.298,3.446-1.366,8.103,2.08,10.4
	c1.278,0.853,2.724,1.261,4.153,1.261c2.424,0,4.802-1.173,6.247-3.341l40-60C499.538,221.714,498.606,217.058,495.16,214.76z"/>
<path style="fill:#B2B1B0;" d="M472,286L472,286c0,8.284-6.716,15-15,15h-9.894l-81.338,98.34C338.707,432.059,298.46,451,256,451
	l0,0c-42.46,0-82.707-18.941-109.768-51.66L64.894,301H55c-8.284,0-15-6.716-15-15l0,0c0-8.284,6.716-15,15-15h402
	C465.284,271,472,277.716,472,286z"/>
<path style="fill:#736F7B;" d="M447.106,301l-81.338,98.34C338.707,432.059,298.46,451,256,451l0,0
	c-42.46,0-82.706-18.941-109.768-51.66L64.894,301H447.106z"/>
<path style="fill:#625D6B;" d="M447.106,301l-81.338,98.34C338.707,432.059,298.46,451,256,451l0,0
	c-5.869,0-11.692-0.375-17.447-1.085c35.884-4.427,69-22.378,92.321-50.575L412.212,301H447.106z"/>
<path style="fill:#7DB764;" d="M178.813,208.219c1.553,1.553,1.595,4.088,0.044,5.643c-0.01,0.01-0.019,0.019-0.029,0.029
	c-21.479,21.479-56.303,21.479-77.782,0s-21.479-56.303,0-77.782c0.01-0.01,0.019-0.019,0.029-0.029
	c1.555-1.552,4.09-1.51,5.643,0.044L178.813,208.219z"/>
<path style="fill:#8CE16E;" d="M160.089,189.495c-0.911,1.374-1.97,2.679-3.181,3.89c-9.763,9.763-25.592,9.763-35.355,0
	s-9.763-25.592,0-35.355c1.211-1.211,2.515-2.271,3.89-3.181L160.089,189.495z"/>
<path style="fill:#FF4B4B;" d="M318.219,11.187c1.553-1.553,4.088-1.595,5.643-0.044c0.01,0.01,0.019,0.019,0.029,0.029
	c21.479,21.479,21.479,56.303,0,77.782s-56.303,21.479-77.782,0c-0.01-0.01-0.019-0.019-0.029-0.029
	c-1.552-1.555-1.51-4.09,0.044-5.643L318.219,11.187z"/>
<path style="fill:#C83741;" d="M299.495,29.911c1.374,0.911,2.679,1.97,3.89,3.181c9.763,9.763,9.763,25.592,0,35.355
	s-25.592,9.763-35.355,0c-1.211-1.211-2.271-2.515-3.181-3.89L299.495,29.911z"/>
<path style="fill:#7DB764;" d="M205.303,114.696c2.929,2.93,2.929,7.678,0,10.607c-1.464,1.464-3.384,2.196-5.303,2.196
	s-3.839-0.732-5.303-2.196L156.893,87.5H130c-4.142,0-7.5-3.357-7.5-7.5s3.358-7.5,7.5-7.5h11.893l-7.196-7.196
	C133.29,63.896,132.5,61.989,132.5,60V40c0-4.143,3.358-7.5,7.5-7.5s7.5,3.357,7.5,7.5v16.894l17.802,17.802
	c0.001,0.001,0.002,0.002,0.003,0.003l7.195,7.195V70c0-4.143,3.358-7.5,7.5-7.5s7.5,3.357,7.5,7.5v26.893L205.303,114.696z
	 M420,92.5h-11.893l7.196-7.196c1.406-1.407,2.196-3.314,2.196-5.304V60c0-4.143-3.357-7.5-7.5-7.5s-7.5,3.357-7.5,7.5v16.894
	l-17.803,17.803l0,0l-20,20c-2.929,2.93-2.929,7.678,0,10.607c1.465,1.464,3.385,2.196,5.304,2.196s3.839-0.732,5.304-2.196
	l17.804-17.804H420c4.143,0,7.5-3.357,7.5-7.5S424.143,92.5,420,92.5z"/>
<path style="fill:#D5945E;" d="M154,467v40c0,2.761-2.239,5-5,5H66c-2.761,0-5-2.239-5-5v-40c0-2.761,2.239-5,5-5h83
	C151.761,462,154,464.239,154,467z M446,462h-83c-2.761,0-5,2.239-5,5v40c0,2.761,2.239,5,5,5h83c2.761,0,5-2.239,5-5v-40
	C451,464.239,448.761,462,446,462z"/>
<path style="fill:#E6AF78;" d="M0,221c0-11.046,8.954-20,20-20s20,8.954,20,20s-8.954,20-20,20S0,232.046,0,221z M492,241
	c11.046,0,20-8.954,20-20s-8.954-20-20-20s-20,8.954-20,20S480.954,241,492,241z M507,432H5c-2.761,0-5,2.239-5,5v40
	c0,2.761,2.239,5,5,5h502c2.761,0,5-2.239,5-5v-40C512,434.239,509.761,432,507,432z"/>
<path style="fill:#D5945E;" d="M512,437v40c0,2.761-2.239,5-5,5h-30c2.761,0,5-2.239,5-5v-40c0-2.761-2.239-5-5-5h30
	C509.761,432,512,434.239,512,437z"/>
<g>
</g>
<g>
</g>
<g>
</g>
<g>
</g>
<g>
</g>
<g>
</g>
<g>
</g>
<g>
</g>
<g>
</g>
<g>
</g>
<g>
</g>
<g>
</g>
<g>
</g>
<g>
</g>
<g>
</g>
</svg>
