<?xml version="1.0" encoding="iso-8859-1"?>
<!-- Generator: Adobe Illustrator 19.0.0, SVG Export Plug-In . SVG Version: 6.00 Build 0)  -->
<svg version="1.1" id="Capa_1" xmlns="http://www.w3.org/2000/svg" xmlns:xlink="http://www.w3.org/1999/xlink" x="0px" y="0px"
	 viewBox="0 0 512.001 512.001" style="enable-background:new 0 0 512.001 512.001;" xml:space="preserve">
<path style="fill:#B4826E;" d="M125.544,30.118v62.745H45.876V30.118C45.876,13.484,59.251,0,75.751,0h19.917
	C112.168,0,125.544,13.484,125.544,30.118z M464.133,425.663h-69.71v56.22c0,16.633,13.376,30.118,29.876,30.118h19.917
	c16.5,0,29.876-13.484,29.876-30.118v-46.18C474.091,430.157,469.633,425.663,464.133,425.663z"/>
<path style="fill:#803030;" d="M456.124,106.416H55.876c-5.523,0-10-4.477-10-10V86.298c0-5.523,4.477-10,10-10h400.249
	c5.523,0,10,4.477,10,10v10.118C466.124,101.939,461.647,106.416,456.124,106.416z"/>
<path style="fill:#C83741;" d="M65.793,91.357c0,13.861-11.146,25.098-24.896,25.098S16,105.218,16,91.357
	s11.146-25.098,24.896-25.098S65.793,77.496,65.793,91.357z M471.104,66.259c-13.75,0-24.896,11.237-24.896,25.098
	s11.146,25.098,24.896,25.098S496,105.218,496,91.357S484.854,66.259,471.104,66.259z"/>
<path style="fill:#FFEBBE;" d="M444.216,512H414.34H135.502c-16.5,0-29.876-13.484-29.876-30.118V192.804
	c0-1.319,0.521-2.585,1.45-3.521l14.974-15.095c1.934-1.949,1.934-5.093,0-7.042l-14.974-15.095c-0.929-0.936-1.45-2.202-1.45-3.521
	V30.118C105.627,13.484,92.251,0,75.751,0h29.876h278.838c16.5,0,29.876,13.484,29.876,30.118v319.184
	c0,1.327-0.524,2.599-1.458,3.541l-14.938,15.059c-1.949,1.965-1.949,5.134,0,7.099l14.938,15.059
	c0.934,0.942,1.458,2.215,1.458,3.541v88.282C414.34,498.516,427.716,512,444.216,512z"/>
<path style="fill:#FFE1B3;" d="M444.216,512h-27.884c-16.5,0-29.876-13.484-29.876-30.118v-88.274c0-1.331-0.525-2.608-1.458-3.549
	L370.06,375c-1.945-1.96-1.945-5.139,0-7.099l14.938-15.059c0.934-0.941,1.458-2.218,1.458-3.549V30.118
	C386.456,13.484,373.081,0,356.581,0h27.884c16.5,0,29.876,13.484,29.876,30.118v319.176c0,1.331-0.525,2.608-1.458,3.549
	l-14.938,15.059c-1.945,1.96-1.945,5.139,0,7.099l14.938,15.059c0.934,0.941,1.458,2.218,1.458,3.549v88.274
	C414.34,498.516,427.716,512,444.216,512z"/>
<path style="fill:#7DB764;" d="M331.88,389.808L331.88,389.808c0,5.941-4.777,10.756-10.67,10.756h-7.113
	c-5.893,0-10.67-4.816-10.67-10.756v-10.756v-21.513v-7.171h39.123c5.893,0,10.67,4.816,10.67,10.756v7.171
	c0,5.941-4.777,10.756-10.67,10.756l0,0C336.658,379.052,331.88,383.868,331.88,389.808z"/>
<path style="fill:#B4826E;" d="M352.096,440.491c0.126,4.264-3.265,7.76-7.465,7.76h-39.835c-1.98,0-3.88-0.793-5.28-2.205
	l-17.729-17.874h-28.667l27.083,27.303c2.917,2.941,2.917,7.708,0,10.649c-1.458,1.47-3.37,2.205-5.281,2.205
	s-3.823-0.735-5.281-2.205l-37.647-37.952h-36.74c-0.865,0-2.879,0.048-2.879,0.048l-3.952,4.526
	c-3.017,3.454-7.361,5.435-11.926,5.437l-70.869,0.028v-15.059h71.3l20.816-23.983v-38.762c0-4.236,3.469-7.654,7.699-7.526
	c4.088,0.124,7.239,3.719,7.239,7.842v21.236l29.876-34.42v-82.488c0-1.824,0.657-3.585,1.848-4.958l69.71-80.314
	c2.927-3.372,8.178-3.479,11.229-0.018c2.523,2.862,2.349,7.242-0.152,10.124l-67.697,77.996v74.958h39.23l37.842-39.763
	c2.917-2.939,7.646-2.939,10.562,0c2.917,2.941,2.917,7.708,0,10.649l-40.03,41.968c-1.4,1.412-3.3,2.205-5.281,2.205h-46.403
	l-47.925,55.216h79.392c1.98,0,3.88,0.793,5.28,2.205l17.729,17.874h36.428C348.408,433.192,351.974,436.37,352.096,440.491z
	 M362.059,124.988v-1.004c0-4.159-3.344-7.529-7.469-7.529s-7.469,3.371-7.469,7.529v1.004c0,4.159,3.344,7.529,7.469,7.529
	S362.059,129.147,362.059,124.988z M225.129,443.231c-4.125,0-7.469,3.371-7.469,7.529v1.004c0,4.159,3.344,7.529,7.469,7.529
	s7.469-3.371,7.469-7.529v-1.004C232.598,446.602,229.254,443.231,225.129,443.231z M225.129,463.31
	c-4.125,0-7.469,3.371-7.469,7.529v1.004c0,4.159,3.344,7.529,7.469,7.529s7.469-3.371,7.469-7.529v-1.004
	C232.598,466.68,229.254,463.31,225.129,463.31z M364.548,453.271c-4.125,0-7.469,3.371-7.469,7.529v1.004
	c0,4.159,3.344,7.529,7.469,7.529s7.469-3.371,7.469-7.529V460.8C372.017,456.641,368.673,453.271,364.548,453.271z"/>
<path style="fill:#504B5A;" d="M177.826,69.271c0,4.159-3.344,7.529-7.469,7.529H160.4c-4.125,0-7.469-3.371-7.469-7.529
	c0-4.159,3.344-7.529,7.469-7.529h9.958C174.482,61.741,177.826,65.112,177.826,69.271z M170.357,31.624h-9.958
	c-4.125,0-7.469,3.371-7.469,7.529s3.344,7.529,7.469,7.529h9.958c4.125,0,7.469-3.371,7.469-7.529S174.482,31.624,170.357,31.624z
	 M170.357,91.859h-9.958c-4.125,0-7.469,3.371-7.469,7.529c0,4.159,3.344,7.529,7.469,7.529h9.958c4.125,0,7.469-3.371,7.469-7.529
	C177.826,95.229,174.482,91.859,170.357,91.859z M170.357,182.212h-9.958c-4.125,0-7.469,3.371-7.469,7.529
	c0,4.159,3.344,7.529,7.469,7.529h9.958c4.125,0,7.469-3.371,7.469-7.529C177.826,185.582,174.482,182.212,170.357,182.212z
	 M170.357,152.094h-9.958c-4.125,0-7.469,3.371-7.469,7.529c0,4.159,3.344,7.529,7.469,7.529h9.958c4.125,0,7.469-3.371,7.469-7.529
	C177.826,155.465,174.482,152.094,170.357,152.094z M215.17,61.741h-9.958c-4.125,0-7.469,3.371-7.469,7.529
	c0,4.159,3.344,7.529,7.469,7.529h9.958c4.125,0,7.469-3.371,7.469-7.529C222.639,65.112,219.295,61.741,215.17,61.741z
	 M205.212,46.682h9.958c4.125,0,7.469-3.371,7.469-7.529s-3.344-7.529-7.469-7.529h-9.958c-4.125,0-7.469,3.371-7.469,7.529
	S201.087,46.682,205.212,46.682z M215.17,91.859h-9.958c-4.125,0-7.469,3.371-7.469,7.529c0,4.159,3.344,7.529,7.469,7.529h9.958
	c4.125,0,7.469-3.371,7.469-7.529C222.639,95.229,219.295,91.859,215.17,91.859z"/>
<path style="fill:#FF6969;" d="M190.274,239.937c0,11.089-8.917,20.078-19.917,20.078s-19.917-8.989-19.917-20.078
	s8.917-20.078,19.917-20.078C181.357,219.859,190.274,228.848,190.274,239.937z"/>
<path style="fill:#FF4B4B;" d="M317.172,244.442l-56.334-56.79c-7.778-7.841-7.778-20.554,0-28.395l3.271-3.297l15.085-0.001
	v-10.893c18.851-9.214,41.85-6.898,58.603,6.97v14.824h14.704c13.756,16.889,16.054,40.074,6.914,59.078h-10.805v15.207
	l-3.271,3.297C337.56,252.283,324.951,252.283,317.172,244.442z M364.585,280.106l-20.649,1.705
	c-10.861,0.898-19.222,10.045-19.222,21.031c0,11.654,9.371,21.101,20.932,21.101l0,0c10.897,0,19.972-8.428,20.862-19.377
	l1.692-20.817C368.368,281.671,366.647,279.935,364.585,280.106z"/>
<path style="fill:#CF4036;" d="M351.458,225.938h-2.849v11.069c-1.03,0.506-2.149,0.767-3.27,0.767
	c-1.911,0-3.822-0.735-5.281-2.205l-14.084-14.197c-2.917-2.94-2.917-7.708,0-10.648c2.918-2.941,7.645-2.94,10.563-0.001
	l14.084,14.197C350.936,225.238,351.211,225.581,351.458,225.938z M345.266,166.86h-7.469v-7.529c-1.912,0-3.823,0.735-5.281,2.204
	l-20.625,20.791c-2.917,2.941-2.917,7.708,0,10.649c1.458,1.47,3.37,2.205,5.281,2.205s3.823-0.735,5.281-2.205l20.625-20.791
	C344.536,170.714,345.266,168.787,345.266,166.86z M280.202,153.932c-0.316-0.318-0.656-0.595-1.009-0.845v2.871h-10.98
	c-1.358,2.808-0.887,6.288,1.428,8.621l14.083,14.198c1.458,1.471,3.37,2.206,5.281,2.206s3.823-0.735,5.281-2.205
	c2.917-2.941,2.917-7.708,0-10.648L280.202,153.932z"/>
<path style="fill:#7DB764;" d="M184.228,331.007L184.228,331.007c0-5.941,4.777-10.756,10.67-10.756h7.113
	c5.893,0,10.67,4.816,10.67,10.756v10.756v21.513v7.171h-39.123c-5.893,0-10.67-4.816-10.67-10.756v-7.171
	c0-5.941,4.777-10.756,10.67-10.756l0,0C179.451,341.764,184.228,336.948,184.228,331.007z"/>
<g>
</g>
<g>
</g>
<g>
</g>
<g>
</g>
<g>
</g>
<g>
</g>
<g>
</g>
<g>
</g>
<g>
</g>
<g>
</g>
<g>
</g>
<g>
</g>
<g>
</g>
<g>
</g>
<g>
</g>
</svg>
