<?xml version="1.0" encoding="iso-8859-1"?>
<!-- Generator: Adobe Illustrator 19.0.0, SVG Export Plug-In . SVG Version: 6.00 Build 0)  -->
<svg version="1.1" id="Capa_1" xmlns="http://www.w3.org/2000/svg" xmlns:xlink="http://www.w3.org/1999/xlink" x="0px" y="0px"
	 viewBox="0 0 512.002 512.002" style="enable-background:new 0 0 512.002 512.002;" xml:space="preserve">
<path style="fill:#D24A4A;" d="M115.003,229.501c0,4.142-3.358,7.5-7.5,7.5H69.167l-58.492,27.296
	c-1.026,0.479-2.105,0.705-3.167,0.706c-2.824,0-5.528-1.603-6.801-4.33c-1.751-3.754-0.129-8.217,3.625-9.968l60-28
	c0.993-0.463,2.076-0.704,3.172-0.704h40C111.645,222.001,115.003,225.359,115.003,229.501z M507.671,250.704l-60-28
	c-0.993-0.463-2.076-0.704-3.172-0.704h-40c-4.142,0-7.5,3.358-7.5,7.5s3.358,7.5,7.5,7.5h38.336l58.492,27.296
	c1.026,0.479,2.105,0.706,3.167,0.706c2.824,0,5.528-1.603,6.801-4.33C513.047,256.919,511.425,252.456,507.671,250.704z"/>
<path style="fill:#B4826E;" d="M245.428,374.81l-19.318,5.176l-84.717-277.53l-20.706-77.274
	c-2.859-10.669,3.473-21.636,14.142-24.495l0,0c10.669-2.859,21.636,3.473,24.495,14.142l20.706,77.274L245.428,374.81z
	 M37.325,26.852c-5.523-9.566-17.755-12.843-27.32-7.32l0,0c-9.566,5.523-12.843,17.755-7.32,27.32l40,69.282l153.66,246.147
	l17.32-10L77.325,96.134L37.325,26.852z"/>
<path style="fill:#A06E5F;" d="M180.03,92.104l-38.637,10.353l-20.706-77.274c-2.859-10.669,3.473-21.636,14.142-24.495l0,0
	c10.669-2.859,21.636,3.473,24.495,14.142L180.03,92.104z M10.004,19.531c-9.565,5.523-12.843,17.755-7.32,27.321l40,69.282
	l34.641-20l-40-69.282C31.802,17.286,19.57,14.009,10.004,19.531z"/>
<path style="fill:#FFCF65;" d="M406.001,200.001v30c0,11.046-8.954,20-20,20h-260c-11.046,0-20-8.954-20-20v-30
	c0-11.046,8.954-20,20-20h20v-20c0-11.046,8.954-20,20-20h20v-20c0-11.046,8.954-20,20-20h20v-20c0-11.046,8.954-20,20-20h22
	c11.046,0,20,8.954,20,20v20h18c11.046,0,20,8.954,20,20v20h20c11.046,0,20,8.954,20,20v20h20
	C397.047,180.001,406.001,188.954,406.001,200.001z"/>
<path style="fill:#FFB450;" d="M406.001,200.001v30c0,11.046-8.954,20-20,20h-25.5c11.046,0,20-8.954,20-20v-30
	c0-11.046-8.954-20-20-20h-10c-5.523,0-10-4.477-10-10v-10c0-11.046-8.954-20-20-20h-10c-5.523,0-10-4.477-10-10v-10
	c0-11.046-8.954-20-20-20h-8c-5.523,0-10-4.477-10-10v-10c0-10.455-8.025-19.024-18.25-19.912c0.578-0.05,1.159-0.088,1.75-0.088h22
	c11.046,0,20,8.954,20,20v20h18c11.046,0,20,8.954,20,20v20h20c11.046,0,20,8.954,20,20v20h20
	C397.047,180.001,406.001,188.954,406.001,200.001z"/>
<path style="fill:#D24A4A;" d="M431.001,227.001L431.001,227.001c0,33.861-4.323,67.584-12.865,100.351L371.95,504.524
	c-1.148,4.404-5.125,7.478-9.677,7.478h-214.48c-4.581,0-8.576-3.113-9.696-7.555L93.074,325.882
	c-8.018-31.799-12.073-64.467-12.073-97.26v-1.621c0-2.761,2.239-5,5-5h340C428.762,222.001,431.001,224.24,431.001,227.001z"/>
<path style="fill:#FF4B4B;" d="M331.274,512H147.793c-4.581,0-8.576-3.113-9.696-7.555L93.074,325.882
	c-8.018-31.799-12.073-64.467-12.073-97.26v-1.621c0-2.761,2.239-5,5-5h309c2.761,0,5,2.239,5,5l0,0
	c0,33.861-4.323,67.584-12.865,100.35L340.95,504.523C339.802,508.928,335.825,512,331.274,512z"/>
<path style="fill:#FFCF65;" d="M287.501,202.001v175c0,17.92-14.58,32.5-32.5,32.5s-32.5-14.58-32.5-32.5c0-4.142,3.358-7.5,7.5-7.5
	s7.5,3.358,7.5,7.5c0,9.649,7.851,17.5,17.5,17.5c9.649,0,17.5-7.851,17.5-17.5v-175c0-4.142,3.358-7.5,7.5-7.5
	S287.501,197.859,287.501,202.001z M335.001,289.501c-4.142,0-7.5,3.358-7.5,7.5s3.358,7.5,7.5,7.5c9.649,0,17.5,7.851,17.5,17.5
	s-7.851,17.5-17.5,17.5s-17.5-7.851-17.5-17.5v-120c0-4.142-3.358-7.5-7.5-7.5s-7.5,3.358-7.5,7.5v120c0,17.92,14.58,32.5,32.5,32.5
	s32.5-14.58,32.5-32.5S352.921,289.501,335.001,289.501z"/>
<path style="fill:#FFB450;" d="M247.501,172.501c0,4.142-3.358,7.5-7.5,7.5h-94v-15h94
	C244.143,165.001,247.501,168.359,247.501,172.501z M258.335,125c-4.142,0-7.5,3.358-7.5,7.5s3.358,7.5,7.5,7.5h67.666v-15
	C326.001,125,258.335,125,258.335,125z"/>
<g>
</g>
<g>
</g>
<g>
</g>
<g>
</g>
<g>
</g>
<g>
</g>
<g>
</g>
<g>
</g>
<g>
</g>
<g>
</g>
<g>
</g>
<g>
</g>
<g>
</g>
<g>
</g>
<g>
</g>
</svg>
