<?xml version="1.0" encoding="iso-8859-1"?>
<!-- Generator: Adobe Illustrator 19.0.0, SVG Export Plug-In . SVG Version: 6.00 Build 0)  -->
<svg version="1.1" id="Capa_1" xmlns="http://www.w3.org/2000/svg" xmlns:xlink="http://www.w3.org/1999/xlink" x="0px" y="0px"
	 viewBox="0 0 512 512" style="enable-background:new 0 0 512 512;" xml:space="preserve">
<path style="fill:#B4826E;" d="M90.711,477.858l-28.284,28.284c-7.81,7.81-20.474,7.81-28.284,0L5.858,477.858
	c-7.81-7.81-7.81-20.474,0-28.284l28.284-28.284c7.81-7.81,20.474-7.81,28.284,0l28.284,28.284
	C98.521,457.384,98.521,470.047,90.711,477.858z"/>
<path style="fill:#8C4032;" d="M361.528,16.122L361.528,16.122c7.395-7.395,19.544-6.844,26.239,1.19l37.111,44.533l-17.626,17.626
	l-44.534-37.111C354.684,35.666,354.133,23.517,361.528,16.122z M344.792,60.287c-6.695-8.034-18.844-8.585-26.239-1.19l0,0
	c-7.395,7.395-6.844,19.544,1.19,26.239l44.533,37.111l17.626-17.626L344.792,60.287z M473.475,145.448l-44.533-37.111
	l-17.626,17.626l37.111,44.533c6.695,8.034,18.844,8.585,26.239,1.19S481.509,152.143,473.475,145.448z M430.5,188.422
	l-44.533-37.111l-17.626,17.626l37.111,44.533c6.695,8.034,18.844,8.585,26.239,1.19l0,0
	C439.086,207.266,438.534,195.117,430.5,188.422z"/>
<path style="fill:#B4826E;" d="M182.06,294.585l279.48-279.48c7.81-7.81,20.474-7.81,28.284,0l7.071,7.071
	c7.81,7.81,7.81,20.474,0,28.284l-279.48,279.48c-7.81,7.81-20.474,7.81-28.284,0l-7.071-7.071
	C174.249,315.059,174.249,302.396,182.06,294.585z"/>
<path style="fill:#E6C8A0;" d="M273.137,465.137c-62.484,62.484-163.79,62.484-226.274,0s-62.484-163.79,0-226.274
	s163.79-62.484,226.274,0S335.621,402.654,273.137,465.137z"/>
<path style="fill:#D2B48C;" d="M273.137,465.137c-62.484,62.484-163.79,62.484-226.274,0c-3.143-3.143-6.121-6.389-8.948-9.719
	c62.864,53.37,157.214,50.393,216.555-8.948s62.318-153.692,8.948-216.555c3.33,2.827,6.576,5.804,9.719,8.948
	C335.621,301.347,335.621,402.654,273.137,465.137z"/>
<path style="fill:#AA4141;" d="M449.166,73.441l-343.12,343.12c-1.465,1.464-3.385,2.197-5.304,2.197
	c-1.92,0-3.839-0.732-5.304-2.197c-2.929-2.929-2.929-7.678,0-10.606l343.12-343.12c2.93-2.929,7.678-2.929,10.607,0
	C452.095,65.763,452.095,70.512,449.166,73.441z M111.349,372.796c1.919,0,3.839-0.732,5.304-2.197L453.706,33.545
	c2.929-2.929,2.929-7.678,0-10.606c-2.93-2.928-7.678-2.93-10.607,0L106.045,359.993c-2.929,2.929-2.929,7.678,0,10.606
	C107.51,372.063,109.43,372.796,111.349,372.796z M489.062,58.294c-2.929-2.928-7.677-2.929-10.607,0L141.4,395.348
	c-2.929,2.929-2.929,7.678,0,10.606c1.465,1.464,3.385,2.197,5.304,2.197s3.839-0.732,5.304-2.197L489.062,68.9
	C491.99,65.972,491.99,61.223,489.062,58.294z"/>
<path style="fill:#803030;" d="M173.221,398.883c-1.465,1.464-3.385,2.197-5.304,2.197c-1.92,0-3.839-0.732-5.304-2.197
	l-49.497-49.498c-2.929-2.929-2.929-7.678,0-10.606c2.93-2.93,7.678-2.929,10.607,0l49.497,49.498
	C176.149,391.206,176.149,395.955,173.221,398.883z"/>
<path style="fill:#963737;" d="M160,250.178c7.029,7.03,7.029,18.427,0,25.456c-7.029,7.03-18.426,7.03-25.456,0
	c-7.03-7.029-7.03-18.426,0-25.456C141.574,243.148,152.971,243.148,160,250.178z M236.368,352c-7.029,7.029-7.029,18.426,0,25.456
	s18.426,7.03,25.456,0s7.029-18.427,0-25.456C254.794,344.97,243.397,344.97,236.368,352z M500.431,11.569
	c-15.426-15.426-40.436-15.426-55.861,0c-15.426,15.426-15.426,40.436,0,55.861s40.436,15.426,55.861,0
	C515.856,52.004,515.857,26.996,500.431,11.569z"/>
<path style="fill:#D2B48C;" d="M485.431,52.431c-7.141,7.141-18.72,7.141-25.861,0s-7.141-18.72,0-25.861s18.72-7.141,25.861,0
	S492.572,45.29,485.431,52.431z"/>
<g>
</g>
<g>
</g>
<g>
</g>
<g>
</g>
<g>
</g>
<g>
</g>
<g>
</g>
<g>
</g>
<g>
</g>
<g>
</g>
<g>
</g>
<g>
</g>
<g>
</g>
<g>
</g>
<g>
</g>
</svg>
