<?xml version="1.0" encoding="iso-8859-1"?>
<!-- Generator: Adobe Illustrator 19.0.0, SVG Export Plug-In . SVG Version: 6.00 Build 0)  -->
<svg version="1.1" id="Capa_1" xmlns="http://www.w3.org/2000/svg" xmlns:xlink="http://www.w3.org/1999/xlink" x="0px" y="0px"
	 viewBox="0 0 512 512" style="enable-background:new 0 0 512 512;" xml:space="preserve">
<path style="fill:#FF4B4B;" d="M256,512L256,512c-100.61,0-183.252-79.411-187.179-179.863l-5.172-132.29
	C59.385,90.76,146.74,0,256,0l0,0c109.26,0,196.615,90.76,192.35,199.847l-5.172,132.29C439.251,432.589,356.61,512,256,512z"/>
<path style="fill:#D24A4A;" d="M448.35,199.847l-5.172,132.29C439.251,432.589,356.61,512,256,512l0,0
	c-5.053,0-10.058-0.21-15.012-0.603c93.697-7.436,168.436-83.853,172.166-179.26l5.172-132.29
	C422.393,95.805,343.12,8.437,240.988,0.578C245.941,0.197,250.946,0,256,0l0,0C365.26,0,452.615,90.76,448.35,199.847z"/>
<path style="fill:#AA4141;" d="M448.35,199.847l-2.981,76.253l-105.194-17.23c-31.228-5.115-54.15-32.079-54.15-63.698l0,0
	c0-21.926,11.14-42.353,29.579-54.24l35.822-23.092c17.78-11.462,30.53-29.253,35.662-49.764l1.255-5.017
	c0.685-2.737,1.516-5.406,2.456-8.016C428.134,91.654,450.562,143.284,448.35,199.847z M225.976,195.172L225.976,195.172
	c0-21.926-11.14-42.353-29.579-54.24l-35.822-23.092c-17.78-11.462-30.53-29.253-35.662-49.764l-1.255-5.017
	c-0.685-2.737-1.516-5.406-2.456-8.016C83.866,91.654,61.438,143.284,63.65,199.847l2.981,76.253l105.195-17.231
	C203.053,253.755,225.976,226.79,225.976,195.172z M256,370c-27.637,0-50.041,15.67-50.041,35s22.404,35,50.041,35
	s50.041-15.67,50.041-35S283.637,370,256,370z"/>
<path style="fill:#D24A4A;" d="M263.506,0.16V350c0,4.142-3.361,7.5-7.506,7.5c-4.145,0-7.506-3.358-7.506-7.5V0.16
	C250.985,0.064,253.485,0,256,0l0,0C258.515,0,261.015,0.064,263.506,0.16z"/>
<path style="fill:#FFE1B3;" d="M421.921,195c-7.214,20.388-26.665,35-49.541,35s-42.327-14.612-49.541-35
	c7.214-20.388,26.665-35,49.541-35S414.707,174.612,421.921,195z M139.62,160c-22.876,0-42.327,14.612-49.541,35
	c7.214,20.388,26.665,35,49.541,35s42.327-14.612,49.541-35C181.947,174.612,162.495,160,139.62,160z"/>
<path style="fill:#736F7B;" d="M379.886,190v10c0,4.142-3.361,7.5-7.506,7.5c-4.145,0-7.506-3.358-7.506-7.5v-10
	c0-4.142,3.361-7.5,7.506-7.5S379.886,185.858,379.886,190z M139.62,182.5c-4.145,0-7.506,3.358-7.506,7.5v10
	c0,4.142,3.361,7.5,7.506,7.5c4.145,0,7.506-3.358,7.506-7.5v-10C147.126,185.858,143.765,182.5,139.62,182.5z"/>
<path style="fill:#E6C8A0;" d="M376.098,332.031v136.442c-16.384,13.687-35.141,24.608-55.54,32.093l-4.274-55.518
	C313.892,413.986,287.969,390,256.79,390l0,0c-31.004,0-56.843,23.725-59.457,54.594l-4.775,56.384
	c-20.832-7.493-39.972-18.568-56.656-32.505v-135.71c0-18.094,14.68-32.762,32.789-32.762h12.248c8.291,0,15.012,6.716,15.012,15
	l0,0c0,19.33,15.683,35,35.028,35h50.041c19.346,0,35.029-15.67,35.029-35l0,0c0-8.284,6.721-15,15.012-15h12.98l0,0
	C361.745,300,376.098,314.341,376.098,332.031z"/>
<path style="fill:#D2B48C;" d="M376.098,436.778v31.695c-16.384,13.687-35.141,24.608-55.54,32.093l-1.045-13.578
	C341.604,474.242,360.873,457.128,376.098,436.778z"/>
<path style="fill:#FFCF65;" d="M296.033,80c0,22.091-17.923,40-40.033,40s-40.033-17.909-40.033-40S233.891,40,256,40
	S296.033,57.909,296.033,80z"/>
<g>
</g>
<g>
</g>
<g>
</g>
<g>
</g>
<g>
</g>
<g>
</g>
<g>
</g>
<g>
</g>
<g>
</g>
<g>
</g>
<g>
</g>
<g>
</g>
<g>
</g>
<g>
</g>
<g>
</g>
</svg>
