<?xml version="1.0" encoding="iso-8859-1"?>
<!-- Generator: Adobe Illustrator 19.0.0, SVG Export Plug-In . SVG Version: 6.00 Build 0)  -->
<svg version="1.1" id="Capa_1" xmlns="http://www.w3.org/2000/svg" xmlns:xlink="http://www.w3.org/1999/xlink" x="0px" y="0px"
	 viewBox="0 0 512 512" style="enable-background:new 0 0 512 512;" xml:space="preserve">
<path style="fill:#C83741;" d="M476.76,70v40c0,4.142-3.353,7.5-7.488,7.5c-4.136,0-7.488-3.358-7.488-7.5V70
	c0-6.893-5.599-12.5-12.481-12.5s-12.481,5.607-12.481,12.5v40c0,4.142-3.353,7.5-7.488,7.5s-7.488-3.358-7.488-7.5V70
	c0-15.164,12.317-27.5,27.457-27.5C464.443,42.5,476.76,54.836,476.76,70z"/>
<path style="fill:#FFEBBE;" d="M428,214c0,118.189-95.811,214-214,214S0,332.189,0,214S95.811,0,214,0S428,95.811,428,214z"/>
<path style="fill:#FFCF65;" d="M135.547,73.054L135.547,73.054c-26.426,14.475-48.154,36.236-62.607,62.704
	c-1.723,3.155-6.248,3.155-7.971,0C50.516,109.29,28.789,87.529,2.363,73.054c-3.151-1.726-3.151-6.258,0-7.983
	C28.789,50.595,50.516,28.834,64.969,2.367l0,0c1.723-3.155,6.248-3.155,7.971,0l0,0c14.453,26.467,36.18,48.228,62.606,62.704l0,0
	C138.698,66.796,138.698,71.328,135.547,73.054z M228.142,248.522L228.142,248.522c-11.387-6.237-20.749-15.614-26.976-27.018
	c-0.742-1.36-2.692-1.36-3.435,0l0,0c-6.228,11.404-15.59,20.781-26.976,27.018l0,0c-1.358,0.744-1.358,2.697,0,3.44
	c11.387,6.237,20.749,15.614,26.976,27.018l0,0c0.742,1.36,2.692,1.36,3.435,0c6.228-11.404,15.59-20.781,26.976-27.018
	C229.5,251.219,229.5,249.266,228.142,248.522z"/>
<path style="fill:#E6AF78;" d="M512,130v30c0,11.046-8.94,20-19.969,20H372.217c-11.029,0-19.969-8.954-19.969-20v-30
	c0-11.046,8.94-20,19.969-20h119.814C503.06,110,512,118.954,512,130z M91.817,352H61.864c-11.029,0-19.969,8.954-19.969,20v120
	c0,11.046,8.94,20,19.969,20h29.954c11.029,0,19.969-8.954,19.969-20V372C111.786,360.954,102.846,352,91.817,352z"/>
<path style="fill:#D5945E;" d="M511.603,139.971V160c0,11.046-8.94,20-19.969,20H371.82c-11.029,0-19.969-8.954-19.969-20v-30
	c0-1.36,0.138-2.687,0.397-3.971V136c0,11.046,8.94,20,19.969,20h119.814C501.702,156,509.764,149.114,511.603,139.971z M91.817,352
	H67.355c11.029,0,19.969,8.954,19.969,20v120c0,11.046-8.94,20-19.969,20h24.462c11.029,0,19.969-8.954,19.969-20V372
	C111.786,360.954,102.846,352,91.817,352z"/>
<path style="fill:#F0C087;" d="M153.284,307.406v26.808c0,41.855-33.878,75.786-75.669,75.786h-1.551
	c-41.791,0-75.669-33.931-75.669-75.786l0,0v-31.401v-63.871c0-10.731,8.768-19.772,19.481-19.568
	c10.384,0.197,18.741,8.69,18.741,19.137V200.23c0-10.447,8.357-18.94,18.741-19.137c10.712-0.204,19.481,8.837,19.481,19.568
	v14.881c0-10.447,8.357-18.94,18.741-19.137c10.712-0.204,19.481,8.837,19.481,19.568V287.5h18.347
	C144.386,287.5,153.284,296.412,153.284,307.406z M302.655,70L302.655,70h-31.353H207.53c-10.714,0-19.741,8.782-19.538,19.511
	c0.197,10.4,8.676,18.771,19.107,18.771h-38.222c-10.431,0-18.91,8.37-19.107,18.771c-0.203,10.729,8.824,19.511,19.538,19.511
	h14.858c-10.431,0-18.91,8.37-19.107,18.771c-0.203,10.729,8.824,19.511,19.538,19.511h71.416v18.375
	c0,10.994,8.898,19.906,19.875,19.906h26.766c41.791,0,75.669-33.931,75.669-75.786v-1.553C378.324,103.931,344.446,70,302.655,70z"
	/>
<path style="fill:#E6AF78;" d="M91.14,197.035v106.554c0,4.142-3.353,7.5-7.488,7.5s-7.488-3.358-7.488-7.5l0.677-88.047
	C76.84,206.638,82.918,199.175,91.14,197.035z M114.385,331.107l-16.918,16.944c-2.925,2.929-2.925,7.678,0,10.606
	c1.462,1.464,3.379,2.197,5.295,2.197s3.833-0.732,5.295-2.197l19.111-19.141c1.564-1.566,2.283-3.653,2.174-5.704
	c0.006-0.125,0.019-0.249,0.019-0.376V287.5h-14.299L114.385,331.107z M38.619,200.229v38.281c0-1.729-0.677,65.078-0.677,65.078
	c0,4.142,3.353,7.5,7.488,7.5s7.488-3.358,7.488-7.5v-120.62c0-0.415-0.042-0.82-0.107-1.217
	C44.644,183.929,38.619,191.365,38.619,200.229z M279.636,115.766c0-4.142-3.353-7.5-7.488-7.5H166.621
	c-8.133,0.991-14.687,7.086-16.361,15h121.887C276.283,123.266,279.636,119.908,279.636,115.766z M327.131,167.884
	c-2.924-2.929-7.666-2.929-10.59,0l-16.918,16.944h-43.54v15h45.866c0.127,0,0.251-0.013,0.377-0.019
	c0.133,0.007,0.265,0.019,0.398,0.019c1.916,0,3.833-0.732,5.295-2.197l19.111-19.141
	C330.055,175.562,330.055,170.813,327.131,167.884z M279.636,154.047c0-4.142-3.353-7.5-7.488-7.5H181.91
	c-8.133,0.991-14.687,7.086-16.361,15h106.598C276.283,161.547,279.636,158.189,279.636,154.047z"/>
<path style="fill:#C83741;" d="M436.822,110v250c0,4.142-3.353,7.5-7.488,7.5s-7.488-3.358-7.488-7.5V110
	c0-4.142,3.353-7.5,7.488-7.5S436.822,105.858,436.822,110z"/>
<path style="fill:#FF4B4B;" d="M409.365,230c0-11.046,8.94-20,19.969-20s19.969,8.954,19.969,20s-8.94,20-19.969,20
	S409.365,241.046,409.365,230z M429.334,190c11.029,0,19.969-8.954,19.969-20s-8.94-20-19.969-20s-19.969,8.954-19.969,20
	S418.305,190,429.334,190z M429.334,130c11.029,0,19.969-8.954,19.969-20s-8.94-20-19.969-20s-19.969,8.954-19.969,20
	S418.305,130,429.334,130z M456.497,408.541l-14.813-60.826c-1.492-6.127-7.27-10.303-13.671-9.647
	c-5.434,0.557-9.827,4.709-11.121,10.023l-14.721,60.449c-0.555,2.281,0.554,4.629,2.65,5.679c7.379,3.696,15.702,5.78,24.513,5.78
	s17.134-2.084,24.513-5.78C455.943,413.17,457.052,410.821,456.497,408.541z"/>
<path style="fill:#C83741;" d="M436.822,388v31.471c-2.45,0.336-4.946,0.529-7.489,0.529c-2.542,0-5.038-0.193-7.488-0.529V388
	c0-4.142,3.353-7.5,7.488-7.5S436.822,383.858,436.822,388z"/>
<g>
</g>
<g>
</g>
<g>
</g>
<g>
</g>
<g>
</g>
<g>
</g>
<g>
</g>
<g>
</g>
<g>
</g>
<g>
</g>
<g>
</g>
<g>
</g>
<g>
</g>
<g>
</g>
<g>
</g>
</svg>
