<?xml version="1.0" encoding="iso-8859-1"?>
<!-- Generator: Adobe Illustrator 19.0.0, SVG Export Plug-In . SVG Version: 6.00 Build 0)  -->
<svg version="1.1" id="Capa_1" xmlns="http://www.w3.org/2000/svg" xmlns:xlink="http://www.w3.org/1999/xlink" x="0px" y="0px"
	 viewBox="0 0 512 512" style="enable-background:new 0 0 512 512;" xml:space="preserve">
<path style="fill:#8CE16E;" d="M512,245.442v9.689c0,50.769-30.399,95.857-75.967,115.928
	c-27.762,12.228-54.761,26.11-81.209,40.953l-93.919,52.706c-3.046,1.709-6.766,1.709-9.811,0l-93.919-52.706
	c-26.448-14.842-53.447-28.725-81.209-40.953C30.399,350.988,0,305.9,0,255.131v-9.689c0-70.07,57.307-126.874,128-126.874l0,0
	c70.692,0,128,56.803,128,126.874c0-70.07,57.307-126.874,128-126.874l0,0C454.693,118.568,512,175.372,512,245.442z"/>
<path style="fill:#7DC86E;" d="M512,245.442v9.689c0,50.77-30.399,95.858-75.967,115.928c-27.762,12.228-54.761,26.11-81.209,40.952
	l-93.919,52.707c-3.046,1.709-6.766,1.709-9.811,0l-20.403-11.45l94.502-53.033c27.171-15.248,54.908-29.51,83.429-42.073
	c46.813-20.619,78.044-66.94,78.044-119.098v-9.954c0-37.626-16.091-71.521-41.816-95.313C484.84,155.255,512,197.204,512,245.442z"
	/>
<path style="fill:#7DB764;" d="M70.645,427.213l1.737-9.822c15.345-86.754,98.27-144.681,185.235-129.394l0.119,0.021
	c5.437,0.956,9.068,6.129,8.109,11.553l0,0c-15.345,86.754-98.27,144.68-185.235,129.394L70.645,427.213z"/>
<path style="fill:#74A45F;" d="M246.154,299.57L246.154,299.57c-0.959-5.424,2.671-10.597,8.109-11.553l0.119-0.021
	c86.965-15.286,169.89,42.64,185.235,129.394l1.737,9.822l-9.965,1.752C344.425,444.251,261.5,386.325,246.154,299.57z"/>
<path style="fill:#FFA5A5;" d="M256,315.154l-23.804-23.73c-62.541-62.345-62.541-163.476,0-225.821l16.736-16.684
	c3.905-3.892,10.232-3.892,14.137,0l16.736,16.684c62.541,62.345,62.541,163.476,0,225.821L256,315.154z"/>
<path style="fill:#FF8787;" d="M395.73,84.813l23.442-4.12c5.438-0.956,10.624,2.666,11.583,8.091l4.112,23.25
	c15.359,86.83-42.761,169.636-129.802,184.936l-33.288,5.851l-5.85-33.071C250.569,182.919,308.689,100.113,395.73,84.813z"/>
<path style="fill:#FF6969;" d="M305.109,296.962l-33.332,5.859l-5.877-33.228c-2.204-12.461-2.885-24.837-2.19-36.944l2.068,11.688
	l33.332-5.859c74.523-13.099,127.833-75.649,131.976-147.828l3.81,21.539C450.239,198.94,392.132,281.665,305.109,296.962z"/>
<path style="fill:#FF8787;" d="M240.223,302.821l-33.288-5.851c-87.041-15.3-145.161-98.106-129.802-184.936l4.112-23.25
	c0.96-5.425,6.145-9.047,11.583-8.091l23.442,4.12c87.041,15.3,145.161,98.106,129.802,184.936L240.223,302.821z"/>
<path style="fill:#FFCF65;" d="M299.077,215.145v99.561h-86.154v-99.561c0-22.091,17.909-40,40-40h6.154
	C281.168,175.145,299.077,193.054,299.077,215.145z"/>
<path style="fill:#FF6969;" d="M44.692,207.352h117.231c55.228,0,100,44.771,100,100v18.09H134.692c-55.228,0-100-44.771-100-100
	v-8.09C34.692,211.829,39.169,207.352,44.692,207.352z"/>
<path style="fill:#D24A4A;" d="M477.308,217.352v8.09c0,55.228-44.771,100-100,100H250.077v-18.09c0-55.228,44.771-100,100-100
	h117.231C472.831,207.352,477.308,211.829,477.308,217.352z"/>
<path style="fill:#FF4B4B;" d="M337.974,325.442h-87.898v-18.404c0-55.055,44.771-99.687,100-99.687h77.898
	c5.523,0,10,4.463,10,9.969v8.435C437.974,280.811,393.203,325.442,337.974,325.442z"/>
<g>
</g>
<g>
</g>
<g>
</g>
<g>
</g>
<g>
</g>
<g>
</g>
<g>
</g>
<g>
</g>
<g>
</g>
<g>
</g>
<g>
</g>
<g>
</g>
<g>
</g>
<g>
</g>
<g>
</g>
</svg>
