<?xml version="1.0" encoding="iso-8859-1"?>
<!-- Generator: Adobe Illustrator 19.0.0, SVG Export Plug-In . SVG Version: 6.00 Build 0)  -->
<svg version="1.1" id="Capa_1" xmlns="http://www.w3.org/2000/svg" xmlns:xlink="http://www.w3.org/1999/xlink" x="0px" y="0px"
	 viewBox="0 0 512 512" style="enable-background:new 0 0 512 512;" xml:space="preserve">
<path style="fill:#E6AF78;" d="M63.438,33.75h73.125v33.685c0,17.922-4.173,35.597-12.188,51.627l0,0V180h-48.75v-60.938l0,0
	c-8.015-16.03-12.188-33.705-12.188-51.627L63.438,33.75L63.438,33.75z M375.438,33.75v33.685c0,17.922,4.173,35.597,12.188,51.627
	l0,0V180h48.75v-60.938l0,0c8.015-16.03,12.188-33.705,12.188-51.627V33.75H375.438z"/>
<path style="fill:#CE8855;" d="M372,450c13.807,0,25,11.193,25,25v15h-50v-15C347,461.193,358.193,450,372,450z M155,360h-30
	c-5.523,0-10,4.477-10,10v70c0,5.523,4.477,10,10,10h15c-13.807,0-25,11.193-25,25v15h50v-15c0-13.807-11.193-25-25-25h15
	c5.523,0,10-4.477,10-10v-70C165,364.477,160.523,360,155,360z M75,360H45c-5.523,0-10,4.477-10,10v70c0,5.523,4.477,10,10,10h15
	c-13.807,0-25,11.193-25,25v15h50v-15c0-13.807-11.193-25-25-25h15c5.523,0,10-4.477,10-10v-70C85,364.477,80.523,360,75,360z
	 M387,360h-30c-5.523,0-10,4.477-10,10v70c0,5.523,4.477,10,10,10h15h15c5.523,0,10-4.477,10-10v-70
	C397,364.477,392.523,360,387,360z M427,475v15h50v-15c0-13.807-11.193-25-25-25S427,461.193,427,475z M477,440v-70
	c0-5.523-4.477-10-10-10h-30c-5.523,0-10,4.477-10,10v70c0,5.523,4.477,10,10,10h15h15C472.523,450,477,445.523,477,440z"/>
<g>
	<path style="fill:#C37A4F;" d="M467,450h-15h-1.5v-90H467c5.523,0,10,4.477,10,10v70C477,445.523,472.523,450,467,450z M450.5,490
		H477v-15c0-13.807-11.193-25-25-25c-0.504,0-1.003,0.019-1.5,0.049V490z"/>
	<path style="fill:#C37A4F;" d="M194.479,374.526c0.28,2.936-2.029,5.474-4.977,5.474H10.499c-2.949,0-5.257-2.539-4.977-5.474
		l19.048-200c0.244-2.566,2.4-4.526,4.977-4.526h140.907c2.578,0,4.733,1.96,4.977,4.526L194.479,374.526z M506.479,374.526
		l-19.048-200c-0.244-2.566-2.4-4.526-4.977-4.526H341.546c-2.578,0-4.733,1.96-4.977,4.526l-19.048,200
		c-0.28,2.936,2.029,5.474,4.977,5.474H501.5C504.45,380,506.758,377.461,506.479,374.526z"/>
</g>
<path style="fill:#CE8855;" d="M186,173.541V190v10v90c0,5.523-4.477,10-10,10h-30c-5.523,0-10-4.477-10-10v-70
	c0-11.046-8.954-20-20-20H84c-11.046,0-20,8.954-20,20v70c0,5.523-4.477,10-10,10H24c-5.523,0-10-4.477-10-10v-90v-10v-16.459
	c0-8.178,4.979-15.532,12.572-18.569L64,140v-10c0-5.523,4.477-10,10-10h52c5.523,0,10,4.477,10,10v10l37.428,14.971
	C181.021,158.008,186,165.363,186,173.541z M485.428,154.971L448,140v-10c0-5.523-4.477-10-10-10h-52c-5.523,0-10,4.477-10,10v10
	l-37.428,14.971c-7.593,3.037-12.572,10.392-12.572,18.57V190v10v90c0,5.523,4.477,10,10,10h30c5.523,0,10-4.477,10-10v-70
	c0-11.046,8.954-20,20-20h32c11.046,0,20,8.954,20,20v70c0,5.523,4.477,10,10,10h30c5.523,0,10-4.477,10-10v-90v-10v-16.459
	C498,165.363,493.021,158.008,485.428,154.971z"/>
<path style="fill:#C37A4F;" d="M498,173.541V190v10v90c0,5.523-4.477,10-10,10h-20v-78.667v-10v-16.459
	c0-8.178-4.979-15.532-12.572-18.57L418,161.333v-10c0-4.718-3.271-8.663-7.667-9.715V120H438c5.523,0,10,4.477,10,10v10
	l37.428,14.971C493.021,158.008,498,165.363,498,173.541z"/>
<path style="fill:#E6AF78;" d="M35,280v20c0,5.523-4.477,10-10,10H10c-5.523,0-10-4.477-10-10v-20c0-5.523,4.477-10,10-10h15
	C30.523,270,35,274.477,35,280z M502,270h-15c-5.523,0-10,4.477-10,10v20c0,5.523,4.477,10,10,10h15c5.523,0,10-4.477,10-10v-20
	C512,274.477,507.523,270,502,270z"/>
<path style="fill:#F0C087;" d="M292.563,33.75v33.685c0,17.922-4.173,35.597-12.188,51.627l0,0V180h-48.75v-60.938l0,0
	c-8.015-16.03-12.188-33.705-12.188-51.627V33.75H292.563z"/>
<path style="fill:#E6AF78;" d="M241,370v70c0,5.523-4.477,10-10,10h-15c13.807,0,25,11.193,25,25v15h-50v-15
	c0-13.807,11.193-25,25-25h-15c-5.523,0-10-4.477-10-10v-70c0-5.523,4.477-10,10-10h30C236.523,360,241,364.477,241,370z M321,440
	v-70c0-5.523-4.477-10-10-10h-30c-5.523,0-10,4.477-10,10v70c0,5.523,4.477,10,10,10h15c-13.807,0-25,11.193-25,25v15h50v-15
	c0-13.807-11.193-25-25-25h15C316.523,450,321,445.523,321,440z"/>
<path style="fill:#D5945E;" d="M331.431,174.526l19.048,200c0.28,2.935-2.029,5.474-4.977,5.474H166.499
	c-2.949,0-5.257-2.539-4.977-5.474l19.048-200c0.244-2.566,2.4-4.526,4.977-4.526h140.907
	C329.031,170,331.187,171.96,331.431,174.526z"/>
<path style="fill:#E6AF78;" d="M342,173.541V190v10v90c0,5.523-4.477,10-10,10h-30c-5.523,0-10-4.477-10-10v-70
	c0-11.046-8.954-20-20-20h-32c-11.046,0-20,8.954-20,20v70c0,5.523-4.477,10-10,10h-30c-5.523,0-10-4.477-10-10v-90v-10v-16.459
	c0-8.178,4.979-15.532,12.572-18.57L220,140v-10c0-5.523,4.477-10,10-10h52c5.523,0,10,4.477,10,10v10l37.428,14.971
	C337.021,158.008,342,165.363,342,173.541z"/>
<g>
	<path style="fill:#F0C087;" d="M191,280v20c0,5.523-4.477,10-10,10h-15c-5.523,0-10-4.477-10-10v-20c0-5.523,4.477-10,10-10h15
		C186.523,270,191,274.477,191,280z M346,270h-15c-5.523,0-10,4.477-10,10v20c0,5.523,4.477,10,10,10h15c5.523,0,10-4.477,10-10v-20
		C356,274.477,351.523,270,346,270z"/>
	<path style="fill:#F0C087;" d="M263.5,116.998V160c0,4.142-3.358,7.5-7.5,7.5s-7.5-3.358-7.5-7.5v-43.002H263.5z"/>
</g>
<path style="fill:#D5945E;" d="M145,40v5c0,2.761-2.239,5-5,5H60c-2.761,0-5-2.239-5-5v-5c0-11.046,8.954-20,20-20h5V5
	c0-2.761,2.239-5,5-5h30c2.761,0,5,2.239,5,5v15h5C136.046,20,145,28.954,145,40z M437,20h-5V5c0-2.761-2.239-5-5-5h-30
	c-2.761,0-5,2.239-5,5v15h-5c-11.046,0-20,8.954-20,20v5c0,2.761,2.239,5,5,5h80c2.761,0,5-2.239,5-5v-5
	C457,28.954,448.046,20,437,20z M281,20h-5V5c0-2.761-2.239-5-5-5h-30c-2.761,0-5,2.239-5,5v15h-5c-11.046,0-20,8.954-20,20v5
	c0,2.761,2.239,5,5,5h80c2.761,0,5-2.239,5-5v-5C301,28.954,292.046,20,281,20z"/>
<path style="fill:#C37A4F;" d="M512,487v20c0,2.761-2.239,5-5,5H5c-2.761,0-5-2.239-5-5v-20c0-2.761,2.239-5,5-5h502
	C509.761,482,512,484.239,512,487z"/>
<path style="fill:#E6AF78;" d="M419.5,116.998V160c0,4.142-3.358,7.5-7.5,7.5s-7.5-3.358-7.5-7.5v-43.002H419.5z M92.5,160
	c0,4.142,3.358,7.5,7.5,7.5s7.5-3.358,7.5-7.5v-43.002h-15V160z"/>
<g>
</g>
<g>
</g>
<g>
</g>
<g>
</g>
<g>
</g>
<g>
</g>
<g>
</g>
<g>
</g>
<g>
</g>
<g>
</g>
<g>
</g>
<g>
</g>
<g>
</g>
<g>
</g>
<g>
</g>
</svg>
