<?xml version="1.0" encoding="iso-8859-1"?>
<!-- Generator: Adobe Illustrator 19.0.0, SVG Export Plug-In . SVG Version: 6.00 Build 0)  -->
<svg version="1.1" id="Capa_1" xmlns="http://www.w3.org/2000/svg" xmlns:xlink="http://www.w3.org/1999/xlink" x="0px" y="0px"
	 viewBox="0 0 512 512" style="enable-background:new 0 0 512 512;" xml:space="preserve">
<path style="fill:#C83741;" d="M299.288,237.784L38.562,510.637c-2.108,2.206-5.765,1.655-7.129-1.074
	c-6.274-12.548-16.448-22.722-28.995-28.996c-2.729-1.364-3.28-5.021-1.074-7.129l272.853-260.726
	c1.732-1.655,4.468-1.624,6.162,0.07l18.84,18.84C300.911,233.316,300.943,236.052,299.288,237.784z"/>
<path style="fill:#FFA5A5;" d="M290.463,94.249c1.953,1.953,1.953,5.118,0,7.071l-36.404,36.404
	c-1.492,1.492-3.759,1.887-5.668,0.987l-77.225-36.404c-3.824-1.802-3.824-7.243,0-9.045l77.225-36.404
	c1.908-0.9,4.176-0.505,5.668,0.987L290.463,94.249z M454.155,257.942l-36.404-36.404c-1.953-1.953-5.118-1.953-7.071,0
	l-36.404,36.404c-1.492,1.492-1.887,3.759-0.987,5.667l36.404,77.225c1.803,3.824,7.243,3.824,9.045,0l36.404-77.225
	C456.042,261.701,455.647,259.434,454.155,257.942z"/>
<path style="fill:#E6C8A0;" d="M418.869,207.804L303.618,323.055c-14.543,14.543-22.552,33.879-22.552,54.445
	c0,24.573-9.569,47.676-26.945,65.052l-67.251,67.252c-1.464,1.464-3.384,2.196-5.303,2.196s-3.839-0.732-5.303-2.196
	c-2.929-2.93-2.929-7.678,0-10.607l67.251-67.251c14.542-14.543,22.552-33.879,22.552-54.445c0-24.573,9.569-47.676,26.946-65.052
	l115.251-115.252c2.929-2.928,7.678-2.928,10.606,0C421.798,200.126,421.798,204.874,418.869,207.804z M314.803,99.737
	c2.929-2.93,2.929-7.678,0-10.607c-2.929-2.928-7.678-2.928-10.606,0L188.946,204.382c-14.543,14.543-33.879,22.552-54.446,22.552
	c-24.574,0-47.676,9.569-65.052,26.945L2.197,321.13c-2.929,2.93-2.929,7.678,0,10.607c1.464,1.464,3.384,2.196,5.303,2.196
	s3.839-0.732,5.303-2.196l67.251-67.252c14.543-14.543,33.878-22.552,54.445-22.552c24.573,0,47.676-9.569,65.052-26.944
	L314.803,99.737z"/>
<path style="fill:#FF4B4B;" d="M512,10v252v55.03c0,7.619-8.18,12.439-14.845,8.748l-92.548-51.257
	c-14.828-8.212-31.5-12.521-48.45-12.521H260c-5.523,0-10-4.477-10-10v-96.157c0-16.95-4.309-33.622-12.521-48.45l-51.257-92.548
	C182.531,8.18,187.351,0,194.97,0H250h252C507.523,0,512,4.477,512,10z"/>
<path style="fill:#D24A4A;" d="M512,10v252v55.03c0,7.619-8.18,12.439-14.845,8.748L476,314.062V0h26C507.523,0,512,4.477,512,10z"
	/>
<path style="fill:#FFCF65;" d="M512,10v153.279L268.965,262H260c-5.523,0-10-4.477-10-10v-8.965L348.721,0H502
	C507.523,0,512,4.477,512,10z"/>
<path style="fill:#FFB450;" d="M512,10v153.279l-36,14.623V0h26C507.523,0,512,4.477,512,10z M415,50c-24.853,0-45,20.147-45,45
	s20.147,45,45,45s45-20.147,45-45S439.853,50,415,50z"/>
<g>
</g>
<g>
</g>
<g>
</g>
<g>
</g>
<g>
</g>
<g>
</g>
<g>
</g>
<g>
</g>
<g>
</g>
<g>
</g>
<g>
</g>
<g>
</g>
<g>
</g>
<g>
</g>
<g>
</g>
</svg>
