<?xml version="1.0" encoding="iso-8859-1"?>
<!-- Generator: Adobe Illustrator 19.0.0, SVG Export Plug-In . SVG Version: 6.00 Build 0)  -->
<svg version="1.1" id="Capa_1" xmlns="http://www.w3.org/2000/svg" xmlns:xlink="http://www.w3.org/1999/xlink" x="0px" y="0px"
	 viewBox="0 0 512 512" style="enable-background:new 0 0 512 512;" xml:space="preserve">
<path style="fill:#A1D7FC;" d="M454.167,486c0,14.359-59.621,26-133.167,26s-133.167-11.641-133.167-26S247.454,460,321,460
	S454.167,471.641,454.167,486z"/>
<path style="fill:#963737;" d="M397.796,406.828L328.5,258.336v-0.337c0-4.143-3.358-7.5-7.5-7.5s-7.5,3.357-7.5,7.5V402.5H231
	c-2.766,0-5.308,1.522-6.612,3.961c-1.305,2.438-1.163,5.397,0.372,7.699l20,30c1.445,2.168,3.823,3.341,6.247,3.341
	c1.43,0,2.875-0.408,4.153-1.261c3.447-2.298,4.378-6.954,2.08-10.4l-12.227-18.34H313.5v68.499c0,4.143,3.358,7.5,7.5,7.5
	s7.5-3.357,7.5-7.5V417.5H391c2.563,0,4.949-1.31,6.326-3.471C398.703,411.867,398.88,409.151,397.796,406.828z M328.5,402.5
	V293.807L379.224,402.5H328.5z"/>
<path style="fill:#DCDBDE;" d="M461,218.668v170.058c0,7.1-7.912,11.334-13.82,7.396l-79.616-53.078
	C325.978,315.321,301,268.648,301,218.668l0,0c0-1.682,0.069-3.347,0.172-5.003L301,145.158c0-22.992,6.344-45.539,18.333-65.158V40
	h50v40c-11.875,19.432-18.202,41.737-18.322,64.501c9.264-3.75,19.38-5.833,29.989-5.833l0,0
	C425.183,138.668,461,174.485,461,218.668z"/>
<path style="fill:#EDEDEE;" d="M461,218.668v143.406l-66.769-44.512c-41.586-27.724-66.564-74.396-66.564-124.376l0,0
	c0-13.854,3.524-26.883,9.722-38.245c1.947-3.57,4.974-6.451,8.63-8.232c10.567-5.148,22.436-8.039,34.982-8.039l0,0
	C425.183,138.668,461,174.486,461,218.668z M391,44.746L391,44.746C391,20.033,370.967,0,346.254,0h-20.509
	C301.033,0,281,20.033,281,44.746v44.746h65.254C370.967,89.492,391,69.458,391,44.746z"/>
<path style="fill:#FF4B4B;" d="M69.388,64.05l205.437-21.783C288.812,40.784,301,51.748,301,65.813v13.678c0,5.523-4.477,10-10,10
	H56c-2.761,0-5-2.239-5-5l0,0C51,73.978,58.933,65.159,69.388,64.05z"/>
<path style="fill:#D24A4A;" d="M300.649,61.748c0.228,1.319,0.351,2.676,0.351,4.065v13.678c0,5.522-4.477,10-10,10H56
	c-2.761,0-5-2.239-5-5c0-6.063,2.648-11.551,6.886-15.333H291C295.626,69.158,299.507,66.013,300.649,61.748z"/>
<path style="fill:#625D6B;" d="M338.5,30v10c0,4.143-3.358,7.5-7.5,7.5s-7.5-3.357-7.5-7.5V30c0-4.143,3.358-7.5,7.5-7.5
	S338.5,25.857,338.5,30z"/>
<path style="fill:#69AFEB;" d="M356,493.5h-70c-4.142,0-7.5-3.357-7.5-7.5s3.358-7.5,7.5-7.5h70c4.142,0,7.5,3.357,7.5,7.5
	S360.142,493.5,356,493.5z"/>
<g>
</g>
<g>
</g>
<g>
</g>
<g>
</g>
<g>
</g>
<g>
</g>
<g>
</g>
<g>
</g>
<g>
</g>
<g>
</g>
<g>
</g>
<g>
</g>
<g>
</g>
<g>
</g>
<g>
</g>
</svg>
