<?xml version="1.0" encoding="iso-8859-1"?>
<!-- Generator: Adobe Illustrator 19.0.0, SVG Export Plug-In . SVG Version: 6.00 Build 0)  -->
<svg version="1.1" id="Capa_1" xmlns="http://www.w3.org/2000/svg" xmlns:xlink="http://www.w3.org/1999/xlink" x="0px" y="0px"
	 viewBox="0 0 512 512" style="enable-background:new 0 0 512 512;" xml:space="preserve">
<path style="fill:#C1C2C4;" d="M200.09,365V15c0-2.761,2.235-5,4.992-5h101.836c2.757,0,4.992,2.239,4.992,5v350
	c0,2.761-2.235,5-4.992,5H205.082C202.325,370,200.09,367.761,200.09,365z M346.854,462H165.146c-2.757,0-4.992,2.239-4.992,5v15
	c0,16.569,13.41,30,29.952,30h131.788c16.542,0,29.952-13.431,29.952-30v-15C351.846,464.239,349.611,462,346.854,462z"/>
<path style="fill:#B2B1B0;" d="M306.918,370H286.95c-2.757,0-4.992-2.239-4.992-5V15c0-2.761,2.235-5,4.992-5h19.968
	c2.757,0,4.992,2.239,4.992,5v350C311.91,367.761,309.675,370,306.918,370z M346.854,462h-31.949c2.757,0,4.992,2.239,4.992,5v15
	c0,16.569-13.41,30-29.952,30h31.949c16.542,0,29.952-13.431,29.952-30v-15C351.846,464.239,349.611,462,346.854,462z"/>
<path style="fill:#EDEDEE;" d="M453.504,266.807l-41.686,153.226C402.347,454.846,370.781,479,334.756,479H177.244
	c-36.025,0-67.591-24.154-77.062-58.967L58.496,266.807C34.269,177.754,101.203,90,193.354,90h125.291
	C410.797,90,477.731,177.754,453.504,266.807z M200.09,40h111.82c11.028,0,19.968-8.954,19.968-20l0,0c0-11.046-8.94-20-19.968-20
	H200.09c-11.028,0-19.968,8.954-19.968,20l0,0C180.122,31.046,189.062,40,200.09,40z"/>
<path style="fill:#DCDBDE;" d="M453.504,266.807l-41.686,153.226C402.347,454.846,370.781,479,334.756,479H177.244
	c-4.55,0-9.028-0.388-13.401-1.132c118.256-10.486,218.946-93.617,250.623-210.051l0.275-1.011
	C438.968,177.754,372.034,90,279.883,90h38.763C410.797,90,477.731,177.754,453.504,266.807z M283.456,40h28.454
	c11.028,0,19.968-8.954,19.968-20s-8.94-20-19.968-20h-28.454c11.028,0,19.968,8.954,19.968,20S294.484,40,283.456,40z"/>
<path style="fill:#C1C2C4;" d="M256,140c55.707,0,110.929-2.305,163.673-6.762c8.096,8.5,15.114,17.993,20.874,28.235
	C381.463,167.082,319.021,170,256,170c-63.022,0-125.464-2.918-184.546-8.527c5.759-10.242,12.778-19.734,20.873-28.235
	C145.071,137.696,200.293,140,256,140z"/>
<path style="fill:#B2B1B0;" d="M440.546,161.473c-12.214,1.16-24.579,2.197-37.056,3.125c-5.484-10.355-12.239-19.991-20.081-28.666
	c12.198-0.788,24.297-1.682,36.263-2.694C427.768,141.738,434.787,151.231,440.546,161.473z"/>
<path style="fill:#7DB764;" d="M199.448,275h-21.394h-10.697c-5.908,0-10.697-4.797-10.697-10.714v-7.143
	c0-5.917,4.789-10.714,10.697-10.714s10.697-4.797,10.697-10.714l0,0c0-5.917,4.789-10.714,10.697-10.714h7.131
	c5.908,0,10.697,4.797,10.697,10.714V275H199.448z"/>
<path style="fill:#B2B1B0;" d="M289.446,360c0,4.143-3.352,7.5-7.488,7.5h-0.998c-4.136,0-7.488-3.357-7.488-7.5
	s3.352-7.5,7.488-7.5h0.998C286.094,352.5,289.446,355.857,289.446,360z M95.758,222.5h0.998c4.135,0,7.488-3.357,7.488-7.5
	s-3.353-7.5-7.488-7.5h-0.998c-4.135,0-7.488,3.357-7.488,7.5S91.622,222.5,95.758,222.5z M301.926,352.5h-0.999
	c-4.136,0-7.488,3.357-7.488,7.5s3.352,7.5,7.488,7.5h0.999c4.136,0,7.488-3.357,7.488-7.5S306.062,352.5,301.926,352.5z
	 M431.718,217.5h-0.998c-4.136,0-7.488,3.357-7.488,7.5s3.352,7.5,7.488,7.5h0.998c4.136,0,7.488-3.357,7.488-7.5
	S435.854,217.5,431.718,217.5z M366.395,254.355L288.64,322.5h-74.573v-39.394L255.002,242c2.924-2.93,2.924-7.678,0-10.607
	c-2.924-2.928-7.666-2.928-10.589,0l-43.128,43.304c-1.404,1.407-2.193,3.314-2.193,5.304v46.596l-54.912,48.125v-29.719
	c0-0.001,0-0.003,0-0.005V295c0-1.989-0.789-3.896-2.193-5.304l-17.775-17.803V235c0-4.143-3.352-7.5-7.488-7.5
	s-7.488,3.357-7.488,7.5v40c0,1.989,0.789,3.896,2.193,5.304l17.775,17.803v28.787l-27.153-27.197
	c-2.924-2.928-7.665-2.928-10.589,0c-2.924,2.93-2.924,7.678,0,10.607l37.743,37.803V385c0,0.868,0.155,1.698,0.425,2.473
	l-7.852,6.882c-1.625,1.425-2.557,3.481-2.557,5.645v53.979c3.928,4.156,8.294,7.863,13.002,11.083
	c1.222-1.335,1.974-3.108,1.974-5.062v-56.597l23.851-20.903h38.549c4.135,0,7.488-3.357,7.488-7.5s-3.353-7.5-7.488-7.5h-21.433
	l34.231-30h82.062c1.813,0,3.565-0.659,4.93-1.855l79.872-70c3.112-2.728,3.428-7.466,0.705-10.583
	C374.237,251.943,369.506,251.629,366.395,254.355z"/>
<path style="fill:#7DB764;" d="M225.834,367.333h-10.697h-21.394h-7.131v39.286c0,5.917,4.789,10.714,10.697,10.714h7.131
	c5.908,0,10.697-4.797,10.697-10.714s4.789-10.714,10.697-10.714s10.697-4.797,10.697-10.714v-7.143
	C236.531,372.13,231.742,367.333,225.834,367.333z"/>
<path style="fill:#FF4B4B;" d="M410.752,300.71h-10.833v15.147l-3.279,3.284c-7.798,7.811-20.441,7.811-28.239,0l-56.478-56.569
	c-7.798-7.81-7.798-20.474,0-28.284l3.279-3.284h15.123v-10.85c18.899-9.178,41.957-6.871,58.753,6.943v14.766h14.742
	C417.612,258.686,419.915,281.781,410.752,300.71z M272.832,211.333l-20.702,1.699c-10.889,0.894-19.271,10.006-19.271,20.948l0,0
	c0,11.608,9.395,21.019,20.985,21.019l0,0c10.925,0,20.023-8.396,20.915-19.302l1.696-20.735
	C276.625,212.892,274.9,211.164,272.832,211.333z"/>
<path style="fill:#CF4036;" d="M402.776,300.71h-2.857v11.026c-1.033,0.504-2.155,0.763-3.279,0.763
	c-1.916,0-3.833-0.732-5.295-2.196l-14.12-14.143c-2.924-2.93-2.924-7.678,0-10.607c2.925-2.928,7.665-2.928,10.59,0l14.12,14.143
	C402.252,300.013,402.527,300.355,402.776,300.71z M396.566,241.863h-7.488v-7.499c-1.916,0-3.833,0.732-5.295,2.196l-20.677,20.71
	c-2.924,2.93-2.924,7.678,0,10.607c1.462,1.464,3.379,2.196,5.295,2.196s3.833-0.732,5.295-2.196l20.677-20.71
	C395.835,245.702,396.566,243.782,396.566,241.863z M331.338,228.986c-0.317-0.317-0.658-0.593-1.013-0.842v2.86h-11.008
	c-1.361,2.797-0.889,6.264,1.431,8.587l14.119,14.143c1.462,1.465,3.378,2.197,5.295,2.197c1.916,0,3.833-0.732,5.294-2.196
	c2.925-2.929,2.925-7.678,0.001-10.606L331.338,228.986z"/>
<g>
</g>
<g>
</g>
<g>
</g>
<g>
</g>
<g>
</g>
<g>
</g>
<g>
</g>
<g>
</g>
<g>
</g>
<g>
</g>
<g>
</g>
<g>
</g>
<g>
</g>
<g>
</g>
<g>
</g>
</svg>
