<?xml version="1.0" encoding="iso-8859-1"?>
<!-- Generator: Adobe Illustrator 19.0.0, SVG Export Plug-In . SVG Version: 6.00 Build 0)  -->
<svg version="1.1" id="Capa_1" xmlns="http://www.w3.org/2000/svg" xmlns:xlink="http://www.w3.org/1999/xlink" x="0px" y="0px"
	 viewBox="0 0 512 512" style="enable-background:new 0 0 512 512;" xml:space="preserve">
<path style="fill:#736F7B;" d="M117.652,506.114c-7.525,3.764-16.014,5.886-25,5.886s-17.474-2.122-25-5.886
	c-2.138-1.069-3.269-3.46-2.703-5.783l15.013-61.554c0.925-3.794,3.407-7,6.715-8.777h-4.026c-5.523,0-10-4.477-10-10v-80
	c0-5.523,4.477-10,10-10h20c5.523,0,10,4.477,10,10v80c0,5.523-4.477,10-10,10h-3.974c3.209,1.688,5.665,4.685,6.569,8.394
	l15.107,61.938C120.921,502.654,119.79,505.045,117.652,506.114z"/>
<path style="fill:#504B5A;" d="M112.652,363.128v13.744c-0.919,0.401-1.933,0.628-3,0.628h-34c-1.067,0-2.081-0.226-3-0.628v-13.744
	c0.919-0.402,1.933-0.628,3-0.628h34C110.72,362.5,111.733,362.726,112.652,363.128z M75.652,392.5c-1.067,0-2.081,0.226-3,0.628
	v13.744c0.919,0.402,1.933,0.628,3,0.628h34c1.067,0,2.081-0.227,3-0.628v-13.744c-0.919-0.402-1.933-0.628-3-0.628H75.652z
	 M92.652,472.5c-4.143,0-7.5,3.357-7.5,7.5v31.482c2.455,0.33,4.955,0.518,7.5,0.518s5.045-0.188,7.5-0.518V480
	C100.152,475.857,96.795,472.5,92.652,472.5z"/>
<path style="fill:#AA4141;" d="M462,300L462,300H50l0,0c0-124.435,82.151-233.927,201.622-268.725l0,0
	c2.859-0.833,5.897-0.833,8.756,0l0,0C379.849,66.072,462,175.565,462,300z"/>
<g>
	<path style="fill:#D24A4A;" d="M352,300L352,300H160l0,0c0-112.715,31.413-213.169,78.709-256.954
		C233.961,38.496,231,32.096,231,25c0-13.807,11.193-25,25-25s25,11.193,25,25c0,7.096-2.961,13.496-7.709,18.046
		C320.587,86.831,352,187.285,352,300z"/>
	<path style="fill:#D24A4A;" d="M471,240v90c0,5.523-4.477,10-10,10H51c-5.523,0-10-4.477-10-10v-90c0-5.523,4.477-10,10-10h410
		C466.523,230,471,234.477,471,240z"/>
</g>
<path style="fill:#FF4B4B;" d="M439,240v90c0,5.523-4.477,10-10,10H51c-5.523,0-10-4.477-10-10v-90c0-5.523,4.477-10,10-10h378
	C434.523,230,439,234.477,439,240z"/>
<path style="fill:#FFCF65;" d="M286,285c0,16.569-13.431,30-30,30s-30-13.431-30-30s13.431-30,30-30S286,268.431,286,285z"/>
<g>
</g>
<g>
</g>
<g>
</g>
<g>
</g>
<g>
</g>
<g>
</g>
<g>
</g>
<g>
</g>
<g>
</g>
<g>
</g>
<g>
</g>
<g>
</g>
<g>
</g>
<g>
</g>
<g>
</g>
</svg>
