<?xml version="1.0" encoding="iso-8859-1"?>
<!-- Generator: Adobe Illustrator 19.0.0, SVG Export Plug-In . SVG Version: 6.00 Build 0)  -->
<svg version="1.1" id="Capa_1" xmlns="http://www.w3.org/2000/svg" xmlns:xlink="http://www.w3.org/1999/xlink" x="0px" y="0px"
	 viewBox="0 0 512 512" style="enable-background:new 0 0 512 512;" xml:space="preserve">
<path style="fill:#E6AF78;" d="M422,442H20c-11.046,0-20-8.954-20-20V20C0,8.954,8.954,0,20,0h402c11.046,0,20,8.954,20,20v402
	C442,433.046,433.046,442,422,442z"/>
<path style="fill:#D5945E;" d="M442,20v402c0,11.046-8.954,20-20,20h-31c11.046,0,20-8.954,20-20V20c0-11.046-8.954-20-20-20h31
	C433.046,0,442,8.954,442,20z"/>
<path style="fill:#B4826E;" d="M138.125,47.48c0,11.919-9.663,21.582-21.582,21.582S94.961,59.4,94.961,47.48
	s9.663-21.582,21.582-21.582S138.125,35.561,138.125,47.48z M47.48,94.961c-11.919,0-21.582,9.663-21.582,21.582
	s9.663,21.582,21.582,21.582s21.582-9.663,21.582-21.582S59.4,94.961,47.48,94.961z"/>
<path style="fill:#FFCF65;" d="M372.938,47.48c0-11.919,9.663-21.582,21.582-21.582s21.582,9.663,21.582,21.582
	s-9.663,21.582-21.582,21.582S372.938,59.4,372.938,47.48z M394.52,94.961c-11.919,0-21.582,9.663-21.582,21.582
	s9.663,21.582,21.582,21.582s21.582-9.663,21.582-21.582S406.439,94.961,394.52,94.961z M325.457,25.898
	c-11.919,0-21.582,9.663-21.582,21.582s9.663,21.582,21.582,21.582s21.582-9.663,21.582-21.582S337.376,25.898,325.457,25.898z"/>
<path style="fill:#7DB764;" d="M69.063,394.52c0,11.919-9.663,21.582-21.582,21.582s-21.582-9.663-21.582-21.582
	s9.663-21.582,21.582-21.582S69.063,382.6,69.063,394.52z M116.543,372.938c-11.919,0-21.582,9.663-21.582,21.582
	s9.663,21.582,21.582,21.582s21.582-9.663,21.582-21.582S128.462,372.938,116.543,372.938z M47.48,303.875
	c-11.919,0-21.582,9.663-21.582,21.582s9.663,21.582,21.582,21.582s21.582-9.663,21.582-21.582S59.4,303.875,47.48,303.875z"/>
<path style="fill:#FF4B4B;" d="M416.102,394.52c0,11.919-9.663,21.582-21.582,21.582s-21.582-9.663-21.582-21.582
	s9.663-21.582,21.582-21.582S416.102,382.6,416.102,394.52z M394.52,347.039c11.919,0,21.582-9.663,21.582-21.582
	s-9.663-21.582-21.582-21.582s-21.582,9.663-21.582,21.582S382.6,347.039,394.52,347.039z M325.457,372.938
	c-11.919,0-21.582,9.663-21.582,21.582s9.663,21.582,21.582,21.582s21.582-9.663,21.582-21.582S337.376,372.938,325.457,372.938z"/>
<path style="fill:#B4826E;" d="M417.952,215.696L226.304,24.048c-2.93-2.928-7.678-2.928-10.607,0L24.048,215.696
	c-2.929,2.93-2.929,7.678,0,10.607l191.648,191.648c1.465,1.464,3.385,2.196,5.304,2.196s3.839-0.732,5.304-2.196l191.648-191.648
	C420.881,223.374,420.881,218.626,417.952,215.696z M370.1,189.058l-21.334,21.334l-21.334-21.334l21.334-21.334L370.1,189.058z
	 M210.393,221l-21.334,21.334L167.725,221l21.334-21.334L210.393,221z M199.666,189.059L221,167.725l21.334,21.334L221,210.393
	L199.666,189.059z M221,231.607l21.334,21.334L221,274.275l-21.334-21.334L221,231.607z M231.607,221l21.334-21.334L274.275,221
	l-21.334,21.334L231.607,221z M263.549,189.059l21.334-21.334l21.334,21.334l-21.334,21.334L263.549,189.059z M252.941,178.451
	l-21.334-21.334l21.334-21.334l21.334,21.334L252.941,178.451z M221,146.51l-21.334-21.334L221,103.842l21.334,21.334L221,146.51z
	 M210.393,157.117l-21.334,21.334l-21.334-21.334l21.334-21.334L210.393,157.117z M178.451,189.059l-21.334,21.334l-21.334-21.334
	l21.334-21.334L178.451,189.059z M146.51,221l-21.334,21.334L103.842,221l21.334-21.334L146.51,221z M157.117,231.607l21.334,21.334
	l-21.334,21.334l-21.334-21.334L157.117,231.607z M189.059,263.549l21.334,21.334l-21.334,21.334l-21.334-21.334L189.059,263.549z
	 M221,295.49l21.334,21.334L221,338.158l-21.334-21.334L221,295.49z M231.607,284.883l21.334-21.334l21.334,21.334l-21.334,21.334
	L231.607,284.883z M263.549,252.941l21.334-21.334l21.334,21.334l-21.334,21.334L263.549,252.941z M295.49,221l21.334-21.334
	L338.158,221l-21.334,21.334L295.49,221z M338.159,157.117l-21.334,21.334l-21.334-21.334l21.334-21.334L338.159,157.117z
	 M306.217,125.175l-21.334,21.334l-21.334-21.334l21.334-21.334L306.217,125.175z M274.276,93.234l-21.334,21.334l-21.334-21.334
	L252.942,71.9L274.276,93.234z M221,39.958l21.334,21.334L221,82.627l-21.334-21.334L221,39.958z M189.058,71.9l21.334,21.334
	l-21.334,21.334l-21.334-21.334L189.058,71.9z M157.117,103.841l21.334,21.334l-21.334,21.334l-21.334-21.334L157.117,103.841z
	 M125.175,135.783l21.334,21.334l-21.334,21.334l-21.334-21.334L125.175,135.783z M93.234,167.724l21.334,21.334l-21.334,21.334
	L71.9,189.058L93.234,167.724z M39.958,221l21.334-21.334L82.627,221l-21.334,21.334L39.958,221z M71.9,252.942l21.334-21.334
	l21.334,21.334l-21.334,21.334L71.9,252.942z M103.841,284.883l21.334-21.334l21.334,21.334l-21.334,21.334L103.841,284.883z
	 M135.783,316.825l21.334-21.334l21.334,21.334l-21.334,21.334L135.783,316.825z M167.724,348.766l21.334-21.334l21.334,21.334
	L189.058,370.1L167.724,348.766z M221,402.042l-21.334-21.334L221,359.373l21.334,21.334L221,402.042z M252.942,370.1
	l-21.334-21.334l21.334-21.334l21.334,21.334L252.942,370.1z M284.883,338.159l-21.334-21.334l21.334-21.334l21.334,21.334
	L284.883,338.159z M316.825,306.217l-21.334-21.334l21.334-21.334l21.334,21.334L316.825,306.217z M348.766,274.276l-21.334-21.334
	l21.334-21.334l21.334,21.334L348.766,274.276z M380.708,242.334L359.373,221l21.334-21.334L402.042,221L380.708,242.334z"/>
<path style="fill:#4B82C8;" d="M487,512c-13.807,0-25-11.193-25-25s11.193-25,25-25s25,11.193,25,25S500.807,512,487,512z"/>
<path style="fill:#69AFEB;" d="M69.063,47.48c0,11.919-9.663,21.582-21.582,21.582S25.898,59.4,25.898,47.48
	s9.663-21.582,21.582-21.582S69.063,35.561,69.063,47.48z M447.333,462c-13.807,0-25,11.193-25,25s11.193,25,25,25s25-11.193,25-25
	S461.14,462,447.333,462z"/>
<g>
</g>
<g>
</g>
<g>
</g>
<g>
</g>
<g>
</g>
<g>
</g>
<g>
</g>
<g>
</g>
<g>
</g>
<g>
</g>
<g>
</g>
<g>
</g>
<g>
</g>
<g>
</g>
<g>
</g>
</svg>
