<?xml version="1.0" encoding="iso-8859-1"?>
<!-- Generator: Adobe Illustrator 19.0.0, SVG Export Plug-In . SVG Version: 6.00 Build 0)  -->
<svg version="1.1" id="Capa_1" xmlns="http://www.w3.org/2000/svg" xmlns:xlink="http://www.w3.org/1999/xlink" x="0px" y="0px"
	 viewBox="0 0 512 512" style="enable-background:new 0 0 512 512;" xml:space="preserve">
<g>
	<path style="fill:#963737;" d="M88.75,110H66c-16.569,0-30-13.431-30-30V60c0-16.569,13.431-30,30-30h22.75V110z"/>
	<path style="fill:#963737;" d="M390,330h56c16.569,0,30,13.431,30,30v20c0,16.569-13.431,30-30,30h-46c-5.523,0-10-4.477-10-10V330
		z"/>
</g>
<path style="fill:#FF9744;" d="M96,512H86c-5.523,0-10-4.477-10-10V40c0-5.523,4.477-10,10-10h10c5.523,0,10,4.477,10,10v462
	C106,507.523,101.523,512,96,512z"/>
<path style="fill:#FF4B4B;" d="M446,90c16.569,0,30,13.431,30,30v230v30c0-16.569-13.431-30-30-30H66c-16.569,0-30-13.431-30-30V90
	V60c0,16.569,13.431,30,30,30H446z"/>
<path style="fill:#D24A4A;" d="M476,120v230v30c0-16.569-13.431-30-30-30V120c0-16.569-13.431-30-30-30h30
	C462.569,90,476,103.431,476,120z"/>
<g>
	<path style="fill:#FFCF65;" d="M91,50c-13.807,0-25-11.193-25-25S77.193,0,91,0s25,11.193,25,25S104.807,50,91,50z
		 M205.207,201.101c3.513-3.424,1.575-9.39-3.28-10.096l-34.253-4.977c-1.928-0.28-3.594-1.491-4.457-3.238l-15.319-31.039
		c-2.171-4.399-8.444-4.399-10.615,0l-15.319,31.039c-0.862,1.747-2.529,2.958-4.457,3.238l-34.253,4.977
		c-4.855,0.705-6.793,6.672-3.28,10.096l24.786,24.16c1.395,1.36,2.032,3.319,1.702,5.239l-5.851,34.115
		c-0.829,4.835,4.246,8.522,8.588,6.24l30.637-16.107c1.724-0.907,3.784-0.907,5.509,0l30.637,16.107
		c4.342,2.283,9.417-1.404,8.588-6.24l-5.851-34.115c-0.329-1.92,0.307-3.879,1.702-5.239L205.207,201.101z"/>
	<path style="fill:#FFCF65;" d="M250.839,271.503l-3.914,3.914l3.914,3.914c2.441,2.441,2.441,6.398,0,8.839
		c-1.221,1.22-2.821,1.831-4.42,1.831s-3.199-0.61-4.42-1.831l-3.913-3.914l-3.914,3.914c-1.221,1.22-2.821,1.831-4.42,1.831
		s-3.199-0.61-4.42-1.831c-2.44-2.441-2.44-6.398,0-8.839l3.914-3.914l-3.914-3.914c-2.44-2.441-2.44-6.398,0-8.839
		c2.441-2.441,6.398-2.441,8.84,0l3.914,3.914l3.913-3.914c2.441-2.441,6.398-2.441,8.84,0
		C253.28,265.105,253.28,269.062,250.839,271.503z M271.67,216.553c-2.441-2.441-6.398-2.441-8.84,0l-3.914,3.914l-3.913-3.914
		c-2.441-2.441-6.398-2.441-8.84,0c-2.441,2.441-2.441,6.398,0,8.839l3.914,3.914l-3.914,3.914c-2.441,2.441-2.441,6.398,0,8.839
		c1.221,1.22,2.821,1.831,4.42,1.831s3.199-0.61,4.42-1.831l3.913-3.914l3.914,3.914c1.221,1.22,2.821,1.831,4.42,1.831
		s3.199-0.61,4.42-1.831c2.44-2.441,2.44-6.398,0-8.839l-3.914-3.914l3.914-3.914C274.11,222.951,274.11,218.994,271.67,216.553z
		 M267.756,183.194l3.914-3.914c2.44-2.441,2.44-6.398,0-8.839c-2.441-2.441-6.398-2.441-8.84,0l-3.914,3.914l-3.913-3.914
		c-2.441-2.441-6.398-2.441-8.84,0c-2.441,2.441-2.441,6.398,0,8.839l3.914,3.914l-3.914,3.914c-2.441,2.441-2.441,6.398,0,8.839
		c1.221,1.22,2.821,1.831,4.42,1.831s3.199-0.61,4.42-1.831l3.913-3.914l3.914,3.914c1.221,1.22,2.821,1.831,4.42,1.831
		s3.199-0.61,4.42-1.831c2.44-2.441,2.44-6.398,0-8.839L267.756,183.194z M225.333,149.836c1.221,1.22,2.821,1.831,4.42,1.831
		s3.199-0.61,4.42-1.831l3.914-3.914l3.913,3.914c1.221,1.22,2.821,1.831,4.42,1.831s3.199-0.61,4.42-1.831
		c2.441-2.441,2.441-6.398,0-8.839l-3.914-3.914l3.914-3.914c2.441-2.441,2.441-6.398,0-8.839c-2.441-2.441-6.398-2.441-8.84,0
		l-3.913,3.914l-3.914-3.914c-2.441-2.441-6.398-2.441-8.84,0c-2.44,2.441-2.44,6.398,0,8.839l3.914,3.914l-3.914,3.914
		C222.893,143.438,222.893,147.395,225.333,149.836z"/>
</g>
<g>
</g>
<g>
</g>
<g>
</g>
<g>
</g>
<g>
</g>
<g>
</g>
<g>
</g>
<g>
</g>
<g>
</g>
<g>
</g>
<g>
</g>
<g>
</g>
<g>
</g>
<g>
</g>
<g>
</g>
</svg>
