<?xml version="1.0" encoding="iso-8859-1"?>
<!-- Generator: Adobe Illustrator 19.0.0, SVG Export Plug-In . SVG Version: 6.00 Build 0)  -->
<svg version="1.1" id="Capa_1" xmlns="http://www.w3.org/2000/svg" xmlns:xlink="http://www.w3.org/1999/xlink" x="0px" y="0px"
	 viewBox="0 0 512 512" style="enable-background:new 0 0 512 512;" xml:space="preserve">
<path style="fill:#FF4B4B;" d="M508.226,261.327l-245.593,86.341c-4.293,1.509-8.973,1.509-13.267,0L3.774,261.327
	C1.513,260.532,0,258.396,0,256l0,0C0,114.615,114.615,0,256,0l0,0c141.385,0,256,114.615,256,256l0,0
	C512,258.396,510.487,260.532,508.226,261.327z"/>
<path style="fill:#D24A4A;" d="M512,256L512,256c0,2.397-1.513,4.532-3.774,5.327l-245.593,86.341
	c-2.253,0.792-4.612,1.157-6.967,1.118v-24.908l173.02-60.827c37.431-13.159,59.034-52.694,49.18-91.128
	c-0.122-0.476-0.245-0.941-0.37-1.393c-14.873-53.987-46.988-100.825-90.045-134.233C462.059,81.032,512,162.679,512,256z"/>
<path style="fill:#A1302B;" d="M263.5,360v120c0,4.142-3.358,7.5-7.5,7.5s-7.5-3.358-7.5-7.5V360c0-4.142,3.358-7.5,7.5-7.5
	S263.5,355.858,263.5,360z"/>
<path style="fill:#FF4B4B;" d="M283.205,500.541c0.556,2.281-0.554,4.629-2.654,5.679c-7.39,3.696-15.726,5.78-24.551,5.78
	s-17.161-2.084-24.551-5.78c-2.1-1.05-3.21-3.399-2.654-5.679l14.744-60.449c1.296-5.315,5.696-9.467,11.138-10.024
	c6.411-0.656,12.198,3.52,13.693,9.647L283.205,500.541z M256,390c19.33,0,35-15.67,35-35s-15.67-35-35-35s-35,15.67-35,35
	S236.67,390,256,390z"/>
<path style="fill:#C83741;" d="M263.5,480v31.471c-2.454,0.336-4.954,0.529-7.5,0.529s-5.046-0.193-7.5-0.529V480
	c0-4.142,3.358-7.5,7.5-7.5S263.5,475.858,263.5,480z M255.999,223.456c4.142,0,7.5-3.358,7.5-7.5V99.703c0-4.142-3.358-7.5-7.5-7.5
	s-7.5,3.358-7.5,7.5v116.253C248.499,220.098,251.857,223.456,255.999,223.456z M195.5,228.892l-61.384-55.271
	c-3.078-2.771-7.82-2.522-10.592,0.555c-2.771,3.078-2.523,7.82,0.555,10.592l61.384,55.271c1.434,1.291,3.228,1.926,5.016,1.926
	c2.052,0,4.095-0.837,5.576-2.481C198.827,236.406,198.578,231.664,195.5,228.892z M167.386,131.908
	c-2.072-3.587-6.659-4.817-10.245-2.745c-3.587,2.071-4.816,6.658-2.745,10.245l52.462,90.868c1.389,2.406,3.91,3.751,6.502,3.751
	c1.272,0,2.562-0.324,3.743-1.006c3.587-2.071,4.816-6.658,2.745-10.245L167.386,131.908z M212.382,109.169
	c-1.073-4.001-5.187-6.374-9.186-5.304c-4.001,1.072-6.375,5.185-5.304,9.186l28.891,107.823c0.898,3.351,3.928,5.561,7.24,5.561
	c0.643,0,1.296-0.083,1.946-0.257c4.001-1.072,6.375-5.185,5.304-9.186L212.382,109.169z M309.098,102.758
	c-3.995-1.069-8.113,1.302-9.186,5.304l-29.533,110.22c-1.072,4.001,1.303,8.113,5.304,9.186c0.65,0.174,1.303,0.257,1.946,0.257
	c3.311,0,6.342-2.21,7.24-5.561l29.533-110.22C315.473,107.942,313.099,103.83,309.098,102.758z M388.856,174.605
	c-2.773-3.079-7.514-3.327-10.592-0.555l-62.586,56.354c-3.078,2.772-3.327,7.514-0.555,10.592c1.481,1.645,3.524,2.481,5.576,2.481
	c1.788,0,3.583-0.636,5.016-1.926l62.586-56.354C391.379,182.425,391.628,177.683,388.856,174.605z M354.951,129
	c-3.587-2.072-8.174-0.842-10.245,2.745l-50.557,87.566c-2.071,3.587-0.842,8.174,2.745,10.245c1.181,0.682,2.471,1.006,3.743,1.006
	c2.592,0,5.113-1.346,6.502-3.751l50.557-87.566C359.768,135.658,358.539,131.071,354.951,129z"/>
<path style="fill:#FFCF65;" d="M194.196,328.272l-52.148-18.333c10.187-53.66,57.327-94.236,113.952-94.236l0,0
	c56.625,0,103.765,40.575,113.952,94.236l-52.148,18.333C304.168,303.93,281.582,288,256,288l0,0
	C230.418,288,207.832,303.93,194.196,328.272z"/>
<path style="fill:#FFB450;" d="M301.819,307.412l60.83-21.386c3.254,7.588,5.723,15.592,7.303,23.912l-52.148,18.333
	C313.358,320.336,307.963,313.298,301.819,307.412z"/>
<path style="fill:#D5945E;" d="M256,260L256,260c33.425,0,61.754,27.177,71.658,64.808l-65.025,22.86
	c-4.293,1.509-8.973,1.509-13.266,0l-65.025-22.86C194.246,287.177,222.575,260,256,260z"/>
<path style="fill:#E6AF78;" d="M218.34,336.76l-33.999-11.953C194.246,287.177,222.575,260,256,260l0,0
	c26.027,0,48.961,16.482,62.515,41.543L218.34,336.76z"/>
<g>
</g>
<g>
</g>
<g>
</g>
<g>
</g>
<g>
</g>
<g>
</g>
<g>
</g>
<g>
</g>
<g>
</g>
<g>
</g>
<g>
</g>
<g>
</g>
<g>
</g>
<g>
</g>
<g>
</g>
</svg>
