<?xml version="1.0" encoding="iso-8859-1"?>
<!-- Generator: Adobe Illustrator 19.0.0, SVG Export Plug-In . SVG Version: 6.00 Build 0)  -->
<svg version="1.1" id="Capa_1" xmlns="http://www.w3.org/2000/svg" xmlns:xlink="http://www.w3.org/1999/xlink" x="0px" y="0px"
	 viewBox="0 0 512 512" style="enable-background:new 0 0 512 512;" xml:space="preserve">
<path style="fill:#B4826E;" d="M185.761,20v80l-10,290h-20l-0.315-9.148l-19.003,5.092l-84.717-277.53L31.02,31.139
	C28.161,20.47,34.493,9.503,45.162,6.645l0,0c10.669-2.859,21.636,3.473,24.495,14.142l20.706,77.274l65.024,281.089L145.761,100V20
	c0-11.046,8.954-20,20-20l0,0C176.806,0,185.761,8.954,185.761,20z"/>
<path style="fill:#A06E5F;" d="M69.657,20.787l20.706,77.274l-38.637,10.353L31.02,31.139C28.161,20.47,34.493,9.503,45.162,6.645
	C55.831,3.786,66.798,10.117,69.657,20.787z M165.761,0c-11.046,0-20,8.954-20,20v80h40V20C185.761,8.954,176.806,0,165.761,0z"/>
<path style="fill:#FFCF65;" d="M271.695,242.399l16.123,9.684c16.193,9.725,26.099,27.231,26.099,46.119l0,0
	c0,29.712-24.086,53.798-53.798,53.798h-68.237c-29.712,0-53.798-24.086-53.798-53.798l0,0c0-18.889,9.906-36.394,26.099-46.119
	l16.123-9.684c5.16-3.099,9.493-7.4,12.629-12.537l0,0C199.708,218.767,211.769,212,224.768,212h2.464
	c12.999,0,25.06,6.767,31.834,17.861l0,0C262.202,234.998,266.535,239.3,271.695,242.399z"/>
<g>
	<path style="fill:#FFB450;" d="M248.061,273.371c-0.688,0.197-1.382,0.291-2.064,0.291c-3.264,0-6.267-2.147-7.208-5.441
		L226,223.459l-12.788,44.761c-1.139,3.982-5.294,6.287-9.272,5.151c-3.982-1.138-6.289-5.289-5.151-9.272l14.23-49.808
		c1.674-5.856,6.891-9.791,12.981-9.791s11.308,3.935,12.98,9.791l14.231,49.809C254.35,268.082,252.043,272.233,248.061,273.371z"
		/>
	<path style="fill:#FFB450;" d="M421.695,242.399l16.123,9.684c16.193,9.725,26.099,27.231,26.099,46.119l0,0
		c0,29.712-24.086,53.798-53.798,53.798h-68.237c-29.712,0-53.798-24.086-53.798-53.798l0,0c0-18.889,9.906-36.394,26.099-46.119
		l16.123-9.684c5.16-3.099,9.493-7.4,12.629-12.537l0,0C349.708,218.767,361.769,212,374.768,212h2.464
		c12.999,0,25.06,6.767,31.834,17.861l0,0C412.202,234.998,416.535,239.3,421.695,242.399z"/>
</g>
<path style="fill:#FF9744;" d="M398.061,273.371c-0.688,0.197-1.382,0.291-2.064,0.291c-3.264,0-6.267-2.147-7.208-5.441
	L376,223.459l-12.788,44.761c-1.139,3.982-5.295,6.287-9.272,5.151c-3.982-1.138-6.289-5.289-5.151-9.272l14.23-49.808
	c1.674-5.856,6.891-9.791,12.981-9.791s11.308,3.935,12.98,9.791l14.231,49.809C404.35,268.082,402.043,272.233,398.061,273.371z"/>
<path style="fill:#D2B48C;" d="M497,322v90c0,11.046-8.954,20-20,20H125c-11.046,0-20-8.954-20-20v-90c0-5.523,4.477-10,10-10h372
	C492.523,312,497,316.477,497,322z"/>
<path style="fill:#E6C8A0;" d="M512,362v60c0,11.046-8.954,20-20,20H110c-11.046,0-20-8.954-20-20v-60c0-5.523,4.477-10,10-10h402
	C507.523,352,512,356.477,512,362z"/>
<path style="fill:#C5AB8C;" d="M512,362v60c0,11.046-8.954,20-20,20h-29c11.046,0,20-8.954,20-20v-60c0-5.523-4.477-10-10-10h-5v-30
	c0-5.523-4.477-10-10-10h29c5.523,0,10,4.477,10,10v30h5C507.523,352,512,356.477,512,362z"/>
<path style="fill:#DCDBDE;" d="M327.5,122c0,14.9-5.803,28.908-16.338,39.445l-1.718,1.717C301.742,170.864,297.5,181.106,297.5,192
	v10c0,4.142-3.357,7.5-7.5,7.5s-7.5-3.358-7.5-7.5v-10c0-14.9,5.803-28.908,16.338-39.445l1.718-1.717
	c7.702-7.702,11.944-17.944,11.944-28.837s-4.242-21.136-11.945-28.839l-15.857-15.858c-2.93-2.929-2.93-7.677-0.001-10.606
	c2.93-2.929,7.679-2.93,10.606,0l15.858,15.858C321.697,93.091,327.5,107.1,327.5,122z M350,104.5c-4.143,0-7.5,3.358-7.5,7.5v20
	c0,10.894-4.242,21.136-11.944,28.838l-1.718,1.717C318.303,173.091,312.5,187.1,312.5,202c0,4.142,3.357,7.5,7.5,7.5
	s7.5-3.358,7.5-7.5c0-10.894,4.242-21.136,11.944-28.838l1.718-1.717C351.697,160.908,357.5,146.9,357.5,132v-20
	C357.5,107.858,354.143,104.5,350,104.5z"/>
<path style="fill:#FF4B4B;" d="M200,429v3c0,44.183-35.817,80-80,80H80c-44.183,0-80-35.817-80-80v-3c0-5.523,4.477-10,10-10h180
	C195.523,419,200,423.477,200,429z"/>
<path style="fill:#C83741;" d="M200,429v3c0,44.183-35.817,80-80,80H86.5c44.183,0,80-35.817,80-80v-13H190
	C195.523,419,200,423.477,200,429z"/>
<g>
</g>
<g>
</g>
<g>
</g>
<g>
</g>
<g>
</g>
<g>
</g>
<g>
</g>
<g>
</g>
<g>
</g>
<g>
</g>
<g>
</g>
<g>
</g>
<g>
</g>
<g>
</g>
<g>
</g>
</svg>
