<?xml version="1.0" encoding="iso-8859-1"?>
<!-- Generator: Adobe Illustrator 19.0.0, SVG Export Plug-In . SVG Version: 6.00 Build 0)  -->
<svg version="1.1" id="Capa_1" xmlns="http://www.w3.org/2000/svg" xmlns:xlink="http://www.w3.org/1999/xlink" x="0px" y="0px"
	 viewBox="0 0 512 512" style="enable-background:new 0 0 512 512;" xml:space="preserve">
<path style="fill:#FFB450;" d="M160.796,31.305L244.3,200h-101L105.461,5.957C104.859,2.87,107.223,0,110.369,0l0,0
	C131.762,0,151.305,12.132,160.796,31.305z M401.631,0c-21.394,0-40.937,12.132-50.427,31.305L267.7,200h101L406.539,5.957
	C407.141,2.87,404.777,0,401.631,0z"/>
<path style="fill:#FF4B4B;" d="M346,400H166c-55.228,0-100-44.772-100-100V170h380v130C446,355.228,401.228,400,346,400z"/>
<path style="fill:#FF6969;" d="M300,400H166c-55.228,0-100-44.772-100-100V170h334v130C400,355.228,355.228,400,300,400z"/>
<path style="fill:#FF4B4B;" d="M341,135c0,46.944-38.056,85-85,85s-85-38.056-85-85s38.056-85,85-85S341,88.056,341,135z"/>
<path style="fill:#D24A4A;" d="M240.5,51.436C245.528,50.509,250.703,50,256,50c46.944,0,85,38.056,85,85
	c0,30.838-16.424,57.839-41,72.738v-32.73c6.377-11.922,10-25.539,10-40.007C310,93.353,280.039,58.725,240.5,51.436z
	 M321.544,499.667c7.016,0,13.443-3.989,16.496-10.306c2.537-5.25,3.961-11.138,3.961-17.36V322c0-22.091-17.909-40-40-40h-92
	c-22.091,0-40,17.909-40,40v150c0,6.222,1.424,12.111,3.961,17.36c3.053,6.317,9.48,10.306,16.496,10.306h131.086V499.667z"/>
<path style="fill:#FFCF65;" d="M95.683,259.877L79.304,440.041c-0.513,5.64-5.242,9.959-10.905,9.959s-10.393-4.319-10.905-9.959
	L41.115,259.877C39.656,243.833,52.289,230,68.399,230l0,0C84.509,230,97.141,243.833,95.683,259.877z M443.601,230L443.601,230
	c-16.11,0-28.742,13.833-27.284,29.877l16.379,180.164c0.513,5.64,5.242,9.959,10.905,9.959s10.393-4.319,10.906-9.959
	l16.378-180.164C472.344,243.833,459.711,230,443.601,230z"/>
<path style="fill:#69AFEB;" d="M451,80v150.718c0,32.74-26.542,59.282-59.282,59.282h-51.435C307.542,290,280,263.458,280,230.718
	c0,0,0.332-7.213,0.976-10.718c2.775-15.102,12.346-28.698,25.119-37.714L451,80z M205.905,182.286L61,80v150.718
	C61,263.458,87.542,290,120.282,290h51.435C204.458,290,231,263.458,231,230.718l0,0c0-3.673,0.644-7.094-0.016-10.64
	C228.184,205.028,218.641,191.276,205.905,182.286z"/>
<path style="fill:#FFE1B3;" d="M406,200c0,22.091-17.909,40-40,40s-40-17.909-40-40s17.909-40,40-40S406,177.909,406,200z M146,160
	c-22.091,0-40,17.909-40,40s17.909,40,40,40s40-17.909,40-40S168.091,160,146,160z"/>
<path style="fill:#504B5A;" d="M153.5,180v30c0,4.143-3.357,7.5-7.5,7.5s-7.5-3.357-7.5-7.5v-30c0-4.143,3.357-7.5,7.5-7.5
	S153.5,175.857,153.5,180z M366,172.5c-4.143,0-7.5,3.357-7.5,7.5v30c0,4.143,3.357,7.5,7.5,7.5s7.5-3.357,7.5-7.5v-30
	C373.5,175.857,370.143,172.5,366,172.5z"/>
<path style="fill:#FFCF65;" d="M352.2,322.972c6.957,6.957,8.493,17.668,3.772,26.3l-34.179,62.494c-2.101,3.842-7.619,3.842-9.72,0
	l-20.747-37.934c-2.101-3.842-7.619-3.842-9.72,0l-20.747,37.934c-2.101,3.842-7.619,3.842-9.72,0l-20.747-37.934
	c-2.101-3.842-7.619-3.842-9.72,0l-20.747,37.934c-2.101,3.842-7.619,3.842-9.72,0l-34.179-62.494
	c-4.721-8.632-3.185-19.343,3.772-26.3l31.349-31.35c2.163-2.164,5.671-2.164,7.834,0l22.633,22.633
	c2.163,2.163,5.671,2.163,7.834,0l22.633-22.633c2.163-2.164,5.671-2.164,7.834,0l22.633,22.633c2.163,2.163,5.671,2.163,7.834,0
	l22.633-22.633c2.163-2.164,5.671-2.164,7.834,0L352.2,322.972z M313.017,456.976l-22.633,22.633c-2.163,2.163-5.671,2.163-7.834,0
	l-22.633-22.633c-2.163-2.163-5.671-2.163-7.834,0l-22.633,22.633c-2.163,2.163-5.671,2.163-7.834,0l-22.633-22.633
	c-2.163-2.163-5.671-2.163-7.834,0l-20.737,20.736C173.186,497.097,189.849,512,210,512h92c20.151,0,36.814-14.903,39.587-34.288
	l-20.737-20.736C318.688,454.813,315.18,454.813,313.017,456.976z M315.452,143.787C294.423,153.684,281,174.834,281,198.076V220
	l135.548-63.787c21.03-9.896,34.452-31.047,34.452-54.289V80L315.452,143.787z M231,198.076c0-23.242-13.423-44.393-34.452-54.289
	L61,80v21.924c0,23.242,13.423,44.393,34.452,54.289L231,220V198.076z"/>
<path style="fill:#FFB450;" d="M312,330H200c-16.569,0-30-13.431-30-30l0,0c0-16.569,13.431-30,30-30h112c16.569,0,30,13.431,30,30
	l0,0C342,316.569,328.569,330,312,330z"/>
<path style="fill:#963737;" d="M230,325c0,13.807-11.193,25-25,25s-25-11.193-25-25s11.193-25,25-25S230,311.193,230,325z M307,300
	c-13.807,0-25,11.193-25,25s11.193,25,25,25s25-11.193,25-25S320.807,300,307,300z"/>
<g>
</g>
<g>
</g>
<g>
</g>
<g>
</g>
<g>
</g>
<g>
</g>
<g>
</g>
<g>
</g>
<g>
</g>
<g>
</g>
<g>
</g>
<g>
</g>
<g>
</g>
<g>
</g>
<g>
</g>
</svg>
