<?xml version="1.0" encoding="iso-8859-1"?>
<!-- Generator: Adobe Illustrator 19.0.0, SVG Export Plug-In . SVG Version: 6.00 Build 0)  -->
<svg version="1.1" id="Capa_1" xmlns="http://www.w3.org/2000/svg" xmlns:xlink="http://www.w3.org/1999/xlink" x="0px" y="0px"
	 viewBox="0 0 512 512" style="enable-background:new 0 0 512 512;" xml:space="preserve">
<path style="fill:#FFCF65;" d="M71.303,47.304L66.607,52l4.696,4.696c2.929,2.93,2.929,7.678,0,10.607
	C69.839,68.768,67.919,69.5,66,69.5s-3.839-0.732-5.303-2.196L56,62.607l-4.697,4.697C49.839,68.768,47.919,69.5,46,69.5
	s-3.839-0.732-5.303-2.196c-2.929-2.93-2.929-7.678,0-10.607L45.393,52l-4.696-4.696c-2.929-2.93-2.929-7.678,0-10.607
	c2.929-2.928,7.678-2.928,10.606,0L56,41.393l4.697-4.697c2.929-2.928,7.678-2.928,10.606,0
	C74.232,39.626,74.232,44.374,71.303,47.304z M466.607,52l4.696-4.696c2.929-2.93,2.929-7.678,0-10.607
	c-2.929-2.928-7.678-2.928-10.606,0L456,41.393l-4.697-4.697c-2.929-2.928-7.678-2.928-10.606,0c-2.929,2.93-2.929,7.678,0,10.607
	L445.393,52l-4.696,4.696c-2.929,2.93-2.929,7.678,0,10.607c1.464,1.464,3.384,2.196,5.303,2.196s3.839-0.732,5.303-2.196
	L456,62.607l4.697,4.697c1.464,1.464,3.384,2.196,5.303,2.196s3.839-0.732,5.303-2.196c2.929-2.93,2.929-7.678,0-10.607L466.607,52z
	"/>
<path style="fill:#FFB450;" d="M288.989,42.304c-0.269,0.918-0.269,1.893,0,2.811l10.513,35.892
	c1.111,3.793-2.411,7.315-6.204,6.204l-35.892-10.513c-0.918-0.269-1.893-0.269-2.811,0l-35.892,10.513
	c-3.793,1.111-7.315-2.411-6.204-6.204l10.513-35.892c0.269-0.917,0.269-1.893,0-2.811L212.498,6.412
	c-1.111-3.793,2.411-7.315,6.204-6.204l35.892,10.513c0.918,0.269,1.893,0.269,2.811,0l35.892-10.513
	c3.793-1.111,7.315,2.411,6.204,6.204L288.989,42.304z M163.817,61.453c0.943-3.218-2.045-6.206-5.264-5.264l-21.361,6.256
	c-0.779,0.228-1.606,0.228-2.385,0l-21.361-6.256c-3.218-0.943-6.206,2.045-5.264,5.264l6.257,21.361
	c0.228,0.779,0.228,1.606,0,2.385l-6.257,21.361c-0.943,3.218,2.045,6.206,5.264,5.264l21.361-6.257
	c0.779-0.228,1.606-0.228,2.385,0l21.361,6.257c3.218,0.943,6.206-2.045,5.264-5.264l-6.257-21.361
	c-0.228-0.779-0.228-1.606,0-2.385L163.817,61.453z M397.56,85.199c-0.228-0.779-0.228-1.606,0-2.385l6.257-21.361
	c0.943-3.218-2.045-6.206-5.264-5.264l-21.361,6.256c-0.779,0.228-1.606,0.228-2.385,0l-21.361-6.256
	c-3.218-0.943-6.206,2.045-5.264,5.264l6.257,21.361c0.228,0.779,0.228,1.606,0,2.385l-6.257,21.361
	c-0.943,3.218,2.045,6.206,5.264,5.264l21.361-6.257c0.779-0.228,1.606-0.228,2.385,0l21.361,6.257
	c3.218,0.943,6.206-2.045,5.264-5.264L397.56,85.199z"/>
<path style="fill:#C83741;" d="M263.5,52v164c0,4.143-3.358,7.5-7.5,7.5s-7.5-3.357-7.5-7.5V52c0-4.143,3.358-7.5,7.5-7.5
	S263.5,47.857,263.5,52z"/>
<path style="fill:#963737;" d="M276,250h-40c-2.761,0-5-2.239-5,0v-99c0-7.761,2.239-10,5-10h40c2.761,0,5,2.239,5,10v99
	C281,247.761,278.761,250,276,250z"/>
<path style="fill:#D24A4A;" d="M351,196v296c0,11.046-8.954,20-20,20H181c-11.046,0-20-8.954-20-20V196c0-11.046,8.954-20,20-20h150
	C342.046,176,351,184.954,351,196z"/>
<path style="fill:#FF4B4B;" d="M310,512H181c-11.046,0-20-8.954-20-20V196c0-11.046,8.954-20,20-20h129c11.046,0,20,8.954,20,20v296
	C330,503.046,321.046,512,310,512z"/>
<path style="fill:#D24A4A;" d="M248.929,392.929l-53.858-53.858c-3.905-3.905-3.905-10.237,0-14.142l53.858-53.858
	c3.905-3.905,10.237-3.905,14.142,0l53.858,53.858c3.905,3.905,3.905,10.237,0,14.142l-53.858,53.858
	C259.166,396.834,252.834,396.834,248.929,392.929z"/>
<path style="fill:#FFCF65;" d="M161,464.5h190v15H161V464.5z M256,359.5c-15.164,0-27.5-12.337-27.5-27.5s12.336-27.5,27.5-27.5
	s27.5,12.337,27.5,27.5S271.164,359.5,256,359.5z M256,344.5c6.893,0,12.5-5.607,12.5-12.5s-5.607-12.5-12.5-12.5
	s-12.5,5.607-12.5,12.5S249.107,344.5,256,344.5z M161,208.5v15h190v-15H161z M243.625,396.232l-51.858-51.857
	c-6.823-6.824-6.823-17.926,0-24.75l51.858-51.857c6.824-6.823,17.926-6.821,24.749,0l51.858,51.857
	c6.823,6.824,6.823,17.926,0,24.75l-51.858,51.857c-3.411,3.411-7.894,5.117-12.374,5.117
	C251.518,401.35,247.038,399.644,243.625,396.232z M202.374,333.768l51.858,51.857c0.637,0.638,1.381,0.732,1.768,0.732
	c0.386,0,1.13-0.095,1.768-0.732l51.858-51.857c0.975-0.975,0.975-2.561,0-3.535l-51.858-51.857
	c-0.637-0.638-1.381-0.732-1.768-0.732s-1.131,0.095-1.768,0.732l-51.858,51.857C201.399,331.207,201.399,332.793,202.374,333.768z"
	/>
<g>
</g>
<g>
</g>
<g>
</g>
<g>
</g>
<g>
</g>
<g>
</g>
<g>
</g>
<g>
</g>
<g>
</g>
<g>
</g>
<g>
</g>
<g>
</g>
<g>
</g>
<g>
</g>
<g>
</g>
</svg>
