<?xml version="1.0" encoding="iso-8859-1"?>
<!-- Generator: Adobe Illustrator 19.0.0, SVG Export Plug-In . SVG Version: 6.00 Build 0)  -->
<svg version="1.1" id="Capa_1" xmlns="http://www.w3.org/2000/svg" xmlns:xlink="http://www.w3.org/1999/xlink" x="0px" y="0px"
	 viewBox="0 0 512.001 512.001" style="enable-background:new 0 0 512.001 512.001;" xml:space="preserve">
<g>
	<path style="fill:#D5945E;" d="M241,480.001v-231h30v231H241z"/>
	<path style="fill:#D5945E;" d="M337.119,142.427c-1.425-1.719-3.542-2.714-5.774-2.714h-150.69c-2.232,0-4.35,0.995-5.774,2.714
		s-2.01,3.983-1.596,6.177c4.79,25.376,13.06,49.926,24.581,72.97c11.081,22.16,33.357,35.927,58.134,35.927
		s47.054-13.768,58.134-35.929c11.521-23.042,19.791-47.593,24.581-72.969C339.129,146.41,338.544,144.146,337.119,142.427z
		 M300.718,214.864c-8.653,17.306-25.369,27.637-44.718,27.637c-19.348,0-36.064-10.332-44.718-27.638
		c-9.549-19.098-16.738-39.294-21.421-60.15h132.277C317.456,175.569,310.267,195.766,300.718,214.864z"/>
</g>
<path style="fill:#FFB450;" d="M512,163.751L512,163.751c0,3.165-2.251,5.891-5.363,6.469
	C435.734,183.382,349.29,191.111,256,191.111s-179.734-7.729-250.637-20.89C2.251,169.643,0,166.917,0,163.751l0,0
	c0-2.645,1.583-5.033,4.019-6.063L256,51.111l251.981,106.578C510.417,158.719,512,161.107,512,163.751z"/>
<path style="fill:#FF9744;" d="M229.955,62.127L256,51.111l251.981,106.578c2.436,1.03,4.019,3.418,4.019,6.063
	c0,3.165-2.251,5.891-5.363,6.469c-4.884,0.906-9.849,1.785-14.877,2.639L229.955,62.127z"/>
<path style="fill:#FFCF65;" d="M127.421,186.023L256,51.749l128.579,134.274c-40.646,3.305-83.821,5.088-128.579,5.088
	S168.067,189.327,127.421,186.023z"/>
<path style="fill:#D5945E;" d="M402.188,204.416c-1.454,1.392-3.321,2.083-5.187,2.083c-1.974,0-3.945-0.774-5.418-2.313
	L263.5,70.426v131.323c0,4.143-3.357,7.5-7.5,7.5s-7.5-3.357-7.5-7.5V70.378L121.256,202.793c-2.87,2.985-7.618,3.082-10.604,0.212
	c-2.987-2.87-3.082-7.618-0.212-10.604L250.592,46.553c0.016-0.017,0.034-0.031,0.05-0.047c0.106-0.109,0.219-0.21,0.332-0.312
	c0.07-0.063,0.138-0.13,0.21-0.191c0.13-0.109,0.268-0.21,0.405-0.31c0.06-0.044,0.117-0.091,0.178-0.133
	c0.182-0.125,0.371-0.24,0.564-0.348c0.02-0.011,0.039-0.024,0.058-0.035c1.071-0.589,2.301-0.926,3.609-0.926h0.007
	c0.086,0,0.17,0.01,0.255,0.013c1.211,0.042,2.351,0.364,3.35,0.915c0.04,0.022,0.078,0.049,0.118,0.072
	c0.172,0.099,0.342,0.2,0.504,0.312c0.071,0.049,0.138,0.104,0.208,0.156c0.127,0.094,0.254,0.187,0.375,0.288
	c0.078,0.066,0.152,0.138,0.227,0.207c0.107,0.097,0.214,0.194,0.315,0.297c0.018,0.019,0.039,0.035,0.057,0.054l141,147.25
	C405.282,196.804,405.179,201.552,402.188,204.416z"/>
<path style="fill:#C37A4F;" d="M278.951,422.952c0,6.527-2.729,12.414-7.104,16.593l5.469,55.788
	c0.875,8.93-6.141,16.668-15.114,16.668h-12.405c-8.973,0-15.99-7.738-15.114-16.668l5.469-55.788
	c-4.374-4.179-7.104-10.065-7.104-16.593c0.001-12.676,10.277-22.951,22.952-22.951
	C268.675,400.001,278.951,410.276,278.951,422.952z M277.78,41.504h-0.518c-1.003-8.436-3.455-16.659-7.274-24.297l-6.196-12.391
	c-3.211-6.421-12.374-6.421-15.584,0l-6.196,12.391c-3.819,7.638-6.271,15.86-7.274,24.297h-0.518
	c-7.217,0-13.068,5.851-13.068,13.068s5.851,13.068,13.068,13.068h43.56c7.217,0,13.068-5.851,13.068-13.068
	S284.997,41.504,277.78,41.504z"/>
<g>
</g>
<g>
</g>
<g>
</g>
<g>
</g>
<g>
</g>
<g>
</g>
<g>
</g>
<g>
</g>
<g>
</g>
<g>
</g>
<g>
</g>
<g>
</g>
<g>
</g>
<g>
</g>
<g>
</g>
</svg>
