<?xml version="1.0" encoding="iso-8859-1"?>
<!-- Generator: Adobe Illustrator 19.0.0, SVG Export Plug-In . SVG Version: 6.00 Build 0)  -->
<svg version="1.1" id="Capa_1" xmlns="http://www.w3.org/2000/svg" xmlns:xlink="http://www.w3.org/1999/xlink" x="0px" y="0px"
	 viewBox="0 0 512 512" style="enable-background:new 0 0 512 512;" xml:space="preserve">
<path style="fill:#AA4141;" d="M512,256c0,141.385-114.615,256-256,256S0,397.385,0,256S114.615,0,256,0S512,114.615,512,256z"/>
<path style="fill:#963737;" d="M512,256c0,141.385-114.615,256-256,256c-5.488,0-10.931-0.193-16.333-0.534
	C373.438,503.041,479.333,391.897,479.333,256S373.438,8.959,239.666,0.533C245.069,0.193,250.512,0,256,0
	C397.385,0,512,114.615,512,256z"/>
<path style="fill:#FFEBBE;" d="M481,256c0,124.264-100.736,225-225,225S31,380.264,31,256S131.736,31,256,31S481,131.736,481,256z"
	/>
<path style="fill:#FFCF65;" d="M431,256c0,96.65-78.35,175-175,175S81,352.65,81,256S159.35,81,256,81S431,159.35,431,256z"/>
<path style="fill:#FFB450;" d="M431,256c0,96.649-78.35,175-175,175c-4.827,0-9.605-0.204-14.333-0.587
	c89.944-7.292,160.667-82.59,160.667-174.413S331.612,88.88,241.667,81.587C246.395,81.204,251.173,81,256,81
	C352.65,81,431,159.35,431,256z"/>
<path style="fill:#FF9744;" d="M481,256c0,2.038-0.031,4.069-0.084,6.095c-0.759,0.258-1.569,0.405-2.416,0.405H274.107
	l144.527,144.527c0.773,0.773,1.336,1.675,1.701,2.635c-3.11,3.325-6.314,6.561-9.619,9.692c-0.98-0.364-1.901-0.933-2.689-1.72
	L263.5,273.107V477.5c0,1.223-0.299,2.373-0.818,3.393c-2.22,0.065-4.446,0.107-6.682,0.107s-4.462-0.042-6.682-0.107
	c-0.519-1.02-0.818-2.17-0.818-3.393V273.107L103.972,417.635c-0.788,0.787-1.709,1.355-2.689,1.72
	c-3.305-3.131-6.509-6.367-9.619-9.692c0.365-0.96,0.928-1.862,1.701-2.635L237.893,262.5H33.5c-0.846,0-1.657-0.146-2.416-0.405
	C31.031,260.07,31,258.038,31,256c0-2.721,0.066-5.426,0.161-8.123c0.737-0.242,1.521-0.377,2.339-0.377h204.393L93.366,102.973
	c-0.411-0.411-0.757-0.86-1.053-1.332c3.345-3.546,6.806-6.979,10.373-10.301c0.456,0.29,0.889,0.628,1.286,1.025L248.5,236.893
	V32.5c0-0.468,0.048-0.923,0.13-1.367C251.079,31.054,253.533,31,256,31c2.467,0,4.922,0.054,7.37,0.133
	c0.082,0.444,0.13,0.899,0.13,1.367v204.393L408.028,92.365c0.398-0.397,0.831-0.736,1.286-1.025
	c3.567,3.322,7.028,6.755,10.373,10.301c-0.296,0.472-0.642,0.921-1.053,1.332L274.107,247.5H478.5c0.817,0,1.602,0.135,2.339,0.377
	C480.934,250.574,481,253.279,481,256z"/>
<path style="fill:#FFEBBE;" d="M331,256c0,41.421-33.579,75-75,75s-75-33.579-75-75s33.579-75,75-75S331,214.579,331,256z"/>
<path style="fill:#FF4B4B;" d="M275.637,275.637l-90.136,66.303c-4.396,3.234-10.495,2.772-14.354-1.087
	c-3.859-3.859-4.321-9.958-1.087-14.354l66.303-90.136l90.136-66.303c4.396-3.234,10.495-2.772,14.354,1.087
	c3.859,3.859,4.321,9.958,1.087,14.354L275.637,275.637z"/>
<path style="fill:#A06E5F;" d="M121.753,207.175l8.135-18.271c1.685-3.784,6.117-5.486,9.902-3.801
	c3.784,1.685,5.485,6.118,3.801,9.902l-8.135,18.271c-1.243,2.792-3.984,4.451-6.856,4.451c-1.02,0-2.055-0.209-3.046-0.65
	C121.77,215.393,120.068,210.959,121.753,207.175z M133.385,292.357c-1.485-3.867-5.823-5.797-9.69-4.314
	c-3.867,1.484-5.798,5.823-4.314,9.689l7.167,18.671c1.146,2.983,3.988,4.814,7.003,4.814c0.894,0,1.803-0.161,2.687-0.5
	c3.867-1.484,5.798-5.823,4.314-9.689L133.385,292.357z M196.159,142.078c0.936,0,1.887-0.176,2.807-0.548l18.544-7.492
	c3.84-1.552,5.696-5.923,4.145-9.764c-1.553-3.841-5.926-5.698-9.764-4.145l-18.544,7.492c-3.84,1.552-5.696,5.923-4.145,9.764
	C190.382,140.306,193.192,142.078,196.159,142.078z M288.798,153.139l18.411,7.814c0.956,0.405,1.949,0.598,2.927,0.598
	c2.919,0,5.695-1.715,6.907-4.571c1.619-3.813-0.161-8.216-3.973-9.835l-18.411-7.814c-3.81-1.613-8.215,0.161-9.834,3.974
	C283.207,147.117,284.986,151.52,288.798,153.139z M378.615,219.644c1.145,2.983,3.988,4.814,7.003,4.814
	c0.894,0,1.802-0.161,2.687-0.5c3.867-1.484,5.798-5.822,4.314-9.689l-7.167-18.672c-1.484-3.867-5.822-5.797-9.69-4.314
	c-3.867,1.484-5.798,5.822-4.314,9.689L378.615,219.644z M158.061,193.238c-3.786-1.686-8.218,0.017-9.902,3.801l-8.135,18.271
	c-1.685,3.784,0.017,8.218,3.801,9.902c0.992,0.441,2.027,0.65,3.046,0.65c2.872,0,5.613-1.659,6.856-4.451l8.135-18.271
	C163.546,199.357,161.844,194.923,158.061,193.238z M359.943,226.811c1.145,2.983,3.988,4.814,7.003,4.814
	c0.894,0,1.802-0.161,2.686-0.5c3.867-1.484,5.799-5.822,4.314-9.689l-7.167-18.671c-1.484-3.867-5.823-5.797-9.689-4.314
	c-3.867,1.484-5.799,5.822-4.314,9.689L359.943,226.811z M152.057,285.189c-1.484-3.867-5.823-5.797-9.69-4.314
	c-3.867,1.484-5.798,5.822-4.314,9.689l7.167,18.672c1.145,2.983,3.988,4.814,7.003,4.814c0.894,0,1.802-0.161,2.687-0.5
	c3.867-1.484,5.798-5.822,4.314-9.689L152.057,285.189z M368.175,286.787c-3.784-1.685-8.218,0.019-9.902,3.801l-8.135,18.271
	c-1.685,3.784,0.017,8.218,3.801,9.902c0.991,0.441,2.027,0.65,3.046,0.65c2.872,0,5.613-1.659,6.856-4.451l8.135-18.271
	C373.661,292.905,371.96,288.472,368.175,286.787z M313.034,370.47l-18.543,7.492c-3.84,1.552-5.696,5.923-4.145,9.764
	c1.18,2.92,3.99,4.692,6.957,4.692c0.936,0,1.887-0.176,2.807-0.548l18.543-7.492c3.84-1.552,5.696-5.923,4.145-9.764
	C321.245,370.774,316.873,368.917,313.034,370.47z M215.387,377.271l-18.411-7.814c-3.811-1.615-8.215,0.161-9.834,3.974
	s0.161,8.216,3.973,9.835l18.411,7.814c0.956,0.405,1.949,0.598,2.927,0.598c2.919,0,5.695-1.715,6.907-4.571
	C220.979,383.292,219.2,378.89,215.387,377.271z M386.446,294.922c-3.786-1.685-8.218,0.019-9.902,3.801l-8.135,18.271
	c-1.685,3.784,0.017,8.218,3.801,9.902c0.991,0.441,2.027,0.65,3.046,0.65c2.872,0,5.613-1.659,6.856-4.451l8.135-18.271
	C391.932,301.04,390.231,296.607,386.446,294.922z M320.884,128.735l-18.411-7.814c-3.811-1.615-8.215,0.16-9.834,3.974
	c-1.619,3.814,0.161,8.216,3.973,9.835l18.411,7.814c0.956,0.405,1.949,0.598,2.927,0.598c2.919,0,5.695-1.715,6.907-4.571
	C326.476,134.756,324.697,130.354,320.884,128.735z M223.202,358.862l-18.41-7.815c-3.813-1.618-8.215,0.159-9.834,3.973
	c-1.619,3.813,0.16,8.216,3.973,9.834l18.41,7.815c0.957,0.406,1.95,0.599,2.927,0.599c2.919,0,5.694-1.715,6.907-4.571
	C228.794,364.884,227.015,360.481,223.202,358.862z M219.382,138.674l-18.543,7.492c-3.84,1.552-5.696,5.923-4.145,9.764
	c1.18,2.92,3.99,4.692,6.957,4.692c0.936,0,1.887-0.176,2.807-0.548l18.543-7.492c3.84-1.552,5.696-5.923,4.145-9.764
	C227.593,138.977,223.221,137.121,219.382,138.674z M292.618,373.326l18.543-7.492c3.84-1.552,5.696-5.923,4.145-9.764
	c-1.552-3.842-5.926-5.697-9.764-4.145l-18.543,7.492c-3.84,1.552-5.696,5.923-4.145,9.764c1.18,2.92,3.99,4.692,6.957,4.692
	C290.746,373.874,291.697,373.698,292.618,373.326z"/>
<g>
</g>
<g>
</g>
<g>
</g>
<g>
</g>
<g>
</g>
<g>
</g>
<g>
</g>
<g>
</g>
<g>
</g>
<g>
</g>
<g>
</g>
<g>
</g>
<g>
</g>
<g>
</g>
<g>
</g>
</svg>
