<?xml version="1.0" encoding="iso-8859-1"?>
<!-- Generator: Adobe Illustrator 19.0.0, SVG Export Plug-In . SVG Version: 6.00 Build 0)  -->
<svg version="1.1" id="Capa_1" xmlns="http://www.w3.org/2000/svg" xmlns:xlink="http://www.w3.org/1999/xlink" x="0px" y="0px"
	 viewBox="0 0 512 512" style="enable-background:new 0 0 512 512;" xml:space="preserve">
<path style="fill:#FFCF65;" d="M256,0C114.615,0,0,114.615,0,256s114.615,256,256,256s256-114.615,256-256S397.385,0,256,0z
	 M352,312c0,22.091-17.909,40-40,40H200c-22.091,0-40-17.909-40-40V200c0-22.091,17.909-40,40-40h112c22.091,0,40,17.909,40,40V312z
	"/>
<path style="fill:#FFB450;" d="M512,256c0,141.385-114.615,256-256,256c-4.867,0-9.7-0.149-14.5-0.417
	C376.137,504.063,483,392.517,483,256S376.137,7.937,241.5,0.417C246.3,0.149,251.133,0,256,0C397.385,0,512,114.615,512,256z"/>
<path style="fill:#E6AF78;" d="M256,40C136.707,40,40,136.706,40,256s96.707,216,216,216s216-96.706,216-216S375.293,40,256,40z
	 M336,296c0,22.091-17.909,40-40,40h-80c-22.091,0-40-17.909-40-40v-80c0-22.091,17.909-40,40-40h80c22.091,0,40,17.909,40,40V296z"
	/>
<path style="fill:#D5945E;" d="M269,471.599c-4.302,0.255-8.634,0.401-13,0.401c-119.293,0-216-96.706-216-216S136.707,40,256,40
	c4.366,0,8.698,0.145,13,0.401C155.761,47.125,66,141.073,66,256S155.761,464.875,269,471.599z"/>
<path style="fill:#FFCF65;" d="M296,176h-80c-22.091,0-40,17.909-40,40v80c0,22.091,17.909,40,40,40h80c22.091,0,40-17.909,40-40
	v-80C336,193.909,318.091,176,296,176z M296,286c0,5.523-4.477,10-10,10h-60c-5.523,0-10-4.477-10-10v-60c0-5.523,4.477-10,10-10h60
	c5.523,0,10,4.477,10,10V286z"/>
<path style="fill:#C37A4F;" d="M277,75.5h-42c-6.893,0-12.5,5.607-12.5,12.5v42c0,6.893,5.607,12.5,12.5,12.5h42
	c6.893,0,12.5-5.607,12.5-12.5V88C289.5,81.107,283.893,75.5,277,75.5z M274.5,127.5h-37v-11h37V127.5z M274.5,101.5h-37v-11h37
	V101.5z M277,369.5h-42c-6.893,0-12.5,5.607-12.5,12.5v42c0,6.893,5.607,12.5,12.5,12.5h42c6.893,0,12.5-5.607,12.5-12.5v-42
	C289.5,375.107,283.893,369.5,277,369.5z M274.5,421.5h-37v-11h37V421.5z M274.5,395.5h-37v-11h37V395.5z M130,222.5H88
	c-6.893,0-12.5,5.607-12.5,12.5v42c0,6.893,5.607,12.5,12.5,12.5h42c6.893,0,12.5-5.607,12.5-12.5v-42
	C142.5,228.107,136.893,222.5,130,222.5z M101.5,274.5h-11v-37h11V274.5z M127.5,274.5h-11v-37h11V274.5z M424,222.5h-42
	c-6.893,0-12.5,5.607-12.5,12.5v42c0,6.893,5.607,12.5,12.5,12.5h42c6.893,0,12.5-5.607,12.5-12.5v-42
	C436.5,228.107,430.893,222.5,424,222.5z M395.5,274.5h-11v-37h11V274.5z M421.5,274.5h-11v-37h11V274.5z"/>
<g>
</g>
<g>
</g>
<g>
</g>
<g>
</g>
<g>
</g>
<g>
</g>
<g>
</g>
<g>
</g>
<g>
</g>
<g>
</g>
<g>
</g>
<g>
</g>
<g>
</g>
<g>
</g>
<g>
</g>
</svg>
