<?xml version="1.0" encoding="iso-8859-1"?>
<!-- Generator: Adobe Illustrator 19.0.0, SVG Export Plug-In . SVG Version: 6.00 Build 0)  -->
<svg version="1.1" id="Capa_1" xmlns="http://www.w3.org/2000/svg" xmlns:xlink="http://www.w3.org/1999/xlink" x="0px" y="0px"
	 viewBox="0 0 512 512" style="enable-background:new 0 0 512 512;" xml:space="preserve">
<g>
	<path style="fill:#FF4B4B;" d="M320.282,118.005l-23.364-22.929c-6.07-5.957-14.271-8.576-22.218-7.863l10.371-19.232
		c9.092-16.861,7.558-39.764-3.648-54.458C274.774,4.802,265.745,0,255.999,0s-18.774,4.802-25.424,13.521
		c-11.206,14.694-12.74,37.598-3.648,54.459l10.372,19.232c-7.947-0.713-16.148,1.907-22.218,7.863l-23.365,22.929
		c-5.299,5.2-8.217,12.123-8.217,19.495s2.918,14.295,8.217,19.495l23.365,22.929c5.421,5.32,12.543,7.98,19.664,7.98
		c4.754,0,9.506-1.192,13.755-3.564V397.5c0,4.142,3.357,7.5,7.5,7.5s7.5-3.358,7.5-7.5V184.341c4.249,2.371,9,3.564,13.755,3.564
		c7.121,0,14.243-2.66,19.664-7.98l23.364-22.929c5.299-5.2,8.217-12.123,8.217-19.495S325.581,123.205,320.282,118.005z
		 M242.503,22.617C246.25,17.705,251.042,15,255.999,15s9.75,2.705,13.496,7.617c7.68,10.07,8.7,26.511,2.373,38.243l-15.869,29.428
		L240.13,60.861C233.803,49.128,234.824,32.688,242.503,22.617z M243.903,169.218c-5.051,4.955-13.266,4.955-18.316,0
		l-23.365-22.929c-2.4-2.355-3.723-5.477-3.723-8.789s1.322-6.434,3.723-8.789l23.365-22.929c5.051-4.955,13.268-4.956,18.316,0
		l1.389,1.363l-11.067,10.86c-5.299,5.2-8.216,12.123-8.216,19.495s2.917,14.295,8.216,19.495l11.067,10.86L243.903,169.218z
		 M255.999,157.347l-11.268-11.058c-2.4-2.355-3.722-5.477-3.722-8.789s1.321-6.434,3.722-8.789l11.268-11.058l11.268,11.058
		c2.4,2.355,3.723,5.477,3.723,8.789s-1.322,6.434-3.723,8.789L255.999,157.347z M309.776,146.289l-23.364,22.929
		c-5.051,4.955-13.266,4.955-18.316,0l-1.389-1.363l11.067-10.86c5.299-5.2,8.217-12.123,8.217-19.495s-2.918-14.295-8.217-19.495
		l-11.067-10.86l1.389-1.363c5.05-4.955,13.267-4.956,18.316,0l23.364,22.929c2.4,2.355,3.723,5.477,3.723,8.789
		S312.177,143.934,309.776,146.289z"/>
	<path style="fill:#FF4B4B;" d="M255.999,280L255.999,280c9.695,0,17.801,7.232,18.721,16.702l19.494,200.474
		c0.264,2.714-1.145,5.35-3.613,6.6c-10.368,5.252-22.129,8.224-34.602,8.224c-12.472,0-24.234-2.972-34.602-8.224
		c-2.468-1.25-3.877-3.886-3.613-6.6l19.494-200.474C238.199,287.232,246.305,280,255.999,280z"/>
</g>
<path style="fill:#963737;" d="M263.499,370v141.632c-2.467,0.239-4.968,0.368-7.5,0.368c-2.532,0-5.032-0.129-7.5-0.368V370
	c0-4.142,3.357-7.5,7.5-7.5S263.499,365.858,263.499,370z"/>
<path style="fill:#FFCF65;" d="M255.999,300c-22.511,0-40.76-17.909-40.76-40s18.249-40,40.76-40s40.761,17.909,40.761,40
	S278.511,300,255.999,300z"/>
<path style="fill:#FFB450;" d="M296.759,260c0,22.091-18.249,40-40.76,40c-6.329,0-12.322-1.416-17.666-3.942
	c13.664-6.459,23.094-20.178,23.094-36.058s-9.43-29.599-23.094-36.058c5.344-2.526,11.337-3.942,17.666-3.942
	C278.51,220,296.759,237.909,296.759,260z"/>
<path style="fill:#C83741;" d="M255.999,240.747c-11.466,0-20.761-9.121-20.761-20.373S244.534,200,255.999,200
	c11.466,0,20.761,9.121,20.761,20.373S267.465,240.747,255.999,240.747z"/>
<g>
</g>
<g>
</g>
<g>
</g>
<g>
</g>
<g>
</g>
<g>
</g>
<g>
</g>
<g>
</g>
<g>
</g>
<g>
</g>
<g>
</g>
<g>
</g>
<g>
</g>
<g>
</g>
<g>
</g>
</svg>
