<?xml version="1.0" encoding="iso-8859-1"?>
<!-- Generator: Adobe Illustrator 19.0.0, SVG Export Plug-In . SVG Version: 6.00 Build 0)  -->
<svg version="1.1" id="Capa_1" xmlns="http://www.w3.org/2000/svg" xmlns:xlink="http://www.w3.org/1999/xlink" x="0px" y="0px"
	 viewBox="0 0 512 512" style="enable-background:new 0 0 512 512;" xml:space="preserve">
<path style="fill:#B86342;" d="M205.647,10v470c0,5.523-4.477,10-10,10h-10c-5.523,0-10-4.477-10-10V10c0-5.523,4.477-10,10-10h10
	C201.17,0,205.647,4.477,205.647,10z"/>
<path style="fill:#8C4032;" d="M266.647,455v20c0,2.761-2.239,5-5,5H75c-2.761,0-5-2.239-5-5v-20c0-2.761,2.239-5,5-5h186.647
	C264.408,450,266.647,452.239,266.647,455z"/>
<path style="fill:#7DC86E;" d="M486,170H26c-11.046,0-20-8.954-20-20V50c0-11.046,8.954-20,20-20h460c11.046,0,20,8.954,20,20v100
	C506,161.046,497.046,170,486,170z"/>
<path style="fill:#7DB764;" d="M506,50v100c0,11.046-8.954,20-20,20h-24.333c11.046,0,20-8.954,20-20V50c0-11.046-8.954-20-20-20
	H486C497.046,30,506,38.954,506,50z"/>
<path style="fill:#FFEBBE;" d="M176.921,70.526v58.947c0,4.142-3.357,7.5-7.5,7.5s-7.5-3.358-7.5-7.5V107.5h-29.21v21.974
	c0,4.142-3.357,7.5-7.5,7.5s-7.5-3.358-7.5-7.5V70.526c0-4.142,3.357-7.5,7.5-7.5c4.143,0,7.5,3.358,7.5,7.5V92.5h29.21V70.526
	c0-4.142,3.357-7.5,7.5-7.5S176.921,66.384,176.921,70.526z M222.711,70.526c0-4.142-3.357-7.5-7.5-7.5h-14.737
	c-4.143,0-7.5,3.358-7.5,7.5c0,4.098,3.287,7.422,7.368,7.493v43.961c-4.081,0.071-7.368,3.396-7.368,7.493
	c0,4.142,3.357,7.5,7.5,7.5h14.737c4.143,0,7.5-3.358,7.5-7.5c0-4.098-3.288-7.423-7.369-7.493V78.02
	C219.423,77.949,222.711,74.624,222.711,70.526z M65.737,78.026h21.975c0.07,4.082,3.401,7.368,7.499,7.368
	c4.143,0,7.5-3.358,7.5-7.5c0-8.198-6.67-14.868-14.869-14.868H65.737c-12.262,0-22.237,9.976-22.237,22.237v29.474
	c0,12.261,9.976,22.237,22.237,22.237h22.104c8.199,0,14.869-6.67,14.869-14.868c0-4.142-3.357-7.5-7.5-7.5
	c-4.098,0-7.429,3.287-7.499,7.368H65.737c-3.99,0-7.237-3.247-7.237-7.237V85.263C58.5,81.273,61.747,78.026,65.737,78.026z
	 M372.711,92.631v36.842c0,4.142-3.357,7.5-7.5,7.5s-7.5-3.358-7.5-7.5V107.5H328.5v21.974c0,4.142-3.357,7.5-7.5,7.5
	s-7.5-3.358-7.5-7.5V92.631c0-16.324,13.281-29.605,29.605-29.605S372.711,76.307,372.711,92.631z M357.704,92.5
	c-0.072-7.992-6.59-14.474-14.599-14.474s-14.527,6.481-14.599,14.474H357.704z M466.821,95.271l-24.063-29.615
	c-2.611-3.214-7.335-3.705-10.551-1.091c-3.215,2.612-3.703,7.335-1.092,10.55L445.243,92.5h-48.41c-4.143,0-7.5,3.358-7.5,7.5
	s3.357,7.5,7.5,7.5h48.41l-14.127,17.386c-2.611,3.215-2.123,7.938,1.092,10.55c1.391,1.13,3.063,1.679,4.725,1.679
	c2.181,0,4.344-0.946,5.826-2.771l24.063-29.615C469.06,101.974,469.06,98.026,466.821,95.271z M289.421,63.026
	c-4.143,0-7.5,3.358-7.5,7.5v36.447l-30.71-40.947c-1.936-2.583-5.307-3.635-8.372-2.615c-3.063,1.021-5.128,3.887-5.128,7.115
	v58.947c0,4.142,3.357,7.5,7.5,7.5s7.5-3.358,7.5-7.5V93.026l30.71,40.947c1.443,1.925,3.685,3,6.001,3
	c0.791,0,1.591-0.125,2.371-0.385c3.063-1.021,5.128-3.887,5.128-7.115V70.526C296.921,66.384,293.563,63.026,289.421,63.026z"/>
<path style="fill:#FF4B4B;" d="M491,330v142c0,22.091-17.909,40-40,40H202c-22.091,0-40-17.909-40-40V330c0-22.091,17.909-40,40-40
	h249C473.091,290,491,307.909,491,330z"/>
<path style="fill:#D24A4A;" d="M491,330v142c0,22.091-17.909,40-40,40h-27.333c22.091,0,40-17.909,40-40V330
	c0-22.091-17.909-40-40-40H451C473.091,290,491,307.909,491,330z"/>
<g>
	<path style="fill:#AA4141;" d="M264,309.499V285c0-34.462,28.037-62.5,62.5-62.5S389,250.538,389,285v24.499h-15V285
		c0-26.191-21.309-47.5-47.5-47.5S279,258.809,279,285v24.499H264z"/>
	<path style="fill:#AA4141;" d="M421.313,290v222H373.98V290H421.313z M231.687,512h47.333V290h-47.333L231.687,512L231.687,512z"/>
</g>
<g>
</g>
<g>
</g>
<g>
</g>
<g>
</g>
<g>
</g>
<g>
</g>
<g>
</g>
<g>
</g>
<g>
</g>
<g>
</g>
<g>
</g>
<g>
</g>
<g>
</g>
<g>
</g>
<g>
</g>
</svg>
