<?xml version="1.0" encoding="iso-8859-1"?>
<!-- Generator: Adobe Illustrator 19.0.0, SVG Export Plug-In . SVG Version: 6.00 Build 0)  -->
<svg version="1.1" id="Capa_1" xmlns="http://www.w3.org/2000/svg" xmlns:xlink="http://www.w3.org/1999/xlink" x="0px" y="0px"
	 viewBox="0 0 512 512" style="enable-background:new 0 0 512 512;" xml:space="preserve">
<path style="fill:#FFCF65;" d="M389.762,0h18.396c1.217,0,2.423,0.227,3.556,0.671l30.761,12.032
	c2.189,0.856,3.995,2.473,5.088,4.554l20.373,38.812c1.311,2.498,3.638,4.306,6.383,4.96l11.182,2.662
	c2.848,0.678,5.849,0.042,8.177-1.731l2.643-2.014c2.328-1.774,5.33-2.409,8.177-1.731l0,0c4.398,1.047,7.501,4.976,7.501,9.497
	v77.523c0,3.008-1.386,5.847-3.758,7.697l-14.485,11.3c-2.371,1.85-3.758,4.69-3.758,7.697v24.7c0,3.026-1.403,5.881-3.799,7.729
	l-41.227,31.805c-3.03,2.337-7.145,2.689-10.528,0.9l-8.161-4.317c-3.194-1.689-7.06-1.477-10.049,0.553l-20.595,13.985
	c-2.52,1.711-4.097,4.501-4.264,7.543l-1.162,21.241c-0.138,2.523,0.707,5.001,2.359,6.913l45.053,52.181
	c1.531,1.773,2.373,4.037,2.373,6.38v54.582c0,2.489-0.951,4.884-2.658,6.695l-60.422,64.113c-1.845,1.957-4.415,3.067-7.104,3.067
	h-65.772c-2.589,0-5.072-1.029-6.903-2.859l-24.281-24.281c-1.831-1.831-4.314-2.859-6.903-2.859H217.04
	c-1.961,0-3.876-0.591-5.497-1.695l-37.277-25.399c-2.669-1.818-4.265-4.839-4.265-8.068v-40.795c0-2.589,1.029-5.072,2.859-6.903
	l14.281-14.281c1.831-1.831,2.859-4.314,2.859-6.903v-26.194c0-5.392-4.371-9.762-9.762-9.762h-28.653
	c-1.049,0-2.092,0.169-3.087,0.501l-26.994,8.998c-0.995,0.332-2.038,0.501-3.087,0.501h-16.412c-1.322,0-2.63-0.269-3.846-0.789
	l-62.241-26.675c-3.589-1.538-5.917-5.068-5.917-8.973v-52.206c0-1.549-0.369-3.076-1.076-4.455L10.62,181.209
	c-0.411-0.802-0.709-1.657-0.886-2.54l-9.544-47.72c-0.126-0.63-0.19-1.272-0.19-1.915V89.762C0,84.371,4.371,80,9.762,80h47.22
	c1.965,0,3.885-0.593,5.508-1.702l55.018-37.596c1.623-1.109,3.542-1.702,5.508-1.702h26.696c3.814,0,7.278,2.221,8.87,5.686
	l15.373,33.451c0.565,1.229,1.379,2.327,2.391,3.225l40.821,36.225c1.822,1.617,2.974,3.857,3.229,6.279l2.92,27.723
	c0.428,4.068,3.347,7.437,7.312,8.441l38.192,9.672c0.783,0.198,1.588,0.299,2.397,0.299h25.563c2.092,0,4.128-0.672,5.809-1.916
	l49.989-37.008c0.96-0.711,2.043-1.239,3.194-1.559l27.081-7.529c4.224-1.174,7.148-5.021,7.148-9.406V84.044
	c0-2.589-1.029-5.072-2.859-6.903L372.861,62.86c-1.831-1.831-2.859-4.314-2.859-6.903V34.044c0-2.589,1.029-5.072,2.859-6.903
	l4.281-4.281c1.831-1.831,2.859-4.314,2.859-6.903V9.762C380,4.371,384.371,0,389.762,0z"/>
<path style="fill:#FFB450;" d="M512,67.711v77.523c0,3.008-1.386,5.847-3.758,7.697l-14.485,11.3
	c-2.371,1.85-3.758,4.69-3.758,7.697v24.699c0,3.026-1.403,5.881-3.799,7.729l-41.227,31.805c-3.03,2.337-7.145,2.689-10.528,0.9
	l-8.161-4.317c-3.194-1.689-7.06-1.477-10.049,0.553l-20.595,13.985c-2.52,1.711-4.097,4.501-4.263,7.543l-1.162,21.241
	c-0.138,2.523,0.707,5.001,2.359,6.913l45.053,52.181c1.531,1.773,2.373,4.037,2.373,6.38v54.583c0,2.489-0.951,4.884-2.658,6.696
	l-60.422,64.113c-1.845,1.957-4.415,3.067-7.104,3.067H320l75.342-73.304c1.707-1.812,2.658-4.207,2.658-6.696v-35.956
	c0-2.342-0.842-4.607-2.373-6.38l-45.053-52.181c-1.651-1.912-2.497-4.391-2.359-6.913L349.378,230
	c0.166-3.042,1.743-5.831,4.264-7.543l11.933-8.103c0.82-0.557,1.787-0.857,2.778-0.863L398,213.308
	c1.775-0.181,3.503-0.838,4.974-1.973l41.227-31.805c2.396-1.848,3.799-4.703,3.799-7.729v-24.699c0-3.008,1.386-5.847,3.758-7.697
	l14.485-11.3c2.371-1.85,3.758-4.69,3.758-7.697V58.729c1.211,1.107,2.688,1.911,4.319,2.299l11.182,2.662
	c2.848,0.678,5.849,0.042,8.178-1.732l2.38-1.813c2.254-1.717,5.122-2.548,7.911-2.043C508.645,58.95,512,63.011,512,67.711z"/>
<path style="fill:#FF4B4B;" d="M131.782,505.825L61.487,356.708c-15.918-33.768-8.929-73.893,17.468-100.291l0,0
	c34.553-34.553,90.574-34.553,125.127,0l0,0c26.397,26.397,33.386,66.523,17.468,100.291l-70.295,149.117
	C147.375,514.058,135.663,514.058,131.782,505.825z"/>
<path style="fill:#C83741;" d="M113.954,348.208L113.954,348.208c-15.224-15.224-15.224-39.906,0-55.13l0,0
	c15.224-15.224,39.906-15.224,55.13,0l0,0c15.224,15.224,15.224,39.906,0,55.13l0,0C153.86,363.432,129.178,363.432,113.954,348.208
	z"/>
<g>
</g>
<g>
</g>
<g>
</g>
<g>
</g>
<g>
</g>
<g>
</g>
<g>
</g>
<g>
</g>
<g>
</g>
<g>
</g>
<g>
</g>
<g>
</g>
<g>
</g>
<g>
</g>
<g>
</g>
</svg>
