<?xml version="1.0" encoding="iso-8859-1"?>
<!-- Generator: Adobe Illustrator 19.0.0, SVG Export Plug-In . SVG Version: 6.00 Build 0)  -->
<svg version="1.1" id="Capa_1" xmlns="http://www.w3.org/2000/svg" xmlns:xlink="http://www.w3.org/1999/xlink" x="0px" y="0px"
	 viewBox="0 0 512 512" style="enable-background:new 0 0 512 512;" xml:space="preserve">
<path style="fill:#FFCF65;" d="M384.706,235.382c5.782,31.975-10.033,63.971-38.992,78.883L291.856,342l-15.058-83.273
	l102.66-26.688C381.85,231.417,384.267,232.957,384.706,235.382L384.706,235.382z M27.182,235.382L27.182,235.382
	c-5.782,31.976,10.033,63.971,38.992,78.884L120.032,342l15.058-83.273L32.43,232.039C30.038,231.417,27.621,232.957,27.182,235.382
	z M445.872,80l24.077-24C480.053,45.928,486,30.12,486,13.333C486,5.969,481.509,0,475.968,0H435.84
	c-33.243,0-60.191,35.817-60.191,80l0,0c0,44.183,26.949,80,60.191,80h40.128c5.54,0,10.032-5.969,10.032-13.333
	c0-16.787-5.947-32.594-16.051-42.667L445.872,80z"/>
<path style="fill:#FFB450;" d="M206.068,462c-50.043,0-90.611-40.439-90.611-90.322V300.71C115.457,168.874,222.672,62,354.928,62
	l0,0c16.393,0,32.399,1.646,47.864,4.778c15.481,3.135,19.114,23.515,5.754,31.917c-67.214,42.27-111.867,116.939-111.867,202.014
	v70.968C296.679,421.561,256.111,462,206.068,462L206.068,462z"/>
<path style="fill:#FFCF65;" d="M187.662,204.364c-0.396-2.397-0.612-4.855-0.612-7.364c0-24.853,20.211-45,45.144-45
	c24.933,0,45.144,20.147,45.144,45c0,19.818-12.858,36.632-30.707,42.636c0.396,2.397,0.612,4.855,0.612,7.364
	c0,24.853-20.211,45-45.144,45s-45.144-20.147-45.144-45C156.955,227.182,169.813,210.368,187.662,204.364z"/>
<path style="fill:#FF9744;" d="M203.738,371.678V300.71c0-116.794,84.15-213.981,195.306-234.642
	c1.251,0.233,2.504,0.459,3.748,0.711c15.481,3.135,19.114,23.515,5.754,31.917c-67.214,42.27-111.867,116.939-111.867,202.014
	v70.968c0,33.908-18.748,63.446-46.47,78.892C222.485,435.124,203.738,405.585,203.738,371.678z"/>
<path style="fill:#FF8235;" d="M115.457,415.176v-78.652c9.18-2.934,18.964-4.524,29.122-4.524c22.829,0,43.78,8.005,60.191,21.348
	C221.182,340.005,242.133,332,264.962,332c11.121,0,21.794,1.905,31.717,5.395v77.126c0,29.269-16.035,56.201-41.809,70.223
	l-14.362,7.813c0.436,1.404,0.672,2.895,0.672,4.442c0,8.284-6.737,15-15.048,15h-40.128c-8.311,0-15.048-6.716-15.048-15
	c0-1.267,0.175-2.491,0.472-3.666l-15.014-8.405C131.117,470.767,115.457,444.097,115.457,415.176z"/>
<path style="fill:#FFE1B3;" d="M144.582,410c0,16.568-8.983,30-20.064,30s-20.064-13.432-20.064-30c0-16.569,8.983-30,20.064-30
	S144.582,393.431,144.582,410z M287.37,380c-11.081,0-20.064,13.431-20.064,30c0,16.568,8.983,30,20.064,30s20.064-13.432,20.064-30
	C307.433,393.431,298.45,380,287.37,380z"/>
<path style="fill:#FC5422;" d="M279.845,414.25v-8.5c0-4.142,3.369-7.5,7.524-7.5s7.524,3.358,7.524,7.5v8.5
	c0,4.142-3.369,7.5-7.524,7.5S279.845,418.392,279.845,414.25z M124.518,421.75c4.155,0,7.524-3.358,7.524-7.5v-8.5
	c0-4.142-3.369-7.5-7.524-7.5s-7.524,3.358-7.524,7.5v8.5C116.994,418.392,120.363,421.75,124.518,421.75z M295.897,470.455
	L253.214,454.5c-8.316-3.109-13.904-11.146-13.904-20c0-4.142-3.369-7.5-7.524-7.5s-7.524,3.358-7.524,7.5
	c0,15.071,9.512,28.753,23.669,34.045l42.683,15.955c8.316,3.109,13.904,11.146,13.904,20c0,4.142,3.369,7.5,7.524,7.5
	s7.524-3.358,7.524-7.5C319.565,489.429,310.054,475.747,295.897,470.455z M180.349,427c-4.155,0-7.524,3.358-7.524,7.5
	c0,8.854-5.588,16.891-13.904,20l-42.683,15.955c-14.157,5.292-23.669,18.974-23.669,34.045c0,4.142,3.369,7.5,7.524,7.5
	s7.524-3.358,7.524-7.5c0-8.854,5.588-16.891,13.904-20l42.683-15.955c14.157-5.292,23.669-18.974,23.669-34.045
	C187.873,430.358,184.505,427,180.349,427z"/>
<g>
</g>
<g>
</g>
<g>
</g>
<g>
</g>
<g>
</g>
<g>
</g>
<g>
</g>
<g>
</g>
<g>
</g>
<g>
</g>
<g>
</g>
<g>
</g>
<g>
</g>
<g>
</g>
<g>
</g>
</svg>
