<?xml version="1.0" encoding="iso-8859-1"?>
<!-- Generator: Adobe Illustrator 19.0.0, SVG Export Plug-In . SVG Version: 6.00 Build 0)  -->
<svg version="1.1" id="Capa_1" xmlns="http://www.w3.org/2000/svg" xmlns:xlink="http://www.w3.org/1999/xlink" x="0px" y="0px"
	 viewBox="0 0 512 512" style="enable-background:new 0 0 512 512;" xml:space="preserve">
<path style="fill:#B4826E;" d="M390,404v46c0,16.569-13.431,30-30,30h-20c-16.569,0-30-13.431-30-30v-56h70
	C385.523,394,390,398.477,390,404z M78,0H58C41.431,0,28,13.431,28,30v46c0,5.523,4.477,10,10,10h70V30C108,13.431,94.569,0,78,0z"
	/>
<path style="fill:#FFEBBE;" d="M360,480h-30H118c-16.569,0-30-13.431-30-30V30C88,13.431,74.569,0,58,0h30h212
	c16.569,0,30,13.431,30,30v420C330,466.569,343.431,480,360,480z"/>
<path style="fill:#FFE1B3;" d="M360,480h-30c-16.569,0-30-13.431-30-30V30c0-16.569-13.431-30-30-30h30c16.569,0,30,13.431,30,30
	v420C330,466.569,343.431,480,360,480z"/>
<path style="fill:#FFB450;" d="M98.245,413.755L98.245,413.755c-3.859-3.859-4.321-9.958-1.087-14.354l102.214-138.955
	c10.339-14.056,32.345-14.031,54.525-2.343c11.689,22.179,11.713,44.185-2.343,54.524L112.598,414.842
	C108.202,418.076,102.103,417.614,98.245,413.755z"/>
<path style="fill:#963737;" d="M251.553,312.629l-16.226,11.936l-47.891-47.891l11.936-16.226
	c4.807-6.535,12.138-10.022,20.835-10.713L493.889,2.578c3.952-3.569,10.008-3.415,13.773,0.351l1.409,1.409
	c3.765,3.765,3.92,9.821,0.351,13.773L262.266,291.794C261.576,300.49,258.088,307.821,251.553,312.629z"/>
<path style="fill:#CF4036;" d="M263.039,210.854l38.108,38.108l-5.691,6.27c-14.052,15.481-26.507,32.329-37.336,50.214
	c-1.678,2.772-3.861,5.194-6.566,7.183l-16.226,11.936l-47.891-47.891l11.936-16.226c1.989-2.704,4.41-4.886,7.181-6.564
	c17.884-10.831,34.734-23.284,50.216-37.337L263.039,210.854z"/>
<path style="fill:#916050;" d="M11.5,492v-40H210v40c0,11.046-8.954,20-20,20H31.5C20.454,512,11.5,503.046,11.5,492z"/>
<path style="fill:#B4826E;" d="M203.528,382c4.052,0,7.702,2.445,9.254,6.188c5.623,13.563,8.718,28.342,8.718,43.812
	c0,17.857-4.123,34.793-11.498,50H11.498C4.123,466.793,0,449.857,0,432c0-15.47,3.094-30.249,8.718-43.812
	C10.27,384.445,13.92,382,17.972,382H203.528z"/>
<g>
	<path style="fill:#504B5A;" d="M178.167,390v40c0,11.046-8.954,20-20,20s-20-8.954-20-20v-12.698
		c-2.944,1.706-6.353,2.698-10,2.698c-11.046,0-20-8.954-20-20v-10c0-2.846,0.604-5.549,1.675-8h66.649
		C177.563,384.451,178.167,387.154,178.167,390z"/>
	<path style="fill:#504B5A;" d="M152.5,190c0,4.143-3.358,7.5-7.5,7.5h-10c-4.142,0-7.5-3.357-7.5-7.5s3.358-7.5,7.5-7.5h10
		C149.142,182.5,152.5,185.857,152.5,190z M145,122.5h-10c-4.142,0-7.5,3.357-7.5,7.5c0,4.143,3.358,7.5,7.5,7.5h10
		c4.142,0,7.5-3.357,7.5-7.5S149.142,122.5,145,122.5z M145,92.5h-10c-4.142,0-7.5,3.357-7.5,7.5s3.358,7.5,7.5,7.5h10
		c4.142,0,7.5-3.357,7.5-7.5S149.142,92.5,145,92.5z M145,62.5h-10c-4.142,0-7.5,3.357-7.5,7.5s3.358,7.5,7.5,7.5h10
		c4.142,0,7.5-3.357,7.5-7.5S149.142,62.5,145,62.5z M270,377.5h10c4.142,0,7.5-3.357,7.5-7.5s-3.358-7.5-7.5-7.5h-10
		c-4.142,0-7.5,3.357-7.5,7.5S265.858,377.5,270,377.5z M145,212.5h-10c-4.142,0-7.5,3.357-7.5,7.5s3.358,7.5,7.5,7.5h10
		c4.142,0,7.5-3.357,7.5-7.5S149.142,212.5,145,212.5z M280,392.5h-10c-4.142,0-7.5,3.357-7.5,7.5s3.358,7.5,7.5,7.5h10
		c4.142,0,7.5-3.357,7.5-7.5S284.142,392.5,280,392.5z M195,62.5h-10c-4.142,0-7.5,3.357-7.5,7.5s3.358,7.5,7.5,7.5h10
		c4.142,0,7.5-3.357,7.5-7.5S199.142,62.5,195,62.5z M195,32.5h-10c-4.142,0-7.5,3.357-7.5,7.5s3.358,7.5,7.5,7.5h10
		c4.142,0,7.5-3.357,7.5-7.5S199.142,32.5,195,32.5z M280,422.5h-10c-4.142,0-7.5,3.357-7.5,7.5s3.358,7.5,7.5,7.5h10
		c4.142,0,7.5-3.357,7.5-7.5S284.142,422.5,280,422.5z M195,92.5h-10c-4.142,0-7.5,3.357-7.5,7.5s3.358,7.5,7.5,7.5h10
		c4.142,0,7.5-3.357,7.5-7.5S199.142,92.5,195,92.5z M195,182.5h-10c-4.142,0-7.5,3.357-7.5,7.5s3.358,7.5,7.5,7.5h10
		c4.142,0,7.5-3.357,7.5-7.5S199.142,182.5,195,182.5z M195,152.5h-10c-4.142,0-7.5,3.357-7.5,7.5s3.358,7.5,7.5,7.5h10
		c4.142,0,7.5-3.357,7.5-7.5S199.142,152.5,195,152.5z"/>
</g>
<g>
</g>
<g>
</g>
<g>
</g>
<g>
</g>
<g>
</g>
<g>
</g>
<g>
</g>
<g>
</g>
<g>
</g>
<g>
</g>
<g>
</g>
<g>
</g>
<g>
</g>
<g>
</g>
<g>
</g>
</svg>
