<?xml version="1.0" encoding="iso-8859-1"?>
<!-- Generator: Adobe Illustrator 19.0.0, SVG Export Plug-In . SVG Version: 6.00 Build 0)  -->
<svg version="1.1" id="Capa_1" xmlns="http://www.w3.org/2000/svg" xmlns:xlink="http://www.w3.org/1999/xlink" x="0px" y="0px"
	 viewBox="0 0 512 512" style="enable-background:new 0 0 512 512;" xml:space="preserve">
<path style="fill:#E6AF78;" d="M439.058,492H108.767c-5.523,0-10-4.477-10-10V40c0-5.523,4.477-10,10-10h330.291
	c5.523,0,10,4.477,10,10v442C449.058,487.523,444.581,492,439.058,492z"/>
<path style="fill:#F0C087;" d="M401.243,512H70.951c-5.523,0-10-4.477-10-10V60c0-5.523,4.477-10,10-10h330.291
	c5.523,0,10,4.477,10,10v442C411.243,507.523,406.766,512,401.243,512z"/>
<path style="fill:#FFEBBE;" d="M416.218,54.167V145c0,2.761-2.228,5-4.976,5H308.384c-1.32,0-2.585-0.527-3.518-1.464
	l-18.049-18.137c-1.943-1.953-5.094-1.953-7.037,0l-18.049,18.137c-0.933,0.938-2.199,1.464-3.518,1.464H142.331
	c-1.32,0-2.585-0.527-3.518-1.464l-8.098-8.137c-1.943-1.953-5.094-1.953-7.037,0l-8.098,8.137
	c-0.933,0.938-2.199,1.464-3.518,1.464H60.951c-2.748,0-4.976-2.239-4.976-5V54.167c0-2.301,2.291-4.167,5.117-4.167h350.009
	C413.927,50,416.218,51.866,416.218,54.167z"/>
<path style="fill:#963737;" d="M456,100H95.806c-2.761,0-5-2.239-5-5V35c0-2.761,2.239-5,5-5H456c2.761,0,5,2.239,5,5v60
	C461,97.761,458.761,100,456,100z"/>
<path style="fill:#AA4141;" d="M421.194,35v60c0,2.761-2.228,5-4.976,5H55.976C53.228,100,51,97.761,51,95V35
	c0-2.761,2.228-5,4.976-5h87.075v-2.5v-0.078c-0.012-3.807,3.079-6.922,6.868-6.922h1.388c3.624,0,6.609,2.908,6.668,6.549
	c0.002,0.15,0.004,0.301,0.004,0.451V30h223.908v-2.5c0-0.026,0-0.052,0-0.078c-0.023-3.787,2.888-6.922,6.657-6.922h1.599
	c3.623,0,6.609,2.908,6.668,6.549c0.002,0.15,0.004,0.301,0.004,0.451V30h19.405C418.966,30,421.194,32.239,421.194,35z"/>
<path style="fill:#FF4B4B;" d="M355.515,320c0,66.274-53.465,120-119.417,120S116.68,386.274,116.68,320s53.465-120,119.417-120
	S355.515,253.726,355.515,320z"/>
<path style="fill:#FF9744;" d="M300.399,320c0,35.686-28.789,64.615-64.302,64.615S171.795,355.686,171.795,320
	s28.789-64.615,64.302-64.615S300.399,284.314,300.399,320z"/>
<path style="fill:#FFCF65;" d="M396.813,27.5V30h-14.927v-2.5c0-6.893-5.58-12.5-12.439-12.5s-12.439,5.607-12.439,12.5v50
	c0,4.143-3.341,7.5-7.464,7.5s-7.464-3.357-7.464-7.5v-50c0-15.163,12.277-27.5,27.366-27.5C384.536,0,396.813,12.337,396.813,27.5z
	 M130.612,0c-15.089,0-27.366,12.337-27.366,27.5v50c0,4.143,3.341,7.5,7.464,7.5c4.122,0,7.464-3.357,7.464-7.5v-50
	c0-6.893,5.58-12.5,12.439-12.5s12.439,5.607,12.439,12.5V30h14.927v-2.5C157.978,12.337,145.701,0,130.612,0z"/>
<path style="fill:#963737;" d="M243.561,64v2c0,4.143-3.341,7.5-7.464,7.5s-7.464-3.357-7.464-7.5v-2c0-4.143,3.341-7.5,7.464-7.5
	S243.561,59.857,243.561,64z"/>
<path style="fill:#FFCF65;" d="M272.841,320c0,20.392-16.451,36.923-36.744,36.923S199.353,340.392,199.353,320
	s16.451-36.923,36.744-36.923S272.841,299.608,272.841,320z"/>
<path style="fill:#963737;" d="M386.862,450c0,4.143-3.341,7.5-7.464,7.5h-9.951c-4.122,0-7.464-3.357-7.464-7.5
	s3.341-7.5,7.464-7.5h9.951C383.521,442.5,386.862,445.857,386.862,450z M100.757,172.5h-9.951c-4.122,0-7.464,3.357-7.464,7.5
	s3.341,7.5,7.464,7.5h9.951c4.122,0,7.464-3.357,7.464-7.5S104.88,172.5,100.757,172.5z M100.757,202.5h-9.951
	c-4.122,0-7.464,3.357-7.464,7.5s3.341,7.5,7.464,7.5h9.951c4.122,0,7.464-3.357,7.464-7.5S104.88,202.5,100.757,202.5z
	 M379.398,472.5h-9.951c-4.122,0-7.464,3.357-7.464,7.5s3.341,7.5,7.464,7.5h9.951c4.122,0,7.464-3.357,7.464-7.5
	S383.521,472.5,379.398,472.5z M369.447,427.5h9.951c4.122,0,7.464-3.357,7.464-7.5s-3.341-7.5-7.464-7.5h-9.951
	c-4.122,0-7.464,3.357-7.464,7.5S365.324,427.5,369.447,427.5z M362.978,320c0,70.304-56.919,127.5-126.881,127.5
	S109.216,390.304,109.216,320s56.919-127.5,126.881-127.5S362.978,249.696,362.978,320z M336.553,270.379l-34.93,20.265
	c3.029,6.8,5.055,14.145,5.851,21.855h40.322C346.807,297.468,342.867,283.235,336.553,270.379z M298.395,226.572l-20.167,35.1
	c6.101,4.462,11.475,9.862,15.915,15.992l34.929-20.265C320.935,245.235,310.499,234.749,298.395,226.572z M243.561,248.275
	c7.674,0.8,14.983,2.836,21.75,5.88l20.167-35.101c-12.793-6.345-26.957-10.304-41.917-11.298V248.275z M186.718,219.054
	l20.167,35.101c6.767-3.043,14.076-5.079,21.749-5.879v-40.52C213.674,208.75,199.511,212.709,186.718,219.054z M143.122,257.399
	l34.93,20.265c4.44-6.13,9.814-11.53,15.915-15.992l-20.167-35.1C161.695,234.748,151.26,245.235,143.122,257.399z M124.398,312.5
	h40.323c0.796-7.711,2.822-15.056,5.851-21.856l-34.93-20.265C129.327,283.235,125.388,297.468,124.398,312.5z M135.641,369.621
	l34.93-20.265c-3.029-6.8-5.055-14.145-5.851-21.856h-40.323C125.388,342.532,129.327,356.765,135.641,369.621z M173.8,413.429
	l20.167-35.1c-6.101-4.462-11.475-9.862-15.915-15.992l-34.93,20.265C151.26,394.765,161.695,405.252,173.8,413.429z
	 M228.633,391.725c-7.673-0.8-14.982-2.836-21.749-5.879l-20.167,35.101c12.793,6.345,26.957,10.303,41.916,11.298L228.633,391.725
	L228.633,391.725z M236.097,377.115c31.341,0,56.839-25.622,56.839-57.115s-25.498-57.115-56.839-57.115
	c-31.34,0-56.838,25.622-56.838,57.115S204.757,377.115,236.097,377.115z M285.477,420.946l-20.167-35.101
	c-6.767,3.043-14.076,5.079-21.75,5.879v40.52C258.52,431.25,272.684,427.291,285.477,420.946z M329.072,382.601l-34.929-20.265
	c-4.44,6.13-9.814,11.53-15.915,15.992l20.167,35.1C310.499,405.251,320.935,394.765,329.072,382.601z M347.796,327.5h-40.322
	c-0.796,7.711-2.822,15.056-5.851,21.855l34.93,20.265C342.867,356.765,346.807,342.532,347.796,327.5z M280.305,320
	c0,24.495-19.832,44.423-44.208,44.423S191.89,344.495,191.89,320s19.831-44.423,44.207-44.423S280.305,295.505,280.305,320z
	 M265.378,320c0-16.224-13.135-29.423-29.281-29.423c-16.145,0-29.28,13.199-29.28,29.423s13.135,29.423,29.28,29.423
	C252.243,349.423,265.378,336.224,265.378,320z"/>
<g>
</g>
<g>
</g>
<g>
</g>
<g>
</g>
<g>
</g>
<g>
</g>
<g>
</g>
<g>
</g>
<g>
</g>
<g>
</g>
<g>
</g>
<g>
</g>
<g>
</g>
<g>
</g>
<g>
</g>
</svg>
