<?xml version="1.0" encoding="iso-8859-1"?>
<!-- Generator: Adobe Illustrator 19.0.0, SVG Export Plug-In . SVG Version: 6.00 Build 0)  -->
<svg version="1.1" id="Capa_1" xmlns="http://www.w3.org/2000/svg" xmlns:xlink="http://www.w3.org/1999/xlink" x="0px" y="0px"
	 viewBox="0 0 512 512" style="enable-background:new 0 0 512 512;" xml:space="preserve">
<path style="fill:#8CE16E;" d="M259.185,305.912c-1.918,0-3.838-0.732-5.302-2.197l-43.872-43.882h-89.916
	c-4.141,0-7.498-3.358-7.498-7.5c0-4.142,3.357-7.5,7.498-7.5h74.92L74.098,123.887c-2.928-2.929-2.928-7.678,0-10.606
	c2.928-2.929,7.676-2.929,10.604,0l179.785,179.828c2.928,2.929,2.928,7.678,0,10.606
	C263.023,305.179,261.104,305.912,259.185,305.912z M438.026,193.281c-2.929-2.929-7.676-2.929-10.605,0l-74.983,75.001
	c-23.592,23.598-50.657,43.188-80.443,58.228l-13.459,6.795c-3.696,1.866-5.181,6.377-3.315,10.075
	c1.319,2.614,3.959,4.122,6.7,4.122c1.136,0,2.289-0.259,3.373-0.806l13.459-6.795c31.21-15.758,59.57-36.286,84.29-61.012
	l74.983-75.001C440.954,200.958,440.954,196.209,438.026,193.281z"/>
<path style="fill:#7DB764;" d="M162.049,5.564l-14.408,129.754c-1.284,11.565-13.998,18.888-30.699,19.532
	c-14.142-8.911-21.491-21.612-16.823-32.269L152.502,3.005C154.8-2.241,162.681-0.129,162.049,5.564z M412.005,202.582
	L359.622,83.005c-2.298-5.246-10.179-3.134-9.547,2.559l14.408,129.754c1.284,11.565,13.997,18.888,30.699,19.532
	C409.325,225.94,416.674,213.239,412.005,202.582z"/>
<g>
	<path style="fill:#8CE16E;" d="M1.145,47.3c-3.393-4.614,2.376-10.384,6.989-6.99l105.139,77.358
		c9.371,6.895,9.354,21.569,1.562,36.359c-14.786,7.794-29.457,7.811-36.35-1.562L1.145,47.3z M133.278,227.727L4.246,247.389
		c-5.661,0.863-5.661,9.023,0,9.886l129.032,19.662c11.5,1.752,21.862-8.636,26.808-24.605
		C155.14,236.363,144.778,225.975,133.278,227.727z M503.99,120.31l-105.139,77.358c-9.371,6.895-9.355,21.569-1.562,36.359
		c14.786,7.794,29.457,7.811,36.35-1.562l77.34-105.165C514.372,122.686,508.603,116.916,503.99,120.31z"/>
	<path style="fill:#8CE16E;" d="M271.059,512h-29.993V0h29.993V512z"/>
</g>
<path style="fill:#7DB764;" d="M227.194,15c0-8.284,6.714-15,14.996-15h27.743c8.282,0,14.996,6.716,14.996,15s-6.714,15-14.996,15
	H242.19C233.908,30,227.194,23.284,227.194,15z M269.934,482H242.19c-8.282,0-14.996,6.716-14.996,15s6.714,15,14.996,15h27.743
	c8.282,0,14.996-6.716,14.996-15C284.93,488.716,278.216,482,269.934,482z M269.934,321.333H242.19c-8.282,0-14.996,6.716-14.996,15
	s6.714,15,14.996,15h27.743c8.282,0,14.996-6.716,14.996-15S278.216,321.333,269.934,321.333z M269.934,160.667H242.19
	c-8.282,0-14.996,6.716-14.996,15l0,0c0,8.284,6.714,15,14.996,15h27.743c8.282,0,14.996-6.716,14.996-15l0,0
	C284.93,167.382,278.216,160.667,269.934,160.667z"/>
<g>
</g>
<g>
</g>
<g>
</g>
<g>
</g>
<g>
</g>
<g>
</g>
<g>
</g>
<g>
</g>
<g>
</g>
<g>
</g>
<g>
</g>
<g>
</g>
<g>
</g>
<g>
</g>
<g>
</g>
</svg>
