<?xml version="1.0" encoding="iso-8859-1"?>
<!-- Generator: Adobe Illustrator 19.0.0, SVG Export Plug-In . SVG Version: 6.00 Build 0)  -->
<svg version="1.1" id="Capa_1" xmlns="http://www.w3.org/2000/svg" xmlns:xlink="http://www.w3.org/1999/xlink" x="0px" y="0px"
	 viewBox="0 0 512 512" style="enable-background:new 0 0 512 512;" xml:space="preserve">
<path style="fill:#FFB450;" d="M313,7.5v110c0,4.142-3.357,7.5-7.5,7.5s-7.5-3.358-7.5-7.5V7.5c0-4.142,3.357-7.5,7.5-7.5
	S313,3.358,313,7.5z M382.5,0c-4.143,0-7.5,3.358-7.5,7.5v110c0,4.142,3.357,7.5,7.5,7.5s7.5-3.358,7.5-7.5V7.5
	C390,3.358,386.643,0,382.5,0z M440,0c-4.143,0-7.5,3.358-7.5,7.5v290c0,4.142,3.357,7.5,7.5,7.5s7.5-3.358,7.5-7.5V7.5
	C447.5,3.358,444.143,0,440,0z M413.833,240c-4.143,0-7.5,3.358-7.5,7.5v50c0,4.142,3.357,7.5,7.5,7.5s7.5-3.358,7.5-7.5v-50
	C421.333,243.358,417.976,240,413.833,240z M466.167,240c-4.143,0-7.5,3.358-7.5,7.5v50c0,4.142,3.357,7.5,7.5,7.5
	s7.5-3.358,7.5-7.5v-50C473.667,243.358,470.31,240,466.167,240z"/>
<path style="fill:#C83741;" d="M187.383,300v140c0,4.142-3.357,7.5-7.5,7.5s-7.5-3.358-7.5-7.5V300c0-4.142,3.357-7.5,7.5-7.5
	S187.383,295.858,187.383,300z M57.5,243h-50c-4.143,0-7.5,3.358-7.5,7.5s3.357,7.5,7.5,7.5h50c4.143,0,7.5-3.358,7.5-7.5
	S61.643,243,57.5,243z M57.5,423h-50c-4.143,0-7.5,3.358-7.5,7.5s3.357,7.5,7.5,7.5h50c4.143,0,7.5-3.358,7.5-7.5
	S61.643,423,57.5,423z"/>
<path style="fill:#FFCF65;" d="M244.883,10v295.076c0,3.105-1.442,6.033-3.903,7.926l-55,42.308c-3.595,2.765-8.6,2.765-12.194,0
	l-55-42.308c-2.461-1.893-3.903-4.822-3.903-7.926V10c0-5.523,4.477-10,10-10h110C240.406,0,244.883,4.477,244.883,10z"/>
<g>
	<path style="fill:#FFB450;" d="M244.883,10v295.076c0,3.105-1.442,6.033-3.903,7.926l-41.43,31.869v-39.796V101.333V10
		c0-5.523-4.477-10-10-10h45.333C240.406,0,244.883,4.477,244.883,10z"/>
	<path style="fill:#FFB450;" d="M35,434.5v70c0,4.142-3.357,7.5-7.5,7.5s-7.5-3.358-7.5-7.5v-70c0-4.142,3.357-7.5,7.5-7.5
		S35,430.358,35,434.5z M53.75,427c-4.143,0-7.5,3.358-7.5,7.5v70c0,4.142,3.357,7.5,7.5,7.5s7.5-3.358,7.5-7.5v-70
		C61.25,430.358,57.893,427,53.75,427z M80,427c-4.143,0-7.5,3.358-7.5,7.5v70c0,4.142,3.357,7.5,7.5,7.5s7.5-3.358,7.5-7.5v-70
		C87.5,430.358,84.143,427,80,427z M106.25,427c-4.143,0-7.5,3.358-7.5,7.5v70c0,4.142,3.357,7.5,7.5,7.5s7.5-3.358,7.5-7.5v-70
		C113.75,430.358,110.393,427,106.25,427z M132.5,427c-4.143,0-7.5,3.358-7.5,7.5v70c0,4.142,3.357,7.5,7.5,7.5s7.5-3.358,7.5-7.5
		v-70C140,430.358,136.643,427,132.5,427z"/>
</g>
<path style="fill:#FF8235;" d="M154.883,65c0-13.807,11.193-25,25-25s25,11.193,25,25s-11.193,25-25,25S154.883,78.807,154.883,65z
	 M179.883,130c-13.807,0-25,11.193-25,25s11.193,25,25,25s25-11.193,25-25S193.69,130,179.883,130z"/>
<path style="fill:#FF4B4B;" d="M199.883,400c0,11.046-8.954,20-20,20s-20-8.954-20-20s8.954-20,20-20
	C190.928,380,199.883,388.954,199.883,400z"/>
<path style="fill:#963737;" d="M140,220v250c0,5.523-4.477,10-10,10H30c-5.523,0-10-4.477-10-10V220c0-5.523,4.477-10,10-10h100
	C135.523,210,140,214.477,140,220z"/>
<path style="fill:#C83741;" d="M101,210v270H30c-5.523,0-10-4.477-10-10V220c0-5.523,4.477-10,10-10H101z"/>
<path style="fill:#FF8235;" d="M187.383,220v90c0,4.142-3.357,7.5-7.5,7.5s-7.5-3.358-7.5-7.5v-90c0-4.142,3.357-7.5,7.5-7.5
	S187.383,215.858,187.383,220z"/>
<path style="fill:#FFCF65;" d="M380,400h-72c-5.523,0-10-4.477-10-10V60c0-5.523,4.477-10,10-10h72c5.523,0,10,4.477,10,10v330
	C390,395.523,385.523,400,380,400z"/>
<path style="fill:#FFB450;" d="M380,400h-36.667V50H380c5.523,0,10,4.477,10,10v330C390,395.523,385.523,400,380,400z"/>
<path style="fill:#FF8235;" d="M455,220h-30c-5.523,0-10-4.477-10-10v-80c0-5.523,4.477-10,10-10h30c5.523,0,10,4.477,10,10v80
	C465,215.523,460.523,220,455,220z"/>
<path style="fill:#FF4B4B;" d="M512,190v20c0,22.091-17.909,40-40,40h-64c-22.091,0-40-17.909-40-40v-20c0-22.091,17.909-40,40-40
	h64C494.091,150,512,167.909,512,190z M360,512h116.062V352H360V512z"/>
<path style="fill:#D24A4A;" d="M512,190v20c0,22.091-17.909,40-40,40h-44c22.091,0,40-17.909,40-40v-20c0-22.091-17.909-40-40-40h44
	C494.091,150,512,167.909,512,190z M446.062,512h30V352h-30V512z"/>
<g>
	<path style="fill:#963737;" d="M443.031,432.5c0,13.807-11.193,25-25,25s-25-11.193-25-25s11.193-25,25-25
		S443.031,418.693,443.031,432.5z"/>
	<path style="fill:#963737;" d="M400.844,387.5c0-4.142,3.357-7.5,7.5-7.5h19.375c4.143,0,7.5,3.358,7.5,7.5s-3.357,7.5-7.5,7.5
		h-19.375C404.201,395,400.844,391.642,400.844,387.5z M427.719,470h-19.375c-4.143,0-7.5,3.358-7.5,7.5s3.357,7.5,7.5,7.5h19.375
		c4.143,0,7.5-3.358,7.5-7.5S431.861,470,427.719,470z"/>
</g>
<path style="fill:#FF8235;" d="M326.813,80c0-4.142,3.357-7.5,7.5-7.5h19.375c4.143,0,7.5,3.358,7.5,7.5s-3.357,7.5-7.5,7.5h-19.375
	C330.17,87.5,326.813,84.142,326.813,80z M353.688,102.5h-19.375c-4.143,0-7.5,3.358-7.5,7.5s3.357,7.5,7.5,7.5h19.375
	c4.143,0,7.5-3.358,7.5-7.5S357.83,102.5,353.688,102.5z M353.688,132.5h-19.375c-4.143,0-7.5,3.358-7.5,7.5s3.357,7.5,7.5,7.5
	h19.375c4.143,0,7.5-3.358,7.5-7.5S357.83,132.5,353.688,132.5z M353.688,252.5h-19.375c-4.143,0-7.5,3.358-7.5,7.5
	s3.357,7.5,7.5,7.5h19.375c4.143,0,7.5-3.358,7.5-7.5S357.83,252.5,353.688,252.5z M353.688,282.5h-19.375
	c-4.143,0-7.5,3.358-7.5,7.5s3.357,7.5,7.5,7.5h19.375c4.143,0,7.5-3.358,7.5-7.5S357.83,282.5,353.688,282.5z M353.688,312.5
	h-19.375c-4.143,0-7.5,3.358-7.5,7.5s3.357,7.5,7.5,7.5h19.375c4.143,0,7.5-3.358,7.5-7.5S357.83,312.5,353.688,312.5z"/>
<path style="fill:#FFCF65;" d="M102.5,450c0,4.142-3.357,7.5-7.5,7.5H65c-4.143,0-7.5-3.358-7.5-7.5s3.357-7.5,7.5-7.5h30
	C99.143,442.5,102.5,445.858,102.5,450z M107.5,250v20c0,9.649-7.851,17.5-17.5,17.5H70c-9.649,0-17.5-7.851-17.5-17.5v-20
	c0-9.649,7.851-17.5,17.5-17.5h20C99.649,232.5,107.5,240.351,107.5,250z M92.5,250c0-1.378-1.121-2.5-2.5-2.5H70
	c-1.379,0-2.5,1.122-2.5,2.5v20c0,1.378,1.121,2.5,2.5,2.5h20c1.379,0,2.5-1.122,2.5-2.5V250z M107.5,320v20
	c0,9.649-7.851,17.5-17.5,17.5H70c-9.649,0-17.5-7.851-17.5-17.5v-20c0-9.649,7.851-17.5,17.5-17.5h20
	C99.649,302.5,107.5,310.351,107.5,320z M92.5,320c0-1.378-1.121-2.5-2.5-2.5H70c-1.379,0-2.5,1.122-2.5,2.5v20
	c0,1.378,1.121,2.5,2.5,2.5h20c1.379,0,2.5-1.122,2.5-2.5V320z M107.5,390v20c0,9.649-7.851,17.5-17.5,17.5H70
	c-9.649,0-17.5-7.851-17.5-17.5v-20c0-9.649,7.851-17.5,17.5-17.5h20C99.649,372.5,107.5,380.351,107.5,390z M92.5,390
	c0-1.378-1.121-2.5-2.5-2.5H70c-1.379,0-2.5,1.122-2.5,2.5v20c0,1.378,1.121,2.5,2.5,2.5h20c1.379,0,2.5-1.122,2.5-2.5V390z"/>
<path style="fill:#FF9744;" d="M512,504.5c0,4.142-3.357,7.5-7.5,7.5h-162c-4.143,0-7.5-3.358-7.5-7.5s3.357-7.5,7.5-7.5h162
	C508.643,497,512,500.358,512,504.5z M342.5,365h162c4.143,0,7.5-3.358,7.5-7.5s-3.357-7.5-7.5-7.5h-162c-4.143,0-7.5,3.358-7.5,7.5
	S338.357,365,342.5,365z"/>
<g>
</g>
<g>
</g>
<g>
</g>
<g>
</g>
<g>
</g>
<g>
</g>
<g>
</g>
<g>
</g>
<g>
</g>
<g>
</g>
<g>
</g>
<g>
</g>
<g>
</g>
<g>
</g>
<g>
</g>
</svg>
