<?xml version="1.0" encoding="iso-8859-1"?>
<!-- Generator: Adobe Illustrator 19.0.0, SVG Export Plug-In . SVG Version: 6.00 Build 0)  -->
<svg version="1.1" id="Capa_1" xmlns="http://www.w3.org/2000/svg" xmlns:xlink="http://www.w3.org/1999/xlink" x="0px" y="0px"
	 viewBox="0 0 512 512" style="enable-background:new 0 0 512 512;" xml:space="preserve">
<path style="fill:#FFCF65;" d="M431,161v160c0,11.046-8.954,20-20,20H101c-11.046,0-20-8.954-20-20V161c0-11.046,8.954-20,20-20
	h164.038c0.398-10.695,9.17-19.25,19.962-19.25s19.564,8.555,19.962,19.25H411C422.046,141,431,149.954,431,161z"/>
<path style="fill:#FFB450;" d="M431,161v160c0,11.046-8.954,20-20,20h-33.333c11.046,0,20-8.954,20-20V161c0-11.046-8.954-20-20-20
	H411C422.046,141,431,149.954,431,161z"/>
<path style="fill:#FF9744;" d="M512,336v24.333H0V336c0-2.761,2.239-5,5-5h55c-5.523,0-10-4.477-10-10v-50c0-5.523,4.477-10,10-10
	h50c5.523,0,10,4.477,10,10v50c0,5.523-4.477,10-10,10h397C509.761,331,512,333.239,512,336z"/>
<path style="fill:#FF8235;" d="M147.574,348.782l-35.355-35.355c-3.905-3.905-3.905-10.237,0-14.142l35.355-35.355
	c3.905-3.905,10.237-3.905,14.142,0l35.355,35.355c3.905,3.905,3.905,10.237,0,14.142l-35.355,35.355
	C157.81,352.687,151.479,352.687,147.574,348.782z"/>
<path style="fill:#D5945E;" d="M154,366v40c0,2.761-2.239,5-5,5H66c-2.761,0-5-2.239-5-5v-40c0-2.761,2.239-5,5-5h83
	C151.761,361,154,363.239,154,366z M446,361h-83c-2.761,0-5,2.239-5,5v40c0,2.761,2.239,5,5,5h83c2.761,0,5-2.239,5-5v-40
	C451,363.239,448.761,361,446,361z"/>
<path style="fill:#E6AF78;" d="M507,381H5c-2.761,0-5-2.239-5-5v-40c0-2.761,2.239-5,5-5h502c2.761,0,5,2.239,5,5v40
	C512,378.761,509.761,381,507,381z"/>
<path style="fill:#D5945E;" d="M512,336v40c0,2.761-2.239,5-5,5h-30c2.761,0,5-2.239,5-5v-40c0-2.761-2.239-5-5-5h30
	C509.761,331,512,333.239,512,336z"/>
<path style="fill:#916050;" d="M320,121c0,11.046-8.954,20-20,20s-20-8.954-20-20s8.954-20,20-20S320,109.954,320,121z"/>
<path style="fill:#A06E5F;" d="M400,121c0,11.046-8.954,20-20,20s-20-8.954-20-20s8.954-20,20-20S400,109.954,400,121z M270,101
	c-11.046,0-20,8.954-20,20s8.954,20,20,20s20-8.954,20-20S281.046,101,270,101z"/>
<path style="fill:#FF9744;" d="M247.5,181c0,4.143-3.357,7.5-7.5,7.5h-10c-4.143,0-7.5-3.357-7.5-7.5s3.357-7.5,7.5-7.5h10
	C244.143,173.5,247.5,176.857,247.5,181z M150,203.5h-10c-4.143,0-7.5,3.357-7.5,7.5s3.357,7.5,7.5,7.5h10
	c4.143,0,7.5-3.357,7.5-7.5S154.143,203.5,150,203.5z M280,283.5h-10c-4.143,0-7.5,3.357-7.5,7.5s3.357,7.5,7.5,7.5h10
	c4.143,0,7.5-3.357,7.5-7.5S284.143,283.5,280,283.5z M430,173.5h-10c-4.143,0-7.5,3.357-7.5,7.5s3.357,7.5,7.5,7.5h10
	c0.34,0,0.672-0.03,1-0.074v-14.852C430.672,173.53,430.34,173.5,430,173.5z M91,173.5H81v15h10c4.143,0,7.5-3.357,7.5-7.5
	S95.143,173.5,91,173.5z M340,223.5h-10c-4.143,0-7.5,3.357-7.5,7.5s3.357,7.5,7.5,7.5h10c4.143,0,7.5-3.357,7.5-7.5
	S344.143,223.5,340,223.5z M370,213.5h-10c-4.143,0-7.5,3.357-7.5,7.5s3.357,7.5,7.5,7.5h10c4.143,0,7.5-3.357,7.5-7.5
	S374.143,213.5,370,213.5z"/>
<g>
</g>
<g>
</g>
<g>
</g>
<g>
</g>
<g>
</g>
<g>
</g>
<g>
</g>
<g>
</g>
<g>
</g>
<g>
</g>
<g>
</g>
<g>
</g>
<g>
</g>
<g>
</g>
<g>
</g>
</svg>
