<?xml version="1.0" encoding="iso-8859-1"?>
<!-- Generator: Adobe Illustrator 19.0.0, SVG Export Plug-In . SVG Version: 6.00 Build 0)  -->
<svg version="1.1" id="Capa_1" xmlns="http://www.w3.org/2000/svg" xmlns:xlink="http://www.w3.org/1999/xlink" x="0px" y="0px"
	 viewBox="0 0 512 512" style="enable-background:new 0 0 512 512;" xml:space="preserve">
<path style="fill:#E6C8A0;" d="M480,70v163c0,11.046-8.954,20-20,20H128c-11.046,0-20-8.954-20-20V70c0-11.046,8.954-20,20-20h332
	C471.046,50,480,58.954,480,70z"/>
<path style="fill:#FFEBBE;" d="M512,20v163c0,11.046-8.954,20-20,20H160c-11.046,0-20-8.954-20-20c0,11.046-8.954,20-20,20H80
	c-11.046,0-20-8.954-20-20V20C60,8.954,68.954,0,80,0h40c11.046,0,20,8.954,20,20c0-11.046,8.954-20,20-20h332
	C503.046,0,512,8.954,512,20z"/>
<path style="fill:#FFE1B3;" d="M512,20v163c0,11.046-8.954,20-20,20h-30c11.046,0,20-8.954,20-20V20c0-11.046-8.954-20-20-20h30
	C503.046,0,512,8.954,512,20z"/>
<path style="fill:#C5AB8C;" d="M182.5,40c0-4.142,3.357-7.5,7.5-7.5h100c4.143,0,7.5,3.358,7.5,7.5s-3.357,7.5-7.5,7.5H190
	C185.857,47.5,182.5,44.142,182.5,40z M210,62.5h-20c-4.143,0-7.5,3.358-7.5,7.5s3.357,7.5,7.5,7.5h20c4.143,0,7.5-3.358,7.5-7.5
	S214.143,62.5,210,62.5z M210,102.5h-20c-4.143,0-7.5,3.358-7.5,7.5s3.357,7.5,7.5,7.5h20c4.143,0,7.5-3.358,7.5-7.5
	S214.143,102.5,210,102.5z M290,102.5h-40c-4.143,0-7.5,3.358-7.5,7.5s3.357,7.5,7.5,7.5h40c4.143,0,7.5-3.358,7.5-7.5
	S294.143,102.5,290,102.5z"/>
<path style="fill:#A06E5F;" d="M466.496,69.252c-2.07-3.588-6.657-4.817-10.244-2.749l-9.479,5.469l-7.083-17.956
	c0.045-0.333,0.077-0.671,0.077-1.016V43c0-4.142-3.357-7.5-7.5-7.5s-7.5,3.358-7.5,7.5v2.5h-58.493V43c0-4.142-3.357-7.5-7.5-7.5
	s-7.5,3.358-7.5,7.5v8.574l-8.047,20.397l-9.479-5.469c-3.589-2.07-8.176-0.84-10.244,2.749c-2.07,3.588-0.84,8.174,2.748,10.245
	l15.6,9c1.14,0.657,2.433,1.003,3.748,1.003h14.751c-0.098,0.485-0.151,0.986-0.151,1.5v10.5H356c-4.143,0-7.5,3.358-7.5,7.5
	s3.357,7.5,7.5,7.5h4.2v39h-19.8c-4.143,0-7.5,3.358-7.5,7.5s3.357,7.5,7.5,7.5h109.2c4.143,0,7.5-3.358,7.5-7.5s-3.357-7.5-7.5-7.5
	h-19.8v-39h4.2c4.143,0,7.5-3.358,7.5-7.5s-3.357-7.5-7.5-7.5h-4.2V91c0-0.514-0.052-1.015-0.151-1.5h12.994
	c0.009,0,0.017,0.002,0.026,0.002c0.014,0,0.028-0.002,0.042-0.002h1.689c1.315,0,2.608-0.346,3.748-1.003l15.6-9
	C467.336,77.426,468.566,72.84,466.496,69.252z M358.354,74.5l5.523-14h62.246l5.523,14H358.354z M414.8,155.5h-39.6v-39h39.6V155.5
	z M414.8,91v10.5h-39.6V91c0-0.514-0.052-1.015-0.151-1.5h39.901C414.852,89.985,414.8,90.486,414.8,91z"/>
<path style="fill:#FFB450;" d="M140,20v163c0,11.046-8.954,20-20,20H80c-11.046,0-20-8.954-20-20V20C60,8.954,68.954,0,80,0h40
	C131.046,0,140,8.954,140,20z"/>
<path style="fill:#FF8235;" d="M82.813,30c0-4.142,3.357-7.5,7.5-7.5h19.375c4.143,0,7.5,3.358,7.5,7.5s-3.357,7.5-7.5,7.5H90.313
	C86.17,37.5,82.813,34.142,82.813,30z M109.688,52.5H90.313c-4.143,0-7.5,3.358-7.5,7.5s3.357,7.5,7.5,7.5h19.375
	c4.143,0,7.5-3.358,7.5-7.5S113.83,52.5,109.688,52.5z M109.688,72.5H90.313c-4.143,0-7.5,3.358-7.5,7.5s3.357,7.5,7.5,7.5h19.375
	c4.143,0,7.5-3.358,7.5-7.5S113.83,72.5,109.688,72.5z M109.688,102.5H90.313c-4.143,0-7.5,3.358-7.5,7.5s3.357,7.5,7.5,7.5h19.375
	c4.143,0,7.5-3.358,7.5-7.5S113.83,102.5,109.688,102.5z"/>
<path style="fill:#FF4B4B;" d="M280,162v330c0,11.046-8.954,20-20,20H10c-5.523,0-10-4.477-10-10V152c0-5.523,4.477-10,10-10h250
	C271.046,142,280,150.954,280,162z"/>
<g>
	<path style="fill:#D24A4A;" d="M280,162v330c0,11.046-8.954,20-20,20h-30c11.046,0,20-8.954,20-20V162c0-11.046-8.954-20-20-20h30
		C271.046,142,280,150.954,280,162z"/>
	<path style="fill:#D24A4A;" d="M47.5,142v370h-15V142H47.5z"/>
</g>
<path style="fill:#FFCF65;" d="M150,307.5c31.706,0,57.5-25.794,57.5-57.5s-25.794-57.5-57.5-57.5S92.5,218.294,92.5,250
	S118.294,307.5,150,307.5z M150,207.5c23.435,0,42.5,19.065,42.5,42.5s-19.065,42.5-42.5,42.5s-42.5-19.065-42.5-42.5
	S126.565,207.5,150,207.5z M150,282.5c17.921,0,32.5-14.58,32.5-32.5s-14.579-32.5-32.5-32.5s-32.5,14.58-32.5,32.5
	S132.079,282.5,150,282.5z M150,232.5c9.649,0,17.5,7.851,17.5,17.5c0,9.649-7.851,17.5-17.5,17.5s-17.5-7.851-17.5-17.5
	S140.351,232.5,150,232.5z M217.5,360c0,4.142-3.357,7.5-7.5,7.5H90c-4.143,0-7.5-3.358-7.5-7.5s3.357-7.5,7.5-7.5h120
	C214.143,352.5,217.5,355.858,217.5,360z M192.5,390c0,4.142-3.357,7.5-7.5,7.5h-70c-4.143,0-7.5-3.358-7.5-7.5s3.357-7.5,7.5-7.5
	h70C189.143,382.5,192.5,385.858,192.5,390z M167.5,470c0,4.142-3.357,7.5-7.5,7.5h-20c-4.143,0-7.5-3.358-7.5-7.5
	s3.357-7.5,7.5-7.5h20C164.143,462.5,167.5,465.858,167.5,470z"/>
<g>
</g>
<g>
</g>
<g>
</g>
<g>
</g>
<g>
</g>
<g>
</g>
<g>
</g>
<g>
</g>
<g>
</g>
<g>
</g>
<g>
</g>
<g>
</g>
<g>
</g>
<g>
</g>
<g>
</g>
</svg>
