<?xml version="1.0" encoding="iso-8859-1"?>
<!-- Generator: Adobe Illustrator 19.0.0, SVG Export Plug-In . SVG Version: 6.00 Build 0)  -->
<svg version="1.1" id="Capa_1" xmlns="http://www.w3.org/2000/svg" xmlns:xlink="http://www.w3.org/1999/xlink" x="0px" y="0px"
	 viewBox="0 0 512 512" style="enable-background:new 0 0 512 512;" xml:space="preserve">
<path style="fill:#E6C8A0;" d="M230,160h272c5.523,0,10,4.477,10,10v160c0,66.274-53.726,120-120,120h-52
	c-66.274,0-120-53.726-120-120V170C220,164.477,224.477,160,230,160z"/>
<path style="fill:#D2B48C;" d="M512,170v160c0,66.274-53.726,120-120,120h-43.333c66.274,0,120-53.726,120-120V160H502
	C507.523,160,512,164.477,512,170z"/>
<g>
	<path style="fill:#B4826E;" d="M466,250c0,11.046-8.954,20-20,20s-20-8.954-20-20c0-11.046,8.954-20,20-20S466,238.954,466,250z
		 M366,230c-11.046,0-20,8.954-20,20c0,11.046,8.954,20,20,20s20-8.954,20-20C386,238.954,377.046,230,366,230z M286,230
		c-11.046,0-20,8.954-20,20c0,11.046,8.954,20,20,20s20-8.954,20-20C306,238.954,297.046,230,286,230z"/>
	<path style="fill:#B4826E;" d="M512,192.5v15H220v-15H512z M220,307.5h292v-15H220V307.5z"/>
</g>
<path style="fill:#7DC86E;" d="M220.86,512c-50.371,0-94.076-22.51-116-55.5c21.924-32.99,65.629-55.5,116-55.5
	s94.076,22.51,116,55.5C314.936,489.49,271.231,512,220.86,512z"/>
<path style="fill:#8CE16E;" d="M202.056,391.353c-35.618,35.618-82.438,50.605-121.269,42.78
	c-7.825-38.831,7.162-85.651,42.78-121.269s82.438-50.605,121.269-42.78C252.661,308.914,237.674,355.735,202.056,391.353z"/>
<g>
	<path style="fill:#7DB764;" d="M187.803,339.026L67.246,459.583c-1.464,1.464-3.384,2.197-5.303,2.197s-3.839-0.732-5.303-2.197
		c-2.929-2.929-2.929-7.678,0-10.606L177.197,328.42c2.929-2.929,7.678-2.929,10.606,0
		C190.732,331.349,190.732,336.098,187.803,339.026z"/>
	<path style="fill:#7DB764;" d="M261.861,456.5c0,4.142-3.358,7.5-7.5,7.5H87.208c-25.649,0-50.549-7.425-72.01-21.471
		l-11.804-7.726c-3.466-2.269-4.437-6.917-2.168-10.383c2.268-3.466,6.917-4.437,10.383-2.168l11.804,7.726
		C42.424,442.422,64.484,449,87.208,449h167.153C258.503,449,261.861,452.358,261.861,456.5z"/>
</g>
<path style="fill:#DCDBDE;" d="M397.5,57.5c0,14.9-5.803,28.908-16.338,39.445l-1.718,1.717
	c-7.702,7.702-11.944,17.944-11.944,28.837v10c0,4.142-3.357,7.5-7.5,7.5s-7.5-3.358-7.5-7.5v-10c0-14.9,5.803-28.908,16.338-39.445
	l1.718-1.717C378.258,78.635,382.5,68.394,382.5,57.5s-4.242-21.136-11.945-28.839l-15.857-15.858
	c-2.93-2.929-2.93-7.677-0.001-10.606c2.93-2.929,7.679-2.93,10.606,0l15.858,15.858C391.697,28.591,397.5,42.6,397.5,57.5z M420,40
	c-4.143,0-7.5,3.358-7.5,7.5v20c0,10.894-4.242,21.136-11.944,28.838l-1.718,1.717C388.303,108.591,382.5,122.6,382.5,137.5
	c0,4.142,3.357,7.5,7.5,7.5s7.5-3.358,7.5-7.5c0-10.894,4.242-21.136,11.944-28.838l1.718-1.717
	C421.697,96.408,427.5,82.4,427.5,67.5v-20C427.5,43.358,424.143,40,420,40z"/>
<g>
</g>
<g>
</g>
<g>
</g>
<g>
</g>
<g>
</g>
<g>
</g>
<g>
</g>
<g>
</g>
<g>
</g>
<g>
</g>
<g>
</g>
<g>
</g>
<g>
</g>
<g>
</g>
<g>
</g>
</svg>
